<?xml version="1.0" standalone="no"?>
<!DOCTYPE svg PUBLIC "-//W3C//DTD SVG 20010904//EN"
 "http://www.w3.org/TR/2001/REC-SVG-20010904/DTD/svg10.dtd">
<svg version="1.0" xmlns="http://www.w3.org/2000/svg"
 width="1702.000000pt" height="1702.000000pt" viewBox="0 0 1702.000000 1702.000000"
 preserveAspectRatio="xMidYMid meet">
<metadata>
Created by potrace 1.11, written by Peter Selinger 2001-2013
</metadata>
<g transform="translate(0.000000,1702.000000) scale(0.100000,-0.100000)"
fill="#000000" stroke="none">
<path d="M3 9030 c0 -1138 3 -2071 6 -2071 16 -4 378 -5 388 -1 9 3 11 394 8
1638 -1 899 -2 1634 0 1632 7 -8 107 -198 395 -753 40 -77 96 -185 125 -240
29 -55 92 -176 140 -270 48 -93 106 -206 130 -250 49 -92 136 -259 255 -490
46 -88 87 -165 92 -172 6 -7 40 -11 95 -10 l86 2 42 80 c154 299 223 430 260
500 23 44 82 157 130 250 48 94 109 211 135 260 26 50 85 162 130 250 46 88
100 192 120 230 21 39 72 138 115 220 113 218 207 399 212 405 2 2 3 -607 1
-1355 -2 -748 0 -1380 4 -1405 52 -360 269 -580 574 -582 61 0 89 3 167 18 11
2 22 5 24 8 3 2 -6 62 -20 133 -14 70 -28 147 -32 171 -8 47 -26 62 -75 62
-17 0 -47 9 -68 19 -74 38 -120 109 -153 239 -19 75 -20 119 -19 1815 l0 1737
-203 0 -203 0 -47 -92 c-26 -51 -89 -174 -140 -273 -175 -337 -301 -580 -340
-655 -21 -41 -60 -115 -86 -165 -25 -49 -95 -184 -155 -300 -60 -115 -128
-246 -151 -290 -23 -44 -91 -174 -151 -290 -59 -115 -119 -231 -133 -257 -30
-58 -17 -73 -146 177 -154 300 -233 452 -290 560 -29 55 -90 172 -135 260 -45
88 -109 210 -140 270 -32 61 -99 191 -150 290 -51 99 -109 212 -130 250 -48
89 -241 463 -254 492 -11 23 -14 23 -212 23 l-201 0 0 -2070z"/>
<path d="M10329 11010 c-2 -8 -7 -884 -13 -2210 -5 -1183 -3 -1296 25 -1386 5
-17 12 -41 14 -54 7 -34 60 -144 93 -192 115 -167 306 -261 542 -269 61 -2
183 11 193 20 6 6 -48 340 -56 347 -1 1 -37 5 -79 8 -176 14 -275 90 -330 253
l-22 68 -2 1700 c-2 935 -3 1705 -3 1710 -1 10 -360 15 -362 5z"/>
<path d="M6629 10755 c0 -5 -2 -174 -4 -375 -1 -201 -3 -368 -4 -371 -1 -3
-102 -6 -226 -5 l-225 1 0 -191 0 -191 220 0 c121 0 223 -3 226 -6 4 -3 5
-163 4 -354 -6 -1033 -6 -1711 1 -1738 4 -16 10 -49 13 -72 3 -22 15 -70 26
-105 95 -284 336 -449 655 -449 39 1 84 3 100 6 70 13 85 17 81 24 -6 8 -11
33 -31 151 -30 170 -36 190 -59 191 -172 6 -250 38 -323 130 -36 45 -68 122
-79 190 -8 49 -12 2017 -4 2028 3 3 131 6 285 6 l280 0 2 188 c2 139 -1 187
-10 188 -7 1 -131 3 -277 4 -146 1 -270 3 -275 4 -7 1 -10 129 -10 372 0 204
-2 374 -5 378 -8 11 -360 8 -361 -4z"/>
<path d="M16444 10375 c-81 -22 -134 -54 -205 -125 -74 -73 -114 -148 -193
-356 -26 -66 -60 -142 -76 -168 l-31 -48 -57 49 c-86 74 -121 97 -197 135
-173 86 -340 123 -560 122 -345 -1 -618 -89 -817 -265 -139 -121 -244 -335
-274 -559 -3 -25 -8 -54 -10 -65 -6 -27 -6 -274 0 -283 2 -4 7 -32 10 -62 16
-139 72 -281 165 -417 70 -102 75 -130 36 -197 -13 -23 -53 -65 -88 -93 -122
-98 -176 -219 -178 -398 -1 -119 34 -232 116 -375 39 -69 29 -106 -73 -245
-89 -123 -140 -266 -136 -385 12 -399 284 -626 844 -704 200 -28 755 -29 920
-2 14 3 43 7 65 10 90 12 124 18 219 43 342 89 536 258 607 530 32 125 30 310
-7 433 -101 342 -422 536 -974 587 -78 7 -297 8 -680 4 -218 -3 -333 13 -420
57 -30 15 -63 40 -74 55 -28 38 -26 110 3 141 28 30 115 59 216 72 22 3 54 7
70 10 17 2 131 6 255 9 311 7 412 13 490 31 14 3 38 8 54 11 15 2 63 16 105
29 345 113 582 360 672 701 26 99 34 331 15 448 -11 64 -44 200 -72 295 -4 13
10 15 83 15 195 1 333 29 470 95 135 66 243 183 269 290 11 46 13 205 3 250
-34 154 -168 286 -334 328 -58 15 -172 13 -231 -3z m185 -299 c94 -49 114
-174 40 -247 -60 -58 -148 -89 -272 -93 -79 -3 -76 -17 -33 127 43 141 89 208
155 225 42 10 73 7 110 -12z m-1234 -505 c244 -64 406 -225 461 -456 17 -73
22 -215 10 -300 -39 -277 -196 -457 -461 -528 -102 -27 -170 -34 -435 -41
-130 -4 -254 -17 -314 -32 -20 -5 -21 -1 -21 83 0 101 -8 126 -78 236 -63 100
-112 212 -133 306 -20 90 -14 276 11 361 65 215 224 340 490 385 121 20 369
13 470 -14z m-784 -2365 c54 -8 140 -11 235 -8 315 9 670 3 749 -12 11 -2 43
-7 70 -10 218 -30 372 -123 443 -268 74 -152 59 -315 -41 -420 -69 -73 -228
-151 -362 -178 -28 -5 -61 -12 -75 -15 -14 -3 -45 -8 -70 -11 -25 -3 -52 -7
-60 -9 -25 -7 -250 -18 -344 -17 -504 3 -793 96 -865 278 -23 61 -23 146 2
219 10 28 44 86 77 130 73 98 95 162 95 271 l-1 81 31 -9 c16 -5 69 -15 116
-22z"/>
<path d="M8708 9995 c-2 -1 -33 -5 -71 -9 -176 -16 -418 -110 -605 -234 -65
-42 -76 -51 -144 -110 l-49 -42 48 -52 c26 -29 57 -62 68 -73 11 -12 48 -52
83 -89 40 -43 67 -64 75 -60 6 5 39 29 72 54 110 85 211 139 346 184 98 32
134 38 256 41 214 5 356 -45 478 -169 107 -108 147 -206 140 -338 -5 -81 -37
-144 -100 -190 -45 -34 -151 -80 -215 -94 -59 -12 -181 -33 -226 -39 -27 -3
-63 -8 -80 -10 -17 -2 -57 -7 -90 -10 -182 -19 -429 -89 -554 -158 -89 -49
-110 -65 -195 -147 -301 -290 -335 -841 -74 -1187 180 -237 455 -353 849 -356
560 -6 881 141 1040 474 78 164 95 290 94 679 0 140 -4 334 -8 430 -4 96 -9
222 -11 280 -4 112 -14 279 -20 320 -2 14 -6 48 -10 75 -44 369 -283 661 -635
778 -41 13 -95 28 -120 32 -25 4 -54 9 -65 12 -23 5 -272 12 -277 8z m749
-1518 c10 -243 11 -720 2 -767 -41 -213 -230 -380 -469 -415 -25 -4 -58 -9
-75 -11 -44 -8 -256 -8 -290 0 -17 3 -46 8 -65 11 -299 47 -471 237 -473 520
-2 264 140 439 414 510 92 24 99 26 214 40 28 3 64 8 80 10 17 2 62 7 100 10
198 19 402 69 500 124 28 15 52 26 55 23 3 -2 6 -27 7 -55z"/>
<path d="M12367 9983 c-1 -1 -34 -4 -72 -7 -39 -3 -81 -8 -95 -11 -14 -2 -38
-7 -55 -11 -236 -46 -472 -196 -616 -390 -98 -133 -205 -387 -234 -553 -3 -19
-7 -37 -9 -40 -4 -7 -12 -52 -21 -126 -4 -27 -8 -61 -10 -74 -26 -160 -20
-617 10 -761 3 -14 7 -43 11 -65 9 -67 55 -235 87 -320 179 -474 555 -731
1067 -729 525 2 895 257 1089 752 22 54 58 175 67 222 3 14 9 41 14 60 5 19
12 58 16 85 3 28 8 58 10 68 28 149 21 607 -12 797 -3 19 -8 47 -9 62 -7 50
-43 193 -70 273 -38 113 -85 211 -141 296 -27 40 -53 79 -59 87 -25 38 -150
154 -204 191 -98 67 -240 132 -320 147 -14 3 -28 7 -32 10 -12 7 -101 22 -175
29 -64 6 -234 12 -237 8z m170 -387 c404 -26 633 -285 688 -781 4 -33 10 -88
14 -122 8 -70 6 -479 -3 -533 -3 -19 -8 -55 -11 -80 -3 -25 -7 -52 -10 -60 -2
-8 -6 -31 -9 -50 -9 -63 -56 -212 -90 -285 -114 -248 -291 -386 -536 -420 -48
-7 -208 -7 -245 0 -105 19 -147 30 -205 52 -346 136 -514 521 -504 1153 5 257
24 410 76 585 98 334 319 520 648 542 41 3 77 7 78 9 2 1 9 1 15 -1 7 -2 49
-6 94 -9z"/>
<path d="M4849 9976 c-2 -2 -29 -6 -60 -9 -558 -59 -944 -529 -1025 -1247 -3
-25 -7 -58 -9 -75 -5 -41 -6 -424 -1 -455 3 -14 7 -52 11 -85 3 -33 15 -104
26 -159 135 -672 576 -1042 1249 -1048 368 -4 722 145 1018 426 34 32 62 63
62 67 0 5 -7 17 -15 26 -8 10 -53 65 -100 123 -47 58 -90 107 -95 108 -6 2
-41 -25 -79 -60 -160 -148 -386 -267 -586 -307 -69 -14 -238 -11 -332 5 -312
54 -527 206 -657 461 -76 151 -105 308 -72 387 8 18 29 45 48 60 36 27 139 68
199 80 19 3 45 8 59 11 14 3 54 8 90 11 36 3 81 7 100 9 19 2 98 5 175 6 434
6 744 81 934 224 155 118 229 276 237 505 7 241 -72 457 -229 626 -146 157
-317 245 -572 294 -54 11 -367 24 -376 16z m361 -391 c339 -103 521 -457 358
-697 -61 -90 -178 -147 -353 -173 -22 -4 -51 -8 -65 -11 -14 -2 -108 -7 -210
-9 -433 -12 -516 -14 -536 -19 -12 -2 -44 -7 -73 -11 -28 -3 -81 -15 -117 -25
l-65 -18 6 47 c11 82 15 104 41 209 107 435 344 673 711 718 26 3 50 7 52 10
10 10 201 -6 251 -21z"/>
</g>
</svg>
