<?xml version="1.0" standalone="no"?>
<!DOCTYPE svg PUBLIC "-//W3C//DTD SVG 20010904//EN"
 "http://www.w3.org/TR/2001/REC-SVG-20010904/DTD/svg10.dtd">
<svg version="1.0" xmlns="http://www.w3.org/2000/svg"
 width="260.000000pt" height="260.000000pt" viewBox="0 0 260.000000 260.000000"
 preserveAspectRatio="xMidYMid meet">
<metadata>
Created by potrace 1.11, written by Peter Selinger 2001-2013
</metadata>
<g transform="translate(0.000000,260.000000) scale(0.100000,-0.100000)"
fill="#000000" stroke="none">
<path d="M1140 2591 c0 -3 -12 -7 -27 -8 -54 -3 -78 -7 -88 -13 -5 -4 -18 -6
-27 -5 -10 2 -18 0 -18 -4 0 -4 -8 -8 -17 -9 -10 -1 -27 -4 -38 -6 -11 -2 -24
-5 -28 -5 -5 -1 -6 -5 -3 -10 3 -4 -6 -7 -19 -5 -14 1 -25 -2 -25 -7 0 -6 -4
-7 -10 -4 -5 3 -10 1 -10 -5 0 -6 -4 -9 -9 -5 -5 3 -13 0 -16 -6 -4 -5 -13 -8
-21 -5 -8 3 -14 2 -14 -2 0 -5 -21 -18 -47 -30 -63 -29 -117 -62 -121 -73 -2
-5 -8 -7 -13 -4 -5 4 -20 -5 -34 -19 -14 -14 -25 -22 -25 -19 0 4 -7 -2 -15
-13 -8 -10 -15 -16 -15 -12 0 3 -23 -16 -52 -43 -28 -27 -55 -49 -60 -49 -4 0
-8 -7 -8 -16 0 -8 -4 -12 -10 -9 -5 3 -10 3 -10 -2 0 -4 -20 -30 -45 -58 -25
-27 -45 -56 -45 -63 0 -7 -4 -11 -9 -8 -5 4 -15 -7 -22 -23 -7 -16 -16 -28
-20 -25 -4 2 -10 -9 -14 -26 -4 -16 -10 -30 -14 -30 -8 0 -45 -71 -43 -82 1
-5 -3 -8 -8 -8 -6 0 -10 -9 -10 -19 0 -11 -5 -21 -10 -23 -6 -2 -12 -14 -15
-28 -3 -14 -9 -26 -15 -28 -6 -2 -8 -7 -5 -12 3 -4 -4 -29 -15 -55 -11 -26
-18 -51 -14 -56 3 -5 0 -9 -6 -9 -7 0 -10 -7 -7 -15 4 -8 2 -17 -3 -20 -5 -3
-7 -14 -5 -25 2 -11 0 -20 -6 -20 -5 0 -9 -5 -9 -11 0 -5 6 -7 13 -3 6 4 5 -1
-5 -12 -11 -13 -14 -29 -11 -48 4 -19 2 -27 -5 -22 -11 7 -11 -12 1 -31 4 -6
3 -14 -2 -17 -5 -3 -7 -67 -5 -143 4 -157 7 -194 18 -211 4 -7 2 -12 -6 -12
-10 0 -10 -2 0 -8 7 -5 14 -23 15 -40 1 -18 4 -32 7 -32 3 0 7 -8 8 -17 4 -35
8 -53 15 -59 4 -4 7 -16 7 -26 0 -10 4 -18 8 -18 4 0 8 -10 9 -22 1 -11 7 -24
13 -28 7 -4 11 -10 9 -14 -4 -11 24 -76 33 -76 4 0 5 -7 2 -15 -4 -8 -1 -15 5
-15 6 0 11 -9 11 -20 0 -11 5 -19 11 -18 6 2 13 -6 15 -17 1 -11 8 -21 13 -23
6 -2 11 -10 11 -17 0 -7 13 -27 29 -44 15 -16 26 -33 23 -35 -3 -3 3 -8 12
-12 9 -3 16 -10 16 -16 0 -5 11 -20 25 -34 14 -14 25 -29 25 -34 0 -6 7 -10
15 -10 8 0 15 -4 15 -10 0 -10 36 -50 45 -50 3 0 18 -14 33 -30 16 -17 33 -30
38 -30 5 0 17 -8 26 -18 28 -29 46 -41 52 -35 3 4 6 -1 6 -11 0 -9 5 -14 10
-11 6 3 10 1 10 -5 0 -6 5 -8 10 -5 5 3 10 1 10 -5 0 -6 4 -8 10 -5 5 3 10 1
10 -5 0 -6 14 -16 30 -21 17 -6 30 -16 30 -22 0 -6 3 -7 6 -4 4 3 16 1 28 -5
11 -7 23 -13 26 -13 3 -1 23 -10 45 -20 81 -37 99 -43 107 -39 4 3 8 1 8 -5 0
-6 6 -8 14 -5 8 3 17 0 21 -5 3 -6 11 -9 16 -6 5 4 15 3 22 -2 6 -4 23 -9 36
-11 14 -2 33 -8 43 -13 13 -7 18 -6 18 3 0 8 3 9 8 3 4 -6 14 -10 22 -10 8 1
21 -4 29 -9 12 -9 13 -8 6 4 -7 12 -6 13 6 4 19 -15 252 -17 243 -2 -5 7 -2 8
7 2 16 -10 99 -13 93 -3 -2 4 4 10 13 13 9 4 20 2 23 -5 6 -8 9 -8 14 0 4 6
12 9 17 6 5 -4 9 -2 9 4 0 5 9 8 20 6 11 -2 22 1 25 6 4 5 11 7 16 4 5 -4 9
-2 9 2 0 5 13 8 30 7 16 -1 27 2 24 7 -3 5 3 9 13 9 11 0 25 6 32 13 11 10 13
9 7 -1 -4 -7 8 -4 28 8 20 11 36 17 36 13 0 -3 9 2 21 13 12 10 22 18 23 17 4
-7 46 11 46 19 0 5 5 6 10 3 6 -3 10 -1 10 5 0 6 4 9 9 5 6 -3 14 3 20 12 5
10 12 17 15 16 8 -4 39 9 52 21 7 6 24 20 40 31 15 11 33 26 40 33 7 6 16 12
21 12 4 0 27 20 51 44 23 25 42 42 42 39 0 -3 9 5 20 18 11 13 36 41 56 62 20
20 32 37 28 37 -4 0 1 8 12 19 31 30 54 61 46 61 -4 0 2 7 12 15 11 8 16 15
10 15 -5 0 -5 3 1 8 17 12 96 162 101 191 2 8 9 18 16 22 7 5 9 9 4 9 -5 0 -2
8 5 17 12 14 12 16 0 8 -16 -9 -8 7 18 39 13 16 13 18 1 11 -12 -7 -13 -6 -3
7 7 8 10 18 6 21 -3 4 0 7 8 7 11 0 11 2 -1 10 -10 6 -11 10 -2 10 6 0 11 3
11 8 -1 4 0 10 1 15 5 16 8 28 9 48 1 13 5 18 14 13 9 -6 9 -5 0 7 -7 9 -8 20
-3 28 4 8 6 21 2 29 -3 10 -1 13 6 8 9 -5 9 -1 2 18 -5 14 -5 28 0 31 4 3 7
72 4 153 -2 81 -4 157 -4 170 0 12 -5 22 -10 22 -7 0 -7 7 1 21 8 15 8 19 0
15 -7 -5 -11 2 -12 16 0 13 -3 32 -5 43 -3 11 -6 26 -6 33 -1 6 -5 12 -9 12
-4 0 -6 9 -4 20 2 11 0 22 -6 25 -5 4 -9 14 -9 24 0 10 -7 24 -15 31 -12 10
-13 16 -4 26 8 10 8 14 0 14 -6 0 -13 11 -17 25 -3 14 -10 22 -15 19 -5 -3 -9
-2 -8 3 5 27 -2 53 -13 47 -8 -5 -9 -2 -5 9 3 10 3 17 -2 17 -4 0 -16 18 -26
40 -10 22 -21 40 -25 40 -4 0 -13 14 -20 30 -7 17 -17 30 -22 30 -5 0 -6 5 -3
10 3 6 -1 10 -10 10 -9 0 -14 4 -11 8 3 5 -6 20 -19 34 -13 14 -21 29 -17 34
4 4 1 4 -6 0 -8 -5 -16 1 -21 16 -6 13 -10 19 -10 15 -1 -5 -17 11 -37 35 -20
23 -44 47 -53 52 -9 5 -24 18 -33 29 -10 11 -18 17 -18 14 0 -3 -11 4 -24 16
-44 40 -107 83 -118 79 -5 -1 -8 2 -8 6 0 5 -18 17 -40 27 -22 10 -40 23 -40
28 0 6 -3 8 -6 4 -4 -3 -25 4 -48 15 -22 12 -50 23 -61 25 -11 2 -24 8 -29 13
-6 6 -20 10 -33 10 -13 0 -23 5 -23 10 0 6 -3 9 -7 9 -25 -4 -63 2 -59 10 3 4
-6 7 -19 5 -14 -1 -27 2 -30 6 -3 5 -13 6 -22 3 -9 -4 -14 -2 -10 3 3 5 -3 10
-13 10 -10 0 -16 -4 -13 -9 3 -5 -4 -4 -17 3 -12 6 -28 9 -36 6 -9 -3 -12 -1
-9 4 9 14 -8 12 -24 -2 -8 -7 -11 -8 -8 -2 5 8 -34 11 -138 11 -80 0 -145 -3
-145 -6z"/>
</g>
</svg>
