<?xml version="1.0" encoding="UTF-8" standalone="no"?>
<svg width="143px" height="139px" viewBox="0 0 143 139" version="1.1" xmlns="http://www.w3.org/2000/svg" xmlns:xlink="http://www.w3.org/1999/xlink" xmlns:sketch="http://www.bohemiancoding.com/sketch/ns">
    <!-- Generator: Sketch 3.5.2 (25235) - http://www.bohemiancoding.com/sketch -->
    <title>Page 1</title>
    <desc>Created with Sketch.</desc>
    <defs></defs>
    <g id="Page-1" stroke="none" stroke-width="1" fill="none" fill-rule="evenodd" sketch:type="MSPage">
        <g id="METAFORE-START-desktop" sketch:type="MSArtboardGroup" transform="translate(-646.000000, -820.000000)">
            <g id="Page-1" sketch:type="MSLayerGroup" transform="translate(646.000000, 820.000000)">
                <path d="M63.3521238,39 C63.3519382,39.0710316 63.3142582,46.1995562 61.4926241,55.0078458 C59.8582765,62.910201 56.4112044,73.8477462 49.2707479,81.0766171 L44,75.7407938 L44,90.8567988 L58.9311253,90.8567988 L54.5207069,86.3917698 C63.8501312,76.9466391 67.8250948,62.892725 69.5190251,52.5343313 L69.5190251,89.9553744 L62.6735122,89.9553744 L73.2313423,100.644121 L83.7893579,89.9553744 L76.9436594,89.9553744 L76.9436594,52.5337676 C78.6375898,62.8921613 82.6125534,76.9464512 91.9421633,86.3917698 L87.5315593,90.8567988 L102.46287,90.8567988 L102.46287,75.7407938 L97.1921222,81.0766171 C90.0516658,73.8477462 86.6045937,62.910201 84.970246,55.0078458 C83.1484264,46.1995562 83.110932,39.0710316 83.1107464,39" id="Stroke-1" stroke="#6A8898" sketch:type="MSShapeGroup"></path>
                <path d="M0.5,39 L142.5,39" id="Stroke-3" stroke="#6A8898" sketch:type="MSShapeGroup"></path>
                <g id="Group-7" transform="translate(96.000000, 8.000000)" fill="#4CB05B" sketch:type="MSShapeGroup">
                    <path d="M0.364808111,6.89522919 L3.5681666,5.26657694 L6.76521415,11.509462 L16.169256,0.109460013 L19.1185064,2.82388043 L5.87165941,16.3952309 L0.364808111,6.89522919 Z" id="Fill-5"></path>
                </g>
                <path d="M44.577112,126.867524 C44.577112,126.867524 43.3997506,108 32.7886488,108 C22.1773614,108 21,126.867524 21,126.867524 L44.577112,126.867524 Z" id="Fill-8" fill="#00052D" sketch:type="MSShapeGroup"></path>
                <path d="M40.5154356,100.772616 C42.058089,105.257 39.7176587,110.158178 35.2881218,111.719933 C30.858585,113.281687 26.0173521,110.912277 24.4746987,106.427893 C22.9322309,101.943509 25.2724757,97.0423313 29.7020125,95.4805765 C34.1315494,93.9190096 38.9727822,96.2882317 40.5154356,100.772616" id="Fill-10" fill="#6A8898" sketch:type="MSShapeGroup"></path>
                <path d="M84.577112,138.867524 C84.577112,138.867524 83.3997506,120 72.7886488,120 C62.1773614,120 61,138.867524 61,138.867524 L84.577112,138.867524 Z" id="Fill-12" fill="#00052D" sketch:type="MSShapeGroup"></path>
                <path d="M81.5154356,111.772616 C83.058089,116.257 80.7176587,121.158178 76.2881218,122.719933 C71.858585,124.281499 67.0173521,121.912277 65.4746987,117.427893 C63.9322309,112.943509 66.2724757,108.042331 70.7020125,106.480577 C75.1315494,104.91901 79.9727822,107.288232 81.5154356,111.772616" id="Fill-14" fill="#6A8898" sketch:type="MSShapeGroup"></path>
                <path d="M125.577112,126.867524 C125.577112,126.867524 124.399751,108 113.788649,108 C103.177361,108 102,126.867524 102,126.867524 L125.577112,126.867524 Z" id="Fill-16" fill="#00052D" sketch:type="MSShapeGroup"></path>
                <path d="M85.577112,31.9337619 C85.577112,31.9337619 84.3997506,13.0662381 73.7886488,13.0662381 C63.1773614,13.0662381 62,31.9337619 62,31.9337619 L85.577112,31.9337619 Z" id="Fill-16-Copy" fill="#4CAF5B" sketch:type="MSShapeGroup"></path>
                <path d="M122.515436,100.772616 C124.058089,105.257 121.717659,110.158178 117.288122,111.719933 C112.858585,113.281687 108.017352,110.912277 106.474699,106.427893 C104.932231,101.943509 107.272476,97.0423313 111.702013,95.4805765 C116.131549,93.9190096 120.972968,96.2882317 122.515436,100.772616" id="Fill-18" fill="#6A8898" sketch:type="MSShapeGroup"></path>
                <path d="M82.5154356,5.83885392 C84.058089,10.3232381 81.7176587,15.2244159 77.2881218,16.7861707 C72.858585,18.3479255 68.0173521,15.9785155 66.4746987,11.4941313 C64.9322309,7.00974721 67.2724757,2.10856941 71.7020125,0.546814607 C76.1315494,-1.01475228 80.9729678,1.35446978 82.5154356,5.83885392" id="Fill-18-Copy" fill="#ACCD6C" sketch:type="MSShapeGroup"></path>
            </g>
        </g>
    </g>
</svg>