<?xml version="1.0" encoding="UTF-8" standalone="no"?>
<svg width="82px" height="113px" viewBox="0 0 82 113" version="1.1" xmlns="http://www.w3.org/2000/svg" xmlns:xlink="http://www.w3.org/1999/xlink" xmlns:sketch="http://www.bohemiancoding.com/sketch/ns">
    <!-- Generator: Sketch 3.5.2 (25235) - http://www.bohemiancoding.com/sketch -->
    <title>Page 1</title>
    <desc>Created with Sketch.</desc>
    <defs></defs>
    <g id="Page-1" stroke="none" stroke-width="1" fill="none" fill-rule="evenodd" sketch:type="MSPage">
        <g id="METAFORE-START-desktop" sketch:type="MSArtboardGroup" transform="translate(-990.000000, -836.000000)">
            <g id="Page-1" sketch:type="MSLayerGroup" transform="translate(991.000000, 837.000000)">
                <path d="M16.4540426,86.407239 L9.27808511,86.407239 L9.27808511,78.5688987 L16.4540426,78.5688987 L16.4540426,86.407239 Z" id="Fill-1" fill="#51BBB4" sketch:type="MSShapeGroup"></path>
                <path d="M25.6017021,86.407239 L18.4257447,86.407239 L18.4257447,76.071717 L25.6017021,76.071717 L25.6017021,86.407239 Z" id="Fill-2" fill="#6A8898" sketch:type="MSShapeGroup"></path>
                <path d="M34.7495745,86.407239 L27.573617,86.407239 L27.573617,72.2155813 L34.7495745,72.2155813 L34.7495745,86.407239 Z" id="Fill-3" fill="#51BBB4" sketch:type="MSShapeGroup"></path>
                <path d="M43.897234,86.407239 L36.7212766,86.407239 L36.7212766,67.989304 L43.897234,67.989304 L43.897234,86.407239 Z" id="Fill-4" fill="#6A8898" sketch:type="MSShapeGroup"></path>
                <path d="M53.0448936,86.407239 L45.8689362,86.407239 L45.8689362,62.6231013 L53.0448936,62.6231013 L53.0448936,86.407239 Z" id="Fill-5" fill="#51BBB4" sketch:type="MSShapeGroup"></path>
                <path d="M62.192766,86.407239 L55.0168085,86.407239 L55.0168085,51.4362964 L62.192766,51.4362964 L62.192766,86.407239 Z" id="Fill-6" fill="#6A8898" sketch:type="MSShapeGroup"></path>
                <g id="Group-17" sketch:type="MSShapeGroup">
                    <path d="M27.624234,26.0304763 L27.624234,26.0304763 C28.6021064,25.5406331 29.793383,25.9258434 30.297,26.894918 L31.6695532,29.5357841 C32.3272128,30.8009294 34.0640213,30.9900327 34.979766,29.896375 L42.4957234,20.9189581 C43.2248723,20.0481493 44.534234,19.958373 45.3759362,20.7215776 L45.670617,20.9887841 C46.5118936,21.7517765 46.5472128,23.0602182 45.7478511,23.8669314 L33.8584894,35.8687268 C32.9348723,36.8010843 31.3763617,36.6066751 30.7112553,35.4763004 L26.797,28.8226675 C26.2118936,27.8283367 26.5914681,26.5479103 27.624234,26.0304763" id="Fill-7" fill="#4CB05B"></path>
                    <path d="M26.0479149,46.8984763 L26.0479149,46.8984763 C27.0257872,46.4086331 28.2170638,46.7938434 28.7206809,47.762918 L30.093234,50.4037841 C30.7508936,51.6689294 32.4877021,51.8580327 33.4034468,50.764375 L40.9194043,41.7869581 C41.6485532,40.9161493 42.9579149,40.826373 43.799617,41.5895776 L44.0942979,41.8567841 C44.9355745,42.6197765 44.9708936,43.9282182 44.1715319,44.7349314 L32.2821702,56.7367268 C31.3585532,57.6690843 29.8000426,57.4746751 29.1349362,56.3443004 L25.2206809,49.6906675 C24.6357872,48.6963367 25.0151489,47.4159103 26.0479149,46.8984763" id="Fill-9" fill="#ACCD6C"></path>
                    <path d="M0.0440638298,102.815395 L0.0440638298,16.2139589 L16.2410851,0.0571978967 L72.2121489,0.0571978967 L72.2121489,102.815395 L0.0440638298,102.815395 L0.0440638298,102.815395 Z" id="Stroke-11" stroke="#6A8898"></path>
                    <path d="M72.212234,8.13572696 L79.791383,8.13572696 L79.791383,110.893924 L7.62329787,110.893924 L7.62329787,102.814694" id="Stroke-13" stroke="#6A8898"></path>
                    <path d="M16.0534043,16.2141924 L0.0440425532,16.2139801 L16.2410638,0.0572191205 L16.0534043,16.2141924 L16.0534043,16.2141924 Z" id="Stroke-15" stroke="#6A8898"></path>
                </g>
            </g>
        </g>
    </g>
</svg>