<?xml version="1.0" encoding="UTF-8" standalone="no"?>
<svg width="226px" height="136px" viewBox="0 0 226 136" version="1.1" xmlns="http://www.w3.org/2000/svg" xmlns:xlink="http://www.w3.org/1999/xlink" xmlns:sketch="http://www.bohemiancoding.com/sketch/ns">
    <!-- Generator: Sketch 3.5.2 (25235) - http://www.bohemiancoding.com/sketch -->
    <title>Page 1</title>
    <desc>Created with Sketch.</desc>
    <defs></defs>
    <g id="Page-1" stroke="none" stroke-width="1" fill="none" fill-rule="evenodd" sketch:type="MSPage">
        <g id="METAFORE-START-desktop" sketch:type="MSArtboardGroup" transform="translate(-272.000000, -1153.000000)">
            <g id="Page-1" sketch:type="MSLayerGroup" transform="translate(272.000000, 1154.000000)">
                <path d="M129.818288,40.0538377 L129.818288,52.8645233 L134.558814,52.8645233 L134.558814,38.6933687 C132.755709,38.6933687 131.201489,39.213422 129.818288,40.0538377" id="Fill-1" fill="#ECAFB5" sketch:type="MSShapeGroup"></path>
                <path d="M129.818288,40.0538377 L129.818288,33.9695712 C128.096871,33.9695712 126.535963,34.5841147 125.077763,35.5911378 L125.077763,44.571756 C126.480311,42.8133332 128.002046,41.1572551 129.818288,40.0538377" id="Fill-3" fill="#51BBB4" sketch:type="MSShapeGroup"></path>
                <path d="M125.077834,44.5717083 L125.077834,52.8644757 L129.81836,52.8644757 L129.81836,40.0537901 C128.001879,41.1572075 126.480382,42.8132856 125.077834,44.5717083" id="Fill-5" fill="#6A8898" sketch:type="MSShapeGroup"></path>
                <path d="M125.077834,35.591233 L125.077834,29.2458689 C115.39949,29.2458689 106.181895,52.8643805 96.6351592,52.8643805 L106.115971,52.8643805 C113.94129,52.8643805 118.448933,40.169368 125.077834,35.591233" id="Fill-7" fill="#ACCD6C" sketch:type="MSShapeGroup"></path>
                <path d="M125.077834,44.5717083 L125.077834,35.5913282 C118.448933,40.1694632 113.94129,52.8644757 106.115971,52.8644757 L115.597022,52.8644757 C119.447818,52.8644757 121.970828,48.4672288 125.077834,44.5717083" id="Fill-9" fill="#4CB05B" sketch:type="MSShapeGroup"></path>
                <path d="M115.596951,52.8644757 L125.077763,52.8644757 L125.077763,44.5717083 C121.970995,48.4672288 119.447747,52.8644757 115.596951,52.8644757" id="Fill-11" fill="#75595F" sketch:type="MSShapeGroup"></path>
                <path d="M0.000310509554,79.6689265 C0.0905971338,79.6691645 9.15150478,79.7174806 20.3475239,82.0533172 C30.3920303,84.1490011 44.2944984,88.569097 53.4829538,97.725129 L46.7007086,104.48368 L65.9143232,104.48368 L65.9143232,85.3378643 L60.2389252,90.9932355 C48.2334315,79.0303439 30.3698169,73.9333456 17.2034952,71.7612604 L64.768543,71.7612604 L64.768543,80.5390934 L78.3547691,67.0010472 L64.768543,53.4627631 L64.768543,62.2408341 L17.2027787,62.2408341 C30.3691003,60.0687488 48.2331927,54.9717506 60.2389252,43.008621 L65.9143232,48.6642302 L65.9143232,29.5181769 L46.7007086,29.5181769 L53.4829538,36.2767275 C44.2944984,45.4327595 30.3920303,49.8528554 20.3475239,51.9485393 C9.15150478,54.2846139 0.0905971338,54.332692 0.000310509554,54.33293" id="Stroke-13" stroke="#6A8898" sketch:type="MSShapeGroup"></path>
                <path d="M104.218232,102.151318 L96.8749204,102.151318 L96.8749204,93.5558011 L104.218232,93.5558011 L104.218232,102.151318 Z" id="Fill-15" fill="#51BBB4" sketch:type="MSShapeGroup"></path>
                <path d="M113.57914,102.151318 L106.235828,102.151318 L106.235828,90.8174885 L113.57914,90.8174885 L113.57914,102.151318 Z" id="Fill-17" fill="#6A8898" sketch:type="MSShapeGroup"></path>
                <path d="M122.940287,102.151318 L115.596975,102.151318 L115.596975,86.5887531 L122.940287,86.5887531 L122.940287,102.151318 Z" id="Fill-18" fill="#51BBB4" sketch:type="MSShapeGroup"></path>
                <path d="M132.301194,102.151318 L124.957882,102.151318 L124.957882,81.9539716 L132.301194,81.9539716 L132.301194,102.151318 Z" id="Fill-19" fill="#6A8898" sketch:type="MSShapeGroup"></path>
                <path d="M141.662341,102.151318 L134.319029,102.151318 L134.319029,76.0693961 L141.662341,76.0693961 L141.662341,102.151318 Z" id="Fill-20" fill="#51BBB4" sketch:type="MSShapeGroup"></path>
                <path d="M151.023248,102.151318 L143.679936,102.151318 L143.679936,63.8020888 L151.023248,63.8020888 L151.023248,102.151318 Z" id="Fill-21" fill="#6A8898" sketch:type="MSShapeGroup"></path>
                <path d="M222.116315,134 L87.8836845,134 C86.297658,134 85,132.712437 85,131.138749 L85,2.86125069 C85,1.28756281 86.297658,0 87.8836845,0 L222.116315,0 C223.702342,0 225,1.28756281 225,2.86125069 L225,131.138749 C225,132.712437 223.702342,134 222.116315,134 L222.116315,134 Z" id="Stroke-22" stroke="#6A8898" sketch:type="MSShapeGroup"></path>
                <path d="M224.664482,131 L85.5112978,131" id="Stroke-23" stroke="#6A8898" sketch:type="MSShapeGroup"></path>
                <path d="M85.5112978,10 L224.664482,10" id="Stroke-24" stroke="#6A8898" sketch:type="MSShapeGroup"></path>
                <path d="M204.667381,95.7566618 C211.041425,90.8012799 215.140629,83.075692 215.140629,74.3956813 C215.140629,59.4407577 202.974148,47.3172089 187.966266,47.3172089 L187.966266,74.3956813 L204.667381,95.7566618 Z" id="Fill-25" fill="#ACCD6C" sketch:type="MSShapeGroup"></path>
                <path d="M202.588591,97.1101808 L185.887476,75.7492004 L185.887476,48.6707279 C185.887476,48.6707279 181.291696,48.6704899 176.950295,50.1770973 C162.777205,55.0953496 155.288909,70.5315307 160.224578,84.6546071 C165.160247,98.7776835 180.651091,106.239794 194.824419,101.321303 C200.236123,99.4433993 202.588591,97.1101808 202.588591,97.1101808" id="Fill-26" fill="#4CB05B" sketch:type="MSShapeGroup"></path>
            </g>
        </g>
    </g>
</svg>