<?xml version="1.0" encoding="UTF-8" standalone="no"?>
<svg width="238px" height="94px" viewBox="0 0 238 94" version="1.1" xmlns="http://www.w3.org/2000/svg" xmlns:xlink="http://www.w3.org/1999/xlink" xmlns:sketch="http://www.bohemiancoding.com/sketch/ns">
    <!-- Generator: Sketch 3.5.2 (25235) - http://www.bohemiancoding.com/sketch -->
    <title>Page 1</title>
    <desc>Created with Sketch.</desc>
    <defs>
        <path id="path-1" d="M0,0.136270833 L235.943179,0.136270833 L235.943179,93 L0,93"></path>
    </defs>
    <g id="Page-1" stroke="none" stroke-width="1" fill="none" fill-rule="evenodd" sketch:type="MSPage">
        <g id="METAFORE-START-desktop" sketch:type="MSArtboardGroup" transform="translate(-921.000000, -1185.000000)">
            <g id="Page-1" sketch:type="MSLayerGroup" transform="translate(922.000000, 1185.000000)">
                <g id="Group-10">
                    <path d="M56.8188886,80.749349 L56.8188886,80.749349 C57.3160706,80.4997344 57.9214057,80.6960677 58.1774222,81.1898073 L58.8750911,82.535724 C59.2092361,83.1805885 60.0922183,83.2771406 60.5574386,82.7194635 L64.3776684,78.1440573 C64.7482949,77.7003698 65.4140022,77.6545156 65.8417724,78.0436302 L65.9915726,78.179901 C66.41902,78.5686927 66.4370993,79.2355156 66.0306369,79.6465885 L59.9876164,85.763599 C59.5181992,86.2386094 58.7259365,86.139474 58.3879174,85.5633906 L56.3985439,82.1724427 C56.1012033,81.6657865 56.293942,81.0131719 56.8188886,80.749349" id="Fill-1" fill="#4CB05B" sketch:type="MSShapeGroup"></path>
                    <path d="M122.766328,31.4015146 C116.882793,37.9147437 106.700249,37.9150667 100.816391,31.4015146 C95.7787114,25.8247437 95.7783885,17.1986708 100.816391,11.6219 C106.699926,5.10834792 116.882471,5.10834792 122.766328,11.6215771 C127.804331,17.1986708 127.804008,25.8244208 122.766328,31.4015146 M97.8914118,8.86806667 C91.3660602,16.0261604 91.4083529,27.1438583 97.9837456,34.2560979 C104.241135,41.0244312 114.194782,42.106525 121.640566,37.5130354 L136.162476,52.03815 C137.284687,53.1606083 139.104566,53.1606083 140.226777,52.03815 L142.076681,50.1878375 C143.198892,49.0653792 143.198892,47.2450979 142.076681,46.1223167 L127.60901,31.651775 C132.279937,24.3771083 131.438602,14.5872437 125.076287,8.22384792 C117.530421,0.67599375 105.162859,0.890733333 97.8914118,8.86806667" id="Fill-3" fill="#51BBB4" sketch:type="MSShapeGroup"></path>
                    <g id="Group-7">
                        <mask id="mask-2" sketch:name="Clip 6" fill="white">
                            <use xlink:href="#path-1"></use>
                        </mask>
                        <g id="Clip-6"></g>
                        <path d="M122.766328,28.8181813 C116.882793,35.3314104 106.700249,35.3317333 100.816391,28.8181813 C95.7787114,23.2414104 95.7783885,14.6153375 100.816391,9.03856667 C106.699926,2.52501458 116.882471,2.52501458 122.766328,9.03824375 C127.804331,14.6153375 127.804008,23.2410875 122.766328,28.8181813 M97.8914118,6.28473333 C91.3660602,13.4428271 91.4083529,24.560525 97.9837456,31.6727646 C104.241135,38.4410979 114.194782,39.5231917 121.640566,34.9297021 L136.162476,49.4548167 C137.284687,50.577275 139.104566,50.577275 140.226777,49.4548167 L142.076681,47.6045042 C143.198892,46.4820458 143.198892,44.6617646 142.076681,43.5389833 L127.60901,29.0684417 C132.279937,21.793775 131.438602,12.0039104 125.076287,5.64051458 C117.530421,-1.90733958 105.162859,-1.6926 97.8914118,6.28473333" id="Fill-5" fill="#6A8898" sketch:type="MSShapeGroup" mask="url(#mask-2)"></path>
                    </g>
                    <path d="M66.3553871,71.125851 L10.102156,71.125851 C4.61216963,71.125851 0.161422709,75.5775802 0.161422709,81.0687781 L0.161422709,82.8955177 C0.161422709,88.3870385 4.61216963,92.8384448 10.102156,92.8384448 L66.3553871,92.8384448 C71.8453735,92.8384448 76.2961204,88.3870385 76.2961204,82.8955177 L76.2961204,81.0687781 C76.2961204,75.5775802 71.8453735,71.125851 66.3553871,71.125851 L66.3553871,71.125851 Z" id="Stroke-8" stroke="#6A8898" sketch:type="MSShapeGroup"></path>
                </g>
                <text id="lorem" sketch:type="MSTextLayer" font-family=".AppleSystemUIFont" font-size="10.9767442" font-weight="normal" fill="#6A8898">
                    <tspan x="12.6049182" y="86.0788127">lo</tspan>
                    <tspan x="21.9844603" y="86.0788127" letter-spacing="-1.0472">r</tspan>
                    <tspan x="25.021381" y="86.0788127">em</tspan>
                </text>
                <g id="Group-15" transform="translate(79.742818, 71.041667)" sketch:type="MSShapeGroup">
                    <path d="M56.926493,9.70768229 L56.926493,9.70768229 C57.423675,9.45806771 58.0290101,9.65440104 58.2850265,10.1481406 L58.9826955,11.4940573 C59.3168405,12.1389219 60.1998227,12.235474 60.665043,11.6777969 L64.4852728,7.10239062 C64.8558993,6.65870312 65.5216066,6.61284896 65.9493767,7.00196354 L66.099177,7.13823437 C66.5266244,7.52702604 66.5447037,8.19384896 66.1382413,8.60492187 L60.0952208,14.7219323 C59.6258036,15.1969427 58.8335409,15.0978073 58.4955218,14.521724 L56.5061483,11.130776 C56.2088077,10.6241198 56.4015464,9.97150521 56.926493,9.70768229" id="Fill-11" fill="#4CB05B"></path>
                    <path d="M66.4629915,0.084184375 L10.2097603,0.084184375 C4.71977401,0.084184375 0.269027086,4.53591354 0.269027086,10.0271115 L0.269027086,11.853851 C0.269027086,17.3453719 4.71977401,21.7967781 10.2097603,21.7967781 L66.4629915,21.7967781 C71.9529778,21.7967781 76.4037248,17.3453719 76.4037248,11.853851 L76.4037248,10.0271115 C76.4037248,4.53591354 71.9529778,0.084184375 66.4629915,0.084184375 L66.4629915,0.084184375 Z" id="Stroke-13" stroke="#6A8898"></path>
                </g>
                <text id="ipsum" sketch:type="MSTextLayer" font-family=".AppleSystemUIFont" font-size="10.9767442" font-weight="normal" fill="#6A8898">
                    <tspan x="92.4554052" y="86.0788127">ipsum</tspan>
                </text>
                <path d="M225.841023,71.125851 L169.587792,71.125851 C164.097806,71.125851 159.647059,75.5775802 159.647059,81.0687781 L159.647059,82.8955177 C159.647059,88.3870385 164.097806,92.8384448 169.587792,92.8384448 L225.841023,92.8384448 C231.33101,92.8384448 235.781756,88.3870385 235.781756,82.8955177 L235.781756,81.0687781 C235.781756,75.5775802 231.33101,71.125851 225.841023,71.125851 L225.841023,71.125851 Z" id="Stroke-16" stroke="#6A8898" sketch:type="MSShapeGroup"></path>
                <text id="dolor-sit" sketch:type="MSTextLayer" font-family=".AppleSystemUIFont" font-size="10.9767442" font-weight="normal" fill="#6A8898">
                    <tspan x="172.090587" y="86.0788127">dolor sit</tspan>
                </text>
                <g id="Group-22" transform="translate(217.920657, 77.500000)" stroke="#6A8898" sketch:type="MSShapeGroup">
                    <path d="M8.7982156,0.203598958 L0.242812038,8.76089062" id="Stroke-18"></path>
                    <path d="M8.7982156,8.76079375 L0.242812038,0.203502083" id="Stroke-20"></path>
                </g>
            </g>
        </g>
    </g>
</svg>