<?xml version="1.0" encoding="UTF-8" standalone="no"?>
<svg width="238px" height="94px" viewBox="0 0 238 94" version="1.1" xmlns="http://www.w3.org/2000/svg" xmlns:xlink="http://www.w3.org/1999/xlink" xmlns:sketch="http://www.bohemiancoding.com/sketch/ns">
    <!-- Generator: Sketch 3.5.2 (25235) - http://www.bohemiancoding.com/sketch -->
    <title>Page 1</title>
    <desc>Created with Sketch.</desc>
    <defs>
        <path id="path-1" d="M0,0.136270833 L235.943179,0.136270833 L235.943179,93 L0,93"></path>
    </defs>
    <g id="Page-1" stroke="none" stroke-width="1" fill="none" fill-rule="evenodd" sketch:type="MSPage">
        <g id="METAFORE-START-desktop" sketch:type="MSArtboardGroup" transform="translate(-921.000000, -1185.000000)">
            <g id="Page-1" sketch:type="MSLayerGroup" transform="translate(922.000000, 1185.000000)">
                <g id="Group-10">
                    <path d="M56.8188886,80.749349 L56.8188886,80.749349 C57.3160706,80.4997344 57.9214057,80.6960677 58.1774222,81.1898073 L58.8750911,82.535724 C59.2092361,83.1805885 60.0922183,83.2771406 60.5574386,82.7194635 L64.3776684,78.1440573 C64.7482949,77.7003698 65.4140022,77.6545156 65.8417724,78.0436302 L65.9915726,78.179901 C66.41902,78.5686927 66.4370993,79.2355156 66.0306369,79.6465885 L59.9876164,85.763599 C59.5181992,86.2386094 58.7259365,86.139474 58.3879174,85.5633906 L56.3985439,82.1724427 C56.1012033,81.6657865 56.293942,81.0131719 56.8188886,80.749349" id="Fill-1" fill="#4CB05B" sketch:type="MSShapeGroup"></path>
                    <path d="M122.766328,31.4015146 C116.882793,37.9147437 106.700249,37.9150667 100.816391,31.4015146 C95.7787114,25.8247437 95.7783885,17.1986708 100.816391,11.6219 C106.699926,5.10834792 116.882471,5.10834792 122.766328,11.6215771 C127.804331,17.1986708 127.804008,25.8244208 122.766328,31.4015146 M97.8914118,8.86806667 C91.3660602,16.0261604 91.4083529,27.1438583 97.9837456,34.2560979 C104.241135,41.0244312 114.194782,42.106525 121.640566,37.5130354 L136.162476,52.03815 C137.284687,53.1606083 139.104566,53.1606083 140.226777,52.03815 L142.076681,50.1878375 C143.198892,49.0653792 143.198892,47.2450979 142.076681,46.1223167 L127.60901,31.651775 C132.279937,24.3771083 131.438602,14.5872437 125.076287,8.22384792 C117.530421,0.67599375 105.162859,0.890733333 97.8914118,8.86806667" id="Fill-3" fill="#51BBB4" sketch:type="MSShapeGroup"></path>
                    <g id="Group-7">
                        <mask id="mask-2" sketch:name="Clip 6" fill="white">
                            <use xlink:href="#path-1"></use>
                        </mask>
                        <g id="Clip-6"></g>
                        <path d="M122.766328,28.8181813 C116.882793,35.3314104 106.700249,35.3317333 100.816391,28.8181813 C95.7787114,23.2414104 95.7783885,14.6153375 100.816391,9.03856667 C106.699926,2.52501458 116.882471,2.52501458 122.766328,9.03824375 C127.804331,14.6153375 127.804008,23.2410875 122.766328,28.8181813 M97.8914118,6.28473333 C91.3660602,13.4428271 91.4083529,24.560525 97.9837456,31.6727646 C104.241135,38.4410979 114.194782,39.5231917 121.640566,34.9297021 L136.162476,49.4548167 C137.284687,50.577275 139.104566,50.577275 140.226777,49.4548167 L142.076681,47.6045042 C143.198892,46.4820458 143.198892,44.6617646 142.076681,43.5389833 L127.60901,29.0684417 C132.279937,21.793775 131.438602,12.0039104 125.076287,5.64051458 C117.530421,-1.90733958 105.162859,-1.6926 97.8914118,6.28473333" id="Fill-5" fill="#6A8898" sketch:type="MSShapeGroup" mask="url(#mask-2)"></path>
                    </g>
                    <path d="M66.3553871,71.125851 L10.102156,71.125851 C4.61216963,71.125851 0.161422709,75.5775802 0.161422709,81.0687781 L0.161422709,82.8955177 C0.161422709,88.3870385 4.61216963,92.8384448 10.102156,92.8384448 L66.3553871,92.8384448 C71.8453735,92.8384448 76.2961204,88.3870385 76.2961204,82.8955177 L76.2961204,81.0687781 C76.2961204,75.5775802 71.8453735,71.125851 66.3553871,71.125851 L66.3553871,71.125851 Z" id="Stroke-8" stroke="#6A8898" sketch:type="MSShapeGroup"></path>
                </g>
                <path d="M13.5643114,85.0788127 L14.2664371,85.0788127 L14.2664371,77.0070467 L13.5643114,77.0070467 L13.5643114,85.0788127 Z M18.4631122,84.5374791 C17.2732503,84.5374791 16.5657649,83.6531223 16.5657649,82.1899137 C16.5657649,80.7267051 17.2732503,79.8423483 18.4631122,79.8423483 C19.6529742,79.8423483 20.3604596,80.7267051 20.3604596,82.1899137 C20.3604596,83.6531223 19.6529742,84.5374791 18.4631122,84.5374791 L18.4631122,84.5374791 Z M18.4631122,85.175288 C20.0763935,85.175288 21.089384,84.0336637 21.089384,82.1899137 C21.089384,80.3461637 20.0763935,79.2098992 18.4631122,79.2098992 C16.849831,79.2098992 15.8422002,80.3461637 15.8422002,82.1899137 C15.8422002,84.0336637 16.849831,85.175288 18.4631122,85.175288 L18.4631122,85.175288 Z M22.60619,85.0788127 L23.3083157,85.0788127 L23.3083157,81.4770685 C23.3083157,80.565913 23.9729233,79.890586 24.8679996,79.890586 C25.0770294,79.890586 25.3664553,79.9227444 25.495089,79.9602625 L25.495089,79.2581368 C25.3396566,79.2206187 25.146706,79.2098992 24.9537554,79.2098992 C24.1873128,79.2098992 23.5387845,79.6279588 23.3458339,80.2550482 L23.2761573,80.2550482 L23.2761573,79.3063745 L22.60619,79.3063745 L22.60619,85.0788127 Z M27.7602073,79.8316288 C28.8053563,79.8316288 29.4967625,80.6087909 29.5128417,81.7986528 L25.9164573,81.7986528 C25.9807742,80.6087909 26.7096986,79.8316288 27.7602073,79.8316288 L27.7602073,79.8316288 Z M29.4431651,83.6531223 C29.1966172,84.2212546 28.607046,84.5481986 27.787006,84.5481986 C26.6721804,84.5481986 25.9486157,83.7120794 25.9110976,82.409663 L25.9110976,82.3775046 L30.2471259,82.3775046 L30.2471259,82.0666397 C30.2471259,80.3032858 29.3038119,79.2098992 27.765567,79.2098992 C26.1951637,79.2098992 25.1875329,80.3836819 25.1875329,82.1952735 C25.1875329,84.0175845 26.1844442,85.175288 27.7709268,85.175288 C28.9822276,85.175288 29.8719442,84.5910765 30.1560103,83.6531223 L29.4431651,83.6531223 Z M31.7692916,85.0788127 L32.4714173,85.0788127 L32.4714173,81.5360256 C32.4714173,80.5927117 33.1199457,79.8423483 33.9560649,79.8423483 C34.7546659,79.8423483 35.28528,80.3836819 35.28528,81.2144413 L35.28528,85.0788127 L35.9874057,85.0788127 L35.9874057,81.4181114 C35.9874057,80.5230351 36.5823367,79.8423483 37.4720532,79.8423483 C38.3403308,79.8423483 38.8066281,80.3461637 38.8066281,81.2894777 L38.8066281,85.0788127 L39.5087538,85.0788127 L39.5087538,81.1286855 C39.5087538,79.9066652 38.8387865,79.2098992 37.681083,79.2098992 C36.8503236,79.2098992 36.1749965,79.6547575 35.8802109,80.3461637 L35.8105343,80.3461637 C35.5639864,79.6547575 34.9851346,79.2098992 34.1758141,79.2098992 C33.3772131,79.2098992 32.7608432,79.6386782 32.5089355,80.3461637 L32.4392589,80.3461637 L32.4392589,79.3063745 L31.7692916,79.3063745 L31.7692916,85.0788127 Z" id="lorem" fill="#6A8898" sketch:type="MSShapeGroup"></path>
                <g id="Group-15" transform="translate(79.742818, 71.041667)" sketch:type="MSShapeGroup">
                    <path d="M56.926493,9.70768229 L56.926493,9.70768229 C57.423675,9.45806771 58.0290101,9.65440104 58.2850265,10.1481406 L58.9826955,11.4940573 C59.3168405,12.1389219 60.1998227,12.235474 60.665043,11.6777969 L64.4852728,7.10239062 C64.8558993,6.65870312 65.5216066,6.61284896 65.9493767,7.00196354 L66.099177,7.13823437 C66.5266244,7.52702604 66.5447037,8.19384896 66.1382413,8.60492187 L60.0952208,14.7219323 C59.6258036,15.1969427 58.8335409,15.0978073 58.4955218,14.521724 L56.5061483,11.130776 C56.2088077,10.6241198 56.4015464,9.97150521 56.926493,9.70768229" id="Fill-11" fill="#4CB05B"></path>
                    <path d="M66.4629915,0.084184375 L10.2097603,0.084184375 C4.71977401,0.084184375 0.269027086,4.53591354 0.269027086,10.0271115 L0.269027086,11.853851 C0.269027086,17.3453719 4.71977401,21.7967781 10.2097603,21.7967781 L66.4629915,21.7967781 C71.9529778,21.7967781 76.4037248,17.3453719 76.4037248,11.853851 L76.4037248,10.0271115 C76.4037248,4.53591354 71.9529778,0.084184375 66.4629915,0.084184375 L66.4629915,0.084184375 Z" id="Stroke-13" stroke="#6A8898"></path>
                </g>
                <path d="M93.3933594,85.0788127 L94.0954851,85.0788127 L94.0954851,79.3063745 L93.3933594,79.3063745 L93.3933594,85.0788127 Z M93.7417424,78.0200373 C94.0311683,78.0200373 94.2669968,77.7842088 94.2669968,77.4947829 C94.2669968,77.2107168 94.0311683,76.9748883 93.7417424,76.9748883 C93.4576763,76.9748883 93.2218478,77.2107168 93.2218478,77.4947829 C93.2218478,77.7842088 93.4576763,78.0200373 93.7417424,78.0200373 L93.7417424,78.0200373 Z M98.645903,79.2098992 C97.7669059,79.2098992 97.0219023,79.6976354 96.6681596,80.4855169 L96.6038427,80.4855169 L96.6038427,79.3063745 L95.9338754,79.3063745 L95.9338754,86.9600809 L96.6360011,86.9600809 L96.6360011,83.9800663 L96.700318,83.9800663 C97.0219023,84.72507 97.7508267,85.175288 98.645903,85.175288 C100.103752,85.175288 101.073865,83.9854261 101.073865,82.1899137 C101.073865,80.3944014 100.109112,79.2098992 98.645903,79.2098992 L98.645903,79.2098992 Z M98.4904706,84.5374791 C97.3649255,84.5374791 96.6145622,83.6048846 96.6145622,82.1899137 C96.6145622,80.7749428 97.3649255,79.8423483 98.4958303,79.8423483 C99.6320949,79.8423483 100.3503,80.7535038 100.3503,82.1952735 C100.3503,83.6316833 99.6320949,84.5374791 98.4904706,84.5374791 L98.4904706,84.5374791 Z M102.456677,80.8338999 C102.456677,81.6485801 102.960492,82.0880787 104.03244,82.3453461 L104.906077,82.5543759 C105.67788,82.736607 106.036982,83.0313926 106.036982,83.535208 C106.036982,84.1408585 105.399173,84.5749973 104.552335,84.5749973 C103.716216,84.5749973 103.164162,84.2105351 103.00873,83.6316833 L102.279806,83.6316833 C102.39772,84.580357 103.271357,85.175288 104.530896,85.175288 C105.790434,85.175288 106.760547,84.478522 106.760547,83.4816107 C106.760547,82.6454915 106.219213,82.1952735 105.104388,81.9272865 L104.311146,81.7396957 C103.539344,81.5574646 103.164162,81.2841179 103.164162,80.8071012 C103.164162,80.2282495 103.780532,79.8101899 104.536255,79.8101899 C105.302698,79.8101899 105.838672,80.1639326 105.967306,80.7052662 L106.658712,80.7052662 C106.530078,79.7887509 105.704678,79.2098992 104.541615,79.2098992 C103.378552,79.2098992 102.456677,79.9066652 102.456677,80.8338999 L102.456677,80.8338999 Z M112.918886,79.3063745 L112.216761,79.3063745 L112.216761,82.736607 C112.216761,83.8299937 111.525354,84.5321194 110.442687,84.5321194 C109.456495,84.5321194 108.915162,83.9586274 108.915162,82.88132 L108.915162,79.3063745 L108.213036,79.3063745 L108.213036,83.0581913 C108.213036,84.3820467 108.979479,85.175288 110.265816,85.175288 C111.187691,85.175288 111.895176,84.7572284 112.184602,84.0390235 L112.248919,84.0390235 L112.248919,85.0788127 L112.918886,85.0788127 L112.918886,79.3063745 Z M114.730478,85.0788127 L115.432604,85.0788127 L115.432604,81.5360256 C115.432604,80.5927117 116.081132,79.8423483 116.917251,79.8423483 C117.715852,79.8423483 118.246466,80.3836819 118.246466,81.2144413 L118.246466,85.0788127 L118.948592,85.0788127 L118.948592,81.4181114 C118.948592,80.5230351 119.543523,79.8423483 120.43324,79.8423483 C121.301517,79.8423483 121.767814,80.3461637 121.767814,81.2894777 L121.767814,85.0788127 L122.46994,85.0788127 L122.46994,81.1286855 C122.46994,79.9066652 121.799973,79.2098992 120.642269,79.2098992 C119.81151,79.2098992 119.136183,79.6547575 118.841397,80.3461637 L118.771721,80.3461637 C118.525173,79.6547575 117.946321,79.2098992 117.137,79.2098992 C116.338399,79.2098992 115.722029,79.6386782 115.470122,80.3461637 L115.400445,80.3461637 L115.400445,79.3063745 L114.730478,79.3063745 L114.730478,85.0788127 Z" id="ipsum" fill="#6A8898" sketch:type="MSShapeGroup"></path>
                <path d="M225.841023,71.125851 L169.587792,71.125851 C164.097806,71.125851 159.647059,75.5775802 159.647059,81.0687781 L159.647059,82.8955177 C159.647059,88.3870385 164.097806,92.8384448 169.587792,92.8384448 L225.841023,92.8384448 C231.33101,92.8384448 235.781756,88.3870385 235.781756,82.8955177 L235.781756,81.0687781 C235.781756,75.5775802 231.33101,71.125851 225.841023,71.125851 L225.841023,71.125851 Z" id="Stroke-16" stroke="#6A8898" sketch:type="MSShapeGroup"></path>
                <path d="M175.150997,85.175288 C176.035354,85.175288 176.780358,84.6982713 177.123381,83.9264689 L177.187698,83.9264689 L177.187698,85.0788127 L177.863025,85.0788127 L177.863025,77.0070467 L177.160899,77.0070467 L177.160899,80.4319195 L177.096582,80.4319195 C176.769638,79.6761964 176.029994,79.2098992 175.150997,79.2098992 C173.687789,79.2098992 172.706957,80.4051208 172.706957,82.1952735 C172.706957,83.9854261 173.677069,85.175288 175.150997,85.175288 L175.150997,85.175288 Z M175.30107,79.8423483 C176.431975,79.8423483 177.171619,80.7749428 177.171619,82.1899137 C177.171619,83.6156041 176.437334,84.5374791 175.30107,84.5374791 C174.159446,84.5374791 173.430521,83.6263236 173.430521,82.1899137 C173.430521,80.7588636 174.159446,79.8423483 175.30107,79.8423483 L175.30107,79.8423483 Z M182.0597,84.5374791 C180.869838,84.5374791 180.162353,83.6531223 180.162353,82.1899137 C180.162353,80.7267051 180.869838,79.8423483 182.0597,79.8423483 C183.249562,79.8423483 183.957047,80.7267051 183.957047,82.1899137 C183.957047,83.6531223 183.249562,84.5374791 182.0597,84.5374791 L182.0597,84.5374791 Z M182.0597,85.175288 C183.672981,85.175288 184.685972,84.0336637 184.685972,82.1899137 C184.685972,80.3461637 183.672981,79.2098992 182.0597,79.2098992 C180.446419,79.2098992 179.438788,80.3461637 179.438788,82.1899137 C179.438788,84.0336637 180.446419,85.175288 182.0597,85.175288 L182.0597,85.175288 Z M186.256375,85.0788127 L186.958501,85.0788127 L186.958501,77.0070467 L186.256375,77.0070467 L186.256375,85.0788127 Z M191.155176,84.5374791 C189.965314,84.5374791 189.257829,83.6531223 189.257829,82.1899137 C189.257829,80.7267051 189.965314,79.8423483 191.155176,79.8423483 C192.345038,79.8423483 193.052523,80.7267051 193.052523,82.1899137 C193.052523,83.6531223 192.345038,84.5374791 191.155176,84.5374791 L191.155176,84.5374791 Z M191.155176,85.175288 C192.768457,85.175288 193.781448,84.0336637 193.781448,82.1899137 C193.781448,80.3461637 192.768457,79.2098992 191.155176,79.2098992 C189.541895,79.2098992 188.534264,80.3461637 188.534264,82.1899137 C188.534264,84.0336637 189.541895,85.175288 191.155176,85.175288 L191.155176,85.175288 Z M195.298254,85.0788127 L196.000379,85.0788127 L196.000379,81.4770685 C196.000379,80.565913 196.664987,79.890586 197.560063,79.890586 C197.769093,79.890586 198.058519,79.9227444 198.187153,79.9602625 L198.187153,79.2581368 C198.03172,79.2206187 197.83877,79.2098992 197.645819,79.2098992 C196.879377,79.2098992 196.230848,79.6279588 196.037898,80.2550482 L195.968221,80.2550482 L195.968221,79.3063745 L195.298254,79.3063745 L195.298254,85.0788127 Z M202.174798,80.8338999 C202.174798,81.6485801 202.678613,82.0880787 203.750561,82.3453461 L204.624199,82.5543759 C205.396001,82.736607 205.755103,83.0313926 205.755103,83.535208 C205.755103,84.1408585 205.117294,84.5749973 204.270456,84.5749973 C203.434337,84.5749973 202.882284,84.2105351 202.726851,83.6316833 L201.997927,83.6316833 C202.115841,84.580357 202.989478,85.175288 204.249017,85.175288 C205.508555,85.175288 206.478668,84.478522 206.478668,83.4816107 C206.478668,82.6454915 205.937334,82.1952735 204.822509,81.9272865 L204.029268,81.7396957 C203.257465,81.5574646 202.882284,81.2841179 202.882284,80.8071012 C202.882284,80.2282495 203.498653,79.8101899 204.254377,79.8101899 C205.020819,79.8101899 205.556793,80.1639326 205.685427,80.7052662 L206.376833,80.7052662 C206.248199,79.7887509 205.4228,79.2098992 204.259736,79.2098992 C203.096673,79.2098992 202.174798,79.9066652 202.174798,80.8338999 L202.174798,80.8338999 Z M208.011553,85.0788127 L208.713679,85.0788127 L208.713679,79.3063745 L208.011553,79.3063745 L208.011553,85.0788127 Z M208.359936,78.0200373 C208.649362,78.0200373 208.885191,77.7842088 208.885191,77.4947829 C208.885191,77.2107168 208.649362,76.9748883 208.359936,76.9748883 C208.07587,76.9748883 207.840042,77.2107168 207.840042,77.4947829 C207.840042,77.7842088 208.07587,78.0200373 208.359936,78.0200373 L208.359936,78.0200373 Z M210.916531,77.8270867 L210.916531,79.3063745 L209.983937,79.3063745 L209.983937,79.9013054 L210.916531,79.9013054 L210.916531,83.6424028 C210.916531,84.6929115 211.35603,85.1109711 212.460136,85.1109711 C212.58341,85.1109711 212.840677,85.0948919 212.963951,85.073453 L212.963951,84.4731623 C212.846037,84.4838817 212.647727,84.4892415 212.535172,84.4892415 C211.886644,84.4892415 211.618657,84.1890961 211.618657,83.4816107 L211.618657,79.9013054 L212.99075,79.9013054 L212.99075,79.3063745 L211.618657,79.3063745 L211.618657,77.8270867 L210.916531,77.8270867 Z" id="dolor-sit" fill="#6A8898" sketch:type="MSShapeGroup"></path>
                <g id="Group-22" transform="translate(217.920657, 77.500000)" stroke="#6A8898" sketch:type="MSShapeGroup">
                    <path d="M8.7982156,0.203598958 L0.242812038,8.76089062" id="Stroke-18"></path>
                    <path d="M8.7982156,8.76079375 L0.242812038,0.203502083" id="Stroke-20"></path>
                </g>
            </g>
        </g>
    </g>
</svg>