<?xml version="1.0" encoding="UTF-8" standalone="no"?>
<svg width="139px" height="118px" viewBox="0 0 139 118" version="1.1" xmlns="http://www.w3.org/2000/svg" xmlns:xlink="http://www.w3.org/1999/xlink" xmlns:sketch="http://www.bohemiancoding.com/sketch/ns">
    <!-- Generator: Sketch 3.5.2 (25235) - http://www.bohemiancoding.com/sketch -->
    <title>Page 1</title>
    <desc>Created with Sketch.</desc>
    <defs>
        <path id="path-1" d="M0,0.175872611 L138.908914,0.175872611 L138.908914,118 L0,118 L0,0.175872611 Z"></path>
    </defs>
    <g id="Page-1" stroke="none" stroke-width="1" fill="none" fill-rule="evenodd" sketch:type="MSPage">
        <g id="METAFORE-START-desktop" sketch:type="MSArtboardGroup" transform="translate(-331.000000, -830.000000)">
            <g id="Page-1" sketch:type="MSLayerGroup" transform="translate(331.000000, 830.000000)">
                <path d="M82.7366431,82.5379686 C82.7368926,82.4432679 82.7875515,72.9393826 85.2366467,61.1960025 C87.4339447,50.6604314 92.0683594,36.078287 101.668343,26.4406183 L108.754598,33.5544399 L108.754598,13.401493 L88.6804528,13.401493 L94.6100381,19.354355 C82.0670973,31.9467839 76.7229591,50.6837308 74.4455551,64.4937393 L74.4455551,14.6032892 L83.6490022,14.6032892 L69.4545318,0.352847558 L55.2598118,14.6032892 L64.4635084,14.6032892 L64.4635084,64.4944909 C62.1861045,50.6844824 56.8419662,31.9470344 44.2987759,19.354355 L50.2286108,13.401493 L30.1542158,13.401493 L30.1542158,33.5544399 L37.2404707,26.4406183 C46.8404546,36.078287 51.4748693,50.6604314 53.6721673,61.1960025 C56.121512,72.9393826 56.1719214,82.4432679 56.1721709,82.5379686" id="Stroke-1" stroke="#6A8898" sketch:type="MSShapeGroup"></path>
                <mask id="mask-2" sketch:name="Clip 4" fill="white">
                    <use xlink:href="#path-1"></use>
                </mask>
                <g id="Clip-4"></g>
                <path d="M18.8378689,118 L0,118 L0,97.2911253 L18.8378689,97.2911253 L18.8378689,118 Z" id="Fill-3" fill="#ACCD6C" sketch:type="MSShapeGroup" mask="url(#mask-2)"></path>
                <path d="M42.8521777,118 L24.0143088,118 L24.0143088,90.6936476 L42.8521777,90.6936476 L42.8521777,118 Z" id="Fill-5" fill="#4CB05B" sketch:type="MSShapeGroup" mask="url(#mask-2)"></path>
                <path d="M66.866237,118 L48.028368,118 L48.028368,80.5055626 L66.866237,80.5055626 L66.866237,118 Z" id="Fill-6" fill="#ACCD6C" sketch:type="MSShapeGroup" mask="url(#mask-2)"></path>
                <path d="M90.8805458,118 L72.0426768,118 L72.0426768,69.339155 L90.8805458,69.339155 L90.8805458,118 Z" id="Fill-7" fill="#4CB05B" sketch:type="MSShapeGroup" mask="url(#mask-2)"></path>
                <path d="M114.894605,118 L96.0567361,118 L96.0567361,55.1616178 L114.894605,55.1616178 L114.894605,118 Z" id="Fill-8" fill="#ACCD6C" sketch:type="MSShapeGroup" mask="url(#mask-2)"></path>
                <path d="M138.908914,118 L120.071045,118 L120.071045,25.606 L138.908914,25.606 L138.908914,118 Z" id="Fill-9" fill="#4CB05B" sketch:type="MSShapeGroup" mask="url(#mask-2)"></path>
            </g>
        </g>
    </g>
</svg>