<?xml version="1.0" encoding="UTF-8" standalone="no"?>
<svg width="99px" height="99px" viewBox="0 0 99 99" version="1.1" xmlns="http://www.w3.org/2000/svg" xmlns:xlink="http://www.w3.org/1999/xlink" xmlns:sketch="http://www.bohemiancoding.com/sketch/ns">
    <!-- Generator: Sketch 3.5.2 (25235) - http://www.bohemiancoding.com/sketch -->
    <title>Page 1</title>
    <desc>Created with Sketch.</desc>
    <defs>
        <path id="path-1" d="M0,0.180411168 L98.8195888,0.180411168 L98.8195888,99 L0,99"></path>
    </defs>
    <g id="Page-1" stroke="none" stroke-width="1" fill="none" fill-rule="evenodd" sketch:type="MSPage">
        <g id="METAFORE-PRODUKTEN-desktop" sketch:type="MSArtboardGroup" transform="translate(-681.000000, -3878.000000)">
            <g id="Page-1" sketch:type="MSLayerGroup" transform="translate(681.000000, 3878.000000)">
                <g id="Group-3">
                    <mask id="mask-2" sketch:name="Clip 2" fill="white">
                        <use xlink:href="#path-1"></use>
                    </mask>
                    <g id="Clip-2"></g>
                    <path d="M98.8195888,50.8465508 C98.8195888,77.4408655 77.2607056,99.0002513 50.6663909,99.0002513 C24.0715736,99.0002513 2.51269036,77.4408655 2.51269036,50.8465508 C2.51269036,24.252236 24.0715736,2.69335279 50.6663909,2.69335279 C77.2607056,2.69335279 98.8195888,24.252236 98.8195888,50.8465508" id="Fill-1" fill="#121428" sketch:type="MSShapeGroup" mask="url(#mask-2)"></path>
                </g>
                <path d="M96.3068985,48.3338604 C96.3068985,74.9281751 74.7480152,96.4875609 48.1537005,96.4875609 C21.5588832,96.4875609 0,74.9281751 0,48.3338604 C0,21.7395457 21.5588832,0.180662437 48.1537005,0.180662437 C74.7480152,0.180662437 96.3068985,21.7395457 96.3068985,48.3338604" id="Fill-4" fill="#6A8898" sketch:type="MSShapeGroup"></path>
                <path d="M90.307398,48.3338604 C90.307398,71.6149416 71.4345807,90.4877589 48.1534995,90.4877589 C24.8724183,90.4877589 5.99960102,71.6149416 5.99960102,48.3338604 C5.99960102,25.0527792 24.8724183,6.17996193 48.1534995,6.17996193 C71.4345807,6.17996193 90.307398,25.0527792 90.307398,48.3338604" id="Fill-6" fill="#51BBB4" sketch:type="MSShapeGroup"></path>
                <path d="M59.9070107,25.3752076 C59.9070107,31.0337863 55.3198431,35.6209538 49.6612645,35.6209538 C44.0021832,35.6209538 39.4150157,31.0337863 39.4150157,25.3752076 C39.4150157,19.7166289 44.0021832,15.1294614 49.6612645,15.1294614 C55.3198431,15.1294614 59.9070107,19.7166289 59.9070107,25.3752076" id="Fill-8" fill="#6A8898" sketch:type="MSShapeGroup"></path>
                <path d="M42.1125396,23.8675934 L56.8916817,23.8675934 L49.5023619,52.836903 L56.8916817,52.836903 L52.1738543,79.7955579 L44.1332452,79.7955579 L48.1535497,59.8613802 L39.4149152,59.8613802 L42.1125396,23.8675934 Z" id="Fill-10" fill="#6A8898" sketch:type="MSShapeGroup"></path>
                <path d="M59.9070107,25.8777457 C59.9070107,30.7036188 55.9947518,34.6158777 51.1688787,34.6158777 C46.342503,34.6158777 42.4302442,30.7036188 42.4302442,25.8777457 C42.4302442,21.0518726 46.342503,17.1396137 51.1688787,17.1396137 C55.9947518,17.1396137 59.9070107,21.0518726 59.9070107,25.8777457" id="Fill-12" fill="#121428" sketch:type="MSShapeGroup"></path>
                <path d="M45.127768,25.8777457 L59.9069102,25.8777457 L52.5175904,53.0042482 L59.9069102,53.0042482 L55.1785294,79.7955579 L47.1379203,79.7955579 L51.1687782,60.0287254 L42.4301437,60.0287254 L45.127768,25.8777457 Z" id="Fill-14" fill="#121428" sketch:type="MSShapeGroup"></path>
            </g>
        </g>
    </g>
</svg>