<?xml version="1.0" encoding="UTF-8" standalone="no"?>
<svg width="141px" height="52px" viewBox="0 0 141 52" version="1.1" xmlns="http://www.w3.org/2000/svg" xmlns:xlink="http://www.w3.org/1999/xlink" xmlns:sketch="http://www.bohemiancoding.com/sketch/ns">
    <!-- Generator: Sketch 3.5.2 (25235) - http://www.bohemiancoding.com/sketch -->
    <title>Page 1</title>
    <desc>Created with Sketch.</desc>
    <defs></defs>
    <g id="Page-1" stroke="none" stroke-width="1" fill="none" fill-rule="evenodd" sketch:type="MSPage">
        <g id="METAFORE-START-desktop" sketch:type="MSArtboardGroup" transform="translate(-650.000000, -1195.000000)">
            <g id="Page-1" sketch:type="MSLayerGroup" transform="translate(650.000000, 1196.000000)">
                <path d="M31.1211523,24.9321429 C31.1211523,33.527381 24.154456,40.495068 15.5604401,40.495068 C6.96676431,40.495068 6.80175376e-05,33.527381 6.80175376e-05,24.9321429 C6.80175376e-05,16.3369048 6.96676431,9.36921769 15.5604401,9.36921769 C24.154456,9.36921769 31.1211523,16.3369048 31.1211523,24.9321429" id="Fill-1" fill="#4CB05B" sketch:type="MSShapeGroup"></path>
                <path d="M130.488428,24.9321429 C130.488428,33.527381 123.521731,40.495068 114.927715,40.495068 C106.33404,40.495068 99.3673433,33.527381 99.3673433,24.9321429 C99.3673433,16.3369048 106.33404,9.36921769 114.927715,9.36921769 C123.521731,9.36921769 130.488428,16.3369048 130.488428,24.9321429" id="Fill-3" fill="#A41749" sketch:type="MSShapeGroup"></path>
                <path d="M139.8221,24.9321429 C139.8221,38.6828231 128.676406,49.830102 114.927681,49.830102 C101.179296,49.830102 90.0336027,38.6828231 90.0336027,24.9321429 C90.0336027,11.1814626 101.179296,0.0341836735 114.927681,0.0341836735 C128.676406,0.0341836735 139.8221,11.1814626 139.8221,24.9321429 L139.8221,24.9321429 Z" id="Stroke-5" stroke="#EDA950" sketch:type="MSShapeGroup"></path>
                <path d="M76.7818014,24.9321429 C76.7818014,33.527381 69.8151051,40.495068 61.2210892,40.495068 C52.6274134,40.495068 45.6607171,33.527381 45.6607171,24.9321429 C45.6607171,16.3369048 52.6274134,9.36921769 61.2210892,9.36921769 C69.8151051,9.36921769 76.7818014,16.3369048 76.7818014,24.9321429" id="Fill-7" fill="#EEA950" sketch:type="MSShapeGroup"></path>
                <path d="M81.0125603,24.9321429 C81.0125603,35.8641156 72.1515755,44.7263605 61.2211572,44.7263605 C50.290739,44.7263605 41.4297542,35.8641156 41.4297542,24.9321429 C41.4297542,14.0001701 50.290739,5.13792517 61.2211572,5.13792517 C72.1515755,5.13792517 81.0125603,14.0001701 81.0125603,24.9321429 L81.0125603,24.9321429 Z" id="Stroke-9" stroke="#4CAF5B" sketch:type="MSShapeGroup"></path>
            </g>
        </g>
    </g>
</svg>