<?xml version="1.0" encoding="UTF-8" standalone="no"?>
<svg width="67px" height="121px" viewBox="0 0 67 121" version="1.1" xmlns="http://www.w3.org/2000/svg" xmlns:xlink="http://www.w3.org/1999/xlink" xmlns:sketch="http://www.bohemiancoding.com/sketch/ns">
    <!-- Generator: Sketch 3.5.2 (25235) - http://www.bohemiancoding.com/sketch -->
    <title>Page 1</title>
    <desc>Created with Sketch.</desc>
    <defs>
        <path id="path-1" d="M0,0.0030485 L66.8272792,0.0030485 L66.8272792,119.7625 L0,119.7625"></path>
        <path id="path-3" d="M0,0.0030485 L66.8272792,0.0030485 L66.8272792,119.7625 L0,119.7625"></path>
    </defs>
    <g id="Page-1" stroke="none" stroke-width="1" fill="none" fill-rule="evenodd" sketch:type="MSPage">
        <g id="METAFORE-PRODUKTEN-desktop" sketch:type="MSArtboardGroup" transform="translate(-687.000000, -2332.000000)">
            <g id="Page-1" sketch:type="MSLayerGroup" transform="translate(687.000000, 2332.000000)">
                <path d="M18.7269351,65.457392 L12.9357857,65.457392 L12.9357857,59.109544 L18.7269351,59.109544 L18.7269351,65.457392 Z" id="Fill-1" fill="#51BBB4" sketch:type="MSShapeGroup"></path>
                <path d="M26.1095519,65.457392 L20.3184026,65.457392 L20.3184026,57.087082 L26.1095519,57.087082 L26.1095519,65.457392 Z" id="Fill-2" fill="#6A8898" sketch:type="MSShapeGroup"></path>
                <path d="M33.4921688,65.457392 L27.7010195,65.457392 L27.7010195,53.9641115 L33.4921688,53.9641115 L33.4921688,65.457392 Z" id="Fill-3" fill="#51BBB4" sketch:type="MSShapeGroup"></path>
                <path d="M40.8747857,65.457392 L35.0836364,65.457392 L35.0836364,50.541517 L40.8747857,50.541517 L40.8747857,65.457392 Z" id="Fill-4" fill="#6A8898" sketch:type="MSShapeGroup"></path>
                <path d="M48.2574026,65.457392 L42.4662532,65.457392 L42.4662532,46.1956625 L48.2574026,46.1956625 L48.2574026,65.457392 Z" id="Fill-5" fill="#51BBB4" sketch:type="MSShapeGroup"></path>
                <path d="M55.6400195,65.457392 L49.8488701,65.457392 L49.8488701,37.135956 L55.6400195,37.135956 L55.6400195,65.457392 Z" id="Fill-6" fill="#6A8898" sketch:type="MSShapeGroup"></path>
                <path d="M18.7269351,113.688146 L12.9357857,113.688146 L12.9357857,107.340298 L18.7269351,107.340298 L18.7269351,113.688146 Z" id="Fill-7" fill="#ACCD6C" sketch:type="MSShapeGroup"></path>
                <path d="M26.1095519,113.688146 L20.3184026,113.688146 L20.3184026,105.317836 L26.1095519,105.317836 L26.1095519,113.688146 Z" id="Fill-8" fill="#4CB05B" sketch:type="MSShapeGroup"></path>
                <path d="M33.4921688,113.688146 L27.7010195,113.688146 L27.7010195,102.194865 L33.4921688,102.194865 L33.4921688,113.688146 Z" id="Fill-9" fill="#ACCD6C" sketch:type="MSShapeGroup"></path>
                <path d="M40.8747857,113.688146 L35.0836364,113.688146 L35.0836364,98.772271 L40.8747857,98.772271 L40.8747857,113.688146 Z" id="Fill-10" fill="#4CB05B" sketch:type="MSShapeGroup"></path>
                <path d="M48.2574026,113.688146 L42.4662532,113.688146 L42.4662532,94.4264165 L48.2574026,94.4264165 L48.2574026,113.688146 Z" id="Fill-11" fill="#ACCD6C" sketch:type="MSShapeGroup"></path>
                <path d="M55.6400195,113.688146 L49.8488701,113.688146 L49.8488701,85.36671 L55.6400195,85.36671 L55.6400195,113.688146 Z" id="Fill-12" fill="#4CB05B" sketch:type="MSShapeGroup"></path>
                <path d="M18.7269351,82.9266035 L12.9357857,82.9266035 L12.9357857,79.567592 L18.7269351,79.567592 L18.7269351,82.9266035 Z" id="Fill-13" fill="#ECAFB5" sketch:type="MSShapeGroup"></path>
                <path d="M26.1095519,82.9266035 L20.3184026,82.9266035 L20.3184026,78.497133 L26.1095519,78.497133 L26.1095519,82.9266035 Z" id="Fill-14" fill="#75595F" sketch:type="MSShapeGroup"></path>
                <path d="M33.4921688,82.9266035 L27.7010195,82.9266035 L27.7010195,76.844846 L33.4921688,76.844846 L33.4921688,82.9266035 Z" id="Fill-15" fill="#ECAFB5" sketch:type="MSShapeGroup"></path>
                <path d="M40.8747857,82.9266035 L35.0836364,82.9266035 L35.0836364,75.0336015 L40.8747857,75.0336015 L40.8747857,82.9266035 Z" id="Fill-16" fill="#75595F" sketch:type="MSShapeGroup"></path>
                <path d="M48.2574026,82.9266035 L42.4662532,82.9266035 L42.4662532,72.733726 L48.2574026,72.733726 L48.2574026,82.9266035 Z" id="Fill-17" fill="#ECAFB5" sketch:type="MSShapeGroup"></path>
                <path d="M55.6400195,82.9266035 L49.8488701,82.9266035 L49.8488701,67.939742 L55.6400195,67.939742 L55.6400195,82.9266035 Z" id="Fill-18" fill="#75595F" sketch:type="MSShapeGroup"></path>
                <g id="Group-45">
                    <path d="M49.137974,32.5983073 C49.137974,32.5983073 45.3616104,22.4724968 35.0836364,22.5182243 C28.401039,22.5478383 23.9807792,26.9908093 21.0667143,32.5299338 L46.725974,32.5299338 L49.137974,32.5983073 Z" id="Fill-19" fill="#6A8898" sketch:type="MSShapeGroup"></path>
                    <path d="M49.137974,14.0714405 C49.137974,21.841196 42.8456299,28.1398325 35.0836364,28.1398325 C27.3216429,28.1398325 21.0288636,21.841196 21.0288636,14.0714405 C21.0288636,6.301685 27.3216429,0.0030485 35.0836364,0.0030485 C42.8456299,0.0030485 49.137974,6.301685 49.137974,14.0714405" id="Fill-21" fill="#ACCD6C" sketch:type="MSShapeGroup"></path>
                    <path d="M2.95852857,119.54475 L2.95852857,46.187388 L16.6308792,32.5018005 L63.8767558,32.5018005 L63.8767558,119.54475 L2.95852857,119.54475 L2.95852857,119.54475 Z" id="Stroke-23" stroke="#6A8898" sketch:type="MSShapeGroup"></path>
                    <path d="M16.4722981,46.1877364 L2.9587461,46.1877364 L16.6306617,32.5017134 L16.4722981,46.1877364 L16.4722981,46.1877364 Z" id="Stroke-25" stroke="#6A8898" sketch:type="MSShapeGroup"></path>
                    <path d="M4.25027987,59.1095005 L1.64511104,59.1095005 C0.743221429,59.1095005 0.0053512987,58.3708925 0.0053512987,57.468101 C0.0053512987,56.5653095 0.743221429,55.8267015 1.64511104,55.8267015 L4.25027987,55.8267015 C5.15216948,55.8267015 5.89003961,56.5653095 5.89003961,57.468101 C5.89003961,58.3708925 5.15216948,59.1095005 4.25027987,59.1095005" id="Fill-27" fill="#ACCD6C" sketch:type="MSShapeGroup"></path>
                    <path d="M4.26106948,59.6308375 L1.65590065,59.6308375 C0.754011039,59.6308375 0.0161409091,60.3694455 0.0161409091,61.272237 C0.0161409091,62.1750285 0.754011039,62.9136365 1.65590065,62.9136365 L4.26106948,62.9136365 C5.16295909,62.9136365 5.90082922,62.1750285 5.90082922,61.272237 C5.90082922,60.3694455 5.16295909,59.6308375 4.26106948,59.6308375" id="Fill-29" fill="#ACCD6C" sketch:type="MSShapeGroup"></path>
                    <g id="Group-33">
                        <mask id="mask-2" sketch:name="Clip 32" fill="white">
                            <use xlink:href="#path-1"></use>
                        </mask>
                        <g id="Clip-32"></g>
                        <path d="M4.24488506,66.8396254 L1.63971623,66.8396254 C0.737826623,66.8396254 -4.35064935e-05,66.1010175 -4.35064935e-05,65.1982259 L-4.35064935e-05,65.1982259 C-4.35064935e-05,64.2954344 0.737826623,63.5568264 1.63971623,63.5568264 L4.24488506,63.5568264 C5.14677468,63.5568264 5.88464481,64.2954344 5.88464481,65.1982259 L5.88464481,65.1982259 C5.88464481,66.1010175 5.14677468,66.8396254 4.24488506,66.8396254" id="Fill-31" fill="#ACCD6C" sketch:type="MSShapeGroup" mask="url(#mask-2)"></path>
                    </g>
                    <path d="M4.25567468,67.3609625 L1.65050584,67.3609625 C0.748616234,67.3609625 0.0107461039,68.0995705 0.0107461039,69.002362 L0.0107461039,69.002362 C0.0107461039,69.9051535 0.748616234,70.6437615 1.65050584,70.6437615 L4.25567468,70.6437615 C5.15756429,70.6437615 5.89543442,69.9051535 5.89543442,69.002362 L5.89543442,69.002362 C5.89543442,68.0995705 5.15756429,67.3609625 4.25567468,67.3609625" id="Fill-34" fill="#ACCD6C" sketch:type="MSShapeGroup"></path>
                    <path d="M65.1767734,59.1095005 L62.5716045,59.1095005 C61.6697149,59.1095005 60.9318448,58.3708925 60.9318448,57.468101 C60.9318448,56.5653095 61.6697149,55.8267015 62.5716045,55.8267015 L65.1767734,55.8267015 C66.078663,55.8267015 66.8165331,56.5653095 66.8165331,57.468101 C66.8165331,58.3708925 66.078663,59.1095005 65.1767734,59.1095005" id="Fill-36" fill="#ACCD6C" sketch:type="MSShapeGroup"></path>
                    <g id="Group-40">
                        <mask id="mask-4" sketch:name="Clip 39" fill="white">
                            <use xlink:href="#path-3"></use>
                        </mask>
                        <g id="Clip-39"></g>
                        <path d="M65.187563,59.6308375 L62.5823942,59.6308375 C61.6805045,59.6308375 60.9426344,60.3694455 60.9426344,61.272237 C60.9426344,62.1750285 61.6805045,62.9136365 62.5823942,62.9136365 L65.187563,62.9136365 C66.0894526,62.9136365 66.8273227,62.1750285 66.8273227,61.272237 C66.8273227,60.3694455 66.0894526,59.6308375 65.187563,59.6308375" id="Fill-38" fill="#ACCD6C" sketch:type="MSShapeGroup" mask="url(#mask-4)"></path>
                    </g>
                    <path d="M65.1713786,66.8396254 L62.5662097,66.8396254 C61.6643201,66.8396254 60.92645,66.1010175 60.92645,65.1982259 L60.92645,65.1982259 C60.92645,64.2954344 61.6643201,63.5568264 62.5662097,63.5568264 L65.1713786,63.5568264 C66.0732682,63.5568264 66.8111383,64.2954344 66.8111383,65.1982259 L66.8111383,65.1982259 C66.8111383,66.1010175 66.0732682,66.8396254 65.1713786,66.8396254" id="Fill-41" fill="#ACCD6C" sketch:type="MSShapeGroup"></path>
                    <path d="M65.1821682,67.3609625 L62.5769994,67.3609625 C61.6751097,67.3609625 60.9372396,68.0995705 60.9372396,69.002362 L60.9372396,69.002362 C60.9372396,69.9051535 61.6751097,70.6437615 62.5769994,70.6437615 L65.1821682,70.6437615 C66.0840578,70.6437615 66.8219279,69.9051535 66.8219279,69.002362 L66.8219279,69.002362 C66.8219279,68.0995705 66.0840578,67.3609625 65.1821682,67.3609625" id="Fill-43" fill="#ACCD6C" sketch:type="MSShapeGroup"></path>
                </g>
            </g>
        </g>
    </g>
</svg>