<?xml version="1.0" encoding="UTF-8" standalone="no"?>
<svg width="238px" height="94px" viewBox="0 0 238 94" version="1.1" xmlns="http://www.w3.org/2000/svg" xmlns:xlink="http://www.w3.org/1999/xlink">
    <!-- Generator: Sketch 3.6.1 (26313) - http://www.bohemiancoding.com/sketch -->
    <title>search_icon-swe</title>
    <desc>Created with Sketch.</desc>
    <defs>
        <path id="path-1" d="M0,0.136270833 L235.943179,0.136270833 L235.943179,93 L0,93 L23.75,81.4707031"></path>
    </defs>
    <g id="Page-1" stroke="none" stroke-width="1" fill="none" fill-rule="evenodd">
        <g id="METAFORE-START-desktop" transform="translate(-921.000000, -1185.000000)">
            <g id="search_icon-swe" transform="translate(922.000000, 1185.000000)">
                <g id="Group-10">
                    <path d="M56.8188886,80.749349 L56.8188886,80.749349 C57.3160706,80.4997344 57.9214057,80.6960677 58.1774222,81.1898073 L58.8750911,82.535724 C59.2092361,83.1805885 60.0922183,83.2771406 60.5574386,82.7194635 L64.3776684,78.1440573 C64.7482949,77.7003698 65.4140022,77.6545156 65.8417724,78.0436302 L65.9915726,78.179901 C66.41902,78.5686927 66.4370993,79.2355156 66.0306369,79.6465885 L59.9876164,85.763599 C59.5181992,86.2386094 58.7259365,86.139474 58.3879174,85.5633906 L56.3985439,82.1724427 C56.1012033,81.6657865 56.293942,81.0131719 56.8188886,80.749349" id="Fill-1" fill="#4CB05B"></path>
                    <path d="M122.766328,31.4015146 C116.882793,37.9147437 106.700249,37.9150667 100.816391,31.4015146 C95.7787114,25.8247438 95.7783885,17.1986708 100.816391,11.6219 C106.699926,5.10834792 116.882471,5.10834792 122.766328,11.6215771 C127.804331,17.1986708 127.804008,25.8244208 122.766328,31.4015146 M97.8914118,8.86806667 C91.3660602,16.0261604 91.4083529,27.1438583 97.9837456,34.2560979 C104.241135,41.0244313 114.194782,42.106525 121.640566,37.5130354 L136.162476,52.03815 C137.284687,53.1606083 139.104566,53.1606083 140.226777,52.03815 L142.076681,50.1878375 C143.198892,49.0653792 143.198892,47.2450979 142.076681,46.1223167 L127.60901,31.651775 C132.279937,24.3771083 131.438602,14.5872438 125.076287,8.22384792 C117.530421,0.67599375 105.162859,0.890733333 97.8914118,8.86806667" id="Fill-3" fill="#51BBB4"></path>
                    <g id="Group-7">
                        <mask id="mask-2" fill="white">
                            <use xlink:href="#path-1"></use>
                        </mask>
                        <g id="Clip-6"></g>
                        <path d="M122.766328,28.8181813 C116.882793,35.3314104 106.700249,35.3317333 100.816391,28.8181813 C95.7787114,23.2414104 95.7783885,14.6153375 100.816391,9.03856667 C106.699926,2.52501458 116.882471,2.52501458 122.766328,9.03824375 C127.804331,14.6153375 127.804008,23.2410875 122.766328,28.8181813 M97.8914118,6.28473333 C91.3660602,13.4428271 91.4083529,24.560525 97.9837456,31.6727646 C104.241135,38.4410979 114.194782,39.5231917 121.640566,34.9297021 L136.162476,49.4548167 C137.284687,50.577275 139.104566,50.577275 140.226777,49.4548167 L142.076681,47.6045042 C143.198892,46.4820458 143.198892,44.6617646 142.076681,43.5389833 L127.60901,29.0684417 C132.279937,21.793775 131.438602,12.0039104 125.076287,5.64051458 C117.530421,-1.90733958 105.162859,-1.6926 97.8914118,6.28473333" id="Fill-5" fill="#6A8898" mask="url(#mask-2)"></path>
                    </g>
                    <path d="M66.3553871,71.125851 L10.102156,71.125851 C4.61216963,71.125851 0.161422709,75.5775802 0.161422709,81.0687781 L0.161422709,82.8955177 C0.161422709,88.3870385 4.61216963,92.8384448 10.102156,92.8384448 L66.3553871,92.8384448 C71.8453735,92.8384448 76.2961204,88.3870385 76.2961204,82.8955177 L76.2961204,81.0687781 C76.2961204,75.5775802 71.8453735,71.125851 66.3553871,71.125851 L66.3553871,71.125851 Z" id="Stroke-8" stroke="#6A8898"></path>
                </g>
                <g id="Group-15" transform="translate(79.742818, 71.041667)">
                    <path d="M56.926493,9.70768229 L56.926493,9.70768229 C57.423675,9.45806771 58.0290101,9.65440104 58.2850265,10.1481406 L58.9826955,11.4940573 C59.3168405,12.1389219 60.1998227,12.235474 60.665043,11.6777969 L64.4852728,7.10239062 C64.8558993,6.65870312 65.5216066,6.61284896 65.9493767,7.00196354 L66.099177,7.13823437 C66.5266244,7.52702604 66.5447037,8.19384896 66.1382413,8.60492187 L60.0952208,14.7219323 C59.6258036,15.1969427 58.8335409,15.0978073 58.4955218,14.521724 L56.5061483,11.130776 C56.2088077,10.6241198 56.4015464,9.97150521 56.926493,9.70768229" id="Fill-11" fill="#4CB05B"></path>
                    <path d="M66.4629915,0.084184375 L10.2097603,0.084184375 C4.71977401,0.084184375 0.269027086,4.53591354 0.269027086,10.0271115 L0.269027086,11.853851 C0.269027086,17.3453719 4.71977401,21.7967781 10.2097603,21.7967781 L66.4629915,21.7967781 C71.9529778,21.7967781 76.4037248,17.3453719 76.4037248,11.853851 L76.4037248,10.0271115 C76.4037248,4.53591354 71.9529778,0.084184375 66.4629915,0.084184375 L66.4629915,0.084184375 Z" id="Stroke-13" stroke="#6A8898"></path>
                </g>
                <path d="M225.841023,71.125851 L169.587792,71.125851 C164.097806,71.125851 159.647059,75.5775802 159.647059,81.0687781 L159.647059,82.8955177 C159.647059,88.3870385 164.097806,92.8384448 169.587792,92.8384448 L225.841023,92.8384448 C231.33101,92.8384448 235.781756,88.3870385 235.781756,82.8955177 L235.781756,81.0687781 C235.781756,75.5775802 231.33101,71.125851 225.841023,71.125851 L225.841023,71.125851 Z" id="Stroke-16" stroke="#6A8898"></path>
                <g id="Group-22" transform="translate(217.920657, 77.500000)" stroke="#6A8898">
                    <path d="M8.7982156,0.203598958 L0.242812038,8.76089062" id="Stroke-18"></path>
                    <path d="M8.7982156,8.76079375 L0.242812038,0.203502083" id="Stroke-20"></path>
                </g>
                <path d="M10.9550781,86 L10.9550781,83.2929688 L11.8842773,82.2670898 L14.6826172,86 L15.934082,86 L12.550293,81.5957031 L15.6494141,78.2495117 L14.4355469,78.2495117 L11.0410156,82.0146484 L10.9550781,82.0146484 L10.9550781,78.2495117 L9.98828125,78.2495117 L9.98828125,86 L10.9550781,86 Z M21.7026367,80.2099609 L20.7788086,80.2099609 L20.7788086,83.6367188 C20.7788086,84.6518555 20.1665039,85.2587891 19.1459961,85.2587891 C18.222168,85.2587891 17.7817383,84.7753906 17.7817383,83.7333984 L17.7817383,80.2099609 L16.8579102,80.2099609 L16.8579102,83.9589844 C16.8579102,85.3286133 17.5883789,86.1020508 18.8881836,86.1020508 C19.7744141,86.1020508 20.4458008,85.7368164 20.7358398,85.0922852 L20.8217773,85.0922852 L20.8217773,86 L21.7026367,86 L21.7026367,80.2099609 Z M23.6147461,86 L24.5385742,86 L24.5385742,82.5732422 C24.5385742,81.5581055 25.1508789,80.9404297 26.1660156,80.9404297 C27.0898438,80.9404297 27.5302734,81.4345703 27.5302734,82.4765625 L27.5302734,86 L28.4541016,86 L28.4541016,82.2509766 C28.4541016,80.8759766 27.7290039,80.1079102 26.4291992,80.1079102 C25.5429688,80.1079102 24.871582,80.4838867 24.581543,81.1230469 L24.4956055,81.1230469 L24.4956055,80.2099609 L23.6147461,80.2099609 L23.6147461,86 Z M32.4555664,86.1020508 C33.2558594,86.1020508 33.9433594,85.7207031 34.3085938,85.0761719 L34.3945312,85.0761719 L34.3945312,86 L35.2753906,86 L35.2753906,77.9111328 L34.3515625,77.9111328 L34.3515625,81.1230469 L34.2709961,81.1230469 C33.9433594,80.4892578 33.2612305,80.1079102 32.4555664,80.1079102 C30.9838867,80.1079102 30.0224609,81.2895508 30.0224609,83.1049805 C30.0224609,84.9257812 30.9731445,86.1020508 32.4555664,86.1020508 L32.4555664,86.1020508 Z M32.6704102,80.9404297 C33.7177734,80.9404297 34.3730469,81.7783203 34.3730469,83.1049805 C34.3730469,84.4423828 33.7231445,85.2695312 32.6704102,85.2695312 C31.6123047,85.2695312 30.9785156,84.4584961 30.9785156,83.1049805 C30.9785156,81.7568359 31.6176758,80.9404297 32.6704102,80.9404297 L32.6704102,80.9404297 Z" id="Kund" fill="#6A8898"></path>
                <path d="M90.9550781,86 L90.9550781,82.6430664 L94.387207,82.6430664 L94.387207,81.7836914 L90.9550781,81.7836914 L90.9550781,79.1196289 L94.6933594,79.1196289 L94.6933594,78.2495117 L89.9882812,78.2495117 L89.9882812,86 L90.9550781,86 Z M98.7163086,85.2695312 C97.6206055,85.2695312 97.0029297,84.4746094 97.0029297,83.1049805 C97.0029297,81.7299805 97.6206055,80.9404297 98.7163086,80.9404297 C99.8120117,80.9404297 100.429688,81.7299805 100.429688,83.1049805 C100.429688,84.4746094 99.8120117,85.2695312 98.7163086,85.2695312 L98.7163086,85.2695312 Z M98.7163086,86.1020508 C100.365234,86.1020508 101.385742,84.9633789 101.385742,83.1049805 C101.385742,81.2412109 100.365234,80.1079102 98.7163086,80.1079102 C97.0673828,80.1079102 96.046875,81.2412109 96.046875,83.1049805 C96.046875,84.9633789 97.0673828,86.1020508 98.7163086,86.1020508 L98.7163086,86.1020508 Z M103.007812,86 L103.931641,86 L103.931641,82.5732422 C103.931641,81.5581055 104.543945,80.9404297 105.559082,80.9404297 C106.48291,80.9404297 106.92334,81.4345703 106.92334,82.4765625 L106.92334,86 L107.847168,86 L107.847168,82.2509766 C107.847168,80.8759766 107.12207,80.1079102 105.822266,80.1079102 C104.936035,80.1079102 104.264648,80.4838867 103.974609,81.1230469 L103.888672,81.1230469 L103.888672,80.2099609 L103.007812,80.2099609 L103.007812,86 Z M111.848633,86.1020508 C112.648926,86.1020508 113.336426,85.7207031 113.70166,85.0761719 L113.787598,85.0761719 L113.787598,86 L114.668457,86 L114.668457,77.9111328 L113.744629,77.9111328 L113.744629,81.1230469 L113.664062,81.1230469 C113.336426,80.4892578 112.654297,80.1079102 111.848633,80.1079102 C110.376953,80.1079102 109.415527,81.2895508 109.415527,83.1049805 C109.415527,84.9257812 110.366211,86.1020508 111.848633,86.1020508 L111.848633,86.1020508 Z M112.063477,80.9404297 C113.11084,80.9404297 113.766113,81.7783203 113.766113,83.1049805 C113.766113,84.4423828 113.116211,85.2695312 112.063477,85.2695312 C111.005371,85.2695312 110.371582,84.4584961 110.371582,83.1049805 C110.371582,81.7568359 111.010742,80.9404297 112.063477,80.9404297 L112.063477,80.9404297 Z" id="Fond" fill="#6A8898"></path>
                <path d="M174.026367,86 L175.041504,86 L172.184082,78.2495117 L171.228027,78.2495117 L168.370605,86 L169.385742,86 L170.164551,83.7817383 L173.247559,83.7817383 L174.026367,86 Z M171.663086,79.5009766 L171.749023,79.5009766 L172.962891,82.9599609 L170.449219,82.9599609 L171.663086,79.5009766 Z M177.517578,82.7397461 L177.431641,82.7397461 L177.431641,77.9111328 L176.507812,77.9111328 L176.507812,86 L177.431641,86 L177.431641,83.8032227 L177.984863,83.2875977 L180.154785,86 L181.331055,86 L178.672363,82.6914062 L181.164551,80.2099609 L180.03125,80.2099609 L177.517578,82.7397461 Z M182.985352,78.7651367 L182.985352,80.2099609 L182.013184,80.2099609 L182.013184,80.9833984 L182.985352,80.9833984 L182.985352,84.4960938 C182.985352,85.6025391 183.463379,86.0429688 184.655762,86.0429688 C184.838379,86.0429688 185.004883,86.0214844 185.1875,85.9892578 L185.1875,85.2104492 C185.015625,85.2265625 184.935059,85.2319336 184.768555,85.2319336 C184.166992,85.2319336 183.90918,84.9418945 183.90918,84.2597656 L183.90918,80.9833984 L185.251953,80.9833984 L185.251953,80.2099609 L183.90918,80.2099609 L183.90918,78.7651367 L182.985352,78.7651367 Z M186.788086,86 L187.711914,86 L187.711914,80.2099609 L186.788086,80.2099609 L186.788086,86 Z M187.25,79.0336914 C187.604492,79.0336914 187.894531,78.7436523 187.894531,78.3891602 C187.894531,78.034668 187.604492,77.7446289 187.25,77.7446289 C186.895508,77.7446289 186.605469,78.034668 186.605469,78.3891602 C186.605469,78.7436523 186.895508,79.0336914 187.25,79.0336914 L187.25,79.0336914 Z M191.955078,80.9243164 C192.873535,80.9243164 193.48584,81.6010742 193.507324,82.6269531 L190.316895,82.6269531 C190.386719,81.6010742 191.03125,80.9243164 191.955078,80.9243164 L191.955078,80.9243164 Z M193.480469,84.5014648 C193.23877,85.0117188 192.733887,85.2856445 191.987305,85.2856445 C191.004395,85.2856445 190.365234,84.5605469 190.316895,83.4165039 L190.316895,83.3735352 L194.479492,83.3735352 L194.479492,83.019043 C194.479492,81.2197266 193.528809,80.1079102 191.96582,80.1079102 C190.375977,80.1079102 189.355469,81.2895508 189.355469,83.1103516 C189.355469,84.9418945 190.359863,86.1020508 191.96582,86.1020508 C193.233398,86.1020508 194.125,85.4951172 194.404297,84.5014648 L193.480469,84.5014648 Z" id="Aktie" fill="#6A8898"></path>
            </g>
        </g>
    </g>
</svg>