<?xml version="1.0" encoding="utf-8"?>
<!-- Generator: Adobe Illustrator 17.0.1, SVG Export Plug-In . SVG Version: 6.00 Build 0)  -->
<!DOCTYPE svg PUBLIC "-//W3C//DTD SVG 1.1//EN" "http://www.w3.org/Graphics/SVG/1.1/DTD/svg11.dtd">
<svg version="1.1" id="Layer_1" xmlns="http://www.w3.org/2000/svg" xmlns:xlink="http://www.w3.org/1999/xlink" x="0px" y="0px"
	 width="266px" height="208.999px" viewBox="0 0 266 208.999" enable-background="new 0 0 266 208.999" xml:space="preserve">
<path opacity="0.1" fill-rule="evenodd" clip-rule="evenodd" d="M9.5,0h247v208.999c0,0-62.25-32-124-32c-61.75,0-123,32-123,32V0z"
	/>
<path fill-rule="evenodd" clip-rule="evenodd" fill="#FFFFFF" d="M0,0h266v194.999c0,0-66.5-17-133-17c-66.5,0-133,17-133,17V0z"/>
<linearGradient id="SVGID_1_" gradientUnits="userSpaceOnUse" x1="133" y1="-5.970833e-009" x2="133" y2="194.9994">
	<stop  offset="0" style="stop-color:#FFFFFF"/>
	<stop  offset="0.3257" style="stop-color:#FCFCFC"/>
	<stop  offset="0.5944" style="stop-color:#F2F2F2"/>
	<stop  offset="0.8421" style="stop-color:#E0E0E0"/>
	<stop  offset="1" style="stop-color:#D1D1D1"/>
</linearGradient>
<path opacity="0.1" fill-rule="evenodd" clip-rule="evenodd" fill="url(#SVGID_1_)" d="M0,0h266v194.999c0,0-66.5-17-133-17
	c-66.5,0-133,17-133,17V0z"/>
</svg>
