<?xml version="1.0" encoding="UTF-8" standalone="no"?>
<svg width="207px" height="27px" viewBox="0 0 207 27" version="1.1" xmlns="http://www.w3.org/2000/svg" xmlns:xlink="http://www.w3.org/1999/xlink" xmlns:sketch="http://www.bohemiancoding.com/sketch/ns">
    <!-- Generator: Sketch 3.5.2 (25235) - http://www.bohemiancoding.com/sketch -->
    <title>Group 3</title>
    <desc>Created with Sketch.</desc>
    <defs>
        <path id="path-1" d="M0,0.0770450475 L41.6401783,0.0770450475 L41.6401783,25.5545455 L0,25.5545455"></path>
        <path id="path-3" d="M0,0.0770450475 L41.6401783,0.0770450475 L41.6401783,25.5545455 L0,25.5545455"></path>
        <path id="path-5" d="M0,0.0770450475 L41.6401783,0.0770450475 L41.6401783,25.5545455 L0,25.5545455"></path>
    </defs>
    <g id="Page-1" stroke="none" stroke-width="1" fill="none" fill-rule="evenodd" sketch:type="MSPage">
        <g id="METAFORE-START-desktop" sketch:type="MSArtboardGroup" transform="translate(-251.000000, -4559.000000)">
            <g id="Group-3" sketch:type="MSLayerGroup" transform="translate(251.000000, 4559.000000)">
                <g id="Page-1-Copy-3" transform="translate(0.000000, 0.529985)">
                    <path d="M29.6315634,7.08089756 L29.6315634,0.0770450475 C18.271233,3.84920109 8.63907643,25.5545455 0.000114423338,25.5545455 L9.7211398,25.5545455 C15.6902239,25.5545455 22.2157869,13.3943959 29.6315634,7.08089756" id="Fill-1" fill="#ACCD6C" sketch:type="MSShapeGroup"></path>
                    <path d="M34.9693358,12.1063324 L34.9693358,3.84573024 C33.1389438,4.45369958 31.3611866,5.60861247 29.6314871,7.08085942 L29.6314871,18.2562054 C31.3497442,16.2015437 33.1267387,14.0099553 34.9693358,12.1063324" id="Fill-3" fill="#51BBB4" sketch:type="MSShapeGroup"></path>
                    <g id="Group-7">
                        <mask id="mask-2" sketch:name="Clip 6" fill="white">
                            <use xlink:href="#path-1"></use>
                        </mask>
                        <g id="Clip-6"></g>
                        <path d="M29.6315634,18.2562817 L29.6315634,7.0809357 C22.2157869,13.3944341 15.6902239,25.5545836 9.7211398,25.5545836 L20.4304014,25.5545836 C23.3237862,25.5545836 26.3727867,22.1527778 29.6315634,18.2562817" id="Fill-5" fill="#4CB05B" sketch:type="MSShapeGroup" mask="url(#mask-2)"></path>
                    </g>
                    <g id="Group-10">
                        <mask id="mask-4" sketch:name="Clip 9" fill="white">
                            <use xlink:href="#path-3"></use>
                        </mask>
                        <g id="Clip-9"></g>
                        <path d="M34.9693358,12.1063324 L34.9693358,25.5545073 L41.6402164,25.5545073 L41.6402164,7.31771573 C39.3200926,8.08854761 37.1002798,9.90482739 34.9693358,12.1063324" id="Fill-8" fill="#ECAFB5" sketch:type="MSShapeGroup" mask="url(#mask-4)"></path>
                    </g>
                    <g id="Group-13">
                        <mask id="mask-6" sketch:name="Clip 12" fill="white">
                            <use xlink:href="#path-5"></use>
                        </mask>
                        <g id="Clip-12"></g>
                        <path d="M29.6315634,18.2562817 L29.6315634,25.5545836 L34.9694121,25.5545836 L34.9694121,12.1064087 C33.1264336,14.0100316 31.3498205,16.20162 29.6315634,18.2562817" id="Fill-11" fill="#6A8898" sketch:type="MSShapeGroup" mask="url(#mask-6)"></path>
                    </g>
                    <path d="M20.4302488,25.5545455 L29.6314108,25.5545455 L29.6314108,18.2562436 C26.3730156,22.1527396 23.3236336,25.5545455 20.4302488,25.5545455" id="Fill-14" fill="#75595F" sketch:type="MSShapeGroup"></path>
                </g>
                <g id="Metafore-logo-Copy" transform="translate(51.000000, 2.529985)" fill="#00052D" sketch:type="MSShapeGroup">
                    <path d="M18.9499034,0.789310345 L14.1230069,12.7967586 L9.56424828,0.789310345 L3.81376552,0.789310345 L-0.000165517241,23.2549655 L5.80990345,23.2549655 L7.68728276,10.323931 L7.74686897,10.323931 L12.9014897,23.2549655 L15.2253517,23.2549655 L20.618731,10.323931 L20.6783172,10.323931 L22.3169379,23.2549655 L28.1572138,23.2549655 L24.7599724,0.789310345 L18.9499034,0.789310345 Z" id="Fill-1"></path>
                    <path d="M36.0945517,5.73513103 L36.0945517,9.48947586 L42.6792414,9.48947586 L42.6792414,14.4355448 L36.0945517,14.4355448 L36.0945517,18.3090621 L43.0367586,18.3090621 L43.0367586,23.255131 L30.2546897,23.255131 L30.2546897,0.789062069 L43.0367586,0.789062069 L43.0367586,5.73513103 L36.0945517,5.73513103 Z" id="Fill-2"></path>
                    <path d="M54.9237517,23.2550483 L49.0838897,23.2550483 L49.0838897,5.73504828 L44.2569931,5.73504828 L44.2569931,0.789393103 L59.7506483,0.789393103 L59.7506483,5.73504828 L54.9237517,5.73504828 L54.9237517,23.2550483 Z" id="Fill-3"></path>
                    <path d="M69.3402621,7.73155862 L69.2806759,7.73155862 L66.8670207,14.8823172 L71.7241241,14.8823172 L69.3402621,7.73155862 Z M65.2581931,19.3521103 L63.7089517,23.2550069 L57.5115724,23.2550069 L66.1519862,0.789351724 L72.5285379,0.789351724 L80.9906069,23.2550069 L74.7630207,23.2550069 L73.3031586,19.3521103 L65.2581931,19.3521103 Z" id="Fill-4"></path>
                    <path d="M88.0559172,5.73513103 L88.0559172,9.48947586 L94.4618483,9.48947586 L94.4618483,14.4355448 L88.0559172,14.4355448 L88.0559172,23.255131 L82.2160552,23.255131 L82.2160552,0.789062069 L95.1172966,0.789062069 L95.1172966,5.73513103 L88.0559172,5.73513103 Z" id="Fill-5"></path>
                    <path d="M102.162869,11.6347034 C102.162869,15.5082207 105.023007,18.3389793 108.509214,18.3389793 C111.995421,18.3389793 114.855972,15.5082207 114.855972,11.6347034 C114.855972,8.5358069 111.995421,5.70546207 108.509214,5.70546207 C105.023007,5.70546207 102.162869,8.5358069 102.162869,11.6347034 M120.934179,11.6049103 C120.934179,18.8752552 115.719972,24.0000828 108.509214,24.0000828 C101.298869,24.0000828 96.0846621,18.8752552 96.0846621,11.6049103 C96.0846621,4.81166897 102.043697,0.0443586207 108.509214,0.0443586207 C114.975145,0.0443586207 120.934179,4.81166897 120.934179,11.6049103" id="Fill-6"></path>
                    <path d="M129.044855,10.8600414 L129.610924,10.8600414 C131.518097,10.8600414 133.6632,10.5025241 133.6632,8.05907586 C133.6632,5.61604138 131.518097,5.25852414 129.610924,5.25852414 L129.044855,5.25852414 L129.044855,10.8600414 Z M141.88651,23.2552138 L134.616579,23.2552138 L129.104441,14.6143862 L129.044855,14.6143862 L129.044855,23.2552138 L123.204993,23.2552138 L123.204993,0.789144828 L131.934786,0.789144828 C136.374786,0.789144828 139.741821,2.90445517 139.741821,7.70155862 C139.741821,10.8004552 138.013407,13.4818345 134.825131,14.0483172 L141.88651,23.2552138 Z" id="Fill-9"></path>
                    <path d="M148.826897,5.73513103 L148.826897,9.48947586 L155.411586,9.48947586 L155.411586,14.4355448 L148.826897,14.4355448 L148.826897,18.3090621 L155.769103,18.3090621 L155.769103,23.255131 L142.987034,23.255131 L142.987034,0.789062069 L155.769103,0.789062069 L155.769103,5.73513103 L148.826897,5.73513103 Z" id="Fill-11"></path>
                </g>
            </g>
        </g>
    </g>
</svg>