<?xml version="1.0" encoding="UTF-8" standalone="no"?>
<svg width="460px" height="164px" viewBox="0 0 460 164" version="1.1" xmlns="http://www.w3.org/2000/svg" xmlns:xlink="http://www.w3.org/1999/xlink" xmlns:sketch="http://www.bohemiancoding.com/sketch/ns">
    <!-- Generator: Sketch 3.5.2 (25235) - http://www.bohemiancoding.com/sketch -->
    <title>Metafore logo</title>
    <desc>Created with Sketch.</desc>
    <defs>
        <path id="path-1" d="M0,0 L459.990678,0 L459.990678,162.419998 L0,162.419998"></path>
    </defs>
    <g id="Page-1" stroke="none" stroke-width="1" fill="none" fill-rule="evenodd" sketch:type="MSPage">
        <g id="METAFORE-START-desktop" sketch:type="MSArtboardGroup" transform="translate(-490.000000, -229.000000)">
            <g id="Metafore-box-logo" sketch:type="MSLayerGroup" transform="translate(425.000000, 229.005997)">
                <g id="Metafore-logo" transform="translate(65.000000, 0.877975)">
                    <path d="M270.044087,30.5440263 L270.044087,66.7479259 L283.393676,66.7479259 L283.393676,26.6991592 C278.316197,26.6991592 273.939571,28.1690973 270.044087,30.5440263" id="Fill-1" fill="#ECAFB5" sketch:type="MSShapeGroup"></path>
                    <path d="M270.044087,30.5440263 L270.044087,13.3495703 C265.196332,13.3495703 260.80098,15.0861294 256.694498,17.932373 L256.694498,43.311981 C260.644122,38.3422257 264.929155,33.6624531 270.044087,30.5440263" id="Fill-3" fill="#51BBB4" sketch:type="MSShapeGroup"></path>
                    <path d="M256.694498,43.3119439 L256.694498,66.7478888 L270.044087,66.7478888 L270.044087,30.5439892 C264.929155,33.6624161 260.644122,38.3421886 256.694498,43.3119439" id="Fill-5" fill="#6A8898" sketch:type="MSShapeGroup"></path>
                    <path d="M256.694498,17.9323915 L256.694498,0 C229.439088,0 203.481554,66.7479445 176.596965,66.7479445 L203.296143,66.7479445 C225.332977,66.7479445 238.026952,30.8709243 256.694498,17.9323915" id="Fill-7" fill="#ACCD6C" sketch:type="MSShapeGroup"></path>
                    <path d="M256.694498,43.3119439 L256.694498,17.9323359 C238.026952,30.8708687 225.332977,66.7478888 203.296143,66.7478888 L229.99532,66.7478888 C240.839822,66.7478888 247.945141,54.3212757 256.694498,43.3119439" id="Fill-9" fill="#4CB05B" sketch:type="MSShapeGroup"></path>
                    <path d="M229.99532,66.7479445 L256.694498,66.7479445 L256.694498,43.3119995 C247.945141,54.3211459 240.839822,66.7479445 229.99532,66.7479445" id="Fill-11" fill="#75595F" sketch:type="MSShapeGroup"></path>
                    <path d="M11.3172067,93.5442961 L28.3811333,93.5442961 L41.9089021,129.175276 L56.2322693,93.5442961 L73.473078,93.5442961 L83.5527592,160.209362 L66.2233242,160.209362 L61.3603656,121.837266 L61.1834835,121.837266 L45.1801076,160.209362 L38.2839325,160.209362 L22.9880848,121.837266 L22.8112027,121.837266 L17.2409013,160.209362 L9.27054784e-05,160.209362 L11.3172067,93.5442961 Z" id="Fill-13" fill="#121428" sketch:type="MSShapeGroup"></path>
                    <path d="M105.803205,108.220797 L105.803205,119.361214 L125.342739,119.361214 L125.342739,134.03816 L105.803205,134.03816 L105.803205,145.532342 L126.403846,145.532342 L126.403846,160.209473 L88.4735846,160.209473 L88.4735846,93.544222 L126.403846,93.544222 L126.403846,108.220797 L105.803205,108.220797 Z" id="Fill-15" fill="#121428" sketch:type="MSShapeGroup"></path>
                    <path d="M162.980699,160.209436 L145.651079,160.209436 L145.651079,108.22076 L131.327712,108.22076 L131.327712,93.5443703 L177.304067,93.5443703 L177.304067,108.22076 L162.980699,108.22076 L162.980699,160.209436 Z" id="Fill-17" fill="#121428" sketch:type="MSShapeGroup"></path>
                    <path d="M205.76018,114.145011 L205.583298,114.145011 L198.421614,135.364553 L212.833794,135.364553 L205.76018,114.145011 Z M193.647282,148.627184 L189.050018,160.209436 L170.65929,160.209436 L196.299771,93.5443703 L215.220589,93.5443703 L240.331722,160.209436 L221.852182,160.209436 L217.51987,148.627184 L193.647282,148.627184 Z" id="Fill-19" fill="#121428" sketch:type="MSShapeGroup"></path>
                    <path d="M261.296973,108.220797 L261.296973,119.361214 L280.306417,119.361214 L280.306417,134.03816 L261.296973,134.03816 L261.296973,160.209473 L243.967352,160.209473 L243.967352,93.544222 L282.251378,93.544222 L282.251378,108.220797 L261.296973,108.220797 Z" id="Fill-21" fill="#121428" sketch:type="MSShapeGroup"></path>
                    <g id="Group-25">
                        <mask id="mask-2" sketch:name="Clip 24" fill="white">
                            <use xlink:href="#path-1"></use>
                        </mask>
                        <g id="Clip-24"></g>
                        <path d="M303.157909,125.727225 C303.157909,137.221221 311.645281,145.621079 321.989915,145.621079 C332.334734,145.621079 340.823218,137.221221 340.823218,125.727225 C340.823218,116.531769 332.334734,108.132653 321.989915,108.132653 C311.645281,108.132653 303.157909,116.531769 303.157909,125.727225 M358.860181,125.639155 C358.860181,147.212276 343.386895,162.420054 321.989915,162.420054 C300.594232,162.420054 285.120946,147.212276 285.120946,125.639155 C285.120946,105.480164 302.804145,91.3336784 321.989915,91.3336784 C341.176982,91.3336784 358.860181,105.480164 358.860181,125.639155" id="Fill-23" fill="#121428" sketch:type="MSShapeGroup" mask="url(#mask-2)"></path>
                    </g>
                    <path d="M380.688669,123.428519 L382.368678,123.428519 C388.027235,123.428519 394.39332,122.367227 394.39332,115.117473 C394.39332,107.866977 388.027235,106.806427 382.368678,106.806427 L380.688669,106.806427 L380.688669,123.428519 Z M418.795256,160.209417 L397.221949,160.209417 L380.864995,134.568936 L380.688669,134.568936 L380.688669,160.209417 L363.359048,160.209417 L363.359048,93.5443517 L389.264667,93.5443517 C402.439414,93.5443517 412.430283,99.8216251 412.430283,114.05618 C412.430283,123.251637 407.301816,131.208919 397.840851,132.888928 L418.795256,160.209417 Z" id="Fill-26" fill="#121428" sketch:type="MSShapeGroup"></path>
                    <path d="M439.389926,108.220797 L439.389926,119.361214 L458.92946,119.361214 L458.92946,134.03816 L439.389926,134.03816 L439.389926,145.532342 L459.990567,145.532342 L459.990567,160.209473 L422.060306,160.209473 L422.060306,93.544222 L459.990567,93.544222 L459.990567,108.220797 L439.389926,108.220797 Z" id="Fill-28" fill="#121428" sketch:type="MSShapeGroup"></path>
                </g>
            </g>
        </g>
    </g>
</svg>