<?xml version="1.0" encoding="UTF-8" standalone="no"?>
<svg width="141px" height="50px" viewBox="0 0 141 50" version="1.1" xmlns="http://www.w3.org/2000/svg" xmlns:xlink="http://www.w3.org/1999/xlink" xmlns:sketch="http://www.bohemiancoding.com/sketch/ns">
    <!-- Generator: Sketch 3.5.2 (25235) - http://www.bohemiancoding.com/sketch -->
    <title>Metafore box logo</title>
    <desc>Created with Sketch.</desc>
    <defs>
        <path id="path-1" d="M0,0 L140.098684,0 L140.098684,49.4321734 L0,49.4321734"></path>
    </defs>
    <g id="Page-1" stroke="none" stroke-width="1" fill="none" fill-rule="evenodd" sketch:type="MSPage">
        <g id="METAFORE-PRODUKTEN-desktop" sketch:type="MSArtboardGroup" transform="translate(-649.000000, -10.000000)">
            <g id="Metafore-box-logo" sketch:type="MSLayerGroup" transform="translate(630.000000, 10.000000)">
                <g id="Metafore-logo" transform="translate(19.796954, 0.267210)">
                    <path d="M82.2469301,9.29600799 L82.2469301,20.3145861 L86.3127947,20.3145861 L86.3127947,8.12583107 C84.7663544,8.12583107 83.433372,8.57320353 82.2469301,9.29600799" id="Fill-1" fill="#ECAFB5" sketch:type="MSShapeGroup"></path>
                    <path d="M82.2469301,9.29600799 L82.2469301,4.06291272 C80.7704565,4.06291272 79.4317706,4.59143068 78.1810655,5.45767873 L78.1810655,13.1819073 C79.3839967,11.669373 80.6890828,10.2450944 82.2469301,9.29600799" id="Fill-3" fill="#51BBB4" sketch:type="MSShapeGroup"></path>
                    <path d="M78.1810655,13.181896 L78.1810655,20.3145749 L82.2469301,20.3145749 L82.2469301,9.2959967 C80.6890828,10.2450831 79.3839967,11.6693617 78.1810655,13.181896" id="Fill-5" fill="#6A8898" sketch:type="MSShapeGroup"></path>
                    <path d="M78.1810655,5.45768437 L78.1810655,0 C69.8799252,0 61.9740773,20.3145918 53.7858776,20.3145918 L61.9176069,20.3145918 C68.629333,20.3145918 72.4955185,9.3954987 78.1810655,5.45768437" id="Fill-7" fill="#ACCD6C" sketch:type="MSShapeGroup"></path>
                    <path d="M78.1810655,13.181896 L78.1810655,5.45766744 C72.4955185,9.39548177 68.629333,20.3145749 61.9176069,20.3145749 L70.0493362,20.3145749 C73.35223,20.3145749 75.5162865,16.5325622 78.1810655,13.181896" id="Fill-9" fill="#4CB05B" sketch:type="MSShapeGroup"></path>
                    <path d="M70.0493362,20.3145918 L78.1810655,20.3145918 L78.1810655,13.1819129 C75.5162865,16.5325227 73.35223,20.3145918 70.0493362,20.3145918" id="Fill-11" fill="#75595F" sketch:type="MSShapeGroup"></path>
                    <path d="M3.44686498,28.4700032 L8.64399998,28.4700032 L12.7641326,39.3142144 L17.1265795,28.4700032 L22.3775872,28.4700032 L25.4475409,48.759371 L20.1695404,48.759371 L18.6884362,37.0809072 L18.6345635,37.0809072 L13.7604389,48.759371 L11.660081,48.759371 L7.00144714,37.0809072 L6.94757443,37.0809072 L5.25103594,48.759371 L2.82351711e-05,48.759371 L3.44686498,28.4700032 Z" id="Fill-13" fill="#121428" sketch:type="MSShapeGroup"></path>
                    <path d="M32.2243264,32.9367643 L32.2243264,36.3273261 L38.1754534,36.3273261 L38.1754534,40.7942227 L32.2243264,40.7942227 L32.2243264,44.2924518 L38.4986332,44.2924518 L38.4986332,48.7594049 L26.9462694,48.7594049 L26.9462694,28.4699806 L38.4986332,28.4699806 L38.4986332,32.9367643 L32.2243264,32.9367643 Z" id="Fill-15" fill="#121428" sketch:type="MSShapeGroup"></path>
                    <path d="M49.6387917,48.7593936 L44.3607347,48.7593936 L44.3607347,32.936753 L39.9982878,32.936753 L39.9982878,28.4700257 L54.0012386,28.4700257 L54.0012386,32.936753 L49.6387917,32.936753 L49.6387917,48.7593936 Z" id="Fill-17" fill="#121428" sketch:type="MSShapeGroup"></path>
                    <path d="M62.6680752,34.7397859 L62.6142025,34.7397859 L60.432979,41.1979075 L64.8224752,41.1979075 L62.6680752,34.7397859 Z M58.9788677,45.2343605 L57.5786856,48.7593936 L51.9774488,48.7593936 L59.7867324,28.4700257 L65.5494179,28.4700257 L73.1974787,48.7593936 L67.5691926,48.7593936 L66.2497066,45.2343605 L58.9788677,45.2343605 Z" id="Fill-19" fill="#121428" sketch:type="MSShapeGroup"></path>
                    <path d="M79.5828344,32.9367643 L79.5828344,36.3273261 L85.3725127,36.3273261 L85.3725127,40.7942227 L79.5828344,40.7942227 L79.5828344,48.7594049 L74.3047774,48.7594049 L74.3047774,28.4699806 L85.9648866,28.4699806 L85.9648866,32.9367643 L79.5828344,32.9367643 Z" id="Fill-21" fill="#121428" sketch:type="MSShapeGroup"></path>
                    <g id="Group-25">
                        <mask id="mask-2" sketch:name="Clip 24" fill="white">
                            <use xlink:href="#path-1"></use>
                        </mask>
                        <g id="Clip-24"></g>
                        <path d="M92.3323582,38.2648077 C92.3323582,41.7629804 94.9173445,44.319459 98.0679943,44.319459 C101.218701,44.319459 103.804026,41.7629804 103.804026,38.2648077 C103.804026,35.4661906 101.218701,32.9099378 98.0679943,32.9099378 C94.9173445,32.9099378 92.3323582,35.4661906 92.3323582,38.2648077 M109.297517,38.2380038 C109.297517,44.8037363 104.584841,49.4321903 98.0679943,49.4321903 C91.5515427,49.4321903 86.8388668,44.8037363 86.8388668,38.2380038 C86.8388668,32.1026585 92.2246127,27.7972065 98.0679943,27.7972065 C103.911771,27.7972065 109.297517,32.1026585 109.297517,38.2380038" id="Fill-23" fill="#121428" sketch:type="MSShapeGroup" mask="url(#mask-2)"></path>
                    </g>
                    <path d="M115.945787,37.5652014 L116.457465,37.5652014 C118.180884,37.5652014 120.119793,37.2421994 120.119793,35.0357526 C120.119793,32.8290801 118.180884,32.5063038 116.457465,32.5063038 L115.945787,32.5063038 L115.945787,37.5652014 Z M127.551855,48.7593879 L120.981304,48.7593879 L115.999491,40.9557632 L115.945787,40.9557632 L115.945787,48.7593879 L110.66773,48.7593879 L110.66773,28.4700201 L118.557767,28.4700201 C122.57038,28.4700201 125.613284,30.3804946 125.613284,34.7127506 C125.613284,37.5113677 124.051315,39.9331492 121.169802,40.4444562 L127.551855,48.7593879 Z" id="Fill-26" fill="#121428" sketch:type="MSShapeGroup"></path>
                    <path d="M133.824343,32.9367643 L133.824343,36.3273261 L139.77547,36.3273261 L139.77547,40.7942227 L133.824343,40.7942227 L133.824343,44.2924518 L140.09865,44.2924518 L140.09865,48.7594049 L128.546286,48.7594049 L128.546286,28.4699806 L140.09865,28.4699806 L140.09865,32.9367643 L133.824343,32.9367643 Z" id="Fill-28" fill="#121428" sketch:type="MSShapeGroup"></path>
                </g>
            </g>
        </g>
    </g>
</svg>