<svg version="1" xmlns="http://www.w3.org/2000/svg" width="2269.333" height="2269.333" viewBox="0 0 1702.000000 1702.000000"><path d="M.3 799c0 113.8.3 207.1.6 207.1 1.6.4 37.8.5 38.8.1.9-.3 1.1-39.4.8-163.8-.1-89.9-.2-163.4 0-163.2.7.8 10.7 19.8 39.5 75.3 4 7.7 9.6 18.5 12.5 24 2.9 5.5 9.2 17.6 14 27 4.8 9.3 10.6 20.6 13 25 4.9 9.2 13.6 25.9 25.5 49 4.6 8.8 8.7 16.5 9.2 17.2.6.7 4 1.1 9.5 1l8.6-.2 4.2-8c15.4-29.9 22.3-43 26-50 2.3-4.4 8.2-15.7 13-25 4.8-9.4 10.9-21.1 13.5-26 2.6-5 8.5-16.2 13-25 4.6-8.8 10-19.2 12-23 2.1-3.9 7.2-13.8 11.5-22 11.3-21.8 20.7-39.9 21.2-40.5.2-.2.3 60.7.1 135.5-.2 74.8 0 138 .4 140.5 5.2 36 26.9 58 57.4 58.2 6.1 0 8.9-.3 16.7-1.8 1.1-.2 2.2-.5 2.4-.8.3-.2-.6-6.2-2-13.3-1.4-7-2.8-14.7-3.2-17.1-.8-4.7-2.6-6.2-7.5-6.2-1.7 0-4.7-.9-6.8-1.9-7.4-3.8-12-10.9-15.3-23.9-1.9-7.5-2-11.9-1.9-181.5V592h-40.6l-4.7 9.2c-2.6 5.1-8.9 17.4-14 27.3-17.5 33.7-30.1 58-34 65.5-2.1 4.1-6 11.5-8.6 16.5-2.5 4.9-9.5 18.4-15.5 30-6 11.5-12.8 24.6-15.1 29-2.3 4.4-9.1 17.4-15.1 29-5.9 11.5-11.9 23.1-13.3 25.7-3 5.8-1.7 7.3-14.6-17.7-15.4-30-23.3-45.2-29-56-2.9-5.5-9-17.2-13.5-26s-10.9-21-14-27c-3.2-6.1-9.9-19.1-15-29-5.1-9.9-10.9-21.2-13-25-4.8-8.9-24.1-46.3-25.4-49.2-1.1-2.3-1.4-2.3-21.2-2.3H.3v207zm1032.6-198c-.2.8-.7 88.4-1.3 221-.5 118.3-.3 129.6 2.5 138.6.5 1.7 1.2 4.1 1.4 5.4.7 3.4 6 14.4 9.3 19.2 11.5 16.7 30.6 26.1 54.2 26.9 6.1.2 18.3-1.1 19.3-2 .6-.6-4.8-34-5.6-34.7-.1-.1-3.7-.5-7.9-.8-17.6-1.4-27.5-9-33-25.3l-2.2-6.8-.2-170c-.2-93.5-.3-170.5-.3-171-.1-1-36-1.5-36.2-.5zm-370 25.5c0 .5-.2 17.4-.4 37.5-.1 20.1-.3 36.8-.4 37.1-.1.3-10.2.6-22.6.5l-22.5-.1v38.2h22c12.1 0 22.3.3 22.6.6.4.3.5 16.3.4 35.4-.6 103.3-.6 171.1.1 173.8.4 1.6 1 4.9 1.3 7.2.3 2.2 1.5 7 2.6 10.5 9.5 28.4 33.6 44.9 65.5 44.9 3.9-.1 8.4-.3 10-.6 7-1.3 8.5-1.7 8.1-2.4-.6-.8-1.1-3.3-3.1-15.1-3-17-3.6-19-5.9-19.1-17.2-.6-25-3.8-32.3-13-3.6-4.5-6.8-12.2-7.9-19-.8-4.9-1.2-201.7-.4-202.8.3-.3 13.1-.6 28.5-.6h28l.2-18.8c.2-13.9-.1-18.7-1-18.8-.7-.1-13.1-.3-27.7-.4-14.6-.1-27-.3-27.5-.4-.7-.1-1-12.9-1-37.2 0-20.4-.2-37.4-.5-37.8-.8-1.1-36-.8-36.1.4zm981.5 38c-8.1 2.2-13.4 5.4-20.5 12.5-7.4 7.3-11.4 14.8-19.3 35.6-2.6 6.6-6 14.2-7.6 16.8l-3.1 4.8-5.7-4.9c-8.6-7.4-12.1-9.7-19.7-13.5-17.3-8.6-34-12.3-56-12.2-34.5.1-61.8 8.9-81.7 26.5-13.9 12.1-24.4 33.5-27.4 55.9-.3 2.5-.8 5.4-1 6.5-.6 2.7-.6 27.4 0 28.3.2.4.7 3.2 1 6.2 1.6 13.9 7.2 28.1 16.5 41.7 7 10.2 7.5 13 3.6 19.7-1.3 2.3-5.3 6.5-8.8 9.3-12.2 9.8-17.6 21.9-17.8 39.8-.1 11.9 3.4 23.2 11.6 37.5 3.9 6.9 2.9 10.6-7.3 24.5-8.9 12.3-14 26.6-13.6 38.5 1.2 39.9 28.4 62.6 84.4 70.4 20 2.8 75.5 2.9 92 .2 1.4-.3 4.3-.7 6.5-1 9-1.2 12.4-1.8 21.9-4.3 34.2-8.9 53.6-25.8 60.7-53 3.2-12.5 3-31-.7-43.3-10.1-34.2-42.2-53.6-97.4-58.7-7.8-.7-29.7-.8-68-.4-21.8.3-33.3-1.3-42-5.7-3-1.5-6.3-4-7.4-5.5-2.8-3.8-2.6-11 .3-14.1 2.8-3 11.5-5.9 21.6-7.2 2.2-.3 5.4-.7 7-1 1.7-.2 13.1-.6 25.5-.9 31.1-.7 41.2-1.3 49-3.1 1.4-.3 3.8-.8 5.4-1.1 1.5-.2 6.3-1.6 10.5-2.9 34.5-11.3 58.2-36 67.2-70.1 2.6-9.9 3.4-33.1 1.5-44.8-1.1-6.4-4.4-20-7.2-29.5-.4-1.3 1-1.5 8.3-1.5 19.5-.1 33.3-2.9 47-9.5 13.5-6.6 24.3-18.3 26.9-29 1.1-4.6 1.3-20.5.3-25-3.4-15.4-16.8-28.6-33.4-32.8-5.8-1.5-17.2-1.3-23.1.3zm18.5 29.9c9.4 4.9 11.4 17.4 4 24.7-6 5.8-14.8 8.9-27.2 9.3-7.9.3-7.6 1.7-3.3-12.7 4.3-14.1 8.9-20.8 15.5-22.5 4.2-1 7.3-.7 11 1.2zm-123.4 50.5c24.4 6.4 40.6 22.5 46.1 45.6 1.7 7.3 2.2 21.5 1 30-3.9 27.7-19.6 45.7-46.1 52.8-10.2 2.7-17 3.4-43.5 4.1-13 .4-25.4 1.7-31.4 3.2-2 .5-2.1.1-2.1-8.3 0-10.1-.8-12.6-7.8-23.6-6.3-10-11.2-21.2-13.3-30.6-2-9-1.4-27.6 1.1-36.1 6.5-21.5 22.4-34 49-38.5 12.1-2 36.9-1.3 47 1.4zm-78.4 236.5c5.4.8 14 1.1 23.5.8 31.5-.9 67-.3 74.9 1.2 1.1.2 4.3.7 7 1 21.8 3 37.2 12.3 44.3 26.8 7.4 15.2 5.9 31.5-4.1 42-6.9 7.3-22.8 15.1-36.2 17.8-2.8.5-6.1 1.2-7.5 1.5-1.4.3-4.5.8-7 1.1-2.5.3-5.2.7-6 .9-2.5.7-25 1.8-34.4 1.7-50.4-.3-79.3-9.6-86.5-27.8-2.3-6.1-2.3-14.6.2-21.9 1-2.8 4.4-8.6 7.7-13 7.3-9.8 9.5-16.2 9.5-27.1l-.1-8.1 3.1.9c1.6.5 6.9 1.5 11.6 2.2zM870.8 702.5c-.2.1-3.3.5-7.1.9-17.6 1.6-41.8 11-60.5 23.4-6.5 4.2-7.6 5.1-14.4 11l-4.9 4.2 4.8 5.2c2.6 2.9 5.7 6.2 6.8 7.3 1.1 1.2 4.8 5.2 8.3 8.9 4 4.3 6.7 6.4 7.5 6 .6-.5 3.9-2.9 7.2-5.4 11-8.5 21.1-13.9 34.6-18.4 9.8-3.2 13.4-3.8 25.6-4.1 21.4-.5 35.6 4.5 47.8 16.9 10.7 10.8 14.7 20.6 14 33.8-.5 8.1-3.7 14.4-10 19-4.5 3.4-15.1 8-21.5 9.4-5.9 1.2-18.1 3.3-22.6 3.9-2.7.3-6.3.8-8 1-1.7.2-5.7.7-9 1-18.2 1.9-42.9 8.9-55.4 15.8-8.9 4.9-11 6.5-19.5 14.7-30.1 29-33.5 84.1-7.4 118.7 18 23.7 45.5 35.3 84.9 35.6 56 .6 88.1-14.1 104-47.4 7.8-16.4 9.5-29 9.4-67.9 0-14-.4-33.4-.8-43-.4-9.6-.9-22.2-1.1-28-.4-11.2-1.4-27.9-2-32-.2-1.4-.6-4.8-1-7.5-4.4-36.9-28.3-66.1-63.5-77.8-4.1-1.3-9.5-2.8-12-3.2-2.5-.4-5.4-.9-6.5-1.2-2.3-.5-27.2-1.2-27.7-.8zm74.9 151.8c1 24.3 1.1 72 .2 76.7-4.1 21.3-23 38-46.9 41.5-2.5.4-5.8.9-7.5 1.1-4.4.8-25.6.8-29 0-1.7-.3-4.6-.8-6.5-1.1-29.9-4.7-47.1-23.7-47.3-52-.2-26.4 14-43.9 41.4-51 9.2-2.4 9.9-2.6 21.4-4 2.8-.3 6.4-.8 8-1 1.7-.2 6.2-.7 10-1 19.8-1.9 40.2-6.9 50-12.4 2.8-1.5 5.2-2.6 5.5-2.3.3.2.6 2.7.7 5.5zm291-150.6c-.1.1-3.4.4-7.2.7-3.9.3-8.1.8-9.5 1.1-1.4.2-3.8.7-5.5 1.1-23.6 4.6-47.2 19.6-61.6 39-9.8 13.3-20.5 38.7-23.4 55.3-.3 1.9-.7 3.7-.9 4-.4.7-1.2 5.2-2.1 12.6-.4 2.7-.8 6.1-1 7.4-2.6 16-2 61.7 1 76.1.3 1.4.7 4.3 1.1 6.5.9 6.7 5.5 23.5 8.7 32 17.9 47.4 55.5 73.1 106.7 72.9 52.5-.2 89.5-25.7 108.9-75.2 2.2-5.4 5.8-17.5 6.7-22.2.3-1.4.9-4.1 1.4-6 .5-1.9 1.2-5.8 1.6-8.5.3-2.8.8-5.8 1-6.8 2.8-14.9 2.1-60.7-1.2-79.7-.3-1.9-.8-4.7-.9-6.2-.7-5-4.3-19.3-7-27.3-3.8-11.3-8.5-21.1-14.1-29.6-2.7-4-5.3-7.9-5.9-8.7-2.5-3.8-15-15.4-20.4-19.1-9.8-6.7-24-13.2-32-14.7-1.4-.3-2.8-.7-3.2-1-1.2-.7-10.1-2.2-17.5-2.9-6.4-.6-23.4-1.2-23.7-.8zm17 38.7c40.4 2.6 63.3 28.5 68.8 78.1.4 3.3 1 8.8 1.4 12.2.8 7 .6 47.9-.3 53.3-.3 1.9-.8 5.5-1.1 8-.3 2.5-.7 5.2-1 6-.2.8-.6 3.1-.9 5-.9 6.3-5.6 21.2-9 28.5-11.4 24.8-29.1 38.6-53.6 42-4.8.7-20.8.7-24.5 0-10.5-1.9-14.7-3-20.5-5.2-34.6-13.6-51.4-52.1-50.4-115.3.5-25.7 2.4-41 7.6-58.5 9.8-33.4 31.9-52 64.8-54.2 4.1-.3 7.7-.7 7.8-.9.2-.1.9-.1 1.5.1.7.2 4.9.6 9.4.9zm-768.8-38c-.2.2-2.9.6-6 .9-55.8 5.9-94.4 52.9-102.5 124.7-.3 2.5-.7 5.8-.9 7.5-.5 4.1-.6 42.4-.1 45.5.3 1.4.7 5.2 1.1 8.5.3 3.3 1.5 10.4 2.6 15.9 13.5 67.2 57.6 104.2 124.9 104.8 36.8.4 72.2-14.5 101.8-42.6 3.4-3.2 6.2-6.3 6.2-6.7 0-.5-.7-1.7-1.5-2.6-.8-1-5.3-6.5-10-12.3-4.7-5.8-9-10.7-9.5-10.8-.6-.2-4.1 2.5-7.9 6-16 14.8-38.6 26.7-58.6 30.7-6.9 1.4-23.8 1.1-33.2-.5-31.2-5.4-52.7-20.6-65.7-46.1-7.6-15.1-10.5-30.8-7.2-38.7.8-1.8 2.9-4.5 4.8-6 3.6-2.7 13.9-6.8 19.9-8 1.9-.3 4.5-.8 5.9-1.1 1.4-.3 5.4-.8 9-1.1 3.6-.3 8.1-.7 10-.9 1.9-.2 9.8-.5 17.5-.6 43.4-.6 74.4-8.1 93.4-22.4 15.5-11.8 22.9-27.6 23.7-50.5.7-24.1-7.2-45.7-22.9-62.6-14.6-15.7-31.7-24.5-57.2-29.4-5.4-1.1-36.7-2.4-37.6-1.6zm36.1 39.1c33.9 10.3 52.1 45.7 35.8 69.7-6.1 9-17.8 14.7-35.3 17.3-2.2.4-5.1.8-6.5 1.1-1.4.2-10.8.7-21 .9-43.3 1.2-51.6 1.4-53.6 1.9-1.2.2-4.4.7-7.3 1.1-2.8.3-8.1 1.5-11.7 2.5l-6.5 1.8.6-4.7c1.1-8.2 1.5-10.4 4.1-20.9 10.7-43.5 34.4-67.3 71.1-71.8 2.6-.3 5-.7 5.2-1 1-1 20.1.6 25.1 2.1z"/></svg>