<?xml version="1.0" encoding="UTF-8" standalone="no"?>
<svg width="161px" height="37px" viewBox="0 0 161 37" version="1.1" xmlns="http://www.w3.org/2000/svg" xmlns:xlink="http://www.w3.org/1999/xlink" xmlns:sketch="http://www.bohemiancoding.com/sketch/ns">
    <!-- Generator: Sketch 3.4.4 (17249) - http://www.bohemiancoding.com/sketch -->
    <title>logo-blue</title>
    <desc>Created with Sketch.</desc>
    <defs></defs>
    <g id="Page-1" stroke="none" stroke-width="1" fill="none" fill-rule="evenodd" sketch:type="MSPage">
        <g id="AF-Skiss-1" sketch:type="MSArtboardGroup" transform="translate(-250.000000, -1736.000000)" fill="#FFFFFF">
            <g id="logo-blue" sketch:type="MSLayerGroup" transform="translate(250.000000, 1736.000000)">
                <path d="M0.353846154,32.8205128 L1.35641026,32.8205128 C2.12307692,32.8205128 2.53589744,33.4065934 2.53589744,33.992674 C2.53589744,34.5787546 2.06410256,35.1648352 1.35641026,35.1648352 L0.825641026,35.1648352 L0.825641026,36.3369963 L0.353846154,36.3369963 L0.353846154,32.8205128 L0.353846154,32.8205128 Z M1.2974359,34.7545788 C1.82820513,34.7545788 2.12307692,34.5201465 2.12307692,33.992674 C2.12307692,33.4652015 1.82820513,33.2307692 1.2974359,33.2307692 L0.825641026,33.2307692 L0.825641026,34.7545788 L1.2974359,34.7545788 L1.2974359,34.7545788 Z" id="Shape" sketch:type="MSShapeGroup"></path>
                <path d="M6.19230769,32.8205128 L6.66410256,32.8205128 L6.66410256,35.9267399 L7.9025641,35.9267399 L7.9025641,36.3369963 L6.19230769,36.3369963 L6.19230769,32.8205128 Z" id="Shape" sketch:type="MSShapeGroup"></path>
                <path d="M13.6820513,35.5164835 L12.0307692,35.5164835 L11.7358974,36.3369963 L11.2051282,36.3369963 L12.6205128,32.8205128 L13.0333333,32.8205128 L14.4487179,36.3369963 L13.9769231,36.3369963 L13.6820513,35.5164835 L13.6820513,35.5164835 Z M12.8564103,33.4065934 L12.2076923,35.1648352 L13.5641026,35.1648352 L12.8564103,33.4065934 L12.8564103,33.4065934 Z" id="Shape" sketch:type="MSShapeGroup"></path>
                <path d="M20.6410256,33.5238095 C20.4051282,33.2893773 20.0512821,33.1721612 19.6974359,33.1721612 C18.9307692,33.1721612 18.2820513,33.7582418 18.2820513,34.5787546 C18.2820513,35.3992674 18.9897436,35.985348 19.6974359,35.985348 C20.1102564,35.985348 20.4051282,35.8681319 20.6410256,35.6336996 L20.9358974,35.9267399 C20.6410256,36.2197802 20.1692308,36.3956044 19.6974359,36.3956044 C18.5179487,36.3956044 17.8102564,35.4578755 17.8102564,34.5787546 C17.8102564,33.6996337 18.4589744,32.7619048 19.6974359,32.7619048 C20.1692308,32.7619048 20.6410256,32.9377289 20.9358974,33.2307692 L20.6410256,33.5238095 L20.6410256,33.5238095 Z" id="Shape" sketch:type="MSShapeGroup"></path>
                <path d="M24.5923077,32.8205128 L26.4205128,32.8205128 L26.4205128,33.2307692 L25.0051282,33.2307692 L25.0051282,34.3443223 L26.4205128,34.3443223 L26.4205128,34.7545788 L25.0051282,34.7545788 L25.0051282,35.9267399 L26.4205128,35.9267399 L26.4205128,36.3369963 L24.5923077,36.3369963 L24.5923077,32.8205128 Z" id="Shape" sketch:type="MSShapeGroup"></path>
                <path d="M30.6076923,34.8131868 L30.6076923,36.3369963 L30.1358974,36.3369963 L30.1358974,32.8205128 L31.1384615,32.8205128 C31.8461538,32.8205128 32.3179487,33.2307692 32.3179487,33.8754579 C32.3179487,34.5201465 31.8461538,34.8717949 31.2564103,34.9304029 L32.6128205,36.3369963 L31.9641026,36.3369963 L30.6076923,34.8131868 L30.6076923,34.8131868 Z M30.6076923,34.5787546 L31.0205128,34.5787546 C31.7282051,34.5787546 31.9641026,34.2857143 31.9641026,33.8754579 C31.9641026,33.4652015 31.6692308,33.1721612 31.1974359,33.1721612 L30.6076923,33.1721612 L30.6076923,34.5787546 L30.6076923,34.5787546 Z" id="Shape" sketch:type="MSShapeGroup"></path>
                <rect id="Rectangle-path" sketch:type="MSShapeGroup" x="36.2102564" y="32.8205128" width="0.503125" height="3.51648352"></rect>
                <path d="M42.7564103,32.8205128 L43.2282051,32.8205128 L43.2282051,36.3369963 L42.8153846,36.3369963 L40.8692308,33.6410256 L40.8692308,36.3369963 L40.4564103,36.3369963 L40.4564103,32.8205128 L40.8692308,32.8205128 L42.7564103,35.5164835 L42.7564103,32.8205128 Z" id="Shape" sketch:type="MSShapeGroup"></path>
                <path d="M48.8897436,34.4029304 L50.6589744,34.4029304 C50.6589744,35.6923077 49.774359,36.3956044 48.7717949,36.3956044 C47.5923077,36.3956044 46.8846154,35.4578755 46.8846154,34.5787546 C46.8846154,33.6996337 47.5333333,32.7619048 48.7717949,32.7619048 C49.1846154,32.7619048 49.5974359,32.8791209 50.0102564,33.2307692 L49.7153846,33.5824176 C49.4205128,33.2893773 49.0666667,33.1721612 48.7717949,33.1721612 C48.0051282,33.1721612 47.3564103,33.7582418 47.3564103,34.5787546 C47.3564103,35.3992674 48.0641026,35.985348 48.7717949,35.985348 C49.4205128,35.985348 50.0102564,35.5750916 50.1282051,34.8131868 L48.8307692,34.8131868 L48.8307692,34.4029304 L48.8897436,34.4029304 Z" id="Shape" sketch:type="MSShapeGroup"></path>
                <path d="M56.6153846,35.5164835 L54.9641026,35.5164835 L54.6102564,36.3369963 L54.1384615,36.3369963 L55.5538462,32.8205128 L55.9666667,32.8205128 L57.3820513,36.3369963 L56.9102564,36.3369963 L56.6153846,35.5164835 L56.6153846,35.5164835 Z M55.7897436,33.4065934 L55.1410256,35.1648352 L56.4974359,35.1648352 L55.7897436,33.4065934 L55.7897436,33.4065934 Z" id="Shape" sketch:type="MSShapeGroup"></path>
                <path d="M61.4512821,34.8131868 L61.4512821,36.3369963 L60.9794872,36.3369963 L60.9794872,32.8205128 L61.9820513,32.8205128 C62.6897436,32.8205128 63.1615385,33.2307692 63.1615385,33.8754579 C63.1615385,34.5201465 62.6897436,34.8717949 62.1,34.9304029 L63.4564103,36.3369963 L62.8076923,36.3369963 L61.4512821,34.8131868 L61.4512821,34.8131868 Z M61.4512821,34.5787546 L61.8641026,34.5787546 C62.5717949,34.5787546 62.8076923,34.2857143 62.8076923,33.8754579 C62.8076923,33.4652015 62.5128205,33.1721612 62.0410256,33.1721612 L61.4512821,33.1721612 L61.4512821,34.5787546 L61.4512821,34.5787546 Z" id="Shape" sketch:type="MSShapeGroup"></path>
                <path d="M74.0128205,34.6959707 L74.3076923,34.989011 L73.7769231,35.5164835 L74.3666667,36.3369963 L73.8358974,36.3369963 L73.4820513,35.8095238 C73.0692308,36.2197802 72.8333333,36.3956044 72.4205128,36.3956044 C71.8897436,36.3956044 71.4769231,35.985348 71.4769231,35.4578755 C71.4769231,34.9304029 71.8307692,34.5787546 72.4205128,34.2857143 C72.1846154,33.992674 72.125641,33.8754579 72.125641,33.6410256 C72.125641,33.2307692 72.4205128,32.996337 72.8333333,32.996337 C73.3051282,32.996337 73.4820513,33.3479853 73.4820513,33.5824176 C73.4820513,33.9340659 73.2461538,34.1684982 72.9512821,34.4029304 L73.5410256,35.2234432 L74.0128205,34.6959707 M72.5384615,34.5787546 C71.9487179,34.9304029 71.7717949,35.1648352 71.7717949,35.3992674 C71.7717949,35.6923077 72.0076923,35.9267399 72.3025641,35.9267399 C72.5384615,35.9267399 72.8333333,35.7509158 73.1282051,35.4578755 L72.5384615,34.5787546 M72.774359,33.2893773 C72.6564103,33.2893773 72.4794872,33.4065934 72.4794872,33.5824176 C72.4794872,33.6996337 72.5384615,33.8754579 72.6564103,34.0512821 C72.8923077,33.8754579 72.9512821,33.7582418 72.9512821,33.5824176 C73.0102564,33.4065934 72.9512821,33.2893773 72.774359,33.2893773" id="Shape" sketch:type="MSShapeGroup"></path>
                <path d="M82.3282051,32.8205128 L84.1564103,32.8205128 L84.1564103,33.2307692 L82.8,33.2307692 L82.8,34.3443223 L84.1564103,34.3443223 L84.1564103,34.7545788 L82.8,34.7545788 L82.8,36.3369963 L82.3282051,36.3369963 L82.3282051,32.8205128 Z" id="Shape" sketch:type="MSShapeGroup"></path>
                <path d="M89.6410256,32.7619048 C90.8205128,32.7619048 91.5282051,33.6996337 91.5282051,34.5787546 C91.5282051,35.4578755 90.8794872,36.3956044 89.6410256,36.3956044 C88.4615385,36.3956044 87.7538462,35.4578755 87.7538462,34.5787546 C87.7538462,33.6996337 88.4615385,32.7619048 89.6410256,32.7619048 M89.6410256,35.985348 C90.3487179,35.985348 91.0564103,35.3992674 91.0564103,34.5787546 C91.0564103,33.7582418 90.3487179,33.1721612 89.6410256,33.1721612 C88.9333333,33.1721612 88.225641,33.7582418 88.225641,34.5787546 C88.225641,35.3992674 88.9333333,35.985348 89.6410256,35.985348 M89.2282051,32 C89.4051282,32 89.5230769,32.1172161 89.5230769,32.2930403 C89.5230769,32.4688645 89.4051282,32.5860806 89.2282051,32.5860806 C89.0512821,32.5860806 88.9333333,32.4688645 88.9333333,32.2930403 C88.9333333,32.1172161 89.0512821,32 89.2282051,32 M90.1128205,32 C90.2897436,32 90.4076923,32.1172161 90.4076923,32.2930403 C90.4076923,32.4688645 90.2897436,32.5860806 90.1128205,32.5860806 C89.9358974,32.5860806 89.8179487,32.4688645 89.8179487,32.2930403 C89.8179487,32.1172161 89.9358974,32 90.1128205,32" id="Shape" sketch:type="MSShapeGroup"></path>
                <path d="M95.7153846,34.8131868 L95.7153846,36.3369963 L95.2435897,36.3369963 L95.2435897,32.8205128 L96.2461538,32.8205128 C96.9538462,32.8205128 97.425641,33.2307692 97.425641,33.8754579 C97.425641,34.5201465 96.9538462,34.8717949 96.3641026,34.9304029 L97.7205128,36.3369963 L97.0717949,36.3369963 L95.7153846,34.8131868 L95.7153846,34.8131868 Z M95.7153846,34.5787546 L96.1282051,34.5787546 C96.8358974,34.5787546 97.0717949,34.2857143 97.0717949,33.8754579 C97.0717949,33.4652015 96.7769231,33.1721612 96.3051282,33.1721612 L95.7153846,33.1721612 L95.7153846,34.5787546 L95.7153846,34.5787546 Z" id="Shape" sketch:type="MSShapeGroup"></path>
                <path d="M102.969231,33.8168498 C102.910256,33.4065934 102.674359,33.1721612 102.261538,33.1721612 C101.730769,33.1721612 101.612821,33.5238095 101.612821,33.7582418 C101.612821,34.0512821 101.789744,34.1684982 102.14359,34.3443223 L102.615385,34.5201465 C103.205128,34.7545788 103.441026,35.047619 103.441026,35.4578755 C103.441026,36.043956 102.969231,36.4542125 102.320513,36.4542125 C101.671795,36.4542125 101.2,36.1025641 101.141026,35.3992674 L101.612821,35.3992674 C101.671795,35.8095238 101.848718,36.043956 102.320513,36.043956 C102.733333,36.043956 102.969231,35.8095238 102.969231,35.4578755 C102.969231,35.1648352 102.733333,34.989011 102.438462,34.8717949 L101.966667,34.6959707 C101.435897,34.5201465 101.2,34.1684982 101.2,33.7582418 C101.2,33.1721612 101.730769,32.7619048 102.320513,32.7619048 C102.910256,32.7619048 103.382051,33.1135531 103.441026,33.8168498 L102.969231,33.8168498 L102.969231,33.8168498 Z" id="Shape" sketch:type="MSShapeGroup"></path>
                <path d="M109.338462,35.5164835 L107.687179,35.5164835 L107.333333,36.3369963 L106.861538,36.3369963 L108.276923,32.8205128 L108.689744,32.8205128 L110.105128,36.3369963 L109.633333,36.3369963 L109.338462,35.5164835 M108.041026,32 C108.217949,32 108.335897,32.1172161 108.335897,32.2930403 C108.335897,32.4688645 108.217949,32.5860806 108.041026,32.5860806 C107.864103,32.5860806 107.746154,32.4688645 107.746154,32.2930403 C107.805128,32.1172161 107.923077,32 108.041026,32 M108.512821,33.4065934 L107.864103,35.1648352 L109.220513,35.1648352 L108.512821,33.4065934 M108.925641,32 C109.102564,32 109.220513,32.1172161 109.220513,32.2930403 C109.220513,32.4688645 109.102564,32.5860806 108.925641,32.5860806 C108.748718,32.5860806 108.630769,32.4688645 108.630769,32.2930403 C108.630769,32.1172161 108.748718,32 108.925641,32" id="Shape" sketch:type="MSShapeGroup"></path>
                <path d="M115.589744,32.8205128 L116.179487,32.8205128 L114.587179,34.5201465 L116.238462,36.3369963 L115.589744,36.3369963 L114.174359,34.7545788 L114.174359,36.3369963 L113.702564,36.3369963 L113.702564,32.8205128 L114.174359,32.8205128 L114.174359,34.4029304 L115.589744,32.8205128 Z" id="Shape" sketch:type="MSShapeGroup"></path>
                <path d="M120.248718,34.8131868 L120.248718,36.3369963 L119.776923,36.3369963 L119.776923,32.8205128 L120.779487,32.8205128 C121.487179,32.8205128 121.958974,33.2307692 121.958974,33.8754579 C121.958974,34.5201465 121.487179,34.8717949 120.897436,34.9304029 L122.253846,36.3369963 L121.605128,36.3369963 L120.248718,34.8131868 L120.248718,34.8131868 Z M120.248718,34.5787546 L120.661538,34.5787546 C121.369231,34.5787546 121.605128,34.2857143 121.605128,33.8754579 C121.605128,33.4652015 121.310256,33.1721612 120.838462,33.1721612 L120.248718,33.1721612 L120.248718,34.5787546 L120.248718,34.5787546 Z" id="Shape" sketch:type="MSShapeGroup"></path>
                <rect id="Rectangle-path" sketch:type="MSShapeGroup" x="125.851282" y="32.8205128" width="0.503125" height="3.51648352"></rect>
                <path d="M132.45641,32.8205128 L132.869231,32.8205128 L132.869231,36.3369963 L132.45641,36.3369963 L130.569231,33.6410256 L130.569231,36.3369963 L130.097436,36.3369963 L130.097436,32.8205128 L130.510256,32.8205128 L132.397436,35.5164835 L132.45641,35.5164835 L132.45641,32.8205128 Z" id="Shape" sketch:type="MSShapeGroup"></path>
                <path d="M138.589744,34.4029304 L140.358974,34.4029304 C140.358974,35.6923077 139.474359,36.3956044 138.471795,36.3956044 C137.292308,36.3956044 136.584615,35.4578755 136.584615,34.5787546 C136.584615,33.6996337 137.233333,32.7619048 138.471795,32.7619048 C138.884615,32.7619048 139.297436,32.8791209 139.710256,33.2307692 L139.415385,33.5824176 C139.120513,33.2893773 138.766667,33.1721612 138.471795,33.1721612 C137.705128,33.1721612 137.05641,33.7582418 137.05641,34.5787546 C137.05641,35.3992674 137.764103,35.985348 138.471795,35.985348 C139.120513,35.985348 139.710256,35.5750916 139.828205,34.8131868 L138.589744,34.8131868 L138.589744,34.4029304 L138.589744,34.4029304 Z" id="Shape" sketch:type="MSShapeGroup"></path>
                <path d="M146.25641,35.5164835 L144.605128,35.5164835 L144.310256,36.3369963 L143.838462,36.3369963 L145.253846,32.8205128 L145.666667,32.8205128 L147.082051,36.3369963 L146.610256,36.3369963 L146.25641,35.5164835 L146.25641,35.5164835 Z M145.430769,33.4065934 L144.782051,35.1648352 L146.138462,35.1648352 L145.430769,33.4065934 L145.430769,33.4065934 Z" id="Shape" sketch:type="MSShapeGroup"></path>
                <path d="M151.092308,34.8131868 L151.092308,36.3369963 L150.620513,36.3369963 L150.620513,32.8205128 L151.623077,32.8205128 C152.330769,32.8205128 152.802564,33.2307692 152.802564,33.8754579 C152.802564,34.5201465 152.330769,34.8717949 151.741026,34.9304029 L153.097436,36.3369963 L152.448718,36.3369963 L151.092308,34.8131868 L151.092308,34.8131868 Z M151.092308,34.5787546 L151.505128,34.5787546 C152.212821,34.5787546 152.448718,34.2857143 152.448718,33.8754579 C152.448718,33.4652015 152.153846,33.1721612 151.682051,33.1721612 L151.092308,33.1721612 L151.092308,34.5787546 L151.092308,34.5787546 Z" id="Shape" sketch:type="MSShapeGroup"></path>
                <path d="M7.25384615,22.7399267 C6.54615385,22.7399267 6.42820513,22.7399267 6.25128205,23.3260073 L5.13076923,26.7838828 C4.95384615,27.3699634 4.89487179,27.6043956 4.89487179,27.8388278 C4.89487179,28.014652 4.77692308,28.1904762 5.6025641,28.3663004 L6.48717949,28.5421245 C6.66410256,28.7765568 6.72307692,29.4212454 6.42820513,29.5970696 C5.36666667,29.5384615 4.54102564,29.5384615 3.24358974,29.4798535 C2.24102564,29.4798535 1.88717949,29.5970696 0.471794872,29.5970696 C0.117948718,29.4212454 0.176923077,28.7765568 0.353846154,28.5421245 L1.17948718,28.4249084 C2.00512821,28.3663004 2.3,28.1318681 2.77179487,26.959707 C3.3025641,25.7875458 3.83333333,24.3223443 4.65897436,22.1538462 L7.37179487,14.8278388 C8.07948718,12.952381 8.61025641,11.8974359 8.55128205,11.018315 C9.96666667,10.6666667 11.0871795,9.2014652 11.1461538,9.2014652 C11.5589744,9.2014652 11.7358974,9.37728938 11.8538462,9.78754579 C12.0897436,10.6666667 12.4435897,11.7802198 13.2102564,13.8901099 L17.2794872,25.6117216 C17.9282051,27.4285714 18.1641026,28.0732601 19.2846154,28.2490842 L20.1102564,28.4249084 C20.2871795,28.6007326 20.3461538,29.3040293 20.0512821,29.4798535 C18.6358974,29.4212454 17.3384615,29.3626374 15.7461538,29.3626374 C14.2128205,29.3626374 13.3871795,29.4212454 12.0307692,29.4798535 C11.6769231,29.3040293 11.6179487,28.6593407 11.9717949,28.4249084 L12.5615385,28.2490842 C13.2692308,28.1318681 13.3871795,27.8974359 13.3871795,27.7216117 C13.3871795,27.4871795 13.1512821,26.7838828 12.7974359,25.6703297 L11.9717949,23.0915751 C11.7948718,22.6227106 11.5589744,22.5641026 10.4974359,22.5641026 L7.25384615,22.5641026 L7.25384615,22.7399267 Z M10.4974359,21.1575092 C11.2051282,21.1575092 11.3820513,21.040293 11.0871795,20.2783883 L10.3205128,17.8754579 C9.90769231,16.5860806 9.49487179,15.3553114 9.25897436,14.7106227 C8.96410256,15.3553114 8.49230769,16.6446886 8.02051282,17.992674 L7.25384615,20.2197802 C6.95897436,21.040293 7.13589744,21.0989011 7.9025641,21.0989011 L10.4974359,21.0989011 L10.4974359,21.1575092 Z" id="Shape" sketch:type="MSShapeGroup"></path>
                <path d="M21.525641,12.8937729 C21.525641,11.7216117 21.525641,11.3699634 20.9358974,11.018315 L20.4051282,10.7252747 C20.1692308,10.5494505 20.1692308,10.021978 20.4051282,9.84615385 C21.6435897,9.55311355 23.4717949,8.84981685 25.0051282,8.14652015 C25.1820513,8.14652015 25.4179487,8.20512821 25.5358974,8.38095238 C25.4769231,9.61172161 25.4179487,10.8424908 25.4179487,12.7765568 L25.4179487,22.1538462 C25.4179487,22.5054945 25.5358974,22.5641026 25.8307692,22.5641026 C26.3615385,22.5641026 26.9512821,22.3882784 27.6,21.7435897 L28.8384615,20.2783883 C29.4282051,19.5750916 29.5461538,19.2820513 29.5461538,19.1062271 C29.5461538,18.9304029 29.6051282,18.8717949 29.3102564,18.8131868 L28.5435897,18.6959707 C28.2487179,18.4029304 28.3076923,17.7582418 28.6025641,17.6410256 L29.3102564,17.6410256 C30.725641,17.6410256 32.5538462,17.4652015 34.3230769,17.2307692 C34.6179487,17.4065934 34.6769231,18.0512821 34.4410256,18.2857143 L33.4974359,18.5201465 C32.9076923,18.6373626 32.6128205,18.9304029 31.8461538,19.5750916 C30.725641,20.4542125 30.2538462,20.8644689 29.8410256,21.3333333 C29.6641026,21.5091575 29.6641026,21.6263736 29.6641026,21.7435897 C29.6641026,21.8608059 29.7230769,22.03663 29.9,22.2710623 C30.4307692,23.2087912 33.0846154,27.3113553 33.8512821,27.956044 C34.2641026,28.3663004 34.8538462,28.4835165 35.6205128,28.6593407 L36.0923077,28.7765568 C36.3282051,29.010989 36.2692308,29.7142857 35.974359,29.8315018 C35.0307692,29.7728938 33.9102564,29.7142857 32.2,29.7142857 C30.4307692,29.7142857 29.3102564,29.7728938 28.4846154,29.8315018 C28.1897436,29.6556777 28.1307692,29.0695971 28.3666667,28.7765568 L28.7794872,28.6593407 C29.074359,28.6007326 29.2512821,28.5421245 29.2512821,28.4249084 C29.2512821,28.3076923 28.9564103,27.8388278 28.7205128,27.4871795 L26.5384615,24.029304 C26.3025641,23.6776557 26.0666667,23.5604396 25.7717949,23.5604396 C25.5358974,23.5604396 25.4179487,23.7362637 25.4179487,24.2637363 L25.4179487,26.021978 C25.4179487,28.1318681 25.1820513,28.3663004 26.2435897,28.4835165 L26.7153846,28.5421245 C26.9512821,28.7179487 26.9512821,29.4212454 26.6564103,29.5970696 C25.7128205,29.5384615 24.7692308,29.4798535 23.4128205,29.4798535 C22.0564103,29.4798535 21.1128205,29.5384615 20.1102564,29.5970696 C19.8153846,29.4212454 19.8153846,28.7179487 20.0512821,28.5421245 L20.6410256,28.4835165 C21.7025641,28.3663004 21.525641,28.1318681 21.525641,26.021978 L21.525641,12.8937729 L21.525641,12.8937729 Z" id="Shape" sketch:type="MSShapeGroup"></path>
                <path d="M41.8717949,19.1648352 C41.4589744,19.1648352 41.4589744,19.2234432 41.4589744,19.8681319 L41.4589744,24.3809524 C41.4589744,26.0805861 41.4589744,27.8974359 43.5820513,27.8974359 C43.9948718,27.8974359 44.4666667,27.6630037 44.8205128,27.4285714 C45.1153846,27.5457875 45.2923077,27.8388278 45.2333333,28.1904762 C44.4076923,29.0695971 42.7564103,29.9487179 40.9282051,29.9487179 C38.4512821,29.9487179 37.5666667,28.4835165 37.5666667,26.5494505 L37.5666667,19.8681319 C37.5666667,19.2234432 37.5076923,19.1648352 36.9769231,19.1648352 L36.0333333,19.1648352 C35.6794872,19.047619 35.6205128,18.4615385 35.8564103,18.2271062 C36.8,17.8754579 37.625641,17.3479853 38.3333333,16.8791209 C38.8641026,16.4688645 39.6307692,15.8827839 40.574359,14.5347985 C40.8102564,14.4175824 41.3410256,14.4175824 41.4589744,14.7106227 L41.4589744,16.9377289 C41.4589744,17.5238095 41.5179487,17.5238095 42.0487179,17.5238095 L44.4076923,17.5238095 C44.5846154,17.6410256 44.6435897,17.8168498 44.6435897,18.1098901 C44.6435897,18.4615385 44.525641,18.989011 44.2307692,19.1648352 L41.8717949,19.1648352 L41.8717949,19.1648352 Z" id="Shape" sketch:type="MSShapeGroup"></path>
                <path d="M51.3666667,26.021978 C51.3666667,28.1318681 51.4846154,28.3663004 52.4871795,28.4835165 L53.0769231,28.5421245 C53.3128205,28.7179487 53.3128205,29.4212454 53.0179487,29.5970696 C51.9564103,29.5384615 50.7769231,29.4798535 49.4205128,29.4798535 C48.0641026,29.4798535 46.825641,29.5384615 45.8230769,29.5970696 C45.5282051,29.4212454 45.5282051,28.7179487 45.7641026,28.5421245 L46.3538462,28.4835165 C47.3564103,28.3663004 47.474359,28.1318681 47.474359,26.021978 L47.474359,21.5091575 C47.474359,20.3369963 47.474359,19.985348 46.8846154,19.5750916 L46.4717949,19.3406593 C46.2358974,19.1648352 46.2358974,18.6373626 46.4717949,18.4615385 C47.8871795,18.0512821 50.0102564,17.2893773 50.9538462,16.7032967 C51.1897436,16.7032967 51.3666667,16.8205128 51.4846154,16.996337 C51.425641,17.8754579 51.3666667,19.2234432 51.3666667,20.5714286 L51.3666667,26.021978 M51.7205128,13.3626374 C51.7205128,14.8864469 50.5410256,15.6483516 49.3615385,15.6483516 C47.9461538,15.6483516 47.1205128,14.7106227 47.1205128,13.4212454 C47.1205128,12.0732601 48.2410256,11.1355311 49.4794872,11.1355311 C50.8358974,11.1355311 51.7205128,12.1318681 51.7205128,13.3626374" id="Shape" sketch:type="MSShapeGroup"></path>
                <path d="M53.4307692,18.5201465 C53.1358974,18.2857143 53.1358974,17.5824176 53.5487179,17.4652015 C54.6692308,17.5238095 55.6717949,17.5824176 57.2641026,17.5824176 C58.3846154,17.5824176 59.5051282,17.5238095 60.625641,17.4652015 C60.9205128,17.6410256 60.8615385,18.3443223 60.6846154,18.5201465 L60.2128205,18.6373626 C59.8589744,18.6959707 59.6820513,18.7545788 59.6820513,18.9304029 C59.6820513,19.1062271 59.8,19.5164835 59.9769231,19.985348 C60.5666667,21.6263736 61.2153846,23.2087912 61.8641026,24.6153846 C62.5128205,23.0915751 63.2794872,21.5091575 63.9282051,19.6923077 C64.0461538,19.3992674 64.1051282,19.1062271 64.1051282,18.9304029 C64.1051282,18.7545788 63.8692308,18.6373626 63.3974359,18.5787546 L62.9846154,18.4615385 C62.6897436,18.2857143 62.6897436,17.5824176 63.0435897,17.4065934 C63.9871795,17.4652015 64.6358974,17.5238095 65.5205128,17.5238095 C66.4641026,17.5238095 67.1717949,17.4652015 67.8205128,17.4065934 C68.174359,17.5824176 68.1153846,18.2857143 67.8794872,18.4615385 L67.3487179,18.5787546 C66.4641026,18.7545788 66.2282051,19.1062271 65.5794872,20.2197802 C63.9871795,23.3260073 62.6307692,26.4908425 61.274359,29.7142857 C61.0974359,29.8315018 60.8615385,29.9487179 60.5666667,29.9487179 C60.2717949,29.9487179 60.0358974,29.8315018 59.8589744,29.7142857 C58.2666667,25.96337 57.6769231,24.4981685 55.7897436,20.5128205 C55.0820513,19.047619 54.9051282,18.8131868 54.1384615,18.6373626 L53.4307692,18.5201465 L53.4307692,18.5201465 Z" id="Shape" sketch:type="MSShapeGroup"></path>
                <path d="M79.6153846,17.7582418 C79.6153846,18.5787546 79.6153846,18.6373626 80.4410256,18.6373626 L82.7410256,18.6373626 C84.3333333,18.6373626 84.6282051,18.4029304 84.9820513,16.9377289 L85.1589744,16.2344322 C85.3948718,15.9413919 86.1025641,16 86.2794872,16.2930403 C86.2205128,17.2307692 86.1615385,18.3443223 86.1615385,19.5164835 C86.1615385,20.6300366 86.2205128,21.7435897 86.2794872,22.6227106 C86.1025641,22.9157509 85.3358974,22.9157509 85.1589744,22.6813187 L84.9820513,21.978022 C84.6282051,20.5128205 84.3333333,20.2783883 82.7410256,20.2783883 L80.4410256,20.2783883 C79.6153846,20.2783883 79.6153846,20.3956044 79.6153846,21.1575092 L79.6153846,25.2014652 C79.6153846,27.956044 79.7923077,28.1904762 81.1487179,28.4249084 L82.2692308,28.6007326 C82.5051282,28.7765568 82.5051282,29.4798535 82.2692308,29.6556777 C80.3820513,29.5970696 78.9076923,29.5384615 77.4923077,29.5384615 C76.1358974,29.5384615 74.6025641,29.5970696 72.774359,29.6556777 C72.5384615,29.4798535 72.5384615,28.7765568 72.774359,28.6007326 L73.7769231,28.4249084 C75.1333333,28.1904762 75.3102564,28.014652 75.3102564,25.2014652 L75.3102564,14.0659341 C75.3102564,11.3113553 75.1333333,11.0769231 73.7769231,10.7838828 L73.1871795,10.6666667 C72.8923077,10.4908425 72.8923077,9.72893773 73.2461538,9.61172161 C74.5435897,9.67032967 76.0179487,9.72893773 77.4923077,9.72893773 L83.8025641,9.72893773 C85.7487179,9.72893773 87.4589744,9.67032967 87.8717949,9.61172161 C87.8717949,10.1391941 87.8717949,12.2490842 87.9307692,14.3003663 C87.8128205,14.6520147 87.1641026,14.6520147 86.8102564,14.4175824 C86.4564103,13.1868132 86.2205128,12.4835165 85.925641,12.0732601 C85.3948718,11.4285714 84.5102564,11.0769231 82.9769231,11.0769231 L80.6179487,11.0769231 C79.6153846,11.0769231 79.6153846,11.1355311 79.6153846,12.3076923 L79.6153846,17.7582418 L79.6153846,17.7582418 Z" id="Shape" sketch:type="MSShapeGroup"></path>
                <path d="M94.8307692,26.021978 C94.8307692,28.1318681 94.9487179,28.3663004 95.9512821,28.4835165 L96.5410256,28.5421245 C96.7769231,28.7179487 96.7769231,29.4212454 96.5410256,29.5970696 C95.4794872,29.5384615 94.3,29.4798535 92.9435897,29.4798535 C91.5871795,29.4798535 90.3487179,29.5384615 89.3461538,29.5970696 C89.0512821,29.4212454 89.0512821,28.7179487 89.2871795,28.5421245 L89.8769231,28.4835165 C90.8794872,28.3663004 90.9974359,28.1318681 90.9974359,26.021978 L90.9974359,21.5091575 C90.9974359,20.3369963 90.9974359,19.985348 90.4076923,19.5750916 L89.9948718,19.2820513 C89.7589744,19.1062271 89.7589744,18.5787546 89.9948718,18.4029304 C91.4102564,17.992674 93.5333333,17.2307692 94.4769231,16.6446886 C94.7128205,16.6446886 94.8897436,16.7619048 95.0076923,16.9377289 C94.9487179,17.8168498 94.8897436,19.1648352 94.8897436,20.5128205 L94.8897436,26.021978 M95.1846154,13.3626374 C95.1846154,14.8864469 94.0051282,15.6483516 92.825641,15.6483516 C91.4692308,15.6483516 90.5846154,14.7106227 90.5846154,13.4212454 C90.5846154,12.0732601 91.7051282,11.1355311 92.9435897,11.1355311 C94.3,11.1355311 95.1846154,12.1318681 95.1846154,13.3626374" id="Shape" sketch:type="MSShapeGroup"></path>
                <path d="M99.4897436,21.5091575 C99.4897436,20.3369963 99.4897436,19.985348 98.9,19.5750916 L98.4871795,19.2820513 C98.2512821,19.1062271 98.2512821,18.5787546 98.4871795,18.4029304 C99.9025641,17.992674 102.084615,17.2307692 102.969231,16.6446886 C103.205128,16.6446886 103.382051,16.7619048 103.5,16.9377289 C103.5,17.3479853 103.382051,18.0512821 103.382051,18.2857143 C103.382051,18.4615385 103.441026,18.5201465 103.558974,18.5201465 C103.676923,18.5201465 103.971795,18.3443223 104.148718,18.2857143 C104.797436,17.8754579 106.212821,17.1135531 107.628205,17.1135531 C110.105128,17.1135531 111.402564,18.8131868 111.402564,20.8644689 L111.402564,26.021978 C111.402564,28.1318681 111.520513,28.3663004 112.582051,28.4835165 L113.053846,28.5421245 C113.289744,28.7179487 113.289744,29.4212454 113.053846,29.5970696 C112.110256,29.5384615 110.871795,29.4798535 109.397436,29.4798535 C108.217949,29.4798535 107.038462,29.5384615 106.153846,29.5970696 C105.858974,29.4212454 105.858974,28.7179487 106.094872,28.5421245 L106.625641,28.4249084 C107.333333,28.3076923 107.451282,28.0732601 107.451282,26.4322344 L107.451282,21.3919414 C107.451282,20.2197802 106.861538,19.2820513 105.328205,19.2820513 C104.502564,19.2820513 103.853846,19.6923077 103.617949,19.985348 C103.441026,20.2197802 103.382051,20.5714286 103.382051,21.0989011 L103.382051,26.4322344 C103.382051,28.0732601 103.5,28.3076923 104.266667,28.4249084 L104.738462,28.4835165 C104.974359,28.6593407 104.974359,29.3626374 104.679487,29.5384615 C103.735897,29.4798535 102.792308,29.4212454 101.317949,29.4212454 C100.079487,29.4212454 98.8410256,29.4798535 97.7794872,29.5384615 C97.4846154,29.3626374 97.4846154,28.6593407 97.7794872,28.4835165 L98.2512821,28.4249084 C99.3128205,28.3076923 99.4307692,28.0732601 99.4307692,25.96337 L99.4307692,21.5091575 L99.4897436,21.5091575 Z" id="Shape" sketch:type="MSShapeGroup"></path>
                <path d="M124.730769,25.4358974 C124.612821,27.4871795 125.497436,28.014652 126.087179,28.014652 C126.441026,28.014652 126.735897,27.8974359 127.207692,27.6630037 C127.502564,27.7216117 127.679487,28.0732601 127.561538,28.3663004 C127.207692,28.8351648 125.792308,30.007326 124.082051,30.007326 C123.020513,30.007326 122.371795,29.6556777 121.546154,28.952381 C121.310256,28.7765568 121.192308,28.7179487 121.074359,28.7179487 C120.897436,28.7179487 120.720513,28.8351648 120.425641,29.0695971 C119.894872,29.4798535 119.010256,30.007326 117.889744,30.007326 C116.120513,30.007326 114.528205,28.952381 114.528205,26.8424908 C114.528205,25.3186813 115.471795,24.3809524 117.653846,23.7362637 C118.774359,23.3846154 119.658974,23.1501832 120.484615,22.9157509 C121.015385,22.7399267 121.192308,22.5641026 121.192308,22.3296703 C121.192308,21.978022 121.251282,21.6849817 121.251282,21.3333333 C121.251282,20.2197802 120.779487,18.7545788 119.482051,18.7545788 C118.774359,18.7545788 118.125641,19.1648352 117.889744,20.4542125 C117.830769,20.9230769 117.653846,21.2161172 117.358974,21.3919414 C116.887179,21.7435897 115.707692,22.0952381 115.176923,22.0952381 C114.646154,22.0952381 114.469231,21.7435897 114.469231,21.3333333 C114.469231,20.5714286 115.176923,19.5750916 115.94359,19.047619 C116.946154,18.2271062 118.833333,17.2307692 121.015385,17.2307692 C123.551282,17.2307692 125.025641,18.4615385 124.848718,21.5677656 L124.730769,25.4358974 L124.730769,25.4358974 Z M121.074359,24.6153846 C121.074359,24.1465201 121.074359,24.029304 120.838462,24.0879121 C119.482051,24.2637363 118.302564,24.7912088 118.302564,26.1978022 C118.302564,27.1355311 119.010256,28.014652 119.835897,28.014652 C120.779487,28.014652 120.95641,27.4871795 120.95641,26.5494505 L121.074359,24.6153846 L121.074359,24.6153846 Z" id="Shape" sketch:type="MSShapeGroup"></path>
                <path d="M129.389744,21.5091575 C129.389744,20.3369963 129.389744,19.985348 128.8,19.5750916 L128.387179,19.2820513 C128.151282,19.1062271 128.151282,18.5787546 128.387179,18.4029304 C129.802564,17.992674 131.984615,17.2307692 132.869231,16.6446886 C133.105128,16.6446886 133.282051,16.7619048 133.4,16.9377289 C133.4,17.3479853 133.282051,18.0512821 133.282051,18.2857143 C133.282051,18.4615385 133.341026,18.5201465 133.458974,18.5201465 C133.576923,18.5201465 133.871795,18.3443223 134.048718,18.2857143 C134.697436,17.8754579 136.112821,17.1135531 137.528205,17.1135531 C140.005128,17.1135531 141.302564,18.8131868 141.302564,20.8644689 L141.302564,26.021978 C141.302564,28.1318681 141.420513,28.3663004 142.482051,28.4835165 L142.953846,28.5421245 C143.189744,28.7179487 143.189744,29.4212454 142.953846,29.5970696 C142.010256,29.5384615 140.771795,29.4798535 139.297436,29.4798535 C138.117949,29.4798535 136.938462,29.5384615 136.053846,29.5970696 C135.758974,29.4212454 135.758974,28.7179487 135.994872,28.5421245 L136.525641,28.4249084 C137.233333,28.3076923 137.351282,28.0732601 137.351282,26.4322344 L137.351282,21.3919414 C137.351282,20.2197802 136.761538,19.2820513 135.228205,19.2820513 C134.402564,19.2820513 133.753846,19.6923077 133.517949,19.985348 C133.341026,20.2197802 133.282051,20.5714286 133.282051,21.0989011 L133.282051,26.4322344 C133.282051,28.0732601 133.4,28.3076923 134.166667,28.4249084 L134.638462,28.4835165 C134.874359,28.6593407 134.874359,29.3626374 134.579487,29.5384615 C133.635897,29.4798535 132.692308,29.4212454 131.217949,29.4212454 C129.979487,29.4212454 128.741026,29.4798535 127.679487,29.5384615 C127.384615,29.3626374 127.384615,28.6593407 127.620513,28.4835165 L128.092308,28.4249084 C129.153846,28.3076923 129.271795,28.0732601 129.271795,25.96337 L129.271795,21.5091575 L129.389744,21.5091575 Z" id="Shape" sketch:type="MSShapeGroup"></path>
                <path d="M144.664103,29.010989 C144.310256,28.4249084 144.133333,26.959707 144.192308,25.6117216 C144.369231,25.3186813 145.017949,25.2600733 145.194872,25.5531136 C145.607692,26.7838828 146.728205,28.5421245 148.261538,28.5421245 C149.146154,28.5421245 149.853846,28.014652 149.853846,26.959707 C149.853846,25.8461538 148.910256,25.2014652 147.848718,24.7326007 C146.020513,23.8534799 144.723077,22.7399267 144.723077,20.981685 C144.723077,18.4029304 146.905128,17.1135531 149.5,17.1135531 C151.033333,17.1135531 152.389744,17.5238095 152.74359,17.7582418 C153.038462,18.4029304 153.215385,19.6336996 153.215385,20.7472527 C153.097436,21.0989011 152.330769,21.0989011 152.153846,20.8644689 C151.564103,19.1062271 150.797436,18.5201465 149.794872,18.5201465 C148.910256,18.5201465 148.261538,19.047619 148.261538,19.8095238 C148.261538,20.5128205 148.851282,21.040293 150.207692,21.7435897 C152.271795,22.7399267 153.510256,23.970696 153.510256,25.9047619 C153.451282,28.5421245 151.210256,29.8901099 148.379487,29.8901099 C146.669231,29.9487179 145.430769,29.6556777 144.664103,29.010989" id="Shape" sketch:type="MSShapeGroup"></path>
                <path d="M157.520513,0.527472527 C154.512821,0.234432234 149.264103,0.0586080586 145.607692,3.04761905 C141.833333,6.15384615 141.597436,11.1941392 142.423077,13.2454212 C142.423077,13.2454212 142.187179,13.5970696 141.833333,14.0659341 C141.420513,13.4798535 141.066667,13.010989 141.066667,13.010989 C141.65641,11.5457875 141.479487,7.97069597 138.825641,5.8021978 C136.230769,3.69230769 132.574359,3.86813187 130.451282,4.04395604 C129.330769,4.16117216 128.092308,4.3956044 128.092308,4.3956044 C128.092308,4.3956044 128.387179,5.62637363 129.094872,7.5018315 C129.802564,9.37728938 130.923077,11.5457875 133.282051,13.0695971 C135.876923,14.7692308 138.353846,14.7106227 140.064103,14.0659341 C140.064103,14.0659341 140.476923,14.5934066 140.948718,15.2967033 C140.712821,15.6483516 140.476923,16 140.3,16.3516484 C141.007692,16.6446886 141.538462,17.1135531 141.833333,17.7582418 C142.6,16.2930403 143.779487,14.7692308 143.779487,14.7692308 C146.25641,15.7069597 149.735897,15.7655678 153.451282,13.3626374 C156.871795,11.1355311 158.405128,8.08791209 159.407692,5.45054945 C160.410256,2.81318681 160.823077,1.05494505 160.823077,1.05494505 C160.823077,1.05494505 159.053846,0.644688645 157.520513,0.527472527 M133.517949,11.1941392 C131.217949,9.37728938 130.215385,6.0952381 130.215385,6.0952381 C131.512821,6.62271062 135.758974,9.14285714 138.884615,12.6007326 C138.884615,12.6007326 136.348718,13.4212454 133.517949,11.1941392 M139.828205,11.5457875 C137.705128,9.14285714 134.107692,6.44688645 130.687179,5.27472527 C130.687179,5.27472527 134.579487,4.57142857 137.233333,6.56410256 C140.3,8.79120879 139.887179,11.6043956 139.828205,11.5457875 M144.074359,11.2527473 C144.015385,11.3113553 143.425641,7.32600733 147.730769,4.16117216 C151.505128,1.34798535 157.048718,2.34432234 157.048718,2.34432234 C152.212821,4.04395604 147.141026,7.79487179 144.074359,11.2527473 M153.097436,10.7252747 C149.087179,13.8901099 145.489744,12.7765568 145.489744,12.7179487 C149.912821,7.79487179 155.928205,4.21978022 157.815385,3.45787546 C157.815385,3.45787546 156.341026,8.14652015 153.097436,10.7252747" id="Shape" sketch:type="MSShapeGroup"></path>
            </g>
        </g>
    </g>
</svg>