<?xml version="1.0" encoding="UTF-8" standalone="no"?>
<svg width="182px" height="42px" viewBox="0 0 182 42" version="1.1" xmlns="http://www.w3.org/2000/svg" xmlns:xlink="http://www.w3.org/1999/xlink" xmlns:sketch="http://www.bohemiancoding.com/sketch/ns">
    <!-- Generator: Sketch 3.4.4 (17249) - http://www.bohemiancoding.com/sketch -->
    <title>logo-blue</title>
    <desc>Created with Sketch.</desc>
    <defs></defs>
    <g id="Page-1" stroke="none" stroke-width="1" fill="none" fill-rule="evenodd" sketch:type="MSPage">
        <g id="AF-Skiss-1" sketch:type="MSArtboardGroup" transform="translate(-250.000000, -15.000000)">
            <g id="logo-blue" sketch:type="MSLayerGroup" transform="translate(250.000000, 15.000000)">
                <g id="Layer_1" sketch:type="MSShapeGroup">
                    <path d="M0.4,37.3333333 L1.53333333,37.3333333 C2.4,37.3333333 2.86666667,38 2.86666667,38.6666667 C2.86666667,39.3333333 2.33333333,40 1.53333333,40 L0.933333333,40 L0.933333333,41.3333333 L0.4,41.3333333 L0.4,37.3333333 L0.4,37.3333333 Z M1.46666667,39.5333333 C2.06666667,39.5333333 2.4,39.2666667 2.4,38.6666667 C2.4,38.0666667 2.06666667,37.8 1.46666667,37.8 L0.933333333,37.8 L0.933333333,39.5333333 L1.46666667,39.5333333 L1.46666667,39.5333333 Z" id="Shape" fill="#002F58"></path>
                    <path d="M7,37.3333333 L7.53333333,37.3333333 L7.53333333,40.8666667 L8.93333333,40.8666667 L8.93333333,41.3333333 L7,41.3333333 L7,37.3333333 Z" id="Shape" fill="#002F58"></path>
                    <path d="M15.4666667,40.4 L13.6,40.4 L13.2666667,41.3333333 L12.6666667,41.3333333 L14.2666667,37.3333333 L14.7333333,37.3333333 L16.3333333,41.3333333 L15.8,41.3333333 L15.4666667,40.4 L15.4666667,40.4 Z M14.5333333,38 L13.8,40 L15.3333333,40 L14.5333333,38 L14.5333333,38 Z" id="Shape" fill="#002F58"></path>
                    <path d="M23.3333333,38.1333333 C23.0666667,37.8666667 22.6666667,37.7333333 22.2666667,37.7333333 C21.4,37.7333333 20.6666667,38.4 20.6666667,39.3333333 C20.6666667,40.2666667 21.4666667,40.9333333 22.2666667,40.9333333 C22.7333333,40.9333333 23.0666667,40.8 23.3333333,40.5333333 L23.6666667,40.8666667 C23.3333333,41.2 22.8,41.4 22.2666667,41.4 C20.9333333,41.4 20.1333333,40.3333333 20.1333333,39.3333333 C20.1333333,38.3333333 20.8666667,37.2666667 22.2666667,37.2666667 C22.8,37.2666667 23.3333333,37.4666667 23.6666667,37.8 L23.3333333,38.1333333 L23.3333333,38.1333333 Z" id="Shape" fill="#002F58"></path>
                    <path d="M27.8,37.3333333 L29.8666667,37.3333333 L29.8666667,37.8 L28.2666667,37.8 L28.2666667,39.0666667 L29.8666667,39.0666667 L29.8666667,39.5333333 L28.2666667,39.5333333 L28.2666667,40.8666667 L29.8666667,40.8666667 L29.8666667,41.3333333 L27.8,41.3333333 L27.8,37.3333333 Z" id="Shape" fill="#002F58"></path>
                    <path d="M34.6,39.6 L34.6,41.3333333 L34.0666667,41.3333333 L34.0666667,37.3333333 L35.2,37.3333333 C36,37.3333333 36.5333333,37.8 36.5333333,38.5333333 C36.5333333,39.2666667 36,39.6666667 35.3333333,39.7333333 L36.8666667,41.3333333 L36.1333333,41.3333333 L34.6,39.6 L34.6,39.6 Z M34.6,39.3333333 L35.0666667,39.3333333 C35.8666667,39.3333333 36.1333333,39 36.1333333,38.5333333 C36.1333333,38.0666667 35.8,37.7333333 35.2666667,37.7333333 L34.6,37.7333333 L34.6,39.3333333 L34.6,39.3333333 Z" id="Shape" fill="#002F58"></path>
                    <rect id="Rectangle-path" fill="#002F58" x="40.9333333" y="37.3333333" width="0.533333333" height="4"></rect>
                    <path d="M48.3333333,37.3333333 L48.8666667,37.3333333 L48.8666667,41.3333333 L48.4,41.3333333 L46.2,38.2666667 L46.2,38.2666667 L46.2,41.3333333 L45.7333333,41.3333333 L45.7333333,37.3333333 L46.2,37.3333333 L48.3333333,40.4 L48.3333333,40.4 L48.3333333,37.3333333 Z" id="Shape" fill="#002F58"></path>
                    <path d="M55.2666667,39.1333333 L57.2666667,39.1333333 C57.2666667,40.6 56.2666667,41.4 55.1333333,41.4 C53.8,41.4 53,40.3333333 53,39.3333333 C53,38.3333333 53.7333333,37.2666667 55.1333333,37.2666667 C55.6,37.2666667 56.0666667,37.4 56.5333333,37.8 L56.2,38.2 C55.8666667,37.8666667 55.4666667,37.7333333 55.1333333,37.7333333 C54.2666667,37.7333333 53.5333333,38.4 53.5333333,39.3333333 C53.5333333,40.2666667 54.3333333,40.9333333 55.1333333,40.9333333 C55.8666667,40.9333333 56.5333333,40.4666667 56.6666667,39.6 L55.2,39.6 L55.2,39.1333333 L55.2666667,39.1333333 Z" id="Shape" fill="#002F58"></path>
                    <path d="M64,40.4 L62.1333333,40.4 L61.7333333,41.3333333 L61.2,41.3333333 L62.8,37.3333333 L63.2666667,37.3333333 L64.8666667,41.3333333 L64.3333333,41.3333333 L64,40.4 L64,40.4 Z M63.0666667,38 L62.3333333,40 L63.8666667,40 L63.0666667,38 L63.0666667,38 Z" id="Shape" fill="#002F58"></path>
                    <path d="M69.4666667,39.6 L69.4666667,41.3333333 L68.9333333,41.3333333 L68.9333333,37.3333333 L70.0666667,37.3333333 C70.8666667,37.3333333 71.4,37.8 71.4,38.5333333 C71.4,39.2666667 70.8666667,39.6666667 70.2,39.7333333 L71.7333333,41.3333333 L71,41.3333333 L69.4666667,39.6 L69.4666667,39.6 Z M69.4666667,39.3333333 L69.9333333,39.3333333 C70.7333333,39.3333333 71,39 71,38.5333333 C71,38.0666667 70.6666667,37.7333333 70.1333333,37.7333333 L69.4666667,37.7333333 L69.4666667,39.3333333 L69.4666667,39.3333333 Z" id="Shape" fill="#002F58"></path>
                    <path d="M83.6666667,39.4666667 L84,39.8 L83.4,40.4 L84.0666667,41.3333333 L83.4666667,41.3333333 L83.0666667,40.7333333 C82.6,41.2 82.3333333,41.4 81.8666667,41.4 C81.2666667,41.4 80.8,40.9333333 80.8,40.3333333 C80.8,39.7333333 81.2,39.3333333 81.8666667,39 C81.6,38.6666667 81.5333333,38.5333333 81.5333333,38.2666667 C81.5333333,37.8 81.8666667,37.5333333 82.3333333,37.5333333 C82.8666667,37.5333333 83.0666667,37.9333333 83.0666667,38.2 C83.0666667,38.6 82.8,38.8666667 82.4666667,39.1333333 L83.1333333,40.0666667 L83.6666667,39.4666667 M82,39.3333333 C81.3333333,39.7333333 81.1333333,40 81.1333333,40.2666667 C81.1333333,40.6 81.4,40.8666667 81.7333333,40.8666667 C82,40.8666667 82.3333333,40.6666667 82.6666667,40.3333333 L82,39.3333333 M82.2666667,37.8666667 C82.1333333,37.8666667 81.9333333,38 81.9333333,38.2 C81.9333333,38.3333333 82,38.5333333 82.1333333,38.7333333 C82.4,38.5333333 82.4666667,38.4 82.4666667,38.2 C82.5333333,38 82.4666667,37.8666667 82.2666667,37.8666667" id="Shape" fill="#002F58"></path>
                    <path d="M93.0666667,37.3333333 L95.1333333,37.3333333 L95.1333333,37.8 L93.6,37.8 L93.6,39.0666667 L95.1333333,39.0666667 L95.1333333,39.5333333 L93.6,39.5333333 L93.6,41.3333333 L93.0666667,41.3333333 L93.0666667,37.3333333 Z" id="Shape" fill="#002F58"></path>
                    <path d="M101.333333,37.2666667 C102.666667,37.2666667 103.466667,38.3333333 103.466667,39.3333333 C103.466667,40.3333333 102.733333,41.4 101.333333,41.4 C100,41.4 99.2,40.3333333 99.2,39.3333333 C99.2,38.3333333 100,37.2666667 101.333333,37.2666667 M101.333333,40.9333333 C102.133333,40.9333333 102.933333,40.2666667 102.933333,39.3333333 C102.933333,38.4 102.133333,37.7333333 101.333333,37.7333333 C100.533333,37.7333333 99.7333333,38.4 99.7333333,39.3333333 C99.7333333,40.2666667 100.533333,40.9333333 101.333333,40.9333333 M100.866667,36.4 C101.066667,36.4 101.2,36.5333333 101.2,36.7333333 C101.2,36.9333333 101.066667,37.0666667 100.866667,37.0666667 C100.666667,37.0666667 100.533333,36.9333333 100.533333,36.7333333 C100.533333,36.5333333 100.666667,36.4 100.866667,36.4 M101.866667,36.4 C102.066667,36.4 102.2,36.5333333 102.2,36.7333333 C102.2,36.9333333 102.066667,37.0666667 101.866667,37.0666667 C101.666667,37.0666667 101.533333,36.9333333 101.533333,36.7333333 C101.533333,36.5333333 101.666667,36.4 101.866667,36.4" id="Shape" fill="#002F58"></path>
                    <path d="M108.2,39.6 L108.2,41.3333333 L107.666667,41.3333333 L107.666667,37.3333333 L108.8,37.3333333 C109.6,37.3333333 110.133333,37.8 110.133333,38.5333333 C110.133333,39.2666667 109.6,39.6666667 108.933333,39.7333333 L110.466667,41.3333333 L109.733333,41.3333333 L108.2,39.6 L108.2,39.6 Z M108.2,39.3333333 L108.666667,39.3333333 C109.466667,39.3333333 109.733333,39 109.733333,38.5333333 C109.733333,38.0666667 109.4,37.7333333 108.866667,37.7333333 L108.2,37.7333333 L108.2,39.3333333 L108.2,39.3333333 Z" id="Shape" fill="#002F58"></path>
                    <path d="M116.4,38.4666667 C116.333333,38 116.066667,37.7333333 115.6,37.7333333 C115,37.7333333 114.866667,38.1333333 114.866667,38.4 C114.866667,38.7333333 115.066667,38.8666667 115.466667,39.0666667 L116,39.2666667 C116.666667,39.5333333 116.933333,39.8666667 116.933333,40.3333333 C116.933333,41 116.4,41.4666667 115.666667,41.4666667 C114.933333,41.4666667 114.4,41.0666667 114.333333,40.2666667 L114.866667,40.2666667 C114.933333,40.7333333 115.133333,41 115.666667,41 C116.133333,41 116.4,40.7333333 116.4,40.3333333 C116.4,40 116.133333,39.8 115.8,39.6666667 L115.266667,39.4666667 C114.666667,39.2666667 114.4,38.8666667 114.4,38.4 C114.4,37.7333333 115,37.2666667 115.666667,37.2666667 C116.333333,37.2666667 116.866667,37.6666667 116.933333,38.4666667 L116.4,38.4666667 L116.4,38.4666667 Z" id="Shape" fill="#002F58"></path>
                    <path d="M123.6,40.4 L121.733333,40.4 L121.333333,41.3333333 L120.8,41.3333333 L122.4,37.3333333 L122.866667,37.3333333 L124.466667,41.3333333 L123.933333,41.3333333 L123.6,40.4 M122.133333,36.4 C122.333333,36.4 122.466667,36.5333333 122.466667,36.7333333 C122.466667,36.9333333 122.333333,37.0666667 122.133333,37.0666667 C121.933333,37.0666667 121.8,36.9333333 121.8,36.7333333 C121.866667,36.5333333 122,36.4 122.133333,36.4 M122.666667,38 L121.933333,40 L123.466667,40 L122.666667,38 M123.133333,36.4 C123.333333,36.4 123.466667,36.5333333 123.466667,36.7333333 C123.466667,36.9333333 123.333333,37.0666667 123.133333,37.0666667 C122.933333,37.0666667 122.8,36.9333333 122.8,36.7333333 C122.8,36.5333333 122.933333,36.4 123.133333,36.4" id="Shape" fill="#002F58"></path>
                    <path d="M130.666667,37.3333333 L131.333333,37.3333333 L129.533333,39.2666667 L131.4,41.3333333 L130.666667,41.3333333 L129.066667,39.5333333 L129.066667,41.3333333 L128.533333,41.3333333 L128.533333,37.3333333 L129.066667,37.3333333 L129.066667,39.1333333 L130.666667,37.3333333 Z" id="Shape" fill="#002F58"></path>
                    <path d="M135.933333,39.6 L135.933333,41.3333333 L135.4,41.3333333 L135.4,37.3333333 L136.533333,37.3333333 C137.333333,37.3333333 137.866667,37.8 137.866667,38.5333333 C137.866667,39.2666667 137.333333,39.6666667 136.666667,39.7333333 L138.2,41.3333333 L137.466667,41.3333333 L135.933333,39.6 L135.933333,39.6 Z M135.933333,39.3333333 L136.4,39.3333333 C137.2,39.3333333 137.466667,39 137.466667,38.5333333 C137.466667,38.0666667 137.133333,37.7333333 136.6,37.7333333 L135.933333,37.7333333 L135.933333,39.3333333 L135.933333,39.3333333 Z" id="Shape" fill="#002F58"></path>
                    <rect id="Rectangle-path" fill="#002F58" x="142.266667" y="37.3333333" width="0.533333333" height="4"></rect>
                    <path d="M149.733333,37.3333333 L150.2,37.3333333 L150.2,41.3333333 L149.733333,41.3333333 L147.6,38.2666667 L147.6,38.2666667 L147.6,41.3333333 L147.066667,41.3333333 L147.066667,37.3333333 L147.533333,37.3333333 L149.666667,40.4 L149.733333,40.4 L149.733333,37.3333333 Z" id="Shape" fill="#002F58"></path>
                    <path d="M156.666667,39.1333333 L158.666667,39.1333333 C158.666667,40.6 157.666667,41.4 156.533333,41.4 C155.2,41.4 154.4,40.3333333 154.4,39.3333333 C154.4,38.3333333 155.133333,37.2666667 156.533333,37.2666667 C157,37.2666667 157.466667,37.4 157.933333,37.8 L157.6,38.2 C157.266667,37.8666667 156.866667,37.7333333 156.533333,37.7333333 C155.666667,37.7333333 154.933333,38.4 154.933333,39.3333333 C154.933333,40.2666667 155.733333,40.9333333 156.533333,40.9333333 C157.266667,40.9333333 157.933333,40.4666667 158.066667,39.6 L156.666667,39.6 L156.666667,39.1333333 L156.666667,39.1333333 Z" id="Shape" fill="#002F58"></path>
                    <path d="M165.333333,40.4 L163.466667,40.4 L163.133333,41.3333333 L162.6,41.3333333 L164.2,37.3333333 L164.666667,37.3333333 L166.266667,41.3333333 L165.733333,41.3333333 L165.333333,40.4 L165.333333,40.4 Z M164.4,38 L163.666667,40 L165.2,40 L164.4,38 L164.4,38 Z" id="Shape" fill="#002F58"></path>
                    <path d="M170.8,39.6 L170.8,41.3333333 L170.266667,41.3333333 L170.266667,37.3333333 L171.4,37.3333333 C172.2,37.3333333 172.733333,37.8 172.733333,38.5333333 C172.733333,39.2666667 172.2,39.6666667 171.533333,39.7333333 L173.066667,41.3333333 L172.333333,41.3333333 L170.8,39.6 L170.8,39.6 Z M170.8,39.3333333 L171.266667,39.3333333 C172.066667,39.3333333 172.333333,39 172.333333,38.5333333 C172.333333,38.0666667 172,37.7333333 171.466667,37.7333333 L170.8,37.7333333 L170.8,39.3333333 L170.8,39.3333333 Z" id="Shape" fill="#002F58"></path>
                    <path d="M8.2,25.8666667 C7.4,25.8666667 7.26666667,25.8666667 7.06666667,26.5333333 L5.8,30.4666667 C5.6,31.1333333 5.53333333,31.4 5.53333333,31.6666667 C5.53333333,31.8666667 5.4,32.0666667 6.33333333,32.2666667 L7.33333333,32.4666667 C7.53333333,32.7333333 7.6,33.4666667 7.26666667,33.6666667 C6.06666667,33.6 5.13333333,33.6 3.66666667,33.5333333 C2.53333333,33.5333333 2.13333333,33.6666667 0.533333333,33.6666667 C0.133333333,33.4666667 0.2,32.7333333 0.4,32.4666667 L1.33333333,32.3333333 C2.26666667,32.2666667 2.6,32 3.13333333,30.6666667 C3.73333333,29.3333333 4.33333333,27.6666667 5.26666667,25.2 L8.33333333,16.8666667 C9.13333333,14.7333333 9.73333333,13.5333333 9.66666667,12.5333333 C11.2666667,12.1333333 12.5333333,10.4666667 12.6,10.4666667 C13.0666667,10.4666667 13.2666667,10.6666667 13.4,11.1333333 C13.6666667,12.1333333 14.0666667,13.4 14.9333333,15.8 L19.5333333,29.1333333 C20.2666667,31.2 20.5333333,31.9333333 21.8,32.1333333 L22.7333333,32.3333333 C22.9333333,32.5333333 23,33.3333333 22.6666667,33.5333333 C21.0666667,33.4666667 19.6,33.4 17.8,33.4 C16.0666667,33.4 15.1333333,33.4666667 13.6,33.5333333 C13.2,33.3333333 13.1333333,32.6 13.5333333,32.3333333 L14.2,32.1333333 C15,32 15.1333333,31.7333333 15.1333333,31.5333333 C15.1333333,31.2666667 14.8666667,30.4666667 14.4666667,29.2 L13.5333333,26.2666667 C13.3333333,25.7333333 13.0666667,25.6666667 11.8666667,25.6666667 L8.2,25.6666667 L8.2,25.8666667 Z M11.8666667,24.0666667 C12.6666667,24.0666667 12.8666667,23.9333333 12.5333333,23.0666667 L11.6666667,20.3333333 C11.2,18.8666667 10.7333333,17.4666667 10.4666667,16.7333333 C10.1333333,17.4666667 9.6,18.9333333 9.06666667,20.4666667 L8.2,23 C7.86666667,23.9333333 8.06666667,24 8.93333333,24 L11.8666667,24 L11.8666667,24.0666667 Z" id="Shape" fill="#002F58"></path>
                    <path d="M24.3333333,14.6666667 C24.3333333,13.3333333 24.3333333,12.9333333 23.6666667,12.5333333 L23.0666667,12.2 C22.8,12 22.8,11.4 23.0666667,11.2 C24.4666667,10.8666667 26.5333333,10.0666667 28.2666667,9.26666667 C28.4666667,9.26666667 28.7333333,9.33333333 28.8666667,9.53333333 C28.8,10.9333333 28.7333333,12.3333333 28.7333333,14.5333333 L28.7333333,25.2 C28.7333333,25.6 28.8666667,25.6666667 29.2,25.6666667 C29.8,25.6666667 30.4666667,25.4666667 31.2,24.7333333 L32.6,23.0666667 C33.2666667,22.2666667 33.4,21.9333333 33.4,21.7333333 C33.4,21.5333333 33.4666667,21.4666667 33.1333333,21.4 L32.2666667,21.2666667 C31.9333333,20.9333333 32,20.2 32.3333333,20.0666667 L33.1333333,20.0666667 C34.7333333,20.0666667 36.8,19.8666667 38.8,19.6 C39.1333333,19.8 39.2,20.5333333 38.9333333,20.8 L37.8666667,21.0666667 C37.2,21.2 36.8666667,21.5333333 36,22.2666667 C34.7333333,23.2666667 34.2,23.7333333 33.7333333,24.2666667 C33.5333333,24.4666667 33.5333333,24.6 33.5333333,24.7333333 C33.5333333,24.8666667 33.6,25.0666667 33.8,25.3333333 C34.4,26.4 37.4,31.0666667 38.2666667,31.8 C38.7333333,32.2666667 39.4,32.4 40.2666667,32.6 L40.8,32.7333333 C41.0666667,33 41,33.8 40.6666667,33.9333333 C39.6,33.8666667 38.3333333,33.8 36.4,33.8 C34.4,33.8 33.1333333,33.8666667 32.2,33.9333333 C31.8666667,33.7333333 31.8,33.0666667 32.0666667,32.7333333 L32.5333333,32.6 C32.8666667,32.5333333 33.0666667,32.4666667 33.0666667,32.3333333 C33.0666667,32.2 32.7333333,31.6666667 32.4666667,31.2666667 L30,27.3333333 C29.7333333,26.9333333 29.4666667,26.8 29.1333333,26.8 C28.8666667,26.8 28.7333333,27 28.7333333,27.6 L28.7333333,29.6 C28.7333333,32 28.4666667,32.2666667 29.6666667,32.4 L30.2,32.4666667 C30.4666667,32.6666667 30.4666667,33.4666667 30.1333333,33.6666667 C29.0666667,33.6 28,33.5333333 26.4666667,33.5333333 C24.9333333,33.5333333 23.8666667,33.6 22.7333333,33.6666667 C22.4,33.4666667 22.4,32.6666667 22.6666667,32.4666667 L23.3333333,32.4 C24.5333333,32.2666667 24.3333333,32 24.3333333,29.6 L24.3333333,14.6666667 L24.3333333,14.6666667 Z" id="Shape" fill="#002F58"></path>
                    <path d="M47.3333333,21.8 C46.8666667,21.8 46.8666667,21.8666667 46.8666667,22.6 L46.8666667,27.7333333 C46.8666667,29.6666667 46.8666667,31.7333333 49.2666667,31.7333333 C49.7333333,31.7333333 50.2666667,31.4666667 50.6666667,31.2 C51,31.3333333 51.2,31.6666667 51.1333333,32.0666667 C50.2,33.0666667 48.3333333,34.0666667 46.2666667,34.0666667 C43.4666667,34.0666667 42.4666667,32.4 42.4666667,30.2 L42.4666667,22.6 C42.4666667,21.8666667 42.4,21.8 41.8,21.8 L40.7333333,21.8 C40.3333333,21.6666667 40.2666667,21 40.5333333,20.7333333 C41.6,20.3333333 42.5333333,19.7333333 43.3333333,19.2 C43.9333333,18.7333333 44.8,18.0666667 45.8666667,16.5333333 C46.1333333,16.4 46.7333333,16.4 46.8666667,16.7333333 L46.8666667,19.2666667 C46.8666667,19.9333333 46.9333333,19.9333333 47.5333333,19.9333333 L50.2,19.9333333 C50.4,20.0666667 50.4666667,20.2666667 50.4666667,20.6 C50.4666667,21 50.3333333,21.6 50,21.8 L47.3333333,21.8 L47.3333333,21.8 Z" id="Shape" fill="#002F58"></path>
                    <path d="M58.0666667,29.6 C58.0666667,32 58.2,32.2666667 59.3333333,32.4 L60,32.4666667 C60.2666667,32.6666667 60.2666667,33.4666667 59.9333333,33.6666667 C58.7333333,33.6 57.4,33.5333333 55.8666667,33.5333333 C54.3333333,33.5333333 52.9333333,33.6 51.8,33.6666667 C51.4666667,33.4666667 51.4666667,32.6666667 51.7333333,32.4666667 L52.4,32.4 C53.5333333,32.2666667 53.6666667,32 53.6666667,29.6 L53.6666667,24.4666667 C53.6666667,23.1333333 53.6666667,22.7333333 53,22.2666667 L52.5333333,22 C52.2666667,21.8 52.2666667,21.2 52.5333333,21 C54.1333333,20.5333333 56.5333333,19.6666667 57.6,19 C57.8666667,19 58.0666667,19.1333333 58.2,19.3333333 C58.1333333,20.3333333 58.0666667,21.8666667 58.0666667,23.4 L58.0666667,29.6 M58.4666667,15.2 C58.4666667,16.9333333 57.1333333,17.8 55.8,17.8 C54.2,17.8 53.2666667,16.7333333 53.2666667,15.2666667 C53.2666667,13.7333333 54.5333333,12.6666667 55.9333333,12.6666667 C57.4666667,12.6666667 58.4666667,13.8 58.4666667,15.2" id="Shape" fill="#002F58"></path>
                    <path d="M60.4,21.0666667 C60.0666667,20.8 60.0666667,20 60.5333333,19.8666667 C61.8,19.9333333 62.9333333,20 64.7333333,20 C66,20 67.2666667,19.9333333 68.5333333,19.8666667 C68.8666667,20.0666667 68.8,20.8666667 68.6,21.0666667 L68.0666667,21.2 C67.6666667,21.2666667 67.4666667,21.3333333 67.4666667,21.5333333 C67.4666667,21.7333333 67.6,22.2 67.8,22.7333333 C68.4666667,24.6 69.2,26.4 69.9333333,28 C70.6666667,26.2666667 71.5333333,24.4666667 72.2666667,22.4 C72.4,22.0666667 72.4666667,21.7333333 72.4666667,21.5333333 C72.4666667,21.3333333 72.2,21.2 71.6666667,21.1333333 L71.2,21 C70.8666667,20.8 70.8666667,20 71.2666667,19.8 C72.3333333,19.8666667 73.0666667,19.9333333 74.0666667,19.9333333 C75.1333333,19.9333333 75.9333333,19.8666667 76.6666667,19.8 C77.0666667,20 77,20.8 76.7333333,21 L76.1333333,21.1333333 C75.1333333,21.3333333 74.8666667,21.7333333 74.1333333,23 C72.3333333,26.5333333 70.8,30.1333333 69.2666667,33.8 C69.0666667,33.9333333 68.8,34.0666667 68.4666667,34.0666667 C68.1333333,34.0666667 67.8666667,33.9333333 67.6666667,33.8 C65.8666667,29.5333333 65.2,27.8666667 63.0666667,23.3333333 C62.2666667,21.6666667 62.0666667,21.4 61.2,21.2 L60.4,21.0666667 L60.4,21.0666667 Z" id="Shape" fill="#002F58"></path>
                    <path d="M90,20.2 C90,21.1333333 90,21.2 90.9333333,21.2 L93.5333333,21.2 C95.3333333,21.2 95.6666667,20.9333333 96.0666667,19.2666667 L96.2666667,18.4666667 C96.5333333,18.1333333 97.3333333,18.2 97.5333333,18.5333333 C97.4666667,19.6 97.4,20.8666667 97.4,22.2 C97.4,23.4666667 97.4666667,24.7333333 97.5333333,25.7333333 C97.3333333,26.0666667 96.4666667,26.0666667 96.2666667,25.8 L96.0666667,25 C95.6666667,23.3333333 95.3333333,23.0666667 93.5333333,23.0666667 L90.9333333,23.0666667 C90,23.0666667 90,23.2 90,24.0666667 L90,28.6666667 C90,31.8 90.2,32.0666667 91.7333333,32.3333333 L93,32.5333333 C93.2666667,32.7333333 93.2666667,33.5333333 93,33.7333333 C90.8666667,33.6666667 89.2,33.6 87.6,33.6 C86.0666667,33.6 84.3333333,33.6666667 82.2666667,33.7333333 C82,33.5333333 82,32.7333333 82.2666667,32.5333333 L83.4,32.3333333 C84.9333333,32.0666667 85.1333333,31.8666667 85.1333333,28.6666667 L85.1333333,16 C85.1333333,12.8666667 84.9333333,12.6 83.4,12.2666667 L82.7333333,12.1333333 C82.4,11.9333333 82.4,11.0666667 82.8,10.9333333 C84.2666667,11 85.9333333,11.0666667 87.6,11.0666667 L94.7333333,11.0666667 C96.9333333,11.0666667 98.8666667,11 99.3333333,10.9333333 C99.3333333,11.5333333 99.3333333,13.9333333 99.4,16.2666667 C99.2666667,16.6666667 98.5333333,16.6666667 98.1333333,16.4 C97.7333333,15 97.4666667,14.2 97.1333333,13.7333333 C96.5333333,13 95.5333333,12.6 93.8,12.6 L91.1333333,12.6 C90,12.6 90,12.6666667 90,14 L90,20.2 L90,20.2 Z" id="Shape" fill="#A0A0A3"></path>
                    <path d="M107.2,29.6 C107.2,32 107.333333,32.2666667 108.466667,32.4 L109.133333,32.4666667 C109.4,32.6666667 109.4,33.4666667 109.133333,33.6666667 C107.933333,33.6 106.6,33.5333333 105.066667,33.5333333 C103.533333,33.5333333 102.133333,33.6 101,33.6666667 C100.666667,33.4666667 100.666667,32.6666667 100.933333,32.4666667 L101.6,32.4 C102.733333,32.2666667 102.866667,32 102.866667,29.6 L102.866667,24.4666667 C102.866667,23.1333333 102.866667,22.7333333 102.2,22.2666667 L101.733333,21.9333333 C101.466667,21.7333333 101.466667,21.1333333 101.733333,20.9333333 C103.333333,20.4666667 105.733333,19.6 106.8,18.9333333 C107.066667,18.9333333 107.266667,19.0666667 107.4,19.2666667 C107.333333,20.2666667 107.266667,21.8 107.266667,23.3333333 L107.266667,29.6 M107.6,15.2 C107.6,16.9333333 106.266667,17.8 104.933333,17.8 C103.4,17.8 102.4,16.7333333 102.4,15.2666667 C102.4,13.7333333 103.666667,12.6666667 105.066667,12.6666667 C106.6,12.6666667 107.6,13.8 107.6,15.2" id="Shape" fill="#A0A0A3"></path>
                    <path d="M112.466667,24.4666667 C112.466667,23.1333333 112.466667,22.7333333 111.8,22.2666667 L111.333333,21.9333333 C111.066667,21.7333333 111.066667,21.1333333 111.333333,20.9333333 C112.933333,20.4666667 115.4,19.6 116.4,18.9333333 C116.666667,18.9333333 116.866667,19.0666667 117,19.2666667 C117,19.7333333 116.866667,20.5333333 116.866667,20.8 C116.866667,21 116.933333,21.0666667 117.066667,21.0666667 C117.2,21.0666667 117.533333,20.8666667 117.733333,20.8 C118.466667,20.3333333 120.066667,19.4666667 121.666667,19.4666667 C124.466667,19.4666667 125.933333,21.4 125.933333,23.7333333 L125.933333,29.6 C125.933333,32 126.066667,32.2666667 127.266667,32.4 L127.8,32.4666667 C128.066667,32.6666667 128.066667,33.4666667 127.8,33.6666667 C126.733333,33.6 125.333333,33.5333333 123.666667,33.5333333 C122.333333,33.5333333 121,33.6 120,33.6666667 C119.666667,33.4666667 119.666667,32.6666667 119.933333,32.4666667 L120.533333,32.3333333 C121.333333,32.2 121.466667,31.9333333 121.466667,30.0666667 L121.466667,24.3333333 C121.466667,23 120.8,21.9333333 119.066667,21.9333333 C118.133333,21.9333333 117.4,22.4 117.133333,22.7333333 C116.933333,23 116.866667,23.4 116.866667,24 L116.866667,30.0666667 C116.866667,31.9333333 117,32.2 117.866667,32.3333333 L118.4,32.4 C118.666667,32.6 118.666667,33.4 118.333333,33.6 C117.266667,33.5333333 116.2,33.4666667 114.533333,33.4666667 C113.133333,33.4666667 111.733333,33.5333333 110.533333,33.6 C110.2,33.4 110.2,32.6 110.533333,32.4 L111.066667,32.3333333 C112.266667,32.2 112.4,31.9333333 112.4,29.5333333 L112.4,24.4666667 L112.466667,24.4666667 Z" id="Shape" fill="#A0A0A3"></path>
                    <path d="M141,28.9333333 C140.866667,31.2666667 141.866667,31.8666667 142.533333,31.8666667 C142.933333,31.8666667 143.266667,31.7333333 143.8,31.4666667 C144.133333,31.5333333 144.333333,31.9333333 144.2,32.2666667 C143.8,32.8 142.2,34.1333333 140.266667,34.1333333 C139.066667,34.1333333 138.333333,33.7333333 137.4,32.9333333 C137.133333,32.7333333 137,32.6666667 136.866667,32.6666667 C136.666667,32.6666667 136.466667,32.8 136.133333,33.0666667 C135.533333,33.5333333 134.533333,34.1333333 133.266667,34.1333333 C131.266667,34.1333333 129.466667,32.9333333 129.466667,30.5333333 C129.466667,28.8 130.533333,27.7333333 133,27 C134.266667,26.6 135.266667,26.3333333 136.2,26.0666667 C136.8,25.8666667 137,25.6666667 137,25.4 C137,25 137.066667,24.6666667 137.066667,24.2666667 C137.066667,23 136.533333,21.3333333 135.066667,21.3333333 C134.266667,21.3333333 133.533333,21.8 133.266667,23.2666667 C133.2,23.8 133,24.1333333 132.666667,24.3333333 C132.133333,24.7333333 130.8,25.1333333 130.2,25.1333333 C129.6,25.1333333 129.4,24.7333333 129.4,24.2666667 C129.4,23.4 130.2,22.2666667 131.066667,21.6666667 C132.2,20.7333333 134.333333,19.6 136.8,19.6 C139.666667,19.6 141.333333,21 141.133333,24.5333333 L141,28.9333333 L141,28.9333333 Z M136.866667,28 C136.866667,27.4666667 136.866667,27.3333333 136.6,27.4 C135.066667,27.6 133.733333,28.2 133.733333,29.8 C133.733333,30.8666667 134.533333,31.8666667 135.466667,31.8666667 C136.533333,31.8666667 136.733333,31.2666667 136.733333,30.2 L136.866667,28 L136.866667,28 Z" id="Shape" fill="#A0A0A3"></path>
                    <path d="M146.266667,24.4666667 C146.266667,23.1333333 146.266667,22.7333333 145.6,22.2666667 L145.133333,21.9333333 C144.866667,21.7333333 144.866667,21.1333333 145.133333,20.9333333 C146.733333,20.4666667 149.2,19.6 150.2,18.9333333 C150.466667,18.9333333 150.666667,19.0666667 150.8,19.2666667 C150.8,19.7333333 150.666667,20.5333333 150.666667,20.8 C150.666667,21 150.733333,21.0666667 150.866667,21.0666667 C151,21.0666667 151.333333,20.8666667 151.533333,20.8 C152.266667,20.3333333 153.866667,19.4666667 155.466667,19.4666667 C158.266667,19.4666667 159.733333,21.4 159.733333,23.7333333 L159.733333,29.6 C159.733333,32 159.866667,32.2666667 161.066667,32.4 L161.6,32.4666667 C161.866667,32.6666667 161.866667,33.4666667 161.6,33.6666667 C160.533333,33.6 159.133333,33.5333333 157.466667,33.5333333 C156.133333,33.5333333 154.8,33.6 153.8,33.6666667 C153.466667,33.4666667 153.466667,32.6666667 153.733333,32.4666667 L154.333333,32.3333333 C155.133333,32.2 155.266667,31.9333333 155.266667,30.0666667 L155.266667,24.3333333 C155.266667,23 154.6,21.9333333 152.866667,21.9333333 C151.933333,21.9333333 151.2,22.4 150.933333,22.7333333 C150.733333,23 150.666667,23.4 150.666667,24 L150.666667,30.0666667 C150.666667,31.9333333 150.8,32.2 151.666667,32.3333333 L152.2,32.4 C152.466667,32.6 152.466667,33.4 152.133333,33.6 C151.066667,33.5333333 150,33.4666667 148.333333,33.4666667 C146.933333,33.4666667 145.533333,33.5333333 144.333333,33.6 C144,33.4 144,32.6 144.266667,32.4 L144.8,32.3333333 C146,32.2 146.133333,31.9333333 146.133333,29.5333333 L146.133333,24.4666667 L146.266667,24.4666667 Z" id="Shape" fill="#A0A0A3"></path>
                    <path d="M163.533333,33 C163.133333,32.3333333 162.933333,30.6666667 163,29.1333333 C163.2,28.8 163.933333,28.7333333 164.133333,29.0666667 C164.6,30.4666667 165.866667,32.4666667 167.6,32.4666667 C168.6,32.4666667 169.4,31.8666667 169.4,30.6666667 C169.4,29.4 168.333333,28.6666667 167.133333,28.1333333 C165.066667,27.1333333 163.6,25.8666667 163.6,23.8666667 C163.6,20.9333333 166.066667,19.4666667 169,19.4666667 C170.733333,19.4666667 172.266667,19.9333333 172.666667,20.2 C173,20.9333333 173.2,22.3333333 173.2,23.6 C173.066667,24 172.2,24 172,23.7333333 C171.333333,21.7333333 170.466667,21.0666667 169.333333,21.0666667 C168.333333,21.0666667 167.6,21.6666667 167.6,22.5333333 C167.6,23.3333333 168.266667,23.9333333 169.8,24.7333333 C172.133333,25.8666667 173.533333,27.2666667 173.533333,29.4666667 C173.466667,32.4666667 170.933333,34 167.733333,34 C165.8,34.0666667 164.4,33.7333333 163.533333,33" id="Shape" fill="#A0A0A3"></path>
                    <path d="M178.066667,0.6 C174.666667,0.266666667 168.733333,0.0666666667 164.6,3.46666667 C160.333333,7 160.066667,12.7333333 161,15.0666667 C161,15.0666667 160.733333,15.4666667 160.333333,16 C159.866667,15.3333333 159.466667,14.8 159.466667,14.8 C160.133333,13.1333333 159.933333,9.06666667 156.933333,6.6 C154,4.2 149.866667,4.4 147.466667,4.6 C146.2,4.73333333 144.8,5 144.8,5 C144.8,5 145.133333,6.4 145.933333,8.53333333 C146.733333,10.6666667 148,13.1333333 150.666667,14.8666667 C153.6,16.8 156.4,16.7333333 158.333333,16 C158.333333,16 158.8,16.6 159.333333,17.4 C159.066667,17.8 158.8,18.2 158.6,18.6 C159.4,18.9333333 160,19.4666667 160.333333,20.2 C161.2,18.5333333 162.533333,16.8 162.533333,16.8 C165.333333,17.8666667 169.266667,17.9333333 173.466667,15.2 C177.333333,12.6666667 179.066667,9.2 180.2,6.2 C181.333333,3.2 181.8,1.2 181.8,1.2 C181.8,1.2 179.8,0.733333333 178.066667,0.6 M150.933333,12.7333333 C148.333333,10.6666667 147.2,6.93333333 147.2,6.93333333 C148.666667,7.53333333 153.466667,10.4 157,14.3333333 C157,14.3333333 154.133333,15.2666667 150.933333,12.7333333 M158.066667,13.1333333 C155.666667,10.4 151.6,7.33333333 147.733333,6 C147.733333,6 152.133333,5.2 155.133333,7.46666667 C158.6,10 158.133333,13.2 158.066667,13.1333333 M162.866667,12.8 C162.8,12.8666667 162.133333,8.33333333 167,4.73333333 C171.266667,1.53333333 177.533333,2.66666667 177.533333,2.66666667 C172.066667,4.6 166.333333,8.86666667 162.866667,12.8 M173.066667,12.2 C168.533333,15.8 164.466667,14.5333333 164.466667,14.4666667 C169.466667,8.86666667 176.266667,4.8 178.4,3.93333333 C178.4,3.93333333 176.733333,9.26666667 173.066667,12.2" id="Shape" fill="#002F58"></path>
                </g>
            </g>
        </g>
    </g>
</svg>