<?xml version="1.0" encoding="UTF-8" standalone="no"?>
<svg width="37px" height="20px" viewBox="0 0 37 20" version="1.1" xmlns="http://www.w3.org/2000/svg" xmlns:xlink="http://www.w3.org/1999/xlink" xmlns:sketch="http://www.bohemiancoding.com/sketch/ns">
    <!-- Generator: Sketch 3.4.4 (17249) - http://www.bohemiancoding.com/sketch -->
    <title>Shape</title>
    <desc>Created with Sketch.</desc>
    <defs></defs>
    <g id="Page-1" stroke="none" stroke-width="1" fill="none" fill-rule="evenodd" sketch:type="MSPage">
        <g id="AF-Skiss-1" sketch:type="MSArtboardGroup" transform="translate(-401.000000, -1624.000000)" fill="#002F58">
            <path d="M434.266667,1624.17266 C430.866667,1623.83932 424.933333,1623.63932 420.8,1627.03932 C416.533333,1630.57266 416.266667,1636.30599 417.2,1638.63932 C417.2,1638.63932 416.933333,1639.03932 416.533333,1639.57266 C416.066667,1638.90599 415.666667,1638.37266 415.666667,1638.37266 C416.333333,1636.70599 416.133333,1632.63932 413.133333,1630.17266 C410.2,1627.77266 406.066667,1627.97266 403.666667,1628.17266 C402.4,1628.30599 401,1628.57266 401,1628.57266 C401,1628.57266 401.333333,1629.97266 402.133333,1632.10599 C402.933333,1634.23932 404.2,1636.70599 406.866667,1638.43932 C409.8,1640.37266 412.6,1640.30599 414.533333,1639.57266 C414.533333,1639.57266 415,1640.17266 415.533333,1640.97266 C415.266667,1641.37266 415,1641.77266 414.8,1642.17266 C415.6,1642.50599 416.2,1643.03932 416.533333,1643.77266 C417.4,1642.10599 418.733333,1640.37266 418.733333,1640.37266 C421.533333,1641.43932 425.466667,1641.50599 429.666667,1638.77266 C433.533333,1636.23932 435.266667,1632.77266 436.4,1629.77266 C437.533333,1626.77266 438,1624.77266 438,1624.77266 C438,1624.77266 436,1624.30599 434.266667,1624.17266 M407.133333,1636.30599 C404.533333,1634.23932 403.4,1630.50599 403.4,1630.50599 C404.866667,1631.10599 409.666667,1633.97266 413.2,1637.90599 C413.2,1637.90599 410.333333,1638.83932 407.133333,1636.30599 M414.266667,1636.70599 C411.866667,1633.97266 407.8,1630.90599 403.933333,1629.57266 C403.933333,1629.57266 408.333333,1628.77266 411.333333,1631.03932 C414.8,1633.57266 414.333333,1636.77266 414.266667,1636.70599 M419.066667,1636.37266 C419,1636.43932 418.333333,1631.90599 423.2,1628.30599 C427.466667,1625.10599 433.733333,1626.23932 433.733333,1626.23932 C428.266667,1628.17266 422.533333,1632.43932 419.066667,1636.37266 M429.266667,1635.77266 C424.733333,1639.37266 420.666667,1638.10599 420.666667,1638.03932 C425.666667,1632.43932 432.466667,1628.37266 434.6,1627.50599 C434.6,1627.50599 432.933333,1632.83932 429.266667,1635.77266" id="Shape" sketch:type="MSShapeGroup"></path>
        </g>
    </g>
</svg>