<?xml version="1.0" encoding="utf-8"?>
<!-- Generator: Adobe Illustrator 17.0.1, SVG Export Plug-In . SVG Version: 6.00 Build 0)  -->
<!DOCTYPE svg PUBLIC "-//W3C//DTD SVG 1.1//EN" "http://www.w3.org/Graphics/SVG/1.1/DTD/svg11.dtd">
<svg version="1.1" id="Capa_1" xmlns="http://www.w3.org/2000/svg" xmlns:xlink="http://www.w3.org/1999/xlink" x="0px" y="0px"
	 width="248.013px" height="471.828px" viewBox="111.908 0 248.013 471.828" enable-background="new 111.908 0 248.013 471.828"
	 xml:space="preserve">
<path fill="#525E6B" d="M359.921,68.052v362.946c0,22.51-18.308,40.83-40.832,40.83H152.737c-22.522,0-40.829-18.32-40.829-40.83
	V68.052c0-22.514,18.312-40.832,40.829-40.832h34.607V0h95.27v27.221h36.475C341.613,27.221,359.921,45.538,359.921,68.052z"/>
<path fill="#3E4C5A" d="M319.089,27.221h-36.475V0h-47.641v471.828h84.116c22.524,0,40.832-18.32,40.832-40.83V68.052
	C359.921,45.538,341.613,27.221,319.089,27.221z"/>
<path fill="#FFFFFF" d="M332.705,68.052c0-7.501-6.108-13.611-13.62-13.611H152.737c-7.508,0-13.615,6.109-13.615,13.611v362.946
	c0,7.499,6.107,13.611,13.615,13.611h166.352c7.508,0,13.616-6.106,13.616-13.611V68.052L332.705,68.052z"/>
<path fill="#E9E9E9" d="M319.085,54.441h-84.112v390.168h84.116c7.508,0,13.616-6.106,13.616-13.611V68.052
	C332.705,60.551,326.597,54.441,319.085,54.441z"/>
<polygon fill="#A4CC5A" points="264.161,313.448 301.786,313.448 222.725,378.897 168.16,313.448 206.082,313.448 228.06,249.019 
	181.545,249.019 227.829,120.151 280.462,120.151 250.284,207.268 299.52,207.268 "/>
<path fill="#91AF4F" d="M250.284,207.268l3.505,5h4.687h39.373l-33.689,101.18l3.503,5h4.25h23.832l-73.021,60.449l-50.374-60.449
	h33.731h3.577l1.155-3.386l17.246-66.043h-41.27l44.556-123.868h47.38L250.284,207.268z M280.462,120.151h-52.633l-46.284,128.868
	h46.515l-21.978,64.429H168.16l54.565,65.449l79.061-65.449h-37.625l35.359-106.18h-49.236L280.462,120.151L280.462,120.151z"/>
</svg>
