<?xml version="1.0" encoding="utf-8"?>
<!-- Generator: Adobe Illustrator 17.0.1, SVG Export Plug-In . SVG Version: 6.00 Build 0)  -->
<!DOCTYPE svg PUBLIC "-//W3C//DTD SVG 1.1//EN" "http://www.w3.org/Graphics/SVG/1.1/DTD/svg11.dtd">
<svg version="1.1" id="Layer_1" xmlns="http://www.w3.org/2000/svg" xmlns:xlink="http://www.w3.org/1999/xlink" x="0px" y="0px"
	 width="29px" height="20px" viewBox="0 0 29 20" enable-background="new 0 0 29 20" xml:space="preserve">
<path opacity="0.1" fill-rule="evenodd" clip-rule="evenodd" d="M29,15.556C29,18.01,27.076,20,24.704,20H4.296
	C1.924,20,0,18.01,0,15.556V4.444C0,1.99,1.924,0,4.296,0h20.407C27.076,0,29,1.99,29,4.444V15.556z"/>
<path fill-rule="evenodd" clip-rule="evenodd" fill="#253C8A" d="M27,14.444C27,16.408,25.342,18,23.296,18H5.704
	C3.658,18,2,16.408,2,14.444V5.556C2,3.592,3.658,2,5.704,2h17.593C25.342,2,27,3.592,27,5.556V14.444z"/>
<path fill-rule="evenodd" clip-rule="evenodd" fill="#FFFFFF" d="M4.734,2.139C3.277,2.52,2.19,3.725,2.037,5.206l22.229,12.656
	c1.457-0.381,2.545-1.586,2.698-3.067L4.734,2.139z"/>
<path fill-rule="evenodd" clip-rule="evenodd" fill="#FFFFFF" d="M24.266,2.139c1.457,0.381,2.545,1.586,2.698,3.067L4.734,17.861
	c-1.457-0.381-2.545-1.586-2.698-3.067L24.266,2.139z"/>
<path fill-rule="evenodd" clip-rule="evenodd" fill="#A42315" d="M25.408,2.639c0.578,0.386,1.036,0.924,1.309,1.556L3.592,17.361
	c-0.578-0.386-1.036-0.924-1.309-1.556L25.408,2.639z"/>
<path fill-rule="evenodd" clip-rule="evenodd" fill="#A42315" d="M3.592,2.639C3.015,3.026,2.556,3.563,2.283,4.195l23.124,13.165
	c0.578-0.386,1.036-0.924,1.309-1.556L3.592,2.639z"/>
<rect x="11" y="2" fill-rule="evenodd" clip-rule="evenodd" fill="#FFFFFF" width="6" height="16"/>
<rect x="2" y="7" fill-rule="evenodd" clip-rule="evenodd" fill="#FFFFFF" width="25" height="6"/>
<rect x="12" y="2" fill-rule="evenodd" clip-rule="evenodd" fill="#A42315" width="4" height="16"/>
<path opacity="0.4" fill-rule="evenodd" clip-rule="evenodd" fill="#231F20" d="M23.296,16H5.704C3.658,16,2,14.408,2,12.444v2
	C2,16.408,3.658,18,5.704,18h17.593C25.342,18,27,16.408,27,14.444v-2C27,14.408,25.342,16,23.296,16z"/>
<rect x="2" y="8" fill-rule="evenodd" clip-rule="evenodd" fill="#A42315" width="25" height="4"/>
</svg>
