<?xml version="1.0" encoding="utf-8"?>
<!-- Generator: Adobe Illustrator 17.0.1, SVG Export Plug-In . SVG Version: 6.00 Build 0)  -->
<!DOCTYPE svg PUBLIC "-//W3C//DTD SVG 1.1//EN" "http://www.w3.org/Graphics/SVG/1.1/DTD/svg11.dtd">
<svg version="1.1" id="Lager_1" xmlns="http://www.w3.org/2000/svg" xmlns:xlink="http://www.w3.org/1999/xlink" x="0px" y="0px"
	 width="447.958px" height="77.397px" viewBox="0 0 447.958 77.397" enable-background="new 0 0 447.958 77.397"
	 xml:space="preserve">
<g>
	<path fill="#FFFFFF" d="M31.648,0c9.3,0,18.899,5.7,24.149,14.249l-7.95,7.049c-4.95-6.299-10.049-8.85-15.749-8.85
		c-9.899,0-18.299,10.05-18.299,26.249c0,16.199,8.4,26.249,18.299,26.249c5.7,0,10.799-2.7,15.749-8.85l7.95,6.899
		c-5.25,8.7-14.849,14.4-24.149,14.4C12.75,77.397,0,59.998,0,38.698C0,17.399,12.75,0,31.648,0z"/>
	<path fill="#FFFFFF" d="M82.8,76.197h-12.6V28.649C70.201,10.2,81.45,0,95.25,0c13.799,0,25.049,10.2,25.049,28.649v47.548h-12.6
		V51.148H82.8V76.197z M107.699,28.649c0-10.95-5.55-16.2-12.449-16.2c-6.9,0-12.45,5.25-12.45,16.2v10.049h24.899V28.649z"/>
	<path fill="#FFFFFF" d="M191.7,26.249c0,13.65-11.249,24.899-24.899,24.899c-1.2,0-14.999,0-14.999,0v25.049h-12.6V1.2h27.599
		C180.45,1.2,191.7,12.449,191.7,26.249z M179.25,26.249c0-6.899-5.55-12.599-12.449-12.599c-1.35,0-14.999,0-14.999,0v25.049
		h14.999C173.7,38.698,179.25,32.999,179.25,26.249z"/>
	<path fill="#FFFFFF" d="M245.701,28.649v12.599h-24.899v22.499h24.899v12.45h-37.498V28.634L245.701,28.649z"/>
	<path fill="#FFFFFF" d="M282.527,63.747h24.899v12.45h-37.499V1.2h12.6V63.747z"/>
	<path fill="#FFFFFF" d="M346.841,0c17.799,0,27.563,17.399,27.563,38.698c0,21.299-9.764,38.699-27.563,38.699
		c-17.64,0-27.563-17.399-27.563-38.699C319.278,17.399,329.201,0,346.841,0z M346.841,64.947c7.561,0,13.703-11.85,13.703-26.249
		s-6.143-26.249-13.703-26.249c-7.401,0-13.702,11.85-13.702,26.249S339.439,64.947,346.841,64.947z"/>
	<path fill="#FFFFFF" d="M436.145,1.2h11.813v74.997h-9.923l-30.87-47.848v47.848h-11.813V1.2h9.922l30.871,47.848V1.2z"/>
	<polygon opacity="0.5" fill="#FFFFFF" points="208.203,13.634 208.203,1.2 245.701,1.2 245.701,13.649 	"/>
</g>
</svg>
