<?xml version="1.0" encoding="utf-8"?>
<!-- Generator: Adobe Illustrator 17.0.1, SVG Export Plug-In . SVG Version: 6.00 Build 0)  -->
<!DOCTYPE svg PUBLIC "-//W3C//DTD SVG 1.1//EN" "http://www.w3.org/Graphics/SVG/1.1/DTD/svg11.dtd">
<svg version="1.1" id="Layer_1" xmlns="http://www.w3.org/2000/svg" xmlns:xlink="http://www.w3.org/1999/xlink" x="0px" y="0px"
	 width="124.563px" height="115.941px" viewBox="0 0 124.563 115.941" enable-background="new 0 0 124.563 115.941"
	 xml:space="preserve">
<pattern  x="-392.5" y="-216.344" width="46" height="48" patternUnits="userSpaceOnUse" id="New_Pattern_2" viewBox="0 -48 46 48" overflow="visible">
	<g>
		<polygon fill-rule="evenodd" clip-rule="evenodd" fill="none" points="0,-48 46,-48 46,0 0,0 		"/>
		<polygon fill-rule="evenodd" clip-rule="evenodd" fill="#E6B141" points="46,0 0,0 0,-48 46,-48 		"/>
		<polygon fill-rule="evenodd" clip-rule="evenodd" fill="#D08953" points="1,0 0,0 0,-48 1,-48 		"/>
		<polygon fill-rule="evenodd" clip-rule="evenodd" fill="#D08953" points="6,0 5,0 5,-48 6,-48 		"/>
		<polygon fill-rule="evenodd" clip-rule="evenodd" fill="#D08953" points="11,0 10,0 10,-48 11,-48 		"/>
		<polygon fill-rule="evenodd" clip-rule="evenodd" fill="#D08953" points="16,0 15,0 15,-48 16,-48 		"/>
		<polygon fill-rule="evenodd" clip-rule="evenodd" fill="#D08953" points="21,0 20,0 20,-48 21,-48 		"/>
		<polygon fill-rule="evenodd" clip-rule="evenodd" fill="#D08953" points="26,0 25,0 25,-48 26,-48 		"/>
		<polygon fill-rule="evenodd" clip-rule="evenodd" fill="#D08953" points="31,0 30,0 30,-48 31,-48 		"/>
		<polygon fill-rule="evenodd" clip-rule="evenodd" fill="#D08953" points="36,0 35,0 35,-48 36,-48 		"/>
		<polygon fill-rule="evenodd" clip-rule="evenodd" fill="#D08953" points="41,0 40,0 40,-48 41,-48 		"/>
		<polygon fill-rule="evenodd" clip-rule="evenodd" fill="#D08953" points="46,0 45,0 45,-48 46,-48 		"/>
	</g>
</pattern>
<g>
	<path fill-rule="evenodd" clip-rule="evenodd" fill="url(#New_Pattern_2)" d="M37.281,4.003c20.59,0,37.281,16.775,37.281,37.469
		c0,20.694-16.691,37.469-37.281,37.469S0,62.166,0,41.472C0,20.779,16.691,4.003,37.281,4.003z"/>
	<path fill-rule="evenodd" clip-rule="evenodd" fill="#FFD04D" d="M37.281,0c20.59,0,37.281,16.775,37.281,37.469
		c0,20.694-16.691,37.469-37.281,37.469S0,58.162,0,37.469C0,16.775,16.691,0,37.281,0z"/>
	<path fill-rule="evenodd" clip-rule="evenodd" fill="#FEDD90" d="M60.699,8.313L5.779,57.515 M5.779,57.515
		C2.119,51.718,0,44.842,0,37.469C0,16.775,16.691,0,37.281,0c8.87,0,17.017,3.114,23.418,8.313"/>
	<path fill-rule="evenodd" clip-rule="evenodd" fill="#E6B141" d="M37.281,6.365c17.092,0,30.948,13.926,30.948,31.104
		c0,17.178-13.856,31.104-30.948,31.104S6.333,54.647,6.333,37.469C6.333,20.291,20.189,6.365,37.281,6.365z"/>
	<path fill-rule="evenodd" clip-rule="evenodd" fill="#D08953" d="M8.335,42.139c0-17.362,14.004-31.437,31.28-31.437
		c10.603,0,19.967,5.307,25.624,13.417C60.267,13.622,49.619,6.365,37.281,6.365c-17.092,0-30.948,13.926-30.948,31.104
		c0,5.239,1.294,10.172,3.571,14.503C8.891,48.878,8.335,45.575,8.335,42.139z"/>
	<g>
		<path fill="#D08953" d="M19.355,45.825l0.943-4.515h5.548c-0.06-0.749-0.09-1.535-0.09-2.358c0-0.719,0.022-1.422,0.067-2.111
			h-6.469l0.943-4.515h6.154c0.629-2.68,1.699-4.926,3.212-6.738c2.261-2.725,5.144-4.088,8.647-4.088
			c4.672,0,8.093,1.827,10.265,5.48c1.198,2.052,1.842,4.11,1.932,6.177h-5.817c-0.375-1.587-0.861-2.785-1.46-3.594
			c-1.048-1.438-2.613-2.156-4.694-2.156c-2.111,0-3.781,1.019-5.009,3.055c-0.33,0.554-0.614,1.176-0.854,1.864h8.917l-0.943,4.515
			h-8.872c-0.045,0.704-0.067,1.445-0.067,2.224c0,0.794,0.022,1.542,0.067,2.246h8.311l-0.943,4.515h-6.356
			c0.239,0.584,0.524,1.116,0.854,1.595c1.288,1.842,2.927,2.763,4.919,2.763c2.036,0,3.586-0.793,4.649-2.381
			c0.599-0.854,1.093-2.134,1.482-3.841h5.75c-0.509,3.609-1.797,6.544-3.863,8.805c-2.066,2.261-4.717,3.392-7.951,3.392
			c-3.998,0-7.143-1.527-9.434-4.582c-1.198-1.602-2.082-3.519-2.65-5.75H19.355z"/>
	</g>
	<g>
		<path fill="#FFD04D" d="M18.355,43.823l0.943-4.515h5.548c-0.06-0.749-0.09-1.535-0.09-2.358c0-0.719,0.022-1.422,0.067-2.111
			h-6.469l0.943-4.515h6.154c0.629-2.68,1.699-4.926,3.212-6.738c2.261-2.725,5.144-4.088,8.647-4.088
			c4.672,0,8.093,1.827,10.265,5.48c1.198,2.052,1.842,4.11,1.932,6.177h-5.817c-0.375-1.587-0.861-2.785-1.46-3.594
			c-1.048-1.438-2.613-2.156-4.694-2.156c-2.111,0-3.781,1.019-5.009,3.055c-0.33,0.554-0.614,1.176-0.854,1.864h8.917l-0.943,4.515
			h-8.872c-0.045,0.704-0.067,1.445-0.067,2.224c0,0.794,0.022,1.542,0.067,2.246h8.311l-0.943,4.515h-6.356
			c0.239,0.584,0.524,1.116,0.854,1.595c1.288,1.842,2.927,2.763,4.919,2.763c2.036,0,3.586-0.793,4.649-2.381
			c0.599-0.854,1.093-2.134,1.482-3.841h5.75c-0.509,3.609-1.797,6.544-3.863,8.805c-2.066,2.261-4.717,3.392-7.951,3.392
			c-3.998,0-7.143-1.527-9.434-4.582c-1.198-1.602-2.082-3.519-2.65-5.75H18.355z"/>
	</g>
	<path fill-rule="evenodd" clip-rule="evenodd" fill="#FEDD90" d="M28.664,23.752c-1.513,1.812-2.583,3.905-3.212,6.905h-6.154
		l-0.943,4h6.469c-0.045,1-0.067,1.658-0.067,2.376c0,0.824,0.03,1.624,0.09,2.624h-5.548l-0.943,4h2.708l9.704-8.702
		c0.005-0.093,0.003-0.298,0.009-0.298h0.315l5.039-4h-4.456c0.239-1,0.524-1.476,0.854-2.031c1.228-2.036,2.897-3.138,5.009-3.138
		c1.257,0,2.321,0.225,3.202,0.749l4.493-4.046c-2.04-1.768-4.67-2.6-7.919-2.6C33.808,19.591,30.925,21.027,28.664,23.752z"/>
</g>
<path fill-rule="evenodd" clip-rule="evenodd" fill="#F2C549" d="M74.527,36.047c-2.188,0.529-4.297,1.258-6.316,2.155
	c-0.316,13.678-9.408,25.172-21.843,29.005c-0.24,1.719-0.371,3.474-0.371,5.26c0,0.477,0.018,0.949,0.036,1.422
	c16.366-3.958,28.53-18.757,28.53-36.42C74.562,36.992,74.544,36.519,74.527,36.047z"/>
<g>
	<path fill-rule="evenodd" clip-rule="evenodd" fill="url(#New_Pattern_2)" d="M87.281,41.003c20.59,0,37.281,16.775,37.281,37.469
		c0,20.693-16.691,37.469-37.281,37.469S50,99.165,50,78.472C50,57.779,66.691,41.003,87.281,41.003z"/>
	<path fill-rule="evenodd" clip-rule="evenodd" fill="#FFD04D" d="M87.281,37c20.59,0,37.281,16.775,37.281,37.469
		c0,20.693-16.691,37.469-37.281,37.469S50,95.162,50,74.469C50,53.775,66.691,37,87.281,37z"/>
	<path fill-rule="evenodd" clip-rule="evenodd" fill="#FEDD90" d="M110.699,45.313l-54.92,49.203 M55.779,94.515
		C52.119,88.718,50,81.842,50,74.469C50,53.775,66.691,37,87.281,37c8.87,0,17.017,3.114,23.418,8.313"/>
	<path fill-rule="evenodd" clip-rule="evenodd" fill="#E6B141" d="M87.281,43.365c17.092,0,30.948,13.926,30.948,31.104
		c0,17.178-13.856,31.104-30.948,31.104S56.333,91.647,56.333,74.469C56.333,57.291,70.189,43.365,87.281,43.365z"/>
	<path fill-rule="evenodd" clip-rule="evenodd" fill="#D08953" d="M58.335,79.139c0-17.362,14.004-31.437,31.28-31.437
		c10.603,0,19.967,5.307,25.624,13.417c-4.971-10.497-15.62-17.754-27.957-17.754c-17.092,0-30.948,13.926-30.948,31.104
		c0,5.239,1.294,10.172,3.571,14.503C58.891,85.878,58.335,82.575,58.335,79.139z"/>
	<g>
		<path fill="#D08953" d="M89.228,96.966h-2.179v-4.47c-2.95-0.329-5.151-0.974-6.604-1.932c-2.561-1.722-3.818-4.657-3.773-8.805
			h6.064c0.209,1.887,0.501,3.152,0.876,3.796c0.584,1.003,1.729,1.654,3.437,1.954v-9.591l-1.819-0.539
			c-2.86-0.839-4.878-2.007-6.053-3.504c-1.176-1.497-1.763-3.302-1.763-5.413c0-1.393,0.228-2.658,0.685-3.796
			c0.457-1.138,1.097-2.119,1.92-2.942c1.063-1.063,2.246-1.797,3.549-2.201c0.793-0.254,1.954-0.441,3.481-0.562v-2.987h2.179
			v3.032c2.429,0.195,4.337,0.794,5.724,1.797c2.519,1.603,3.822,4.2,3.912,7.794h-5.907c-0.118-1.333-0.341-2.306-0.666-2.92
			c-0.563-1.063-1.583-1.647-3.063-1.752v8.558c3.548,1.228,5.934,2.313,7.156,3.257c2.012,1.572,3.019,3.788,3.019,6.648
			c0,3.773-1.385,6.514-4.155,8.221c-1.692,1.048-3.699,1.662-6.02,1.842V96.966z M87.049,63.971
			c-1.303,0.03-2.269,0.378-2.897,1.044c-0.629,0.667-0.943,1.577-0.943,2.729c0,1.258,0.472,2.254,1.415,2.987
			c0.524,0.404,1.333,0.778,2.426,1.123V63.971z M89.228,87.443c1.169-0.149,2.021-0.419,2.554-0.809
			c0.933-0.688,1.399-1.879,1.399-3.571c0-1.288-0.437-2.306-1.311-3.055c-0.518-0.435-1.399-0.884-2.643-1.348V87.443z"/>
	</g>
	<g>
		<path fill="#FFD04D" d="M88.472,94.964h-2.179v-4.47c-2.95-0.329-5.151-0.974-6.604-1.932c-2.561-1.722-3.818-4.657-3.773-8.805
			h6.064c0.209,1.887,0.501,3.152,0.876,3.796c0.584,1.003,1.729,1.654,3.437,1.954v-9.591l-1.819-0.539
			c-2.86-0.839-4.878-2.007-6.053-3.504c-1.176-1.497-1.763-3.302-1.763-5.413c0-1.393,0.228-2.658,0.685-3.796
			c0.457-1.138,1.097-2.119,1.92-2.942c1.063-1.063,2.246-1.797,3.549-2.201c0.793-0.254,1.954-0.441,3.481-0.562v-2.987h2.179
			v3.032c2.429,0.195,4.337,0.794,5.724,1.797c2.519,1.603,3.822,4.2,3.912,7.794h-5.907c-0.118-1.333-0.341-2.306-0.666-2.92
			c-0.563-1.063-1.583-1.647-3.063-1.752v8.558c3.548,1.228,5.934,2.313,7.156,3.257c2.012,1.572,3.019,3.788,3.019,6.648
			c0,3.773-1.385,6.514-4.155,8.221c-1.692,1.048-3.699,1.662-6.02,1.842V94.964z M86.294,61.969
			c-1.303,0.03-2.269,0.378-2.897,1.044c-0.629,0.667-0.943,1.577-0.943,2.729c0,1.258,0.472,2.254,1.415,2.987
			c0.524,0.404,1.333,0.778,2.426,1.123V61.969z M88.472,85.441c1.169-0.149,2.021-0.419,2.554-0.809
			c0.933-0.688,1.399-1.879,1.399-3.571c0-1.288-0.437-2.306-1.311-3.055c-0.518-0.435-1.399-0.884-2.643-1.348V85.441z"/>
	</g>
	<path fill-rule="evenodd" clip-rule="evenodd" fill="#FEDD90" d="M88.5,57.005v-3.349h-2v3.304c-2,0.12-2.791,0.307-3.585,0.562
		c-1.303,0.404-2.537,1.138-3.6,2.201c-0.824,0.824-1.49,1.805-1.946,2.942c-0.457,1.138-0.698,2.403-0.698,3.796
		c0,2.111,0.581,3.916,1.757,5.413c0.344,0.439,0.767,0.846,1.256,1.228l4.583-4.108c-0.145-0.087-0.281-0.175-0.398-0.265
		c-0.943-0.733-1.415-1.729-1.415-2.987c0-1.152,0.418-2.063,1.046-2.729c0.629-0.666,1.001-1.014,3.001-1.044v5.208l2-1.952v-3.301
		c1,0.078,1.929,0.423,2.522,1.03L95,59.384c-0.252-0.205-0.504-0.402-0.786-0.581C92.827,57.799,90.5,57.2,88.5,57.005z"/>
</g>
</svg>
