<?xml version="1.0" encoding="utf-8"?>
<!-- Generator: Adobe Illustrator 17.0.1, SVG Export Plug-In . SVG Version: 6.00 Build 0)  -->
<!DOCTYPE svg PUBLIC "-//W3C//DTD SVG 1.1//EN" "http://www.w3.org/Graphics/SVG/1.1/DTD/svg11.dtd">
<svg version="1.1" xmlns="http://www.w3.org/2000/svg" xmlns:xlink="http://www.w3.org/1999/xlink" x="0px" y="0px"
	 width="154.007px" height="109px" viewBox="0 0 154.007 109" enable-background="new 0 0 154.007 109" xml:space="preserve">
<g id="Layer_1">
	<path fill="#FF7957" d="M91.998,0.013L90.3,1.731V0.013h-8.348C78.19,5.899,70.241,9.967,61.015,9.967
		c-9.224,0-17.171-4.068-20.937-9.953H31.73v1.718l-1.698-1.718L0,30.409L16.425,47.04l15.302-15.486v77.44h58.57v-77.44
		l15.302,15.486l16.426-16.635L91.998,0.013z"/>
	<path fill="#E66D4E" d="M92.102,0.013l-1.595,1.718V0h-8.555C78.19,6,70.241,9.96,61.015,9.96c-0.171,0-0.338-0.005-0.508-0.007
		V109h30V31.555l15.197,15.486l16.426-16.635L92.102,0.013z"/>
</g>
<g id="Layer_3">
	<path fill-rule="evenodd" clip-rule="evenodd" fill="#BDBDBD" d="M59.258,32.788c0,0,5.371-0.55,21.44,8.357
		c9.742,5.4,17.636,11.142,23.515,16.017c5.879,4.875,21.18,19.412,22.131,20.891c0.951,1.48-6.586,16.614-6.586,16.614
		S91.28,68.807,83.326,60.45c-7.953-8.357-18.29-13.977-21.748-17.285C58.12,39.858,55.55,34.707,59.258,32.788z"/>
	<g>
		<g>
			<path fill-rule="evenodd" clip-rule="evenodd" fill="#E0E0E0" d="M111.82,80.839c-3.199-2.437-15.302-11.751-24.898-20.195
				C77.326,52.2,59.258,32.788,59.258,32.788c-6.397-0.609-12.19,1.741-11.757,2.786c0.432,1.045,36.828,37.257,38.038,38.301
				c1.21,1.045,14.967,15.93,15.907,16.017c6.346,0.59,7.313,4.474,13.832,6.964c6.381,2.436,9.121-12.226,9.121-12.226
				C123.402,84.589,115.018,83.276,111.82,80.839z"/>
		</g>
	</g>
</g>
<g id="Layer_2">
	<path fill-rule="evenodd" clip-rule="evenodd" fill="#9E9E9E" d="M62.716,30.699l29.047,15.32c0,0,4.564-6.964,11.066-2.786
		c6.501,4.179,18.673,16.713,18.673,16.713s4.943,4.127-2.075,7.66c-0.277,0.139,8.299,9.053,8.299,9.053
		s11.342-12.256,5.533-20.195c-5.809-7.939-14.524-15.599-20.057-18.802c-5.533-3.204-15.06-7.834-20.748-7.66
		c-1.797,0.055-0.242,4.335-2.767,4.178c-2.383-0.148-4.98,1.811-17.982-4.875C70.647,28.762,62.716,30.699,62.716,30.699z"/>
	<path fill-rule="evenodd" clip-rule="evenodd" fill="#424242" d="M73.09,28.61l17.29,0.696c0,0,1.21,4.788-3.458,4.178
		C82.253,32.875,75.078,30.525,73.09,28.61z"/>
	<path fill-rule="evenodd" clip-rule="evenodd" fill="#424242" d="M45.425,34.878l55.328,55.71l-0.692,1.393l-0.692-0.696
		L44.042,36.27v-1.393H45.425z"/>
	<path fill-rule="evenodd" clip-rule="evenodd" fill="#424242" d="M94.529,47.412v1.393l8.299,6.267l1.383-1.393L94.529,47.412z"/>
	<path fill-rule="evenodd" clip-rule="evenodd" fill="#424242" d="M134.642,67.607l0.692,2.089L136.025,69h2.075v2.089l0.692-0.696
		h1.383l1.383,0.696v1.393h1.383l3.458,2.089v1.393l-1.383,0.696l-1.383-0.696l-0.692-1.393l-0.692-0.696l-0.692,1.393l-1.383-0.696
		l-0.692-1.392l-0.692-0.697v1.393l-2.766-0.696l0.692-1.393l-1.383-0.696v1.393l-3.458-1.393L134.642,67.607z"/>
	<path fill-rule="evenodd" clip-rule="evenodd" fill="#424242" d="M147.783,75.268l6.224,5.571l-0.691,1.393l-6.225-4.875
		L147.783,75.268z"/>
	<path fill-rule="evenodd" clip-rule="evenodd" fill="#757575" d="M62.716,30.699l29.047,15.32c0,0,4.564-6.964,11.066-2.786
		c6.501,4.179,18.673,16.713,18.673,16.713s4.943,4.127-2.075,7.66c-0.277,0.139,8.299,9.053,8.299,9.053s3.777-9.775,1.683-13.66
		c-2.361-4.382-21.165-23.931-27.819-24.583C97.341,38,95.316,40.517,92.841,40c-5.583-1.167-8.132-4.008-21.134-10.694
		C70.647,28.762,62.716,30.699,62.716,30.699z"/>
</g>
</svg>
