<?xml version="1.0" encoding="utf-8"?>
<!-- Generator: Adobe Illustrator 17.0.1, SVG Export Plug-In . SVG Version: 6.00 Build 0)  -->
<!DOCTYPE svg PUBLIC "-//W3C//DTD SVG 1.1//EN" "http://www.w3.org/Graphics/SVG/1.1/DTD/svg11.dtd">
<svg version="1.1" id="Layer_1" xmlns="http://www.w3.org/2000/svg" xmlns:xlink="http://www.w3.org/1999/xlink" x="0px" y="0px"
	 width="86.286px" height="81.969px" viewBox="0 0 86.286 81.969" enable-background="new 0 0 86.286 81.969" xml:space="preserve">
<path fill="#293F20" d="M18.467,8.066c-3.478,32.138-1.549,24.947-4.696,58.147c19.415,2.435,63.371,15.756,63.371,15.756
	l-9.526-34.146l18.67-21.068C86.286,26.755,59.327,15.648,18.467,8.066L18.467,8.066z"/>
<polygon fill="#5D8554" points="59.417,57 13.771,66.212 9.045,38.067 "/>
<polygon fill="#345229" points="0,57 59.417,57 49.802,0 0,0 "/>
<polygon fill="#EAE9CD" points="50.559,4 0,4 0,50 58.129,50 "/>
<polygon fill="#509140" points="51.316,8 0,8 0,45 57.372,45 "/>
</svg>
