<?xml version="1.0" encoding="utf-8"?>
<!-- Generator: Adobe Illustrator 17.0.1, SVG Export Plug-In . SVG Version: 6.00 Build 0)  -->
<!DOCTYPE svg PUBLIC "-//W3C//DTD SVG 1.1//EN" "http://www.w3.org/Graphics/SVG/1.1/DTD/svg11.dtd">
<svg version="1.1" id="Layer_1" xmlns="http://www.w3.org/2000/svg" xmlns:xlink="http://www.w3.org/1999/xlink" x="0px" y="0px"
	 width="86.286px" height="81.969px" viewBox="0 0 86.286 81.969" enable-background="new 0 0 86.286 81.969" xml:space="preserve">
<path fill-rule="evenodd" clip-rule="evenodd" fill="#293F20" d="M67.819,8.066C26.959,15.648,0,26.755,0,26.755l18.67,21.068
	L9.144,81.969c0,0,43.956-13.321,63.371-15.756C69.368,33.013,71.297,40.204,67.819,8.066L67.819,8.066z"/>
<polygon fill="#5D8554" points="77.241,38.067 72.515,66.212 26.869,57 77.241,38.067 "/>
<polygon fill-rule="evenodd" clip-rule="evenodd" fill="#345229" points="86.286,0 36.484,0 26.869,57 86.286,57 "/>
<polygon fill-rule="evenodd" clip-rule="evenodd" fill="#EAE9CD" points="28.157,50 86.286,50 86.286,4 35.727,4 "/>
<polygon fill-rule="evenodd" clip-rule="evenodd" fill="#509140" points="28.914,45 86.286,45 86.286,8 34.97,8 "/>
</svg>
