<?xml version="1.0" encoding="utf-8"?>
<!-- Generator: Adobe Illustrator 17.1.0, SVG Export Plug-In . SVG Version: 6.00 Build 0)  -->
<!DOCTYPE svg PUBLIC "-//W3C//DTD SVG 1.1//EN" "http://www.w3.org/Graphics/SVG/1.1/DTD/svg11.dtd">
<svg version="1.1" xmlns="http://www.w3.org/2000/svg" xmlns:xlink="http://www.w3.org/1999/xlink" x="0px" y="0px"
	 viewBox="0 0 758.5 704" enable-background="new 0 0 758.5 704" xml:space="preserve">
<g id="Layer_2">
	<path fill="#E6CFA6" d="M652,467.9c-38.4-9.2-93.5-3.6-101.5-32.3V398c0,0,55.6-35,55.6-85s-0.8-56.4-0.8-56.4s22.5-2.6,22.5-25.6
		h5.7v-19h18v-28h-10c0,0,4-139.3-136-158.5V5h-26h-26v20.5c-140,19.2-136,158.5-136,158.5h-10v28h18v19h5.7
		c0,23,22.5,25.6,22.5,25.6s-0.8,6.4-0.8,56.4s55.6,85,55.6,85v37.7c-8,28.7-63.1,23.1-101.5,32.3C196.1,510.3,200.5,520,200.5,704
		h279h279C758.5,520,762.8,510.3,652,467.9z"/>
	<path fill="#CBB189" d="M652,467.9c-38.4-9.2-93.5-3.6-101.5-32.3V398c0,0,55.6-35,55.6-85s-0.8-56.4-0.8-56.4s22.5-2.6,22.5-25.6
		h5.7v-19h18v-28h-10c0,0,4-139.3-136-158.5V5h-25v699h278C758.5,520,762.8,510.3,652,467.9z"/>
</g>
<g id="Layer_7">
	<path fill="#393939" d="M652,468.1c-38.4-9.2-37.2-11.7-77.2-22.1c0,0-11.7,78-94,78s-93.4-76-93.4-76c-36.6,7-42,10.9-80.4,20.1
		C196.1,510.5,200.5,520,200.5,704h279h279C758.5,520,762.8,510.5,652,468.1z"/>
</g>
<g id="Layer_8">
	<polygon fill="#E9A946" points="643.5,601 643.5,451.5 600.5,441 600.5,601 480.5,601 360.5,601 360.5,441 317.5,451.5 317.5,601 
		303.5,601 303.5,704 317.5,704 360.5,704 480.5,704 600.5,704 643.5,704 657.5,704 657.5,601 	"/>
	<polygon fill="#C9652A" points="643.5,601 643.5,451.5 600.5,441 600.5,601 480.5,601 480.5,704 600.5,704 643.5,704 657.5,704 
		657.5,601 	"/>
</g>
<g id="Layer_6">
	<path fill="#F7E8C2" d="M550.5,398c0,0,55.6-35,55.6-85s-0.8-56.4-0.8-56.4s22.5-2.6,22.5-25.6h5.7v-19h18v-28h-10
		c0,0,4-139.3-136-158.5V5h-26h-26v20.5c-140,19.2-136,158.5-136,158.5h-10v28h18v19h5.7c0,23,22.5,25.6,22.5,25.6
		s-0.8,6.4-0.8,56.4s55.6,85,55.6,85s25.5,17.9,71,19.2C521.5,417.2,550.5,398,550.5,398z"/>
	<path fill="#E6CFA6" d="M641.5,184c0,0,4-139.3-136-158.5V5h-25v412.2c41.5-0.3,70-19.2,70-19.2s55.6-35,55.6-85
		s-0.8-56.4-0.8-56.4s22.5-2.6,22.5-25.6h5.7v-19h18v-28H641.5z"/>
</g>
<g id="Layer_9">
	<path fill="#999999" d="M241.2,275.6c-0.4-3.4-4.3-6-7.8-6c-11.1,0-20.9-6.5-25.1-16.6c-4.2-10.3-1.5-22.3,6.8-29.9
		c2.6-2.4,2.9-6.4,0.7-9.1c-5.7-7.2-12.1-13.7-19.2-19.4c-2.8-2.2-6.8-1.9-9.2,0.7c-7.2,8-20.2,11-30.2,6.8
		c-10.4-4.4-17-14.9-16.3-26.3c0.2-3.6-2.4-6.7-5.9-7.1c-9-1-18.2-1.1-27.2-0.1c-3.5,0.4-6.1,3.4-6,6.9c0.4,11.2-6.3,21.6-16.6,25.8
		c-9.9,4-22.8,1.1-30-6.8c-2.4-2.6-6.4-2.9-9.1-0.8c-7.3,5.7-13.8,12.2-19.6,19.4c-2.2,2.8-1.9,6.8,0.7,9.2
		c8.4,7.6,11.1,19.8,6.8,30.2C30,262.6,19.6,269,7.8,269c-3.8-0.1-6.6,2.5-7,5.9c-1.1,9.1-1.1,18.4-0.1,27.5c0.4,3.4,4.5,6,7.9,6
		c10.5-0.3,20.7,6.3,24.9,16.6c4.2,10.3,1.5,22.3-6.8,29.9c-2.6,2.4-2.9,6.4-0.7,9.1c5.6,7.2,12.1,13.7,19.1,19.4
		c2.8,2.2,6.8,1.9,9.2-0.7c7.2-8,20.2-11,30.2-6.8c10.4,4.4,17,14.9,16.4,26.3c-0.2,3.6,2.4,6.7,5.9,7.1c4.6,0.5,9.3,0.8,13.9,0.8
		c4.4,0,8.9-0.2,13.3-0.7c3.5-0.4,6.1-3.4,6-6.9c-0.4-11.2,6.3-21.6,16.6-25.8c10-4.1,22.8-1.1,30,6.8c2.4,2.6,6.3,2.9,9.1,0.8
		c7.2-5.7,13.8-12.2,19.6-19.4c2.2-2.8,1.9-6.8-0.7-9.2c-8.4-7.6-11.2-19.8-6.8-30.2c4.1-9.8,14.1-16.4,24.8-16.4l1.5,0
		c3.5,0.3,6.7-2.4,7.1-5.9C242.3,294,242.3,284.7,241.2,275.6z M180.9,324.8l-30.5-30.5c2.2-5.2,3.4-10.9,3.4-16.7
		c0-11.4-4.4-22.2-12.5-30.2c-8.1-8.1-18.8-12.5-30.2-12.5c-3.8,0-7.6,0.5-11.3,1.5c-1.6,0.4-2.9,1.8-3.4,3.4
		c-0.4,1.6,0.1,3.3,1.3,4.6c0,0,15.1,15.2,20.1,20.2c0.5,0.5,0.5,1.8,0.5,2.2l0,0.3c-0.5,5.5-1.5,12.2-2.3,14.8
		c-0.1,0.1-0.2,0.2-0.3,0.3c-0.1,0.1-0.2,0.2-0.3,0.3c-2.6,0.8-9.4,1.8-15,2.3l0,0l-0.3,0.1c0,0-0.1,0-0.2,0c-0.6,0-1.5-0.2-2.3-1
		c-5.3-5.3-19.7-19.6-19.7-19.6c-1.3-1.3-2.6-1.6-3.5-1.6c-2.1,0-3.9,1.5-4.5,3.6c-4,14.8,0.2,30.6,11,41.4
		c8.1,8.1,18.8,12.5,30.2,12.5c5.8,0,11.5-1.2,16.7-3.4l30.9,30.9c-10.8,6.9-23.7,11-37.5,11c-38.5,0-69.8-31.2-69.8-69.8
		c0-38.5,31.2-69.8,69.8-69.8s69.8,31.2,69.8,69.8C190.8,302.1,187.2,314.3,180.9,324.8z"/>
	<circle fill="#936B62" cx="419.1" cy="232" r="16.3"/>
	<circle fill="#6B4845" cx="542.1" cy="232" r="16.3"/>
	<path fill="none" stroke="#6B4845" stroke-width="17" stroke-linecap="round" stroke-miterlimit="10" d="M525.5,336.5
		c0,0-13,17.5-45,17.5s-45-17.5-45-17.5"/>
	<g>
		<path fill="#7F7F7F" d="M192.6,283.1c0-40.6-32.9-73.6-73.6-73.6s-73.6,32.9-73.6,73.6c0,26.5,14,49.7,35,62.6
			c-17.7-12.7-29.2-33.4-29.2-56.8c0-38.5,31.2-69.8,69.8-69.8s69.8,31.2,69.8,69.8c0,7.4-1.2,14.6-3.3,21.3
			C190.8,301.9,192.6,292.7,192.6,283.1z"/>
		<path fill="#7F7F7F" d="M136.9,172.5c-0.5,8.8,3.5,17,10.3,22.1c-4.3-5.1-6.6-11.8-6.2-18.7c0.2-3.2-1.9-6-4.9-6.9
			C136.7,170,137,171.2,136.9,172.5z"/>
		<path fill="#7F7F7F" d="M149.1,269.8c0,5.6-2.4,13.8-4.5,18.8l5.6,5.6c2.7-5.2,3.6-11.9,3.6-16.6c0-9.7-3.2-19-9.2-26.5
			C147.5,256.7,149.1,263.1,149.1,269.8z"/>
		<path fill="#7F7F7F" d="M208.5,209c2.1,2.6,1.8,6.5-0.7,8.7c-7.9,7.3-10.5,18.8-6.5,28.6c2,4.9,5.5,9,9.8,11.7
			c-1.1-1.6-2-3.2-2.7-5c-4.2-10.3-1.5-22.3,6.8-29.9c2.6-2.4,2.9-6.4,0.7-9.1c-5.7-7.2-12.1-13.7-19.2-19.4c-1-0.8-2.1-1.2-3.2-1.4
			C199,197.9,204,203.2,208.5,209z"/>
		<path fill="#7F7F7F" d="M97.7,244.3c0,0,12,12.1,18.2,18.3c0.1-0.9,0.2-1.7,0.3-2.6l0-0.3c0.1-0.5,0.1-1.8-0.5-2.4
			c-4-4-14.1-14.2-18.8-18.9c-0.2,0.4-0.4,0.8-0.6,1.3C95.9,241.3,96.4,243,97.7,244.3z"/>
		<path fill="#7F7F7F" d="M36.1,240.9c1.7-8.6-1.2-17.7-8-23.8c-1-0.9-1.6-2-1.9-3.3c-1.8,2.7-1.3,6.4,1.1,8.6
			C32.7,227.3,35.8,234,36.1,240.9z"/>
		<path fill="#7F7F7F" d="M241.2,275.6c-0.4-3.4-4.3-6-7.8-6c-0.2,0-0.3,0-0.5,0c0.8,8.2,0.7,16.5-0.2,24.6
			c-0.4,3.4-3.5,5.9-6.8,5.7l-1.4,0c-10.2,0-19.7,6.3-23.7,15.7c-4.2,10-1.6,21.5,6.4,28.8c-2.1-6.1-2-12.8,0.6-19
			c4.1-9.8,14.1-16.4,24.8-16.4l1.5,0c3.5,0.3,6.7-2.4,7.1-5.9C242.3,294,242.3,284.7,241.2,275.6z"/>
		<path fill="#7F7F7F" d="M214.6,355.6c-2.1-1.9-3.8-4.1-5.2-6.4c0,1.4-0.4,2.9-1.4,4.1c-5.5,6.9-11.8,13.1-18.7,18.5
			c-2.7,2.1-6.4,1.8-8.7-0.7c-6.9-7.6-19.1-10.4-28.7-6.5c-9.9,4-16.2,14-15.8,24.7c0.1,3.4-2.4,6.3-5.7,6.6
			c-4.2,0.5-8.5,0.7-12.7,0.7c-4.5,0-8.9-0.3-13.3-0.8c-1.7-0.2-3.2-1.1-4.2-2.3c0.8,2.8,1.1,5.7,1,8.7c-0.2,3.6,2.4,6.7,5.9,7.1
			c4.6,0.5,9.3,0.8,13.9,0.8c4.4,0,8.9-0.2,13.3-0.7c3.5-0.4,6.1-3.4,6-6.9c-0.4-11.2,6.3-21.6,16.6-25.8c10-4.1,22.8-1.1,30,6.8
			c2.4,2.6,6.3,2.9,9.1,0.8c7.2-5.7,13.8-12.2,19.6-19.4C217.6,362,217.3,357.9,214.6,355.6z"/>
		<path fill="#7F7F7F" d="M33.6,325c0.8,1.9,1.3,3.9,1.7,5.9c1.3-5.2,1-10.7-1.1-15.8c-4.1-9.9-13.7-16.1-23.8-15.9
			c-3.3,0-7.2-2.4-7.6-5.7c-0.8-7.4-0.9-14.9-0.3-22.3c-0.8,1-1.4,2.2-1.6,3.7c-1.1,9.1-1.1,18.4-0.1,27.5c0.4,3.4,4.5,6,7.9,6
			C19.2,308.1,29.3,314.6,33.6,325z"/>
		<path fill="#7F7F7F" d="M98.6,389c0.6-10.8-5.7-20.9-15.7-25.1c-9.5-4-21.9-1.2-28.9,6.5c-2.3,2.5-6.2,2.8-8.8,0.7
			c-6.3-5.1-12.2-10.9-17.3-17.3c-0.4,0.4-0.7,0.8-1.1,1.1c-2.6,2.4-2.9,6.4-0.7,9.1c5.6,7.2,12.1,13.7,19.1,19.4
			c2.8,2.2,6.8,1.9,9.2-0.7c7.2-8,20.2-11,30.2-6.8c6.3,2.7,11.2,7.6,14,13.6C98.6,389.3,98.6,389.1,98.6,389z"/>
	</g>
</g>
<g id="Layer_5">
	<rect x="325.5" y="205" fill="#8C6239" width="27" height="26"/>
	<rect x="606.5" y="205" fill="#8C6239" width="27" height="26"/>
</g>
<g id="Layer_3">
	<path fill="#EFCB6C" d="M633.5,212h18v-28h-10c0,0,4-139.3-136-158.5V5h-26h-26v20.5c-140,19.2-136,158.5-136,158.5h-10v28h18
		H633.5z"/>
	<path fill="#DFAD38" d="M641.5,184c0,0,4-139.3-136-158.5V5h-25v207h153h18v-28H641.5z"/>
</g>
<g id="Layer_4">
	<polygon fill="#D68B2E" points="505.5,184 505.5,0 453.5,0 453.5,184 307.5,184 307.5,212 453.5,212 505.5,212 651.5,212 
		651.5,184 	"/>
</g>
</svg>
