<?xml version="1.0" encoding="utf-8"?>
<!-- Generator: Adobe Illustrator 17.0.1, SVG Export Plug-In . SVG Version: 6.00 Build 0)  -->
<!DOCTYPE svg PUBLIC "-//W3C//DTD SVG 1.1//EN" "http://www.w3.org/Graphics/SVG/1.1/DTD/svg11.dtd">
<svg version="1.1" id="Layer_1" xmlns="http://www.w3.org/2000/svg" xmlns:xlink="http://www.w3.org/1999/xlink" x="0px" y="0px"
	 width="121.002px" height="108.52px" viewBox="0 0 121.002 108.52" enable-background="new 0 0 121.002 108.52"
	 xml:space="preserve">
<g>
	<path fill-rule="evenodd" clip-rule="evenodd" fill="#F1AE3D" d="M40.631,10.994c0,0-45.231,6.891-40.247,31.433
		c1.59,7.832,3.252,10.269,10.499,13.097c1.593,0.622,9.624,47.149,9.624,47.149l72.62-13.97l-8.749-45.403
		c0,0,8.793-7.188,4.375-20.956C85.906,13.474,70.904,5.872,40.631,10.994z"/>
	<path fill-rule="evenodd" clip-rule="evenodd" fill="#FED150" d="M48.505,9.248c0,0-45.231,6.89-40.248,31.433
		c1.591,7.833,3.252,10.269,10.499,13.097c1.593,0.621,9.624,47.149,9.624,47.149l72.62-13.97l-8.749-45.403
		c0,0,8.793-7.188,4.375-20.955C93.78,11.728,78.779,4.126,48.505,9.248z"/>
	<path fill-rule="evenodd" clip-rule="evenodd" fill="#FFDD69" d="M82.721,9.64c-7.885-2.338-19.16-2.939-34.216-0.392
		c0,0-45.231,6.89-40.247,31.433c1.591,7.833,3.252,10.269,10.499,13.097c1.458,0.569,8.303,39.558,9.458,46.189
		C38.514,82.765,70.758,29.424,82.721,9.64z"/>
	<path fill-rule="evenodd" clip-rule="evenodd" fill="#F1AE3D" d="M37.565,38.929c2.175,0,3.937,1.763,3.937,3.938
		c0,2.175-1.763,3.938-3.937,3.938c-2.175,0-3.938-1.763-3.938-3.938C33.627,40.692,35.39,38.929,37.565,38.929z"/>
	<path fill-rule="evenodd" clip-rule="evenodd" fill="#F1AE3D" d="M64.69,24.96c2.175,0,3.938,1.763,3.938,3.938
		c0,2.175-1.763,3.938-3.938,3.938c-2.175,0-3.937-1.763-3.937-3.938C60.752,26.723,62.515,24.96,64.69,24.96z"/>
	<path fill-rule="evenodd" clip-rule="evenodd" fill="#F1AE3D" d="M76.065,45.929c2.175,0,3.938,1.756,3.938,3.922
		c0,2.166-1.763,3.922-3.938,3.922c-2.175,0-3.938-1.756-3.938-3.922C72.127,47.685,73.89,45.929,76.065,45.929z"/>
	<path fill-rule="evenodd" clip-rule="evenodd" fill="#F1AE3D" d="M50.69,52.898c2.175,0,3.938,1.763,3.938,3.938
		c0,2.174-1.763,3.937-3.938,3.937c-2.174,0-3.937-1.763-3.937-3.937C46.752,54.66,48.515,52.898,50.69,52.898z"/>
	<path fill-rule="evenodd" clip-rule="evenodd" fill="#F1AE3D" d="M41.94,67.741c2.175,0,3.938,1.763,3.938,3.938
		c0,2.175-1.763,3.938-3.938,3.938c-2.175,0-3.937-1.763-3.937-3.938C38.002,69.504,39.765,67.741,41.94,67.741z"/>
	<path fill-rule="evenodd" clip-rule="evenodd" fill="#F1AE3D" d="M68.19,70.366c2.175,0,3.938,1.763,3.938,3.938
		c0,2.175-1.763,3.938-3.938,3.938c-2.175,0-3.938-1.763-3.938-3.938C64.252,72.129,66.015,70.366,68.19,70.366z"/>
</g>
<g>
	<path fill-rule="evenodd" clip-rule="evenodd" fill="#F0531E" d="M53.727,0.132c0,0-12.833,4.657-13.124,13.097
		c-0.292,8.44,2.042,11.059-8.749,9.605c-10.791-1.455-13.416,1.164-17.499,6.985c-4.083,5.821-2.917,17.172,6.125,22.701
		c9.041,5.53,3.791,13.097,0.875,18.336c-2.916,5.239-3.5,14.261,7.875,16.59c11.374,2.328,2.333,17.172,15.749,20.082
		c13.416,2.911,24.498-0.582,27.123-10.477c2.625-9.896-1.458-19.5,4.375-11.351c5.833,8.149,9.624,13.097,19.249,12.224
		c9.624-0.873,12.833-5.821,13.124-17.463c0.292-11.642,2.917-56.754,1.75-58.5c-1.167-1.746-7.874-12.224-7.874-12.224
		s-4.958-8.732-13.999-6.985c-9.041,1.746-9.333,6.403-10.499,6.985c-1.167,0.582-4.375,0-4.375,0S68.893-1.323,53.727,0.132z"/>
	<path fill-rule="evenodd" clip-rule="evenodd" fill="#F0531E" stroke="#FD8455" stroke-width="2" stroke-miterlimit="10" d="
		M55.335,4.398C46.955,6.583,44.272,9.53,44.002,17.231c-0.27,7.701,1.33,10.827-8.667,9.5c-9.997-1.328-13.884-1.478-17.667,3.833
		c-3.782,5.311-1.857,17.062,6.518,22.108c8.375,5.046,3.512,11.951,0.81,16.731c-2.702,4.78-3.242,13.013,7.295,15.137
		c10.537,2.124,2.161,15.669,14.589,18.324c12.428,2.656,21.617-0.559,22.745-9.842c1.083-8.911,0.596-19.811,6-12.375
		c5.403,7.436,9.35,14.25,18.265,13.453c8.916-0.797,11.888-5.311,12.158-15.934c0.27-10.623,2.136-52.634,1.056-54.228
		c-1.081-1.593-6.729-10.305-6.729-10.305s-4.593-7.967-12.968-6.374c-8.376,1.593-8.956,7.556-9.739,8.47
		c-2,2.333-4.167-0.167-4.167-0.167S65.298,1.8,55.335,4.398z"/>
</g>
<g>
	<path fill-rule="evenodd" clip-rule="evenodd" fill="#F1AE3D" d="M60.631,10.994c0,0-45.231,6.891-40.247,31.433
		c1.59,7.832,3.252,10.269,10.499,13.097c1.593,0.622,9.624,47.149,9.624,47.149l72.62-13.97l-8.749-45.403
		c0,0,8.793-7.188,4.375-20.956C105.906,13.474,90.904,5.872,60.631,10.994z"/>
	<path fill-rule="evenodd" clip-rule="evenodd" fill="#FED150" d="M68.505,9.248c0,0-45.231,6.89-40.247,31.433
		c1.591,7.833,3.252,10.269,10.499,13.097c1.593,0.621,9.624,47.149,9.624,47.149l72.62-13.97l-8.749-45.403
		c0,0,8.793-7.188,4.375-20.955C113.78,11.728,98.779,4.126,68.505,9.248z"/>
	<path fill-rule="evenodd" clip-rule="evenodd" fill="#FFDD69" d="M102.721,9.64c-7.885-2.338-19.16-2.939-34.216-0.392
		c0,0-45.231,6.89-40.247,31.433c1.591,7.833,3.252,10.269,10.499,13.097c1.458,0.569,8.303,39.558,9.458,46.189
		C58.514,82.765,90.758,29.424,102.721,9.64z"/>
	<path fill-rule="evenodd" clip-rule="evenodd" fill="#F1AE3D" d="M57.565,38.929c2.175,0,3.937,1.763,3.937,3.938
		c0,2.175-1.763,3.938-3.937,3.938c-2.175,0-3.938-1.763-3.938-3.938C53.627,40.692,55.39,38.929,57.565,38.929z"/>
	<path fill-rule="evenodd" clip-rule="evenodd" fill="#F1AE3D" d="M84.69,24.96c2.175,0,3.938,1.763,3.938,3.938
		c0,2.175-1.763,3.938-3.938,3.938c-2.175,0-3.937-1.763-3.937-3.938C80.752,26.723,82.515,24.96,84.69,24.96z"/>
	<path fill-rule="evenodd" clip-rule="evenodd" fill="#F1AE3D" d="M96.065,45.929c2.175,0,3.938,1.756,3.938,3.922
		c0,2.166-1.763,3.922-3.938,3.922c-2.175,0-3.938-1.756-3.938-3.922C92.127,47.685,93.89,45.929,96.065,45.929z"/>
	<path fill-rule="evenodd" clip-rule="evenodd" fill="#F1AE3D" d="M70.69,52.898c2.175,0,3.938,1.763,3.938,3.938
		c0,2.174-1.763,3.937-3.938,3.937c-2.174,0-3.937-1.763-3.937-3.937C66.752,54.66,68.515,52.898,70.69,52.898z"/>
	<path fill-rule="evenodd" clip-rule="evenodd" fill="#F1AE3D" d="M61.94,67.741c2.175,0,3.938,1.763,3.938,3.938
		c0,2.175-1.763,3.938-3.938,3.938c-2.175,0-3.937-1.763-3.937-3.938C58.002,69.504,59.765,67.741,61.94,67.741z"/>
	<path fill-rule="evenodd" clip-rule="evenodd" fill="#F1AE3D" d="M88.19,70.366c2.175,0,3.938,1.763,3.938,3.938
		c0,2.175-1.763,3.938-3.938,3.938c-2.175,0-3.938-1.763-3.938-3.938C84.252,72.129,86.015,70.366,88.19,70.366z"/>
</g>
</svg>
