<?xml version="1.0" encoding="utf-8"?>
<!-- Generator: Adobe Illustrator 17.0.1, SVG Export Plug-In . SVG Version: 6.00 Build 0)  -->
<!DOCTYPE svg PUBLIC "-//W3C//DTD SVG 1.1//EN" "http://www.w3.org/Graphics/SVG/1.1/DTD/svg11.dtd">
<svg version="1.1" id="Lager_1" xmlns="http://www.w3.org/2000/svg" xmlns:xlink="http://www.w3.org/1999/xlink" x="0px" y="0px"
	 width="283.465px" height="148.511px" viewBox="0 0 283.465 148.511" enable-background="new 0 0 283.465 148.511"
	 xml:space="preserve">
<g>
	<polygon fill="#FFFFFF" points="0,66.516 23.599,66.516 23.599,73.004 16.031,73.004 16.031,99.989 7.569,99.989 7.569,73.004 
		0,73.004 	"/>
	<rect x="33.108" y="64.288" fill="#FFFFFF" width="9.026" height="35.701"/>
	<polygon fill="#FFFFFF" points="53.688,61.617 63.388,61.617 63.388,93.197 76.538,93.197 76.538,99.989 53.688,99.989 	"/>
	<polygon fill="#FFFFFF" points="84.379,58.481 94.873,58.481 94.873,92.641 109.096,92.641 109.096,99.989 84.379,99.989 	"/>
	<polygon fill="#FFFFFF" points="112.604,55.356 123.949,55.356 129.216,86.448 129.341,86.448 136.864,55.356 146.265,55.356 
		134.042,99.989 122.572,99.989 	"/>
	<rect x="171.815" y="37.883" fill="#FFFFFF" width="8.59" height="8.589"/>
	<rect x="158.52" y="37.883" fill="#FFFFFF" width="8.591" height="8.589"/>
	<path fill="#FFFFFF" d="M234.882,46.587H222.66l-6.977,13.95l-5.699-13.95h-14.775l13.05,26.851l-14.542,26.535h-5.341
		L178.019,51.45H161.93l-11.383,48.539h10.156l2.111-9.818h11.252l1.907,9.818h1.877v9.392h10.975v39.131h12.27V109.38h10.978
		v-9.407h-5.981l7.568-16.034l7.124,16.05h14.55l-14.026-29.025L234.882,46.587z M164.52,81.581l4.158-19.769h0.138l3.544,19.769
		H164.52z"/>
	<polygon fill="#FFFFFF" points="242.862,42.398 242.862,53.559 255.884,53.559 255.884,99.989 270.444,99.989 270.444,53.559 
		283.465,53.559 283.465,42.398 	"/>
	<polygon fill="#FFFFFF" points="12.599,138.357 12.504,138.357 8.557,115.04 0.047,115.04 7.522,148.511 16.125,148.511 
		25.29,115.04 18.24,115.04 	"/>
	<polygon fill="#FFFFFF" points="33.021,148.511 55.485,148.511 55.485,141.29 42.046,141.29 42.046,133.869 51.072,133.869 
		51.072,126.949 42.046,126.949 42.046,119.73 55.485,119.73 55.485,112.809 33.021,112.809 	"/>
	<g>
		<path fill="#FFFFFF" d="M91.626,121.341c0-7.458-5.541-10.764-12.732-10.764H64.615v37.934h9.589v-16.407h3.198l4.741,16.407
			h9.482l-6.341-18.433C89.015,128.693,91.626,125.336,91.626,121.341 M76.07,126.029h-1.865v-8.417h1.598
			c3.197,0,6.233,0.319,6.233,4.263C82.036,124.909,79.692,126.029,76.07,126.029"/>
		<polygon fill="#FFFFFF" points="121.631,107.788 111.68,125.347 111.565,125.347 111.565,107.788 101.271,107.788 101.271,148.51 
			111.565,148.51 111.565,137.299 115.854,130.895 115.913,130.895 121.518,148.51 131.583,148.51 122.719,121.229 131.755,107.788 
					"/>
		<polygon fill="#FFFFFF" points="141.141,148.511 169.224,148.511 169.224,139.484 152.424,139.484 152.424,130.208 
			163.709,130.208 163.709,121.557 152.424,121.557 152.424,112.53 169.224,112.53 169.224,103.881 141.141,103.881 		"/>
	</g>
	<g>
		<path fill="#FFFFFF" d="M59.447,22.039L53.9,5.121h2.385l2.635,8.333c0.703,2.284,1.331,4.342,1.808,6.325h0.05
			c0.477-1.958,1.154-4.091,1.933-6.3l2.861-8.358h2.334l-6.049,16.918H59.447z"/>
		<path fill="#FFFFFF" d="M72.397,5.121v16.918h-2.209V5.121H72.397z"/>
		<path fill="#FFFFFF" d="M84.192,5.121v7.079h8.183V5.121h2.208v16.918h-2.208v-7.932h-8.183v7.932h-2.209V5.121H84.192z"/>
		<path fill="#FFFFFF" d="M101.584,16.717l-1.757,5.321h-2.259l5.772-16.918h2.61l5.773,16.918h-2.334l-1.808-5.321H101.584z
			 M107.156,15.01l-1.682-4.87c-0.376-1.104-0.628-2.108-0.879-3.087h-0.05c-0.251,0.979-0.502,2.033-0.854,3.063l-1.656,4.895
			H107.156z"/>
		<path fill="#FFFFFF" d="M114.709,5.347c1.104-0.201,2.711-0.352,4.192-0.352c2.334,0,3.865,0.452,4.895,1.381
			c0.828,0.753,1.33,1.907,1.33,3.238c0,2.209-1.405,3.69-3.162,4.292v0.076c1.28,0.452,2.058,1.656,2.46,3.414
			c0.552,2.359,0.953,3.991,1.305,4.644h-2.259c-0.276-0.502-0.652-1.933-1.104-4.041c-0.502-2.335-1.431-3.213-3.414-3.289h-2.058
			v7.33h-2.185V5.347z M116.894,13.053h2.233c2.335,0,3.815-1.28,3.815-3.213c0-2.184-1.581-3.138-3.891-3.138
			c-1.054,0-1.782,0.075-2.158,0.176V13.053z"/>
		<path fill="#FFFFFF" d="M133.983,5.121h9.111v1.832h-6.902v5.623h6.375v1.807h-6.375v7.656h-2.209V5.121z"/>
		<path fill="#FFFFFF" d="M147.511,16.717l-1.757,5.321h-2.259l5.772-16.918h2.61l5.773,16.918h-2.334l-1.808-5.321H147.511z
			 M153.083,15.01l-1.682-4.87c-0.376-1.104-0.628-2.108-0.879-3.087h-0.05c-0.251,0.979-0.502,2.033-0.854,3.063l-1.656,4.895
			H153.083z M153.083,2.284c0,1.255-1.029,2.209-2.484,2.209c-1.507,0-2.511-0.979-2.511-2.209c0-1.255,0.954-2.284,2.535-2.284
			C152.129,0,153.083,1.004,153.083,2.284z M149.368,2.284c0,0.653,0.477,1.28,1.205,1.28c0.728,0,1.205-0.577,1.205-1.331
			c0-0.728-0.477-1.33-1.23-1.33C149.795,0.904,149.368,1.557,149.368,2.284z"/>
		<path fill="#FFFFFF" d="M161.94,6.978h-5.146V5.121h12.525v1.857h-5.171v15.061h-2.209V6.978z"/>
		<path fill="#FFFFFF" d="M175.844,6.978h-5.146V5.121h12.525v1.857h-5.171v15.061h-2.209V6.978z"/>
		<path fill="#FFFFFF" d="M190.626,19.378c0.979,0.628,2.384,1.105,3.891,1.105c2.233,0,3.539-1.18,3.539-2.887
			c0-1.556-0.903-2.485-3.188-3.338c-2.762-1.004-4.469-2.46-4.469-4.819c0-2.636,2.185-4.593,5.473-4.593
			c1.706,0,2.986,0.401,3.715,0.828l-0.603,1.782c-0.527-0.326-1.657-0.803-3.188-0.803c-2.31,0-3.188,1.38-3.188,2.535
			c0,1.582,1.029,2.359,3.363,3.263c2.862,1.104,4.293,2.485,4.293,4.97c0,2.61-1.908,4.895-5.9,4.895
			c-1.631,0-3.413-0.502-4.316-1.104L190.626,19.378z"/>
		<path fill="#FFFFFF" d="M206.988,6.978h-5.145V5.121h12.525v1.857h-5.171v15.061h-2.209V6.978z"/>
		<path fill="#FFFFFF" d="M230.555,13.404c0,5.798-3.539,8.911-7.856,8.911c-4.493,0-7.605-3.489-7.605-8.609
			c0-5.372,3.313-8.886,7.832-8.886C227.568,4.819,230.555,8.359,230.555,13.404z M217.402,13.655c0,3.64,1.958,6.878,5.422,6.878
			c3.464,0,5.422-3.188,5.422-7.028c0-3.389-1.757-6.903-5.396-6.903C219.21,6.602,217.402,9.965,217.402,13.655z M219.285,2.661
			c0-0.678,0.527-1.255,1.229-1.255c0.703,0,1.205,0.552,1.205,1.255c0,0.703-0.477,1.28-1.23,1.28
			C219.787,3.941,219.285,3.364,219.285,2.661z M223.929,2.661c0-0.678,0.527-1.255,1.255-1.255c0.703,0,1.205,0.552,1.205,1.255
			c0,0.703-0.478,1.28-1.255,1.28C224.431,3.941,223.929,3.364,223.929,2.661z"/>
		<path fill="#FFFFFF" d="M233.865,5.372c1.331-0.226,2.912-0.377,4.645-0.377c3.137,0,5.371,0.753,6.851,2.108
			c1.531,1.381,2.41,3.338,2.41,6.075c0,2.761-0.879,5.02-2.435,6.576c-1.606,1.581-4.217,2.435-7.505,2.435
			c-1.582,0-2.862-0.075-3.967-0.201V5.372z M236.05,20.331c0.552,0.076,1.355,0.101,2.208,0.101c4.694,0,7.204-2.61,7.204-7.179
			c0.025-3.991-2.233-6.526-6.853-6.526c-1.129,0-1.982,0.101-2.56,0.226V20.331z"/>
		<path fill="#FFFFFF" d="M259.138,16.717l-1.757,5.321h-2.259l5.772-16.918h2.61l5.773,16.918h-2.334l-1.808-5.321H259.138z
			 M264.71,15.01l-1.682-4.87c-0.376-1.104-0.628-2.108-0.879-3.087h-0.05c-0.251,0.979-0.502,2.033-0.853,3.063l-1.656,4.895
			H264.71z"/>
	</g>
	<g>
		<path fill="#FFFFFF" d="M274.777,22.039l-5.548-16.918h2.385l2.636,8.333c0.702,2.284,1.33,4.342,1.807,6.325h0.051
			c0.477-1.958,1.154-4.091,1.933-6.3l2.861-8.358h2.334l-6.049,16.918H274.777z"/>
	</g>
</g>
</svg>
