<?xml version="1.0" encoding="utf-8"?>
<!-- Generator: Adobe Illustrator 17.0.1, SVG Export Plug-In . SVG Version: 6.00 Build 0)  -->
<!DOCTYPE svg PUBLIC "-//W3C//DTD SVG 1.1//EN" "http://www.w3.org/Graphics/SVG/1.1/DTD/svg11.dtd">
<svg version="1.1" id="Layer_1" xmlns="http://www.w3.org/2000/svg" xmlns:xlink="http://www.w3.org/1999/xlink" x="0px" y="0px"
	 width="29px" height="20px" viewBox="0 0 29 20" enable-background="new 0 0 29 20" xml:space="preserve">
<path opacity="0.1" fill-rule="evenodd" clip-rule="evenodd" d="M29,15.556C29,18.01,27.076,20,24.704,20H4.296
	C1.924,20,0,18.01,0,15.556V4.444C0,1.99,1.924,0,4.296,0h20.407C27.076,0,29,1.99,29,4.444V15.556z"/>
<path fill-rule="evenodd" clip-rule="evenodd" fill="#3C65A4" d="M27,14.444C27,16.408,25.342,18,23.296,18H5.704
	C3.658,18,2,16.408,2,14.444V5.556C2,3.592,3.658,2,5.704,2h17.593C25.342,2,27,3.592,27,5.556V14.444z"/>
<path fill-rule="evenodd" clip-rule="evenodd" fill="#355990" d="M23.296,16H5.704C3.658,16,2,14.408,2,12.444v2
	C2,16.408,3.658,18,5.704,18h17.593C25.342,18,27,16.408,27,14.444v-2C27,14.408,25.342,16,23.296,16z"/>
<rect x="8" y="2" fill-rule="evenodd" clip-rule="evenodd" fill="#EED250" width="4" height="16"/>
<rect x="2" y="9" fill-rule="evenodd" clip-rule="evenodd" fill="#EED250" width="25" height="4"/>
</svg>
