<?xml version="1.0" encoding="utf-8"?>
<!-- Generator: Adobe Illustrator 17.1.0, SVG Export Plug-In . SVG Version: 6.00 Build 0)  -->
<!DOCTYPE svg PUBLIC "-//W3C//DTD SVG 1.1//EN" "http://www.w3.org/Graphics/SVG/1.1/DTD/svg11.dtd">
<svg version="1.1" xmlns="http://www.w3.org/2000/svg" xmlns:xlink="http://www.w3.org/1999/xlink" x="0px" y="0px"
	 viewBox="0 0 314.9 248" enable-background="new 0 0 314.9 248" xml:space="preserve">
<g id="Layer_1">
	<path fill-rule="evenodd" clip-rule="evenodd" fill="#E6E6E6" d="M14,0h199c7.7,0,14,6.3,14,14v220c0,7.7-6.3,14-14,14H14
		c-7.7,0-14-6.3-14-14V14C0,6.3,6.3,0,14,0z"/>
	<path fill-rule="evenodd" clip-rule="evenodd" fill="#F3F3F3" d="M113,0H14C6.3,0,0,6.3,0,14v220c0,7.7,6.3,14,14,14h99V0z"/>
	<path fill-rule="evenodd" clip-rule="evenodd" fill="#C6C6C6" d="M21,8h185c7.2,0,13,5.9,13,13.1v205.8c0,7.2-5.8,13.1-13,13.1H21
		c-7.2,0-13-5.9-13-13.1V21.1C8,13.9,13.8,8,21,8z"/>
	<path fill-rule="evenodd" clip-rule="evenodd" fill="#B9B9B9" d="M13,26.1C13,18.9,18.8,13,26,13h190.2c-2.4-3-6.1-5-10.2-5H21
		C13.8,8,8,13.9,8,21.1v205.8c0,4.2,2,7.9,5,10.3V26.1z"/>
	<rect x="18" y="21" fill="none" width="42" height="26"/>
	<g>
		<g>
			<path fill-rule="evenodd" clip-rule="evenodd" fill="#B9B9B9" d="M41.1,22H29.5c-4.3,0-7.5,2.6-7.5,6.3v36.4
				c0,3.8,3.3,7.3,7.5,7.3h11.6c4.3,0,7.9-3.6,7.9-7.3V28.3C49,24.6,45.4,22,41.1,22z"/>
			<path fill-rule="evenodd" clip-rule="evenodd" fill="#62A4B3" d="M46,31c0-3.3-2.7-6-6-6h-9c-3.3,0-6,2.7-6,6v32c0,3.3,2.7,6,6,6
				h9c3.3,0,6-2.7,6-6V31z"/>
			<path fill-rule="evenodd" clip-rule="evenodd" fill="#548FA5" d="M25,47v16c0,3.3,2.7,6,6,6h9c3.3,0,6-2.7,6-6V47H25z"/>
			<path fill-rule="evenodd" clip-rule="evenodd" fill="#4C8296" d="M40,67h-9c-3.3,0-6-2.7-6-6v2c0,3.3,2.7,6,6,6h9
				c3.3,0,6-2.7,6-6v-2C46,64.3,43.3,67,40,67z"/>
		</g>
		<g>
			<path fill-rule="evenodd" clip-rule="evenodd" fill="#B9B9B9" d="M73.1,22H61.5c-4.3,0-7.5,2.6-7.5,6.3v36.4
				c0,3.8,3.3,7.3,7.5,7.3h11.6c4.3,0,7.9-3.6,7.9-7.3V28.3C81,24.6,77.4,22,73.1,22z"/>
			<path fill-rule="evenodd" clip-rule="evenodd" fill="#62A4B3" d="M78,31c0-3.3-2.7-6-6-6h-9c-3.3,0-6,2.7-6,6v32c0,3.3,2.7,6,6,6
				h9c3.3,0,6-2.7,6-6V31z"/>
			<path fill-rule="evenodd" clip-rule="evenodd" fill="#548FA5" d="M57,47v16c0,3.3,2.7,6,6,6h9c3.3,0,6-2.7,6-6V47H57z"/>
			<path fill-rule="evenodd" clip-rule="evenodd" fill="#4C8296" d="M72,67h-9c-3.3,0-6-2.7-6-6v2c0,3.3,2.7,6,6,6h9
				c3.3,0,6-2.7,6-6v-2C78,64.3,75.3,67,72,67z"/>
		</g>
		<g>
			<path fill-rule="evenodd" clip-rule="evenodd" fill="#B9B9B9" d="M105.1,22H93.5c-4.3,0-7.5,2.6-7.5,6.3v36.4
				c0,3.8,3.3,7.3,7.5,7.3h11.6c4.3,0,7.9-3.6,7.9-7.3V28.3C113,24.6,109.4,22,105.1,22z"/>
			<path fill-rule="evenodd" clip-rule="evenodd" fill="#62A4B3" d="M110,31c0-3.3-2.7-6-6-6h-9c-3.3,0-6,2.7-6,6v32
				c0,3.3,2.7,6,6,6h9c3.3,0,6-2.7,6-6V31z"/>
			<path fill-rule="evenodd" clip-rule="evenodd" fill="#548FA5" d="M89,47v16c0,3.3,2.7,6,6,6h9c3.3,0,6-2.7,6-6V47H89z"/>
			<path fill-rule="evenodd" clip-rule="evenodd" fill="#4C8296" d="M104,67h-9c-3.3,0-6-2.7-6-6v2c0,3.3,2.7,6,6,6h9
				c3.3,0,6-2.7,6-6v-2C110,64.3,107.3,67,104,67z"/>
		</g>
		<g>
			<path fill-rule="evenodd" clip-rule="evenodd" fill="#B9B9B9" d="M137.1,22h-11.6c-4.3,0-7.5,2.6-7.5,6.3v36.4
				c0,3.8,3.3,7.3,7.5,7.3h11.6c4.3,0,7.9-3.6,7.9-7.3V28.3C145,24.6,141.4,22,137.1,22z"/>
			<path fill-rule="evenodd" clip-rule="evenodd" fill="#62A4B3" d="M142,31c0-3.3-2.7-6-6-6h-9c-3.3,0-6,2.7-6,6v32
				c0,3.3,2.7,6,6,6h9c3.3,0,6-2.7,6-6V31z"/>
			<path fill-rule="evenodd" clip-rule="evenodd" fill="#548FA5" d="M121,47v16c0,3.3,2.7,6,6,6h9c3.3,0,6-2.7,6-6V47H121z"/>
			<path fill-rule="evenodd" clip-rule="evenodd" fill="#4C8296" d="M136,67h-9c-3.3,0-6-2.7-6-6v2c0,3.3,2.7,6,6,6h9
				c3.3,0,6-2.7,6-6v-2C142,64.3,139.3,67,136,67z"/>
		</g>
		<g>
			<path fill-rule="evenodd" clip-rule="evenodd" fill="#B9B9B9" d="M169.1,22h-11.6c-4.3,0-7.5,2.6-7.5,6.3v36.4
				c0,3.8,3.3,7.3,7.5,7.3h11.6c4.3,0,7.9-3.6,7.9-7.3V28.3C177,24.6,173.4,22,169.1,22z"/>
			<path fill-rule="evenodd" clip-rule="evenodd" fill="#62A4B3" d="M174,31c0-3.3-2.7-6-6-6h-9c-3.3,0-6,2.7-6,6v32
				c0,3.3,2.7,6,6,6h9c3.3,0,6-2.7,6-6V31z"/>
			<path fill-rule="evenodd" clip-rule="evenodd" fill="#548FA5" d="M153,47v16c0,3.3,2.7,6,6,6h9c3.3,0,6-2.7,6-6V47H153z"/>
			<path fill-rule="evenodd" clip-rule="evenodd" fill="#4C8296" d="M168,67h-9c-3.3,0-6-2.7-6-6v2c0,3.3,2.7,6,6,6h9
				c3.3,0,6-2.7,6-6v-2C174,64.3,171.3,67,168,67z"/>
		</g>
		<g>
			<path fill-rule="evenodd" clip-rule="evenodd" fill="#B9B9B9" d="M201.1,22h-11.6c-4.3,0-7.5,2.6-7.5,6.3v36.4
				c0,3.8,3.3,7.3,7.5,7.3h11.6c4.3,0,7.9-3.6,7.9-7.3V28.3C209,24.6,205.4,22,201.1,22z"/>
			<path fill-rule="evenodd" clip-rule="evenodd" fill="#62A4B3" d="M206,31c0-3.3-2.7-6-6-6h-9c-3.3,0-6,2.7-6,6v32
				c0,3.3,2.7,6,6,6h9c3.3,0,6-2.7,6-6V31z"/>
			<path fill-rule="evenodd" clip-rule="evenodd" fill="#548FA5" d="M185,47v16c0,3.3,2.7,6,6,6h9c3.3,0,6-2.7,6-6V47H185z"/>
			<path fill-rule="evenodd" clip-rule="evenodd" fill="#4C8296" d="M200,67h-9c-3.3,0-6-2.7-6-6v2c0,3.3,2.7,6,6,6h9
				c3.3,0,6-2.7,6-6v-2C206,64.3,203.3,67,200,67z"/>
		</g>
	</g>
	<rect x="22" y="139" fill-rule="evenodd" clip-rule="evenodd" fill="#ACACAC" width="187" height="3"/>
	<rect x="209" y="87" fill-rule="evenodd" clip-rule="evenodd" fill="#ACACAC" width="3" height="55"/>
	
		<rect x="103.7" y="148.5" transform="matrix(-0.8242 0.5664 -0.5664 -0.8242 282.5164 231.9514)" fill="#4C4C4C" width="3" height="22.7"/>
	<g>
		<g>
			<g>
				<rect x="22" y="172" fill-rule="evenodd" clip-rule="evenodd" fill="#4C4C4C" width="187" height="52"/>
			</g>
		</g>
		
			<rect x="126.7" y="148.5" transform="matrix(0.8242 0.5664 -0.5664 0.8242 113.0758 -44.5303)" fill="#4C4C4C" width="3" height="22.7"/>
		<path fill-rule="evenodd" clip-rule="evenodd" fill="none" d="M90,154.7h50l9,7H82L90,154.7z"/>
		<polygon fill-rule="evenodd" clip-rule="evenodd" fill="#7B7B7B" points="150.3,172 140.5,165 89.4,165 81.3,172 22,172 22,198 
			209,198 209,172 		"/>
	</g>
	<rect x="22" y="224" fill="#ACACAC" width="187" height="3"/>
	<rect x="209" y="172" fill="#ACACAC" width="3" height="55"/>
	<g>
		<path fill="#FFFFFF" d="M147.4,184.6c0,4,0,7.8,0,11.6c0.7,0,1.4,0,2.2,0c0-3.1,0-6.1,0-9.4c1.6,3.1,3,5.9,4.5,8.7
			c0.2,0.3,0.6,0.8,0.9,0.8c1.1,0.1,2.2,0,3.3,0c0-4,0-7.8,0-11.6c-0.8,0-1.5,0-2.3,0c0,3,0,6,0,9.3c-1.6-3-2.9-5.7-4.4-8.4
			c-0.2-0.4-0.6-0.9-1-0.9C149.6,184.5,148.6,184.6,147.4,184.6z"/>
		<path fill="#FFFFFF" d="M106.2,191.9c-0.1,1.2-0.1,2.4-1.4,2.5c-1,0.1-2,0.2-2.9-0.1c-0.5-0.1-1.1-0.8-1.2-1.3
			c-0.2-0.9-0.2-1.9-0.2-2.9c0-3.7,0.6-3.8,4.2-3.7c0.4,0,1.2,0.3,1.3,0.6c0.4,1.7,1.6,1.1,2.6,1c0.1-2.3-0.7-3.4-2.8-3.5
			c-1.7-0.1-3.4,0-5.1,0.2c-1.2,0.1-2.1,0.9-2.2,2.1c-0.2,2.2-0.3,4.4-0.2,6.5c0,1.4,0.8,2.7,2.3,2.8c1.9,0.2,3.9,0.2,5.9,0
			c0.6-0.1,1.6-0.8,1.7-1.4c0.4-1.5,0.4-3,0.6-4.6c-2,0-3.7,0-5.4,0c0,0.6,0,1.1,0,1.7C104.2,191.9,105.2,191.9,106.2,191.9z"/>
		<path fill="#FFFFFF" d="M98.3,208.2c-0.3,2,0.3,3.4,2.1,3.6c1.8,0.2,3.7,0.2,5.5-0.1c1.6-0.2,2.2-1.8,2-4.3
			c-0.1-1.4-0.9-2.1-2.5-2.3c-1.2-0.1-2.4-0.1-3.6-0.4c-0.4-0.1-0.9-0.8-1-1.2c-0.1-0.4,0.3-1.2,0.6-1.4c1.6-0.9,3.5-0.2,4.2,1.4
			c0.7,0,1.3,0,2,0c0.2-2.4-0.6-3.4-2.9-3.4c-1.2,0-2.3,0-3.5,0c-1.9,0.1-2.8,1-2.9,3c-0.1,2.2,0.6,3.3,2.5,3.6
			c1.1,0.2,2.2,0.1,3.3,0.3c0.5,0.1,1.2,0.6,1.3,1c0.1,0.6-0.2,1.7-0.6,1.8c-1.1,0.3-2.3,0.3-3.4,0.1c-0.5-0.1-0.8-1-1.3-1.7
			C99.6,208.2,98.9,208.2,98.3,208.2z"/>
		<path fill="#FFFFFF" d="M158.4,199.9c-3.1,0-6.1,0-9.1,0c0,0.7,0,1.2,0,1.9c1.1,0,2.1,0,3.3,0c0,3.4,0,6.7,0,10c0.9,0,1.6,0,2.4,0
			c0-3.3,0-6.6,0-10c1.2,0,2.3,0,3.4,0C158.4,201.1,158.4,200.5,158.4,199.9z"/>
		<path fill="#FFFFFF" d="M117.7,200.2c-3.1,0-6.1,0-9.1,0c0,0.7,0,1.2,0,2c1.2,0,2.3,0,3.5,0c0,3.3,0,6.5,0,9.7c0.8,0,1.4,0,2.3,0
			c0-3.3,0-6.5,0-9.8c1.2,0,2.3,0,3.4,0C117.7,201.3,117.7,200.7,117.7,200.2z"/>
		<path fill="#FFFFFF" d="M144.4,194.4c-2,0-3.9,0-5.9,0c0-0.8,0.1-1.4,0-2c-0.1-1,0.2-1.5,1.3-1.4c1.4,0.1,2.8,0,4.2,0
			c0-0.7,0-1.1,0-1.6c-2.7,0-5.3,0-7.9,0c0,2.3,0,4.5,0,6.8c2.8,0,5.5,0,8.2,0C144.4,195.6,144.4,195.1,144.4,194.4z"/>
		<path fill="#FFFFFF" d="M138,204.9c-2.7,0-5.2,0-7.9,0c0,2.3,0,4.6,0,6.8c2.8,0,5.5,0,8.2,0c0-0.6,0-1.2,0-1.9c-2,0-3.9,0-5.8,0
			c0-1.2,0-2.2,0-3.4c1.8,0,3.6,0,5.4,0C138,206,138,205.5,138,204.9z"/>
		<path fill="#FFFFFF" d="M124.8,189.4c0,2.4,0,4.6,0,6.8c2.8,0,5.4,0,8.1,0c0-0.6,0-1.2,0-1.9c-2,0-3.8,0-5.6,0c0-1.2,0-2.2,0-3.4
			c1.8,0,3.6,0,5.4,0c0-0.6,0-1,0-1.6C130,189.4,127.4,189.4,124.8,189.4z"/>
		<path fill="#FFFFFF" d="M139.9,211.8c2.8,0,5.5,0,8.2,0c0-0.6,0-1.2,0-1.9c-2,0-3.9,0-5.8,0c0-1.2,0-2.2,0-3.4
			c1.5,0,2.9-0.1,4.3,0c1.3,0.1,1.6-0.5,1.2-1.6c-2.6,0-5.2,0-7.9,0C139.9,207.3,139.9,209.5,139.9,211.8z"/>
		<path fill="#FFFFFF" d="M147.4,184.6c1.1,0,2.2-0.1,3.3,0c0.4,0,0.8,0.5,1,0.9c1.4,2.7,2.8,5.4,4.4,8.4c0-3.3,0-6.2,0-9.3
			c0.8,0,1.5,0,2.3,0c0,3.8,0,7.6,0,11.6c-1.1,0-2.2,0.1-3.3,0c-0.3,0-0.7-0.5-0.9-0.8c-1.5-2.8-2.9-5.5-4.5-8.7c0,3.4,0,6.3,0,9.4
			c-0.8,0-1.4,0-2.2,0C147.4,192.4,147.4,188.7,147.4,184.6z"/>
		<path fill="#FFFFFF" d="M121.4,207.9c0,1.4,0,2.6,0,3.9c-0.8,0-1.5,0-2.3,0c0-3.9,0-7.8,0-11.7c2.4,0,4.8-0.1,7.2,0
			c1.6,0.1,2.2,0.9,2.3,2.6c0.1,1.5,0.4,3.2-1.4,4.2c2.1,1.2,1.1,3.1,1.4,4.9c-0.8,0-1.4,0-2,0c-0.3-1.2-0.3-2.9-1.1-3.4
			C124.6,207.7,123,208.1,121.4,207.9z M121.5,202.1c0,1.3,0,2.6,0,3.9c1.3,0,2.4,0.1,3.6,0c1.5-0.1,1.2-1.3,1.3-2.3
			c0-1-0.5-1.5-1.5-1.5C123.8,202.1,122.7,202.1,121.5,202.1z"/>
		<path fill="#FFFFFF" d="M121.2,196.3c-0.9,0-1.5,0-2,0c-0.3-1.2-0.3-2.9-1-3.4c-1.1-0.7-2.7-0.4-4.3-0.6c0,1.5,0,2.7,0,4
			c-0.8,0-1.5,0-2.2,0c0-3.9,0-7.6,0-11.5c2.6,0,5.3,0,7.9,0c0.4,0,1,0.5,1.2,0.9c1,1.5,0.5,4.4-0.9,5.6
			C121.8,192.7,121.1,194.5,121.2,196.3z M114,190.4c1.3,0,2.6,0.1,3.8,0c1.1-0.1,1.2-0.9,1.2-1.8c0-0.8,0.1-1.9-1.1-2
			c-1.3-0.1-2.5,0-3.9,0C114,187.9,114,189,114,190.4z"/>
		<path fill="#FFFFFF" d="M106.2,191.9c-1,0-2,0-2.9,0c0-0.6,0-1.1,0-1.7c1.7,0,3.3,0,5.4,0c-0.2,1.6-0.2,3.1-0.6,4.6
			c-0.2,0.6-1.1,1.4-1.7,1.4c-1.9,0.2-3.9,0.2-5.9,0c-1.5-0.2-2.2-1.4-2.3-2.8c-0.1-2.2,0-4.4,0.2-6.5c0.1-1.2,1-2,2.2-2.1
			c1.7-0.2,3.4-0.3,5.1-0.2c2.1,0.2,2.8,1.2,2.8,3.5c-1,0.1-2.2,0.6-2.6-1c-0.1-0.3-0.8-0.6-1.3-0.6c-3.6-0.1-4.2-0.1-4.2,3.7
			c0,1,0,2,0.2,2.9c0.1,0.5,0.7,1.2,1.2,1.3c0.9,0.2,2,0.2,2.9,0.1C106.1,194.2,106.1,193.1,106.2,191.9z"/>
		<path fill="#FFFFFF" d="M98.3,208.2c0.6,0,1.3,0,1.7,0c0.5,0.7,0.8,1.6,1.3,1.7c1.1,0.2,2.3,0.2,3.4-0.1c0.3-0.1,0.6-1.2,0.6-1.8
			c-0.1-0.4-0.8-0.9-1.3-1c-1.1-0.2-2.2-0.1-3.3-0.3c-1.9-0.3-2.7-1.4-2.5-3.6c0.1-1.9,1-2.9,2.9-3c1.2,0,2.3,0,3.5,0
			c2.2,0.1,3.1,1.1,2.9,3.4c-0.6,0-1.3,0-2,0c-0.7-1.5-2.6-2.2-4.2-1.4c-0.4,0.2-0.7,1-0.6,1.4c0.1,0.5,0.6,1.1,1,1.2
			c1.2,0.3,2.4,0.3,3.6,0.4c1.6,0.2,2.4,0.9,2.5,2.3c0.3,2.4-0.4,4-2,4.3c-1.8,0.2-3.7,0.3-5.5,0.1
			C98.6,211.6,97.9,210.2,98.3,208.2z"/>
		<path fill="#FFFFFF" d="M158.4,199.9c0,0.6,0,1.2,0,1.9c-1.1,0-2.2,0-3.4,0c0,3.4,0,6.7,0,10c-0.8,0-1.5,0-2.4,0c0-3.3,0-6.6,0-10
			c-1.2,0-2.2,0-3.3,0c0-0.7,0-1.3,0-1.9C152.3,199.9,155.2,199.9,158.4,199.9z"/>
		<path fill="#FFFFFF" d="M117.7,200.2c0,0.6,0,1.2,0,1.9c-1.1,0-2.1,0-3.4,0c0,3.3,0,6.5,0,9.8c-0.8,0-1.5,0-2.3,0
			c0-3.2,0-6.4,0-9.7c-1.2,0-2.3,0-3.5,0c0-0.7,0-1.3,0-2C111.6,200.2,114.6,200.2,117.7,200.2z"/>
		<path fill="#FFFFFF" d="M144.4,194.4c0,0.7,0,1.3,0,1.9c-2.7,0-5.4,0-8.2,0c0-2.3,0-4.5,0-6.8c2.6,0,5.2,0,7.9,0
			c0,0.5,0,0.9,0,1.6c-1.4,0-2.8,0.1-4.2,0c-1.1-0.1-1.4,0.4-1.3,1.4c0.1,0.6,0,1.2,0,2C140.5,194.4,142.4,194.4,144.4,194.4z"/>
		<path fill="#FFFFFF" d="M138,204.9c0,0.6,0,1,0,1.6c-1.8,0-3.6,0-5.4,0c0,1.2,0,2.2,0,3.4c2,0,3.9,0,5.8,0c0,0.7,0,1.2,0,1.9
			c-2.7,0-5.4,0-8.2,0c0-2.2,0-4.5,0-6.8C132.7,204.9,135.3,204.9,138,204.9z"/>
		<path fill="#FFFFFF" d="M124.8,189.4c2.7,0,5.2,0,7.8,0c0,0.5,0,1,0,1.6c-1.8,0-3.5,0-5.4,0c0,1.1,0,2.2,0,3.4c1.8,0,3.7,0,5.6,0
			c0,0.7,0,1.2,0,1.9c-2.7,0-5.3,0-8.1,0C124.8,194,124.8,191.8,124.8,189.4z"/>
		<path fill="#FFFFFF" d="M139.9,211.8c0-2.3,0-4.5,0-6.9c2.6,0,5.3,0,7.9,0c0.4,1.2,0.1,1.7-1.2,1.6c-1.4-0.1-2.8,0-4.3,0
			c0,1.1,0,2.2,0,3.4c2,0,3.9,0,5.8,0c0,0.7,0,1.3,0,1.9C145.4,211.8,142.7,211.8,139.9,211.8z"/>
		<rect x="124.4" y="184.6" fill="#FFFFFF" width="8.1" height="1.9"/>
		<rect x="136" y="184.6" fill="#FFFFFF" width="8.1" height="1.9"/>
		<rect x="129.9" y="200" fill="#FFFFFF" width="8.1" height="1.9"/>
		<rect x="139.6" y="200" fill="#FFFFFF" width="8.1" height="1.9"/>
		<path fill="#FFFFFF" d="M67.8,188.4c0,0,2.1,5.1,5.6,7.1c-1.2,2.5-1.2,3.8-0.9,6.3c-3.1-1.5-4.9-8.4-4.9-8.4s0.2,9.7,5.3,16
			C68.7,210.8,60,203.9,67.8,188.4z"/>
		<path fill="#FFFFFF" d="M75.1,206.1c0,0-3.7-9.9,4.1-16.5c7-5.9,15.3-5.9,18.5-5.9c-2.1,3.4-4.9,5.3-5.7,13.9
			c-0.7,7.7-4,11.7-8.8,13c-1.6-6.4,0.9-16.3,7.7-23.6C88.2,187.3,79,194.6,75.1,206.1z"/>
	</g>
</g>
<g id="Layer_3">
	<rect x="22" y="87" fill="#415065" width="187" height="52"/>
	<rect x="27" y="92" fill="#FFFFFF" width="177" height="42"/>
	<rect x="22" y="92" fill="#677383" width="5" height="42"/>
	<rect x="204" y="92" fill="#677383" width="5" height="42"/>
	<rect x="27" y="113" fill="#F7F7F7" width="177" height="21"/>
	<g>
		<circle fill="#C6C6C6" cx="39" cy="123.5" r="6"/>
		<path fill="#CCCCCC" d="M33,123.5c0-3.3,2.7-6,6-6c3.3,0,6,2.7,6,6"/>
	</g>
	<g>
		<circle fill="#C6C6C6" cx="55" cy="123.5" r="6"/>
		<path fill="#CCCCCC" d="M49,123.5c0-3.3,2.7-6,6-6c3.3,0,6,2.7,6,6"/>
	</g>
	<g>
		<circle fill="#C6C6C6" cx="71" cy="123.5" r="6"/>
		<path fill="#CCCCCC" d="M65,123.5c0-3.3,2.7-6,6-6c3.3,0,6,2.7,6,6"/>
	</g>
	<rect x="160" y="97" fill="#677383" width="4" height="32"/>
	<rect x="170" y="97" fill="#677383" width="4" height="32"/>
	<rect x="180" y="97" fill="#677383" width="4" height="32"/>
	<rect x="190" y="97" fill="#677383" width="4" height="32"/>
	<g>
		<circle fill="#89B901" cx="39" cy="102.5" r="6"/>
		<path fill="#A5DD00" d="M33,102.5c0-3.3,2.7-6,6-6c3.3,0,6,2.7,6,6"/>
	</g>
</g>
<g id="Layer_4">
	<g>
		<path fill="#FEE002" d="M297.9,161.9l2-1.9c0,0,0,0,0,0l1.6-1.5c0.3-0.3,0.5-0.6,0.7-0.9c17.5-19.4,17-49-1.6-67.8
			c-0.1-0.1-0.1-0.2-0.2-0.3l-3.5-3.5c-2.1-2.1-5.5-2-7.6,0c-2.1,2.1-2.1,5.4,0,7.4l3.5,3.5c0,0,0.1,0,0.1,0.1
			c15.1,15.2,15.2,39.4,0.3,54.7l-2.8,2.7c-2.1,2-2.1,5.4,0,7.4C292.4,164,295.8,164,297.9,161.9z"/>
		<path fill="#FFFB91" d="M286.2,146.2c0.1-0.1,0.3-0.3,0.4-0.4l0.4-0.4c0.1-0.1,0.1-0.1,0.2-0.2c11.1-11.9,10.7-30.2-1-41.6
			l-1.4-1.3l-1.9-1.8c-2.3-2.2-6.1-2.2-8.4,0c-2.3,2.3-2.3,5.9,0,8.2l3.3,3.2c7.4,7.2,7.4,19,0,26.2l-2.3,2.3
			c-2.3,2.2-2.3,5.9,0,8.1c1.1,1.1,2.6,1.7,4.2,1.7c1.6,0,3-0.6,4.1-1.7L286.2,146.2z"/>
		<g>
			<g>
				<path fill="#FEE002" d="M263.5,115c-5.2,0-9.5,4.1-9.5,9.2c0,5.1,4.2,9.2,9.5,9.2c5.2,0,9.5-4.1,9.5-9.2
					C272.9,119.1,268.7,115,263.5,115z"/>
			</g>
		</g>
	</g>
</g>
</svg>
