<?xml version="1.0" encoding="utf-8"?>
<!-- Generator: Adobe Illustrator 17.0.1, SVG Export Plug-In . SVG Version: 6.00 Build 0)  -->
<!DOCTYPE svg PUBLIC "-//W3C//DTD SVG 1.1//EN" "http://www.w3.org/Graphics/SVG/1.1/DTD/svg11.dtd">
<svg version="1.1" xmlns="http://www.w3.org/2000/svg" xmlns:xlink="http://www.w3.org/1999/xlink" x="0px" y="0px"
	 width="365.89px" height="248px" viewBox="0 0 365.89 248" enable-background="new 0 0 365.89 248" xml:space="preserve">
<g id="Layer_1">
	<path fill-rule="evenodd" clip-rule="evenodd" fill="#E6E6E6" d="M65,0h199c7.732,0,14,6.268,14,14v220c0,7.732-6.268,14-14,14H65
		c-7.732,0-14-6.268-14-14V14C51,6.268,57.268,0,65,0z"/>
	<path fill-rule="evenodd" clip-rule="evenodd" fill="#F3F3F3" d="M164,0H65c-7.732,0-14,6.268-14,14v220c0,7.732,6.268,14,14,14h99
		V0z"/>
	<path fill-rule="evenodd" clip-rule="evenodd" fill="#C6C6C6" d="M72.013,8h184.974C264.174,8,270,13.864,270,21.097v205.806
		c0,7.233-5.826,13.097-13.013,13.097H72.013C64.826,240,59,234.136,59,226.903V21.097C59,13.864,64.826,8,72.013,8z"/>
	<path fill-rule="evenodd" clip-rule="evenodd" fill="#B9B9B9" d="M64,26.101C64,18.868,69.83,13,77.017,13h190.188
		c-2.383-3-6.07-5-10.218-5H72.013C64.826,8,59,13.864,59,21.097v205.806c0,4.19,2,7.911,5,10.308V26.101z"/>
	<rect x="69" y="21" fill="none" width="42" height="26"/>
	<g>
		<g>
			<path fill-rule="evenodd" clip-rule="evenodd" fill="#B9B9B9" d="M92.119,22H80.548C76.287,22,73,24.552,73,28.318v36.364
				C73,68.447,76.287,72,80.548,72h11.571c4.26,0,7.881-3.553,7.881-7.318V28.318C100,24.552,96.379,22,92.119,22z"/>
			<path fill-rule="evenodd" clip-rule="evenodd" fill="#62A4B3" d="M97,31c0-3.314-2.686-6-6-6h-9c-3.314,0-6,2.686-6,6v32
				c0,3.314,2.686,6,6,6h9c3.314,0,6-2.686,6-6V31z"/>
			<path fill-rule="evenodd" clip-rule="evenodd" fill="#548FA5" d="M76,47v16c0,3.314,2.686,6,6,6h9c3.314,0,6-2.686,6-6V47H76z"/>
			<path fill-rule="evenodd" clip-rule="evenodd" fill="#4C8296" d="M91,67h-9c-3.314,0-6-2.686-6-6v2c0,3.314,2.686,6,6,6h9
				c3.314,0,6-2.686,6-6v-2C97,64.314,94.314,67,91,67z"/>
		</g>
		<g>
			<path fill-rule="evenodd" clip-rule="evenodd" fill="#B9B9B9" d="M124.119,22h-11.571c-4.26,0-7.548,2.552-7.548,6.318v36.364
				c0,3.766,3.287,7.318,7.548,7.318h11.571c4.26,0,7.881-3.553,7.881-7.318V28.318C132,24.552,128.379,22,124.119,22z"/>
			<path fill-rule="evenodd" clip-rule="evenodd" fill="#62A4B3" d="M129,31c0-3.314-2.686-6-6-6h-9c-3.314,0-6,2.686-6,6v32
				c0,3.314,2.686,6,6,6h9c3.314,0,6-2.686,6-6V31z"/>
			<path fill-rule="evenodd" clip-rule="evenodd" fill="#548FA5" d="M108,47v16c0,3.314,2.686,6,6,6h9c3.314,0,6-2.686,6-6V47H108z"
				/>
			<path fill-rule="evenodd" clip-rule="evenodd" fill="#4C8296" d="M123,67h-9c-3.314,0-6-2.686-6-6v2c0,3.314,2.686,6,6,6h9
				c3.314,0,6-2.686,6-6v-2C129,64.314,126.314,67,123,67z"/>
		</g>
		<g>
			<path fill-rule="evenodd" clip-rule="evenodd" fill="#B9B9B9" d="M156.119,22h-11.571c-4.26,0-7.548,2.552-7.548,6.318v36.364
				c0,3.766,3.287,7.318,7.548,7.318h11.571c4.26,0,7.881-3.553,7.881-7.318V28.318C164,24.552,160.379,22,156.119,22z"/>
			<path fill-rule="evenodd" clip-rule="evenodd" fill="#62A4B3" d="M161,31c0-3.314-2.686-6-6-6h-9c-3.314,0-6,2.686-6,6v32
				c0,3.314,2.686,6,6,6h9c3.314,0,6-2.686,6-6V31z"/>
			<path fill-rule="evenodd" clip-rule="evenodd" fill="#548FA5" d="M140,47v16c0,3.314,2.686,6,6,6h9c3.314,0,6-2.686,6-6V47H140z"
				/>
			<path fill-rule="evenodd" clip-rule="evenodd" fill="#4C8296" d="M155,67h-9c-3.314,0-6-2.686-6-6v2c0,3.314,2.686,6,6,6h9
				c3.314,0,6-2.686,6-6v-2C161,64.314,158.314,67,155,67z"/>
		</g>
		<g>
			<path fill-rule="evenodd" clip-rule="evenodd" fill="#B9B9B9" d="M188.119,22h-11.571c-4.26,0-7.548,2.552-7.548,6.318v36.364
				c0,3.766,3.287,7.318,7.548,7.318h11.571c4.26,0,7.881-3.553,7.881-7.318V28.318C196,24.552,192.379,22,188.119,22z"/>
			<path fill-rule="evenodd" clip-rule="evenodd" fill="#62A4B3" d="M193,31c0-3.314-2.686-6-6-6h-9c-3.314,0-6,2.686-6,6v32
				c0,3.314,2.686,6,6,6h9c3.314,0,6-2.686,6-6V31z"/>
			<path fill-rule="evenodd" clip-rule="evenodd" fill="#548FA5" d="M172,47v16c0,3.314,2.686,6,6,6h9c3.314,0,6-2.686,6-6V47H172z"
				/>
			<path fill-rule="evenodd" clip-rule="evenodd" fill="#4C8296" d="M187,67h-9c-3.314,0-6-2.686-6-6v2c0,3.314,2.686,6,6,6h9
				c3.314,0,6-2.686,6-6v-2C193,64.314,190.314,67,187,67z"/>
		</g>
		<g>
			<path fill-rule="evenodd" clip-rule="evenodd" fill="#B9B9B9" d="M220.119,22h-11.571c-4.26,0-7.548,2.552-7.548,6.318v36.364
				c0,3.766,3.287,7.318,7.548,7.318h11.571c4.26,0,7.881-3.553,7.881-7.318V28.318C228,24.552,224.379,22,220.119,22z"/>
			<path fill-rule="evenodd" clip-rule="evenodd" fill="#62A4B3" d="M225,31c0-3.314-2.686-6-6-6h-9c-3.314,0-6,2.686-6,6v32
				c0,3.314,2.686,6,6,6h9c3.314,0,6-2.686,6-6V31z"/>
			<path fill-rule="evenodd" clip-rule="evenodd" fill="#548FA5" d="M204,47v16c0,3.314,2.686,6,6,6h9c3.314,0,6-2.686,6-6V47H204z"
				/>
			<path fill-rule="evenodd" clip-rule="evenodd" fill="#4C8296" d="M219,67h-9c-3.314,0-6-2.686-6-6v2c0,3.314,2.686,6,6,6h9
				c3.314,0,6-2.686,6-6v-2C225,64.314,222.314,67,219,67z"/>
		</g>
		<g>
			<path fill-rule="evenodd" clip-rule="evenodd" fill="#B9B9B9" d="M252.119,22h-11.571c-4.26,0-7.548,2.552-7.548,6.318v36.364
				c0,3.766,3.287,7.318,7.548,7.318h11.571c4.26,0,7.881-3.553,7.881-7.318V28.318C260,24.552,256.379,22,252.119,22z"/>
			<path fill-rule="evenodd" clip-rule="evenodd" fill="#62A4B3" d="M257,31c0-3.314-2.686-6-6-6h-9c-3.314,0-6,2.686-6,6v32
				c0,3.314,2.686,6,6,6h9c3.314,0,6-2.686,6-6V31z"/>
			<path fill-rule="evenodd" clip-rule="evenodd" fill="#548FA5" d="M236,47v16c0,3.314,2.686,6,6,6h9c3.314,0,6-2.686,6-6V47H236z"
				/>
			<path fill-rule="evenodd" clip-rule="evenodd" fill="#4C8296" d="M251,67h-9c-3.314,0-6-2.686-6-6v2c0,3.314,2.686,6,6,6h9
				c3.314,0,6-2.686,6-6v-2C257,64.314,254.314,67,251,67z"/>
		</g>
	</g>
	<rect x="73" y="139" fill-rule="evenodd" clip-rule="evenodd" fill="#ACACAC" width="187" height="3"/>
	<rect x="260" y="87" fill-rule="evenodd" clip-rule="evenodd" fill="#ACACAC" width="3" height="55"/>
	
		<rect x="154.75" y="148.507" transform="matrix(-0.8242 0.5664 -0.5664 -0.8242 375.5482 203.067)" fill="#4C4C4C" width="3" height="22.653"/>
	<g>
		<g>
			<g>
				<rect x="73" y="172" fill-rule="evenodd" clip-rule="evenodd" fill="#4C4C4C" width="187" height="52"/>
			</g>
		</g>
		
			<rect x="177.75" y="148.507" transform="matrix(0.8242 0.5664 -0.5664 0.8242 122.0438 -73.4148)" fill="#4C4C4C" width="3" height="22.653"/>
		<path fill-rule="evenodd" clip-rule="evenodd" fill="none" d="M141,154.75h50l9,7h-67L141,154.75z"/>
		<polygon fill-rule="evenodd" clip-rule="evenodd" fill="#7B7B7B" points="201.333,172 191.535,165 140.443,165 132.268,172 
			73,172 73,198 260,198 260,172 		"/>
	</g>
	<rect x="73" y="224" fill="#ACACAC" width="187" height="3"/>
	<rect x="260" y="172" fill="#ACACAC" width="3" height="55"/>
	<g>
		<path fill="#FFFFFF" d="M198.428,184.625c0,4.032,0,7.819,0,11.65c0.742,0,1.384,0,2.166,0c0-3.088,0-6.08,0-9.436
			c1.618,3.123,3.042,5.904,4.507,8.663c0.184,0.346,0.559,0.795,0.881,0.825c1.087,0.103,2.19,0.039,3.326,0.039
			c0-4.031,0-7.826,0-11.644c-0.791,0-1.52,0-2.299,0c0,3.04,0,5.965,0,9.264c-1.56-3.023-2.932-5.717-4.351-8.387
			c-0.206-0.387-0.611-0.887-0.972-0.93C200.637,184.544,199.563,184.625,198.428,184.625z"/>
		<path fill="#FFFFFF" d="M157.194,191.867c-0.136,1.229-0.051,2.369-1.392,2.522c-0.97,0.111-1.997,0.156-2.933-0.059
			c-0.505-0.115-1.107-0.773-1.248-1.299c-0.25-0.929-0.23-1.944-0.238-2.923c-0.029-3.73,0.595-3.788,4.163-3.668
			c0.441,0.015,1.18,0.29,1.256,0.581c0.435,1.676,1.566,1.146,2.612,1.044c0.066-2.308-0.663-3.366-2.777-3.533
			c-1.677-0.132-3.393,0.014-5.073,0.201c-1.157,0.129-2.054,0.911-2.151,2.097c-0.178,2.174-0.267,4.367-0.195,6.545
			c0.046,1.373,0.794,2.654,2.252,2.814c1.934,0.212,3.919,0.173,5.858-0.014c0.639-0.062,1.561-0.821,1.726-1.432
			c0.394-1.459,0.415-3.018,0.59-4.574c-2.033,0-3.703,0-5.38,0c0,0.59,0,1.072,0,1.699
			C155.238,191.867,156.156,191.867,157.194,191.867z"/>
		<path fill="#FFFFFF" d="M149.27,208.18c-0.338,2.039,0.318,3.376,2.074,3.569c1.797,0.198,3.662,0.153,5.455-0.094
			c1.617-0.223,2.237-1.813,1.982-4.251c-0.147-1.405-0.942-2.135-2.507-2.286c-1.201-0.116-2.426-0.116-3.592-0.381
			c-0.436-0.099-0.946-0.762-1.034-1.24c-0.079-0.424,0.253-1.191,0.623-1.384c1.636-0.851,3.494-0.171,4.19,1.358
			c0.673,0,1.323,0,1.962,0c0.23-2.352-0.646-3.385-2.865-3.437c-1.161-0.027-2.324-0.031-3.484,0.013
			c-1.857,0.07-2.771,1.036-2.895,2.984c-0.139,2.186,0.613,3.305,2.529,3.581c1.103,0.159,2.248,0.058,3.335,0.272
			c0.496,0.098,1.207,0.63,1.267,1.045c0.085,0.595-0.226,1.734-0.563,1.814c-1.101,0.26-2.32,0.308-3.43,0.099
			c-0.484-0.091-0.813-1.006-1.297-1.662C150.569,208.18,149.913,208.18,149.27,208.18z"/>
		<path fill="#FFFFFF" d="M209.35,199.892c-3.105,0-6.079,0-9.056,0c0,0.66,0,1.223,0,1.92c1.086,0,2.099,0,3.278,0
			c0,3.417,0,6.702,0,9.992c0.865,0,1.557,0,2.384,0c0-3.341,0-6.587,0-10.017c1.215,0,2.299,0,3.394,0
			C209.35,201.068,209.35,200.537,209.35,199.892z"/>
		<path fill="#FFFFFF" d="M168.729,200.152c-3.085,0-6.091,0-9.086,0c0,0.674,0,1.24,0,1.977c1.163,0,2.253,0,3.476,0
			c0,3.333,0,6.494,0,9.692c0.786,0,1.433,0,2.253,0c0-3.267,0-6.461,0-9.803c1.221,0,2.274,0,3.357,0
			C168.729,201.305,168.729,200.748,168.729,200.152z"/>
		<path fill="#FFFFFF" d="M195.37,194.382c-2.018,0-3.875,0-5.854,0c0-0.757,0.052-1.379-0.012-1.99
			c-0.107-1.023,0.2-1.457,1.322-1.373c1.4,0.105,2.815,0.025,4.226,0.025c0-0.67,0-1.099,0-1.561c-2.689,0-5.305,0-7.918,0
			c0,2.316,0,4.531,0,6.785c2.798,0,5.498,0,8.237,0C195.37,195.647,195.37,195.126,195.37,194.382z"/>
		<path fill="#FFFFFF" d="M188.975,204.945c-2.675,0-5.249,0-7.852,0c0,2.342,0,4.599,0,6.836c2.822,0,5.526,0,8.246,0
			c0-0.642,0-1.162,0-1.853c-1.969,0-3.871,0-5.827,0c0-1.179,0-2.187,0-3.359c1.848,0,3.618,0,5.434,0
			C188.975,205.966,188.975,205.529,188.975,204.945z"/>
		<path fill="#FFFFFF" d="M175.769,189.449c0,2.358,0,4.566,0,6.828c2.758,0,5.41,0,8.086,0c0-0.648,0-1.202,0-1.897
			c-1.958,0-3.812,0-5.631,0c0-1.189,0-2.232,0-3.374c1.848,0,3.579,0,5.362,0c0-0.568,0-1.032,0-1.557
			C180.965,189.449,178.433,189.449,175.769,189.449z"/>
		<path fill="#FFFFFF" d="M190.876,211.819c2.818,0,5.484,0,8.229,0c0-0.633,0-1.184,0-1.89c-1.961,0-3.863,0-5.821,0
			c0-1.185,0-2.214,0-3.356c1.505,0,2.89-0.068,4.264,0.02c1.302,0.083,1.572-0.456,1.202-1.628c-2.619,0-5.224,0-7.874,0
			C190.876,207.283,190.876,209.502,190.876,211.819z"/>
		<path fill="#FFFFFF" d="M198.428,184.625c1.136,0,2.209-0.081,3.258,0.044c0.361,0.043,0.766,0.543,0.972,0.93
			c1.419,2.669,2.791,5.364,4.351,8.387c0-3.3,0-6.224,0-9.264c0.779,0,1.509,0,2.299,0c0,3.817,0,7.613,0,11.644
			c-1.135,0-2.238,0.064-3.326-0.039c-0.322-0.03-0.697-0.479-0.881-0.825c-1.465-2.76-2.89-5.54-4.507-8.663
			c0,3.356,0,6.348,0,9.436c-0.782,0-1.425,0-2.166,0C198.428,192.444,198.428,188.657,198.428,184.625z"/>
		<path fill="#FFFFFF" d="M172.404,207.941c0,1.446,0,2.632,0,3.888c-0.847,0-1.545,0-2.35,0c0-3.897,0-7.759,0-11.713
			c2.425,0,4.83-0.12,7.217,0.042c1.626,0.11,2.218,0.912,2.346,2.571c0.119,1.536,0.44,3.173-1.368,4.17
			c2.106,1.175,1.08,3.127,1.386,4.893c-0.775,0-1.421,0-1.966,0c-0.343-1.17-0.339-2.859-1.128-3.408
			C175.604,207.73,173.985,208.057,172.404,207.941z M172.525,202.073c0,1.341,0,2.554,0,3.852c1.26,0,2.417,0.075,3.559-0.019
			c1.523-0.125,1.236-1.347,1.278-2.347c0.042-1.021-0.48-1.478-1.456-1.485C174.799,202.067,173.691,202.073,172.525,202.073z"/>
		<path fill="#FFFFFF" d="M172.214,196.285c-0.851,0-1.502,0-1.989,0c-0.331-1.239-0.295-2.925-1.01-3.351
			c-1.093-0.651-2.703-0.432-4.303-0.605c0,1.478,0,2.701,0,3.964c-0.842,0-1.494,0-2.238,0c0-3.851,0-7.633,0-11.477
			c2.623,0,5.272-0.043,7.917,0.043c0.427,0.014,0.957,0.518,1.232,0.932c0.991,1.492,0.52,4.411-0.857,5.632
			C172.761,192.658,172.067,194.487,172.214,196.285z M164.968,190.407c1.341,0,2.583,0.069,3.815-0.021
			c1.064-0.078,1.158-0.947,1.151-1.795c-0.007-0.846,0.121-1.854-1.077-1.952c-1.265-0.103-2.544-0.023-3.888-0.023
			C164.968,187.9,164.968,189.049,164.968,190.407z"/>
		<path fill="#FFFFFF" d="M157.194,191.867c-1.038,0-1.956,0-2.931,0c0-0.627,0-1.108,0-1.699c1.677,0,3.348,0,5.38,0
			c-0.176,1.556-0.196,3.116-0.59,4.574c-0.165,0.61-1.087,1.37-1.726,1.432c-1.938,0.187-3.924,0.226-5.858,0.014
			c-1.458-0.16-2.206-1.441-2.252-2.814c-0.072-2.178,0.017-4.371,0.195-6.545c0.097-1.187,0.994-1.968,2.151-2.097
			c1.68-0.187,3.396-0.333,5.073-0.201c2.114,0.167,2.842,1.224,2.777,3.533c-1.046,0.101-2.177,0.631-2.612-1.044
			c-0.075-0.291-0.814-0.566-1.256-0.581c-3.568-0.12-4.192-0.062-4.163,3.668c0.008,0.979-0.012,1.994,0.238,2.923
			c0.141,0.525,0.743,1.183,1.248,1.299c0.936,0.214,1.964,0.169,2.933,0.059C157.143,194.236,157.058,193.097,157.194,191.867z"/>
		<path fill="#FFFFFF" d="M149.27,208.18c0.643,0,1.299,0,1.748,0c0.484,0.656,0.813,1.57,1.297,1.662
			c1.11,0.209,2.33,0.161,3.43-0.099c0.337-0.08,0.648-1.218,0.563-1.814c-0.059-0.415-0.771-0.947-1.267-1.045
			c-1.087-0.214-2.232-0.114-3.335-0.272c-1.916-0.276-2.667-1.396-2.529-3.581c0.124-1.948,1.038-2.914,2.895-2.984
			c1.16-0.044,2.323-0.04,3.484-0.013c2.218,0.052,3.094,1.085,2.865,3.437c-0.639,0-1.289,0-1.962,0
			c-0.696-1.529-2.554-2.209-4.19-1.358c-0.37,0.193-0.702,0.96-0.623,1.384c0.089,0.478,0.598,1.141,1.034,1.24
			c1.166,0.265,2.391,0.265,3.592,0.381c1.565,0.151,2.36,0.881,2.507,2.286c0.255,2.438-0.365,4.028-1.982,4.251
			c-1.793,0.247-3.658,0.292-5.455,0.094C149.588,211.555,148.932,210.219,149.27,208.18z"/>
		<path fill="#FFFFFF" d="M209.35,199.892c0,0.645,0,1.176,0,1.894c-1.095,0-2.179,0-3.394,0c0,3.43,0,6.677,0,10.017
			c-0.827,0-1.519,0-2.384,0c0-3.289,0-6.575,0-9.992c-1.179,0-2.192,0-3.278,0c0-0.697,0-1.26,0-1.92
			C203.271,199.892,206.245,199.892,209.35,199.892z"/>
		<path fill="#FFFFFF" d="M168.729,200.152c0,0.595,0,1.152,0,1.866c-1.083,0-2.136,0-3.357,0c0,3.342,0,6.536,0,9.803
			c-0.819,0-1.466,0-2.253,0c0-3.198,0-6.359,0-9.692c-1.223,0-2.313,0-3.476,0c0-0.738,0-1.304,0-1.977
			C162.638,200.152,165.644,200.152,168.729,200.152z"/>
		<path fill="#FFFFFF" d="M195.37,194.382c0,0.744,0,1.265,0,1.886c-2.739,0-5.439,0-8.237,0c0-2.254,0-4.469,0-6.785
			c2.613,0,5.229,0,7.918,0c0,0.462,0,0.891,0,1.561c-1.411,0-2.825,0.08-4.226-0.025c-1.122-0.084-1.429,0.351-1.322,1.373
			c0.064,0.611,0.012,1.233,0.012,1.99C191.495,194.382,193.352,194.382,195.37,194.382z"/>
		<path fill="#FFFFFF" d="M188.975,204.945c0,0.584,0,1.022,0,1.624c-1.815,0-3.585,0-5.434,0c0,1.172,0,2.18,0,3.359
			c1.956,0,3.858,0,5.827,0c0,0.691,0,1.211,0,1.853c-2.72,0-5.424,0-8.246,0c0-2.236,0-4.494,0-6.836
			C183.726,204.945,186.3,204.945,188.975,204.945z"/>
		<path fill="#FFFFFF" d="M175.769,189.449c2.664,0,5.196,0,7.817,0c0,0.525,0,0.989,0,1.557c-1.784,0-3.515,0-5.362,0
			c0,1.142,0,2.185,0,3.374c1.819,0,3.673,0,5.631,0c0,0.696,0,1.249,0,1.897c-2.676,0-5.328,0-8.086,0
			C175.769,194.015,175.769,191.807,175.769,189.449z"/>
		<path fill="#FFFFFF" d="M190.876,211.819c0-2.317,0-4.537,0-6.854c2.65,0,5.255,0,7.874,0c0.37,1.172,0.1,1.711-1.202,1.628
			c-1.374-0.087-2.759-0.02-4.264-0.02c0,1.142,0,2.172,0,3.356c1.958,0,3.86,0,5.821,0c0,0.705,0,1.257,0,1.89
			C196.359,211.819,193.694,211.819,190.876,211.819z"/>
		<rect x="175.395" y="184.599" fill="#FFFFFF" width="8.124" height="1.916"/>
		<rect x="186.972" y="184.599" fill="#FFFFFF" width="8.124" height="1.916"/>
		<rect x="180.896" y="200.013" fill="#FFFFFF" width="8.124" height="1.916"/>
		<rect x="190.589" y="200.013" fill="#FFFFFF" width="8.124" height="1.916"/>
		<path fill="#FFFFFF" d="M118.801,188.421c0,0,2.129,5.085,5.582,7.06c-1.206,2.483-1.23,3.761-0.863,6.315
			c-3.122-1.526-4.931-8.444-4.931-8.444s0.16,9.721,5.344,15.953C119.688,210.842,110.96,203.889,118.801,188.421z"/>
		<path fill="#FFFFFF" d="M126.133,206.124c0,0-3.727-9.896,4.112-16.509c7.004-5.908,15.329-5.905,18.546-5.905
			c-2.15,3.391-4.936,5.298-5.724,13.852c-0.71,7.71-4.021,11.684-8.846,13.008c-1.561-6.433,0.851-16.272,7.663-23.557
			C139.236,187.25,130.012,194.629,126.133,206.124z"/>
	</g>
</g>
<g id="Layer_2">
</g>
<g id="Layer_3">
	<rect x="73" y="87" fill="#415065" width="187" height="52"/>
	<rect x="78" y="92" fill="#FFFFFF" width="177" height="42"/>
	<rect x="73" y="92" fill="#677383" width="5" height="42"/>
	<rect x="255" y="92" fill="#677383" width="5" height="42"/>
	<rect x="78" y="113" fill="#F7F7F7" width="177" height="21"/>
	<g>
		<circle fill="#00ADA5" cx="90" cy="102.5" r="6"/>
		<path fill="#00BEB4" d="M84,102.5c0-3.314,2.686-6,6-6s6,2.686,6,6"/>
	</g>
	<g>
		<circle fill="#C6C6C6" cx="90" cy="123.5" r="6"/>
		<path fill="#CCCCCC" d="M84,123.5c0-3.314,2.686-6,6-6s6,2.686,6,6"/>
	</g>
	<g>
		<circle fill="#C6C6C6" cx="106" cy="123.5" r="6"/>
		<path fill="#CCCCCC" d="M100,123.5c0-3.314,2.686-6,6-6s6,2.686,6,6"/>
	</g>
	<g>
		<circle fill="#C6C6C6" cx="122" cy="123.5" r="6"/>
		<path fill="#CCCCCC" d="M116,123.5c0-3.314,2.686-6,6-6s6,2.686,6,6"/>
	</g>
	<rect x="211" y="97" fill="#677383" width="4" height="32"/>
	<rect x="221" y="97" fill="#677383" width="4" height="32"/>
	<rect x="231" y="97" fill="#677383" width="4" height="32"/>
	<rect x="241" y="97" fill="#677383" width="4" height="32"/>
</g>
<g id="Layer_4">
	<path fill-rule="evenodd" clip-rule="evenodd" fill="#F3F3F3" d="M51,77c0-3.314-2.686-6-6-6H6c-3.314,0-6,2.686-6,6v94
		c0,3.314,2.686,6,6,6h39c3.314,0,6-2.686,6-6V77z"/>
	<path fill-rule="evenodd" clip-rule="evenodd" fill="#C6C6C6" d="M46,81.434C46,78.433,43.84,76,41.176,76H9.824
		C7.16,76,5,78.433,5,81.434v85.132C5,169.567,7.16,172,9.824,172h31.353c2.664,0,4.824-2.433,4.824-5.434V81.434z"/>
	<path fill-rule="evenodd" clip-rule="evenodd" fill="none" d="M7,168.566V83.434C7,80.433,9.16,78,11.824,78h31.353
		c0.744,0,1.445,0.195,2.074,0.534C44.396,77.013,42.893,76,41.176,76H9.824C7.16,76,5,78.433,5,81.434v85.132
		c0,2.163,1.125,4.026,2.749,4.9C7.277,170.626,7,169.634,7,168.566z"/>
	<path fill-rule="evenodd" clip-rule="evenodd" fill="#FFFFFF" d="M44,115c0,2.2-1.8,4-4,4H11c-2.2,0-4-1.8-4-4V83c0-2.2,1.8-4,4-4
		h29c2.2,0,4,1.8,4,4V115z"/>
	<linearGradient id="SVGID_1_" gradientUnits="userSpaceOnUse" x1="25.5" y1="117" x2="25.5" y2="81">
		<stop  offset="0" style="stop-color:#FFFFFF"/>
		<stop  offset="0.471" style="stop-color:#FCFCFC"/>
		<stop  offset="0.7986" style="stop-color:#F3F3F3"/>
		<stop  offset="1" style="stop-color:#E9E9E9"/>
	</linearGradient>
	<path fill-rule="evenodd" clip-rule="evenodd" fill="url(#SVGID_1_)" d="M42,113.411c0,1.982-1.607,3.589-3.589,3.589H12.589
		C10.607,117,9,115.393,9,113.411V84.589C9,82.607,10.607,81,12.589,81h25.821C40.393,81,42,82.607,42,84.589V113.411z"/>
	<g>
		<circle fill="#89B901" cx="25" cy="99.5" r="6"/>
		<path fill="#A5DD00" d="M19,99.5c0-3.314,2.686-6,6-6s6,2.686,6,6"/>
	</g>
	<path fill-rule="evenodd" clip-rule="evenodd" fill="#F7F7F7" d="M40,117H11c-2.2,0-4-1.8-4-4v2c0,2.2,1.8,4,4,4h29
		c2.2,0,4-1.8,4-4v-2C44,115.2,42.2,117,40,117z"/>
	<g>
		<path fill="#FFFFFF" d="M18.928,147.877c1.584-1.488,3.696-2.424,6.072-2.424s4.513,0.936,6.072,2.424
			c1.561,1.417,2.568,3.528,2.568,5.737c0,2.304-1.008,4.417-2.568,5.88c-1.56,1.488-3.696,2.376-6.072,2.376
			s-4.488-0.888-6.072-2.376c-1.585-1.464-2.568-3.576-2.568-5.88C16.359,151.406,17.343,149.294,18.928,147.877z M25,148.19
			c-1.632,0-3.145,0.648-4.2,1.632c-1.08,1.008-1.704,2.352-1.704,3.792c0,1.536,0.624,2.88,1.704,3.888
			c1.056,1.008,2.568,1.632,4.2,1.632s3.145-0.624,4.176-1.632c1.08-1.008,1.729-2.352,1.729-3.888c0-1.44-0.648-2.784-1.729-3.792
			C28.145,148.838,26.632,148.19,25,148.19z"/>
		<path fill="#FFFFFF" d="M32.32,141.11c0.721,0,1.32,0.6,1.32,1.296c0,0.744-0.6,1.32-1.32,1.32H18.375c0,0,0,0-0.023,0
			c-0.408,0.024-0.841-0.168-1.104-0.528c-0.408-0.6-0.288-1.416,0.288-1.824l10.729-7.752h-9.89c-0.695,0-1.296-0.576-1.296-1.296
			c0-0.72,0.601-1.32,1.296-1.32H32.32c0.721,0,1.32,0.6,1.32,1.32c0,0.384-0.192,0.744-0.48,0.984
			c-0.048,0.048-0.096,0.096-0.144,0.12l-10.657,7.681H32.32z"/>
	</g>
	<g>
		<path fill="#FEE002" d="M348.913,161.938l1.963-1.916c0.007-0.007,0.019-0.011,0.023-0.026l1.56-1.511
			c0.268-0.267,0.502-0.557,0.704-0.861c17.491-19.438,16.952-49-1.602-67.818c-0.083-0.091-0.143-0.193-0.236-0.286l-3.55-3.458
			c-2.1-2.053-5.517-2.042-7.633,0.022c-2.112,2.061-2.127,5.394-0.019,7.447l3.54,3.46c0.032,0.022,0.059,0.041,0.078,0.065
			c15.067,15.217,15.161,39.355,0.308,54.695l-2.793,2.725c-2.1,2.046-2.093,5.391,0.019,7.447
			C343.392,163.98,346.812,163.988,348.913,161.938z"/>
		<path fill="#FFFB91" d="M337.228,146.227c0.145-0.134,0.272-0.282,0.405-0.423l0.402-0.412c0.074-0.071,0.129-0.145,0.198-0.234
			c11.104-11.924,10.665-30.174-1.001-41.557l-1.371-1.334l-1.893-1.847c-2.31-2.25-6.069-2.239-8.378,0.015
			c-2.317,2.259-2.321,5.927-0.015,8.173l3.269,3.187c7.412,7.237,7.412,19.011,0,26.243l-2.283,2.301
			c-2.283,2.228-2.279,5.862,0.023,8.1c1.104,1.084,2.58,1.682,4.151,1.686c1.564,0.003,3.038-0.586,4.142-1.671L337.228,146.227z"
			/>
		<g>
			<g>
				<path fill="#FEE002" d="M314.451,114.992c-5.22,0-9.451,4.129-9.451,9.222c0,5.094,4.231,9.225,9.451,9.225
					c5.221,0,9.455-4.132,9.455-9.225C323.907,119.121,319.672,114.992,314.451,114.992z"/>
			</g>
		</g>
	</g>
</g>
<g id="Layer_5">
</g>
</svg>
