<?xml version="1.0" encoding="utf-8"?>
<!-- Generator: Adobe Illustrator 17.0.1, SVG Export Plug-In . SVG Version: 6.00 Build 0)  -->
<!DOCTYPE svg PUBLIC "-//W3C//DTD SVG 1.1//EN" "http://www.w3.org/Graphics/SVG/1.1/DTD/svg11.dtd">
<svg version="1.1" xmlns="http://www.w3.org/2000/svg" xmlns:xlink="http://www.w3.org/1999/xlink" x="0px" y="0px"
	 width="365.89px" height="248px" viewBox="0 0 365.89 248" enable-background="new 0 0 365.89 248" xml:space="preserve">
<g id="Layer_1">
	<path fill-rule="evenodd" clip-rule="evenodd" fill="#E6E6E6" d="M65,0h199c7.732,0,14,6.268,14,14v220c0,7.732-6.268,14-14,14H65
		c-7.732,0-14-6.268-14-14V14C51,6.268,57.268,0,65,0z"/>
	<path fill-rule="evenodd" clip-rule="evenodd" fill="#F3F3F3" d="M164,0H65c-7.732,0-14,6.268-14,14v220c0,7.732,6.268,14,14,14h99
		V0z"/>
	<path fill-rule="evenodd" clip-rule="evenodd" fill="#C6C6C6" d="M72.013,8h184.974C264.174,8,270,13.864,270,21.097v205.806
		c0,7.233-5.826,13.097-13.013,13.097H72.013C64.826,240,59,234.136,59,226.903V21.097C59,13.864,64.826,8,72.013,8z"/>
	<path fill-rule="evenodd" clip-rule="evenodd" fill="#B9B9B9" d="M64,26.101C64,18.868,69.83,13,77.017,13h190.188
		c-2.383-3-6.07-5-10.218-5H72.013C64.826,8,59,13.864,59,21.097v205.806c0,4.19,2,7.911,5,10.308V26.101z"/>
	<rect x="69" y="21" fill="none" width="42" height="26"/>
	<g>
		<g>
			<path fill-rule="evenodd" clip-rule="evenodd" fill="#B9B9B9" d="M92.119,22H80.548C76.287,22,73,24.552,73,28.318v36.364
				C73,68.447,76.287,72,80.548,72h11.571c4.26,0,7.881-3.553,7.881-7.318V28.318C100,24.552,96.379,22,92.119,22z"/>
			<path fill-rule="evenodd" clip-rule="evenodd" fill="#62A4B3" d="M97,31c0-3.314-2.686-6-6-6h-9c-3.314,0-6,2.686-6,6v32
				c0,3.314,2.686,6,6,6h9c3.314,0,6-2.686,6-6V31z"/>
			<path fill-rule="evenodd" clip-rule="evenodd" fill="#548FA5" d="M76,47v16c0,3.314,2.686,6,6,6h9c3.314,0,6-2.686,6-6V47H76z"/>
			<path fill-rule="evenodd" clip-rule="evenodd" fill="#4C8296" d="M91,67h-9c-3.314,0-6-2.686-6-6v2c0,3.314,2.686,6,6,6h9
				c3.314,0,6-2.686,6-6v-2C97,64.314,94.314,67,91,67z"/>
		</g>
		<g>
			<path fill-rule="evenodd" clip-rule="evenodd" fill="#B9B9B9" d="M124.119,22h-11.571c-4.26,0-7.548,2.552-7.548,6.318v36.364
				c0,3.766,3.287,7.318,7.548,7.318h11.571c4.26,0,7.881-3.553,7.881-7.318V28.318C132,24.552,128.379,22,124.119,22z"/>
			<path fill-rule="evenodd" clip-rule="evenodd" fill="#62A4B3" d="M129,31c0-3.314-2.686-6-6-6h-9c-3.314,0-6,2.686-6,6v32
				c0,3.314,2.686,6,6,6h9c3.314,0,6-2.686,6-6V31z"/>
			<path fill-rule="evenodd" clip-rule="evenodd" fill="#548FA5" d="M108,47v16c0,3.314,2.686,6,6,6h9c3.314,0,6-2.686,6-6V47H108z"
				/>
			<path fill-rule="evenodd" clip-rule="evenodd" fill="#4C8296" d="M123,67h-9c-3.314,0-6-2.686-6-6v2c0,3.314,2.686,6,6,6h9
				c3.314,0,6-2.686,6-6v-2C129,64.314,126.314,67,123,67z"/>
		</g>
		<g>
			<path fill-rule="evenodd" clip-rule="evenodd" fill="#B9B9B9" d="M156.119,22h-11.571c-4.26,0-7.548,2.552-7.548,6.318v36.364
				c0,3.766,3.287,7.318,7.548,7.318h11.571c4.26,0,7.881-3.553,7.881-7.318V28.318C164,24.552,160.379,22,156.119,22z"/>
			<path fill-rule="evenodd" clip-rule="evenodd" fill="#62A4B3" d="M161,31c0-3.314-2.686-6-6-6h-9c-3.314,0-6,2.686-6,6v32
				c0,3.314,2.686,6,6,6h9c3.314,0,6-2.686,6-6V31z"/>
			<path fill-rule="evenodd" clip-rule="evenodd" fill="#548FA5" d="M140,47v16c0,3.314,2.686,6,6,6h9c3.314,0,6-2.686,6-6V47H140z"
				/>
			<path fill-rule="evenodd" clip-rule="evenodd" fill="#4C8296" d="M155,67h-9c-3.314,0-6-2.686-6-6v2c0,3.314,2.686,6,6,6h9
				c3.314,0,6-2.686,6-6v-2C161,64.314,158.314,67,155,67z"/>
		</g>
		<g>
			<path fill-rule="evenodd" clip-rule="evenodd" fill="#B9B9B9" d="M188.119,22h-11.571c-4.26,0-7.548,2.552-7.548,6.318v36.364
				c0,3.766,3.287,7.318,7.548,7.318h11.571c4.26,0,7.881-3.553,7.881-7.318V28.318C196,24.552,192.379,22,188.119,22z"/>
			<path fill-rule="evenodd" clip-rule="evenodd" fill="#62A4B3" d="M193,31c0-3.314-2.686-6-6-6h-9c-3.314,0-6,2.686-6,6v32
				c0,3.314,2.686,6,6,6h9c3.314,0,6-2.686,6-6V31z"/>
			<path fill-rule="evenodd" clip-rule="evenodd" fill="#548FA5" d="M172,47v16c0,3.314,2.686,6,6,6h9c3.314,0,6-2.686,6-6V47H172z"
				/>
			<path fill-rule="evenodd" clip-rule="evenodd" fill="#4C8296" d="M187,67h-9c-3.314,0-6-2.686-6-6v2c0,3.314,2.686,6,6,6h9
				c3.314,0,6-2.686,6-6v-2C193,64.314,190.314,67,187,67z"/>
		</g>
		<g>
			<path fill-rule="evenodd" clip-rule="evenodd" fill="#B9B9B9" d="M220.119,22h-11.571c-4.26,0-7.548,2.552-7.548,6.318v36.364
				c0,3.766,3.287,7.318,7.548,7.318h11.571c4.26,0,7.881-3.553,7.881-7.318V28.318C228,24.552,224.379,22,220.119,22z"/>
			<path fill-rule="evenodd" clip-rule="evenodd" fill="#62A4B3" d="M225,31c0-3.314-2.686-6-6-6h-9c-3.314,0-6,2.686-6,6v32
				c0,3.314,2.686,6,6,6h9c3.314,0,6-2.686,6-6V31z"/>
			<path fill-rule="evenodd" clip-rule="evenodd" fill="#548FA5" d="M204,47v16c0,3.314,2.686,6,6,6h9c3.314,0,6-2.686,6-6V47H204z"
				/>
			<path fill-rule="evenodd" clip-rule="evenodd" fill="#4C8296" d="M219,67h-9c-3.314,0-6-2.686-6-6v2c0,3.314,2.686,6,6,6h9
				c3.314,0,6-2.686,6-6v-2C225,64.314,222.314,67,219,67z"/>
		</g>
		<g>
			<path fill-rule="evenodd" clip-rule="evenodd" fill="#B9B9B9" d="M252.119,22h-11.571c-4.26,0-7.548,2.552-7.548,6.318v36.364
				c0,3.766,3.287,7.318,7.548,7.318h11.571c4.26,0,7.881-3.553,7.881-7.318V28.318C260,24.552,256.379,22,252.119,22z"/>
			<path fill-rule="evenodd" clip-rule="evenodd" fill="#62A4B3" d="M257,31c0-3.314-2.686-6-6-6h-9c-3.314,0-6,2.686-6,6v32
				c0,3.314,2.686,6,6,6h9c3.314,0,6-2.686,6-6V31z"/>
			<path fill-rule="evenodd" clip-rule="evenodd" fill="#548FA5" d="M236,47v16c0,3.314,2.686,6,6,6h9c3.314,0,6-2.686,6-6V47H236z"
				/>
			<path fill-rule="evenodd" clip-rule="evenodd" fill="#4C8296" d="M251,67h-9c-3.314,0-6-2.686-6-6v2c0,3.314,2.686,6,6,6h9
				c3.314,0,6-2.686,6-6v-2C257,64.314,254.314,67,251,67z"/>
		</g>
	</g>
	<rect x="73" y="139" fill-rule="evenodd" clip-rule="evenodd" fill="#ACACAC" width="187" height="3"/>
	<rect x="260" y="87" fill-rule="evenodd" clip-rule="evenodd" fill="#ACACAC" width="3" height="55"/>
	
		<rect x="154.75" y="148.507" transform="matrix(-0.8242 0.5664 -0.5664 -0.8242 375.5482 203.067)" fill="#4C4C4C" width="3" height="22.653"/>
	<g>
		<g>
			<g>
				<rect x="73" y="172" fill-rule="evenodd" clip-rule="evenodd" fill="#4C4C4C" width="187" height="52"/>
			</g>
		</g>
		
			<rect x="177.75" y="148.507" transform="matrix(0.8242 0.5664 -0.5664 0.8242 122.0438 -73.4148)" fill="#4C4C4C" width="3" height="22.653"/>
		<path fill-rule="evenodd" clip-rule="evenodd" fill="none" d="M141,154.75h50l9,7h-67L141,154.75z"/>
		<polygon fill-rule="evenodd" clip-rule="evenodd" fill="#7B7B7B" points="201.333,172 191.535,165 140.443,165 132.268,172 
			73,172 73,198 260,198 260,172 		"/>
		<g>
			<path fill="#FFFFFF" d="M113.797,200.883c0.432-0.527,1.224-0.6,1.752-0.168c1.056,0.864,2.88,1.872,4.584,1.849
				c1.2,0,2.28-0.36,3-0.889c0.72-0.527,1.032-1.128,1.032-1.728c0-0.313-0.072-0.528-0.216-0.769
				c-0.144-0.239-0.36-0.479-0.72-0.72c-0.696-0.456-1.872-0.864-3.288-1.128h-0.048c-1.128-0.216-2.185-0.504-3.097-0.937
				c-0.912-0.432-1.704-1.032-2.232-1.872c-0.36-0.576-0.552-1.248-0.552-1.968c0-1.44,0.816-2.688,1.92-3.505
				c1.128-0.815,2.592-1.271,4.152-1.271c2.304,0,4.008,1.128,5.232,1.92c0.552,0.384,0.72,1.152,0.336,1.704
				c-0.36,0.576-1.128,0.744-1.704,0.36c-1.224-0.816-2.4-1.536-3.864-1.536c-1.08,0-2.041,0.336-2.688,0.815
				c-0.648,0.48-0.912,1.009-0.912,1.513c0,0.288,0.048,0.479,0.168,0.672c0.12,0.192,0.336,0.408,0.648,0.624
				c0.624,0.432,1.704,0.816,3,1.056h0.048c1.224,0.24,2.353,0.553,3.313,1.009c0.984,0.479,1.848,1.104,2.4,1.992
				c0.36,0.576,0.576,1.296,0.576,2.04c0,1.536-0.864,2.856-2.064,3.72c-1.176,0.864-2.736,1.368-4.44,1.368
				c-2.592-0.023-4.776-1.319-6.145-2.399C113.461,202.203,113.389,201.411,113.797,200.883z"/>
			<path fill="#FFFFFF" d="M129.588,196.419c0.024-4.753,4.008-8.617,8.809-8.641c2.112,0,4.032,0.696,5.544,1.872
				c0.576,0.479,0.673,1.32,0.24,1.92c-0.479,0.601-1.368,0.696-1.92,0.264c-1.056-0.863-2.376-1.319-3.864-1.319
				c-1.656,0-3.192,0.672-4.32,1.728c-1.08,1.104-1.752,2.545-1.752,4.177s0.672,3.12,1.752,4.176
				c1.128,1.057,2.664,1.729,4.32,1.729c1.488,0,2.784-0.456,3.864-1.32c0.552-0.408,1.44-0.312,1.92,0.265
				c0.433,0.6,0.336,1.464-0.24,1.92c-1.512,1.176-3.432,1.872-5.544,1.872C133.597,205.06,129.613,201.195,129.588,196.419z"/>
			<path fill="#FFFFFF" d="M147.684,197.715c0-0.792,0.648-1.44,1.416-1.44h4.513c0.768,0,1.416,0.648,1.416,1.44
				c0,0.769-0.648,1.416-1.416,1.416H149.1C148.332,199.131,147.684,198.483,147.684,197.715z"/>
			<path fill="#FFFFFF" d="M168.301,203.739c0,0.744-0.576,1.32-1.32,1.32h-8.497c0,0,0,0-0.023,0h-0.024
				c-0.359,0-0.744-0.144-0.983-0.432c-0.505-0.553-0.456-1.368,0.071-1.872l7.104-6.433c0.696-0.624,1.009-1.44,1.009-2.305
				c0-0.768-0.265-1.488-0.792-2.088c-0.624-0.696-1.465-1.009-2.305-1.009c-0.744,0-1.488,0.265-2.088,0.793l-0.744,0.672
				c-0.552,0.504-1.368,0.456-1.872-0.097c-0.48-0.552-0.456-1.368,0.096-1.872l0.744-0.672c1.08-1.008,2.496-1.488,3.864-1.488
				c1.561,0,3.145,0.648,4.272,1.896c1.008,1.08,1.488,2.496,1.488,3.864c0,1.561-0.648,3.145-1.896,4.272l-4.536,4.104h5.112
				C167.725,202.396,168.301,202.995,168.301,203.739z"/>
			<path fill="#FFFFFF" d="M171.612,196.659c0.023-2.209,0.575-4.201,1.632-5.737c1.008-1.536,2.568-2.664,4.464-2.664
				c1.849,0,3.433,1.128,4.44,2.664c1.032,1.536,1.608,3.528,1.608,5.737c0,2.184-0.576,4.2-1.608,5.736
				c-1.008,1.512-2.592,2.664-4.44,2.664c-1.896,0-3.456-1.152-4.464-2.664C172.188,200.859,171.636,198.843,171.612,196.659z
				 M181.093,196.659c0-1.729-0.48-3.24-1.152-4.272c-0.696-1.009-1.488-1.488-2.232-1.465c-0.743-0.023-1.56,0.456-2.28,1.465
				c-0.672,1.032-1.151,2.544-1.151,4.272c0,1.704,0.479,3.24,1.151,4.248c0.721,1.032,1.537,1.488,2.28,1.488
				c0.744,0,1.536-0.456,2.232-1.488C180.612,199.899,181.093,198.363,181.093,196.659z"/>
			<path fill="#FFFFFF" d="M188.652,196.659c0.023-2.209,0.575-4.201,1.632-5.737c1.008-1.536,2.568-2.664,4.464-2.664
				c1.849,0,3.433,1.128,4.44,2.664c1.032,1.536,1.608,3.528,1.608,5.737c0,2.184-0.576,4.2-1.608,5.736
				c-1.008,1.512-2.592,2.664-4.44,2.664c-1.896,0-3.456-1.152-4.464-2.664C189.228,200.859,188.676,198.843,188.652,196.659z
				 M198.133,196.659c0-1.729-0.48-3.24-1.152-4.272c-0.696-1.009-1.488-1.488-2.232-1.465c-0.744-0.023-1.56,0.456-2.279,1.465
				c-0.673,1.032-1.152,2.544-1.152,4.272c0,1.704,0.479,3.24,1.152,4.248c0.72,1.032,1.535,1.488,2.279,1.488
				s1.536-0.456,2.232-1.488C197.652,199.899,198.133,198.363,198.133,196.659z"/>
			<path fill="#FFFFFF" d="M205.692,196.659c0.023-2.209,0.575-4.201,1.632-5.737c1.008-1.536,2.568-2.664,4.464-2.664
				c1.849,0,3.433,1.128,4.44,2.664c1.032,1.536,1.608,3.528,1.608,5.737c0,2.184-0.576,4.2-1.608,5.736
				c-1.008,1.512-2.592,2.664-4.44,2.664c-1.896,0-3.456-1.152-4.464-2.664C206.268,200.859,205.716,198.843,205.692,196.659z
				 M215.173,196.659c0-1.729-0.48-3.24-1.152-4.272c-0.696-1.009-1.488-1.488-2.232-1.465c-0.743-0.023-1.56,0.456-2.28,1.465
				c-0.672,1.032-1.151,2.544-1.151,4.272c0,1.704,0.479,3.24,1.151,4.248c0.721,1.032,1.537,1.488,2.28,1.488
				c0.744,0,1.536-0.456,2.232-1.488C214.692,199.899,215.173,198.363,215.173,196.659z"/>
		</g>
	</g>
	<rect x="73" y="224" fill="#ACACAC" width="187" height="3"/>
	<rect x="260" y="172" fill="#ACACAC" width="3" height="55"/>
</g>
<g id="Layer_2">
</g>
<g id="Layer_3">
	<rect x="73" y="87" fill="#415065" width="187" height="52"/>
	<rect x="78" y="92" fill="#FFFFFF" width="177" height="42"/>
	<rect x="73" y="92" fill="#677383" width="5" height="42"/>
	<rect x="255" y="92" fill="#677383" width="5" height="42"/>
	<rect x="78" y="113" fill="#F7F7F7" width="177" height="21"/>
	<g>
		<circle fill="#C6C6C6" cx="90" cy="123.5" r="6"/>
		<path fill="#CCCCCC" d="M84,123.5c0-3.314,2.686-6,6-6s6,2.686,6,6"/>
	</g>
	<g>
		<circle fill="#C6C6C6" cx="106" cy="123.5" r="6"/>
		<path fill="#CCCCCC" d="M100,123.5c0-3.314,2.686-6,6-6s6,2.686,6,6"/>
	</g>
	<g>
		<circle fill="#C6C6C6" cx="122" cy="123.5" r="6"/>
		<path fill="#CCCCCC" d="M116,123.5c0-3.314,2.686-6,6-6s6,2.686,6,6"/>
	</g>
	<rect x="211" y="97" fill="#677383" width="4" height="32"/>
	<rect x="221" y="97" fill="#677383" width="4" height="32"/>
	<rect x="231" y="97" fill="#677383" width="4" height="32"/>
	<rect x="241" y="97" fill="#677383" width="4" height="32"/>
	<g>
		<circle fill="#F03F45" cx="90" cy="102.5" r="6"/>
		<path fill="#FE8688" d="M84,102.5c0-3.314,2.686-6,6-6s6,2.686,6,6"/>
	</g>
	<g>
		<path fill="#FEE002" d="M348.913,161.938l1.963-1.916c0.007-0.007,0.019-0.011,0.023-0.026l1.56-1.511
			c0.268-0.267,0.502-0.557,0.704-0.861c17.491-19.438,16.952-49-1.602-67.818c-0.083-0.091-0.143-0.193-0.236-0.286l-3.55-3.458
			c-2.1-2.053-5.517-2.042-7.633,0.022c-2.112,2.061-2.127,5.394-0.019,7.447l3.54,3.46c0.032,0.022,0.059,0.041,0.078,0.065
			c15.067,15.217,15.161,39.355,0.308,54.695l-2.793,2.725c-2.1,2.046-2.093,5.391,0.019,7.447
			C343.392,163.98,346.812,163.988,348.913,161.938z"/>
		<path fill="#FFFB91" d="M337.228,146.227c0.145-0.134,0.272-0.282,0.405-0.423l0.402-0.412c0.074-0.071,0.129-0.145,0.198-0.234
			c11.104-11.924,10.665-30.174-1.001-41.557l-1.371-1.334l-1.893-1.847c-2.31-2.25-6.069-2.239-8.378,0.015
			c-2.317,2.259-2.321,5.927-0.015,8.173l3.269,3.187c7.412,7.237,7.412,19.011,0,26.243l-2.283,2.301
			c-2.283,2.228-2.279,5.862,0.023,8.1c1.104,1.084,2.58,1.682,4.151,1.686c1.564,0.003,3.038-0.586,4.142-1.671L337.228,146.227z"
			/>
		<g>
			<g>
				<path fill="#FEE002" d="M314.451,114.992c-5.22,0-9.451,4.129-9.451,9.222c0,5.094,4.231,9.225,9.451,9.225
					c5.221,0,9.455-4.132,9.455-9.225C323.907,119.121,319.672,114.992,314.451,114.992z"/>
			</g>
		</g>
	</g>
</g>
<g id="Layer_4">
	<path fill-rule="evenodd" clip-rule="evenodd" fill="#F3F3F3" d="M51,77c0-3.314-2.686-6-6-6H6c-3.314,0-6,2.686-6,6v94
		c0,3.314,2.686,6,6,6h39c3.314,0,6-2.686,6-6V77z"/>
	<path fill-rule="evenodd" clip-rule="evenodd" fill="#C6C6C6" d="M46,81.434C46,78.433,43.84,76,41.176,76H9.824
		C7.16,76,5,78.433,5,81.434v85.132C5,169.567,7.16,172,9.824,172h31.353c2.664,0,4.824-2.433,4.824-5.434V81.434z"/>
	<path fill-rule="evenodd" clip-rule="evenodd" fill="none" d="M7,168.566V83.434C7,80.433,9.16,78,11.824,78h31.353
		c0.744,0,1.445,0.195,2.074,0.534C44.396,77.013,42.893,76,41.176,76H9.824C7.16,76,5,78.433,5,81.434v85.132
		c0,2.163,1.125,4.026,2.749,4.9C7.277,170.626,7,169.634,7,168.566z"/>
	<path fill-rule="evenodd" clip-rule="evenodd" fill="#FFFFFF" d="M44,166c0,2.2-1.8,4-4,4H11c-2.2,0-4-1.8-4-4v-32c0-2.2,1.8-4,4-4
		h29c2.2,0,4,1.8,4,4V166z"/>
	<linearGradient id="SVGID_1_" gradientUnits="userSpaceOnUse" x1="25.5" y1="168" x2="25.5" y2="132">
		<stop  offset="0" style="stop-color:#FFFFFF"/>
		<stop  offset="0.471" style="stop-color:#FCFCFC"/>
		<stop  offset="0.7986" style="stop-color:#F3F3F3"/>
		<stop  offset="1" style="stop-color:#E9E9E9"/>
	</linearGradient>
	<path fill-rule="evenodd" clip-rule="evenodd" fill="url(#SVGID_1_)" d="M42,164.411c0,1.982-1.607,3.589-3.589,3.589H12.589
		C10.607,168,9,166.393,9,164.411v-28.821c0-1.982,1.607-3.589,3.589-3.589h25.821c1.982,0,3.589,1.607,3.589,3.589V164.411z"/>
	<g>
		<circle fill="#F03F45" cx="25" cy="150.5" r="6"/>
		<path fill="#FE8688" d="M19,150.5c0-3.314,2.686-6,6-6s6,2.686,6,6"/>
	</g>
	<path fill-rule="evenodd" clip-rule="evenodd" fill="#F7F7F7" d="M40,168H11c-2.2,0-4-1.8-4-4v2c0,2.2,1.8,4,4,4h29
		c2.2,0,4-1.8,4-4v-2C44,166.2,42.2,168,40,168z"/>
	<g>
		<path fill="#FFFFFF" d="M19.428,110.741c1.584-1.488,3.696-2.424,6.072-2.424s4.513,0.936,6.072,2.424
			c1.561,1.416,2.568,3.528,2.568,5.736c0,2.304-1.008,4.417-2.568,5.88c-1.56,1.488-3.696,2.376-6.072,2.376
			s-4.488-0.888-6.072-2.376c-1.585-1.464-2.568-3.576-2.568-5.88C16.859,114.269,17.843,112.157,19.428,110.741z M25.5,111.053
			c-1.632,0-3.145,0.648-4.2,1.632c-1.08,1.008-1.704,2.352-1.704,3.792c0,1.536,0.624,2.88,1.704,3.888
			c1.056,1.008,2.568,1.632,4.2,1.632s3.145-0.624,4.176-1.632c1.08-1.008,1.729-2.352,1.729-3.888c0-1.44-0.648-2.784-1.729-3.792
			C28.645,111.701,27.132,111.053,25.5,111.053z"/>
		<path fill="#FFFFFF" d="M32.82,105.99H18.659c-0.72,0-1.32-0.576-1.32-1.32v-0.024c0,0,0,0,0-0.048v-7.777
			c0-0.696,0.601-1.32,1.32-1.32c0.744,0,1.344,0.625,1.344,1.32v6.504h4.393v-5.592c0-0.72,0.624-1.32,1.32-1.32
			c0.744,0,1.344,0.6,1.344,1.32v5.592h5.761c0.721,0,1.32,0.6,1.32,1.344S33.541,105.99,32.82,105.99z"/>
		<path fill="#FFFFFF" d="M32.82,93.87H18.659c-0.72,0-1.32-0.576-1.32-1.32v-0.024c0,0,0,0,0-0.048v-7.777
			c0-0.696,0.601-1.32,1.32-1.32c0.744,0,1.344,0.625,1.344,1.32v6.504h4.393v-5.592c0-0.72,0.624-1.32,1.32-1.32
			c0.744,0,1.344,0.6,1.344,1.32v5.592h5.761c0.721,0,1.32,0.6,1.32,1.344S33.541,93.87,32.82,93.87z"/>
	</g>
</g>
</svg>
