<?xml version="1.0" encoding="utf-8"?>
<!-- Generator: Adobe Illustrator 17.0.1, SVG Export Plug-In . SVG Version: 6.00 Build 0)  -->
<!DOCTYPE svg PUBLIC "-//W3C//DTD SVG 1.1//EN" "http://www.w3.org/Graphics/SVG/1.1/DTD/svg11.dtd">
<svg version="1.1" id="Isolation_Mode" xmlns="http://www.w3.org/2000/svg" xmlns:xlink="http://www.w3.org/1999/xlink" x="0px"
	 y="0px" width="20.934px" height="19.761px" viewBox="0 0 20.934 19.761" enable-background="new 0 0 20.934 19.761"
	 xml:space="preserve">
<path fill-rule="evenodd" clip-rule="evenodd" fill="#BD7042" d="M9.421,19.752c0.287-1.744,0.307-3.192,0.166-4.136
	c-0.266-1.751-4.611-3.456-4.611-3.456l4.896,1.537l0.74-8.003c0,0,0.755,5.978,0.817,6.259c0.359-0.328,2.645-1.496,4.422-2.058
	c-3.054,1.666-3.592,2.876-3.748,3.55c-0.169,0.728-0.147,3.623,0.096,6.176C11.666,19.834,10.432,19.736,9.421,19.752L9.421,19.752
	z"/>
<path fill-rule="evenodd" clip-rule="evenodd" fill="#A4CC5A" d="M18.578,10.906c1.66,0.815,2.355,2.934,2.355,2.934
	s-1.995,0.797-3.655-0.018c-1.66-0.814-2.356-2.934-2.356-2.934S16.918,10.092,18.578,10.906L18.578,10.906z"/>
<path fill-rule="evenodd" clip-rule="evenodd" fill="#A4CC5A" d="M13.51,2.841c-0.39,0.887-1.532,1.367-1.532,1.367
	s-0.507-0.96-0.117-1.847c0.392-0.887,1.532-1.367,1.532-1.367S13.9,1.954,13.51,2.841L13.51,2.841z"/>
<path fill-rule="evenodd" clip-rule="evenodd" fill="#A4CC5A" d="M5.149,13.911c1.517-0.468,3.345,0.882,3.345,0.882
	s-0.632,2.109-2.148,2.577c-1.517,0.468-3.345-0.883-3.345-0.883S3.633,14.378,5.149,13.911L5.149,13.911z"/>
<path fill-rule="evenodd" clip-rule="evenodd" fill="#A4CC5A" d="M8.938,7.914c1.126,2.004,0.17,4.681,0.17,4.681
	s-2.784-0.573-3.913-2.577c-1.125-2.003-0.167-4.68-0.167-4.68S7.812,5.91,8.938,7.914L8.938,7.914z"/>
<path fill-rule="evenodd" clip-rule="evenodd" fill="#A4CC5A" d="M3.467,10.133c1.612,0.59,2.371,2.572,2.371,2.572
	s-1.858,1.028-3.471,0.439C0.756,12.556,0,10.572,0,10.572S1.855,9.544,3.467,10.133L3.467,10.133z"/>
<path fill-rule="evenodd" clip-rule="evenodd" fill="#A4CC5A" d="M16.149,7.092c-1.077,2.081-3.779,2.907-3.779,2.907
	s-0.957-2.55,0.119-4.632c1.074-2.081,3.779-2.906,3.779-2.906S17.225,5.011,16.149,7.092L16.149,7.092z"/>
<path fill-rule="evenodd" clip-rule="evenodd" fill="#A4CC5A" d="M10.934,2.877c0.368,1.779-0.994,3.565-0.994,3.565
	S7.979,5.345,7.611,3.565C7.243,1.786,8.606,0,8.606,0S10.565,1.098,10.934,2.877L10.934,2.877z"/>
<path fill-rule="evenodd" clip-rule="evenodd" fill="#A4CC5A" d="M15.533,14.11c0.371,1.14-0.595,2.437-0.595,2.437
	s-1.56-0.417-1.999-1.502c-0.469-1.154,0.476-2.662,0.476-2.662S15.139,12.895,15.533,14.11L15.533,14.11z"/>
<path fill-rule="evenodd" clip-rule="evenodd" fill="#A4CC5A" d="M17.06,7.291c0.983-0.773,2.572-0.627,2.572-0.627
	s-0.004,1.399-0.987,2.173c-0.983,0.773-2.572,0.627-2.572,0.627S16.076,8.065,17.06,7.291L17.06,7.291z"/>
<path fill-rule="evenodd" clip-rule="evenodd" fill="#A4CC5A" d="M4.998,4.696c-1.161-0.511-1.79-2.003-1.79-2.003
	s1.255-0.665,2.416-0.155c1.161,0.511,1.789,2.004,1.789,2.004S6.158,5.207,4.998,4.696L4.998,4.696z"/>
<path fill-rule="evenodd" clip-rule="evenodd" fill="#A4CC5A" d="M1.489,8.2C0.682,6.898,1.125,4.957,1.125,4.957
	s1.75,0.168,2.558,1.469c0.807,1.302,0.364,3.244,0.364,3.244S2.296,9.5,1.489,8.2L1.489,8.2z"/>
<path fill-rule="evenodd" clip-rule="evenodd" fill="#93B751" d="M16.268,2.461l-3.898,7.538c0,0,2.702-0.826,3.779-2.907
	C17.225,5.011,16.268,2.461,16.268,2.461z"/>
<path fill-rule="evenodd" clip-rule="evenodd" fill="#93B751" d="M10.934,2.878C10.565,1.098,8.606,0,8.606,0l1.334,6.443
	C9.939,6.443,11.302,4.656,10.934,2.878z"/>
<path fill-rule="evenodd" clip-rule="evenodd" fill="#93B751" d="M13.393,0.994l-1.415,3.214c0,0,1.143-0.48,1.532-1.367
	C13.9,1.954,13.393,0.994,13.393,0.994z"/>
<path fill-rule="evenodd" clip-rule="evenodd" fill="#93B751" d="M16.072,9.464c0,0,1.59,0.145,2.572-0.628
	c0.983-0.773,0.987-2.173,0.987-2.173L16.072,9.464z"/>
<path fill-rule="evenodd" clip-rule="evenodd" fill="#93B751" d="M18.578,10.906c-1.66-0.815-3.655-0.017-3.655-0.017l6.011,2.952
	C20.934,13.841,20.238,11.722,18.578,10.906z"/>
<path fill-rule="evenodd" clip-rule="evenodd" fill="#93B751" d="M15.533,14.11c-0.394-1.214-2.118-1.728-2.118-1.728l1.523,4.165
	C14.939,16.547,15.904,15.249,15.533,14.11z"/>
<path fill-rule="evenodd" clip-rule="evenodd" fill="#93B751" d="M8.939,7.914c-1.127-2.003-3.91-2.575-3.91-2.575l4.08,7.256
	C9.108,12.595,10.064,9.917,8.939,7.914z"/>
<path fill-rule="evenodd" clip-rule="evenodd" fill="#93B751" d="M3.208,2.693c0,0,0.629,1.493,1.79,2.003
	c1.16,0.511,2.415-0.154,2.415-0.154L3.208,2.693z"/>
<path fill-rule="evenodd" clip-rule="evenodd" fill="#93B751" d="M1.125,4.957c0,0-0.443,1.942,0.364,3.244
	c0.807,1.3,2.558,1.469,2.558,1.469L1.125,4.957z"/>
<path fill-rule="evenodd" clip-rule="evenodd" fill="#93B751" d="M0,10.572c0,0,0.756,1.983,2.367,2.572
	c1.612,0.589,3.471-0.439,3.471-0.439L0,10.572z"/>
<path fill-rule="evenodd" clip-rule="evenodd" fill="#93B751" d="M3.002,16.487c0,0,1.828,1.351,3.345,0.883
	c1.516-0.468,2.147-2.577,2.147-2.577L3.002,16.487z"/>
<path fill-rule="evenodd" clip-rule="evenodd" fill="#9E5A39" d="M11.602,14.19c0.039-2.389,2.473-3.732,4.25-4.293
	c-3.054,1.666-3.592,2.876-3.748,3.55c-0.169,0.728-0.147,3.623,0.096,6.176c-0.476,0.189-0.224,0.093-0.754,0.125
	C11.445,19.748,11.584,15.253,11.602,14.19z"/>
<path fill-rule="evenodd" clip-rule="evenodd" fill="#9E5A39" d="M10.805,12.365l-0.192-6.67c0,0,0.755,5.978,0.817,6.259
	C11.102,12.064,10.805,12.365,10.805,12.365z"/>
</svg>
