<?xml version="1.0" encoding="utf-8"?>
<!-- Generator: Adobe Illustrator 17.0.1, SVG Export Plug-In . SVG Version: 6.00 Build 0)  -->
<!DOCTYPE svg PUBLIC "-//W3C//DTD SVG 1.1//EN" "http://www.w3.org/Graphics/SVG/1.1/DTD/svg11.dtd">
<svg version="1.1" id="Layer_1" xmlns="http://www.w3.org/2000/svg" xmlns:xlink="http://www.w3.org/1999/xlink" x="0px" y="0px"
	 width="79.905px" height="124px" viewBox="0 0 79.905 124" enable-background="new 0 0 79.905 124" xml:space="preserve">
<g>
	<g>
		<g>
			<path fill="#A4CC5A" d="M1.383,33.247c0.323,8.04,10.74,7.565,17.16,9.095c15.159,3.632,14.538,13.885,14.538,13.885
				s-4.874,3.891-12.828,4.042C11.11,60.443-4.779,49.423,1.383,33.247z"/>
			<path fill="#A4CC5A" d="M76.22,40.467c0,0,6.859,13.965,1.862,21.631c-7.556,11.597-15.473,6.702-27.334,9.239
				c0,0-3.803-6.57-0.367-12.972C56.519,46.934,74.006,50.801,76.22,40.467z"/>
			<path fill="#A4CC5A" d="M29.539,29.016c8.604,0.056,12.086-5.933,10.485-13.987C38.911,8.933,37.301,5.087,40.275,0
				c0,0-9.456,1.169-13.695,8.834C19.499,21.61,29.539,29.016,29.539,29.016z"/>
			<path fill="#5C9149" d="M34.753,5.409c0,0-0.25,0.369-0.724,1.059c-0.496,0.674-1.097,1.743-1.841,3.118
				c-0.313,0.717-0.708,1.489-1.059,2.37c-0.302,0.89-0.721,1.826-0.977,2.896c-0.654,2.087-1.035,4.541-1.244,7.225
				c-0.21,2.694-0.038,5.628,0.378,8.694c0.136,0.763,0.212,1.548,0.387,2.32c0.166,0.779,0.332,1.567,0.506,2.356
				c0.414,1.57,0.817,3.183,1.389,4.776c0.495,1.62,1.16,3.195,1.802,4.818c0.7,1.578,1.407,3.164,2.124,4.773
				c1.369,3.179,2.627,6.503,3.714,9.852c2.162,6.716,3.711,13.626,4.185,20.136c0.231,3.252,0.188,6.396-0.172,9.305
				c-0.357,2.91-1.043,5.587-1.998,7.874c-0.953,2.293-2.186,4.182-3.461,5.68c-0.332,0.354-0.659,0.7-0.975,1.035
				c-0.313,0.335-0.67,0.604-0.98,0.885c-0.613,0.591-1.293,1.002-1.846,1.424c-1.195,0.763-2.165,1.304-2.87,1.604
				c-0.7,0.319-1.065,0.49-1.065,0.49l1.748,4.022c0,0,0.427-0.212,1.239-0.626c0.817-0.384,1.963-1.073,3.36-2.053
				c0.667-0.536,1.454-1.07,2.173-1.805c0.365-0.365,0.779-0.711,1.144-1.133c0.365-0.414,0.741-0.852,1.13-1.299
				c1.484-1.86,2.854-4.187,3.847-6.867c1.005-2.69,1.639-5.704,1.903-8.887c0.272-3.177,0.183-6.517-0.193-9.919
				c-0.762-6.801-2.633-13.826-5.097-20.584c-1.244-3.379-2.638-6.674-4.166-9.885c-0.779-1.57-1.544-3.123-2.298-4.666
				c-0.678-1.557-1.394-3.078-1.944-4.635c-0.615-1.537-1.067-3.096-1.535-4.618c-0.196-0.765-0.389-1.531-0.58-2.286
				c-0.202-0.749-0.305-1.507-0.463-2.248c-0.523-2.977-0.811-5.85-0.7-8.495c0.109-2.646,0.384-5.077,0.95-7.162
				c0.212-1.056,0.588-1.998,0.852-2.898c0.316-0.877,0.675-1.665,0.964-2.385c0.684-1.389,1.242-2.482,1.716-3.172
				C34.513,5.783,34.753,5.409,34.753,5.409z"/>
			<path fill="#5C9149" d="M15.891,49.77c0.331,0.165,0.737,0.365,1.194,0.599c0.466,0.222,0.975,0.507,1.564,0.731
				c0.584,0.24,1.22,0.505,1.892,0.78c0.652,0.294,1.393,0.509,2.135,0.765c0.756,0.234,1.51,0.541,2.32,0.73
				c0.795,0.208,1.613,0.417,2.416,0.629c0.825,0.183,1.65,0.334,2.459,0.498c0.803,0.174,1.615,0.28,2.385,0.387
				c0.781,0.109,1.528,0.245,2.246,0.309c0.716,0.069,1.386,0.139,2.009,0.203c1.056,0.112,1.966,0.157,2.677,0.2
				c0.174,0.735,0.381,1.459,0.602,2.179c-0.131-0.02-0.283-0.045-0.452-0.069c-0.738-0.12-1.77-0.234-3.047-0.479
				c-0.634-0.112-1.326-0.236-2.048-0.374c-0.722-0.12-1.478-0.321-2.263-0.492c-0.784-0.181-1.59-0.353-2.399-0.595
				c-0.812-0.234-1.642-0.459-2.456-0.709c-0.806-0.279-1.608-0.56-2.407-0.838c-0.799-0.259-1.545-0.632-2.287-0.93
				c-0.735-0.319-1.45-0.59-2.099-0.949c-0.648-0.333-1.264-0.645-1.834-0.941c-0.575-0.272-1.063-0.592-1.509-0.863
				c-0.44-0.27-0.824-0.501-1.141-0.696c-0.637-0.384-0.994-0.603-0.994-0.603S15.232,49.431,15.891,49.77z"/>
			<path fill="#5C9149" d="M44.577,79.856l-0.738-0.293c-0.158-1.197-0.272-2.388-0.272-3.595c0.327-0.429,0.7-0.874,1.13-1.33
				c0.689-0.735,1.514-1.484,2.434-2.249c0.937-0.757,1.958-1.537,3.077-2.287c1.111-0.775,2.309-1.521,3.537-2.299
				c2.477-1.529,5.138-3.078,7.741-4.709c2.598-1.625,5.146-3.33,7.324-5.169c1.1-0.909,2.099-1.872,2.979-2.836
				c0.428-0.495,0.855-0.965,1.214-1.47c0.389-0.475,0.702-0.979,1.005-1.462c0.33-0.468,0.528-0.981,0.784-1.431
				c0.234-0.466,0.389-0.935,0.575-1.371c0.289-0.878,0.501-1.672,0.582-2.338c0.142-0.651,0.125-1.194,0.158-1.552
				c0.019-0.357,0.025-0.551,0.025-0.551s0,0.195,0.008,0.551c-0.008,0.365,0.035,0.891-0.065,1.564
				c-0.044,0.685-0.212,1.496-0.452,2.416c-0.155,0.438-0.294,0.934-0.495,1.424c-0.239,0.479-0.417,1.018-0.724,1.514
				c-0.283,0.515-0.577,1.048-0.942,1.564c-0.332,0.539-0.741,1.05-1.157,1.583c-0.839,1.043-1.802,2.084-2.878,3.083
				c-2.113,2.019-4.601,3.903-7.131,5.697c-2.524,1.798-5.1,3.502-7.444,5.16c-1.165,0.83-2.29,1.634-3.314,2.438
				c-1.032,0.796-1.958,1.589-2.785,2.339c-0.806,0.757-1.52,1.48-2.075,2.154c-0.566,0.674-0.98,1.285-1.291,1.804
				c-0.144,0.256-0.28,0.489-0.389,0.689c-0.09,0.207-0.169,0.384-0.229,0.529C44.642,79.708,44.577,79.856,44.577,79.856z"/>
		</g>
		<path fill="#BD7042" d="M78.404,119.578c0-2.448-1.977-4.424-4.422-4.424c-0.276,0-0.545,0.033-0.807,0.081
			c-0.687-2.67-3.089-4.656-5.97-4.656c-0.485,0-0.952,0.069-1.405,0.174c0.002-0.082,0.024-0.159,0.024-0.242
			c0-4.721-3.82-8.546-8.544-8.546c-1.964,0-3.752,0.692-5.197,1.809c-0.641-3.058-3.348-5.357-6.603-5.357
			c-2.426,0-4.538,1.3-5.725,3.23c-1.348-0.554-2.821-0.87-4.368-0.87c-1.347,0-2.621,0.275-3.823,0.7
			c-1.032-2.235-3.279-3.796-5.91-3.796c-3.604,0-6.527,2.921-6.527,6.518c0,0.001,0,0.002,0,0.003
			c-0.348-0.046-0.692-0.106-1.053-0.106c-4.038,0-7.344,2.995-7.901,6.878c-0.076-0.003-0.148-0.023-0.225-0.023
			c-3.607,0-6.523,2.919-6.523,6.524c0,3.296,2.453,5.996,5.635,6.434V124h65.035v-0.012
			C76.487,123.926,78.404,121.981,78.404,119.578z"/>
		<path fill="#9B5C36" d="M74.096,124v-0.012c2.391-0.062,4.307-2.007,4.307-4.41c0-2.448-1.977-4.424-4.422-4.424
			c-0.276,0-0.545,0.033-0.807,0.081c-0.003-0.01-0.007-0.019-0.01-0.029c-7.013,2.667-17.695,2.624-37.007,2.946
			c-15.797,0.263-26.81-3.101-31.256-4.763c-0.909,1.121-1.475,2.531-1.475,4.087c0,3.296,2.453,5.996,5.635,6.434V124H74.096z"/>
	</g>
</g>
</svg>
