<?xml version="1.0" encoding="utf-8"?>
<!-- Generator: Adobe Illustrator 16.0.4, SVG Export Plug-In . SVG Version: 6.00 Build 0)  -->
<!DOCTYPE svg PUBLIC "-//W3C//DTD SVG 1.1//EN" "http://www.w3.org/Graphics/SVG/1.1/DTD/svg11.dtd">
<svg version="1.1" id="Layer_1" xmlns="http://www.w3.org/2000/svg" xmlns:xlink="http://www.w3.org/1999/xlink" x="0px" y="0px"
	 width="163px" height="116px" viewBox="-73.5 -50 163 116" enable-background="new -73.5 -50 163 116" xml:space="preserve">
<path fill="#ADBEBA" d="M49.598-37h-83.189c-6.025,0-10.906,4.881-10.906,10.906v68.188c0,6.024,4.881,10.906,10.906,10.906h83.182
	c6.024,0,10.906-4.882,10.906-10.906v-68.181C60.504-32.112,55.622-37,49.598-37z M50.001,35.355h-84.874v-62.646h84.874V35.355z
	 M-17.804-18.456c5.073,0,9.185,4.149,9.185,9.266c0,5.117-4.112,9.269-9.185,9.269s-9.178-4.152-9.178-9.269
	C-26.982-14.307-22.87-18.456-17.804-18.456z M-24.373,30.064L-2.497,6.241l10.5,10.583L23.75,0.059l23.621,29.999h-71.744V30.064z"
	/>
</svg>
