<?xml version="1.0" encoding="utf-8"?>
<!-- Generator: Adobe Illustrator 16.0.4, SVG Export Plug-In . SVG Version: 6.00 Build 0)  -->
<!DOCTYPE svg PUBLIC "-//W3C//DTD SVG 1.1//EN" "http://www.w3.org/Graphics/SVG/1.1/DTD/svg11.dtd">
<svg version="1.1"
	 id="svg3070" xmlns:dc="http://purl.org/dc/elements/1.1/" xmlns:cc="http://creativecommons.org/ns#" xmlns:rdf="http://www.w3.org/1999/02/22-rdf-syntax-ns#" xmlns:svg="http://www.w3.org/2000/svg" xmlns:sodipodi="http://sodipodi.sourceforge.net/DTD/sodipodi-0.dtd" xmlns:inkscape="http://www.inkscape.org/namespaces/inkscape" sodipodi:docname="New document 4" inkscape:version="0.48.0 r9654"
	 xmlns="http://www.w3.org/2000/svg" xmlns:xlink="http://www.w3.org/1999/xlink" x="0px" y="0px" width="183.11px" height="50px"
	 viewBox="53.945 14.73 183.11 50" enable-background="new 53.945 14.73 183.11 50" xml:space="preserve">
<sodipodi:namedview  fit-margin-left="0" fit-margin-top="0" showgrid="false" inkscape:cy="33.703355" inkscape:cx="142.93233" inkscape:zoom="2.8" borderopacity="1.0" bordercolor="#666666" pagecolor="#ffffff" id="base" inkscape:window-maximized="1" inkscape:window-y="-8" inkscape:window-x="-8" inkscape:window-height="750" inkscape:window-width="1280" fit-margin-bottom="0" inkscape:current-layer="layer1" inkscape:document-units="px" fit-margin-right="0" inkscape:pageshadow="2" inkscape:pageopacity="0.0">
	</sodipodi:namedview>
<g id="layer1" transform="translate(-200.55198,-393.96227)" inkscape:label="Layer 1" inkscape:groupmode="layer">
	<g id="g3019" transform="matrix(1.018827,0,0,-1.018827,170.5996,498.03288)">
		<path id="path14" inkscape:connector-curvature="0" fill="#006699" d="M211.936,81.91c0,1.748,1.453,3.165,3.246,3.165h37.427
			c1.791,0,3.245-1.418,3.245-3.165V44.046c0-1.748-1.453-3.166-3.245-3.166h-37.427c-1.792,0-3.246,1.418-3.246,3.166V81.91z"/>
		<path id="path16" inkscape:connector-curvature="0" d="M88.995,48.055h18.329v6.018H95.628V77.03h-6.633V48.055z"/>
		<path id="path18" inkscape:connector-curvature="0" d="M116.603,48.055v19.956h-6.633V48.055H116.603z M113.286,70.737
			c2.313,0,3.753,1.532,3.753,3.449c-0.043,1.957-1.44,3.447-3.709,3.447c-2.269,0-3.753-1.49-3.753-3.447
			c0-1.917,1.44-3.449,3.665-3.449H113.286L113.286,70.737z"/>
		<path id="path20" inkscape:connector-curvature="0" d="M119.683,48.055h6.633V59.2c0,0.596,0.043,1.193,0.219,1.619
			c0.479,1.191,1.571,2.426,3.403,2.426c2.401,0,3.361-1.831,3.361-4.513V48.055h6.632v11.444c0,6.129-3.273,8.982-7.637,8.982
			c-3.578,0-5.149-2-6.022-3.362h0.045v2.893h-6.633C119.769,66.139,119.683,48.055,119.683,48.055L119.683,48.055z"/>
		<path id="path22" inkscape:connector-curvature="0" d="M149.289,77.03h-6.634V48.055h6.634v6.47l1.658,2.088l5.193-8.558h8.16
			l-8.727,12.388l7.637,8.429h-7.986c0,0-5.455-7.54-5.935-8.434V77.03L149.289,77.03z"/>
		<path id="path24" inkscape:connector-curvature="0" d="M182.039,56.38c0.087,0.513,0.22,1.496,0.22,2.607
			c0,5.159-2.62,10.396-9.514,10.396c-7.375,0-10.779-5.833-10.779-11.124c0-6.543,4.146-10.629,11.391-10.629
			c2.879,0,5.541,0.425,7.724,1.319l-0.873,4.38c-1.789-0.593-3.621-0.889-5.891-0.889c-3.098,0-5.803,1.27-6.022,3.983
			L182.039,56.38L182.039,56.38z M168.25,60.868c0.174,1.703,1.309,4.215,4.146,4.215c3.01,0,3.709-2.682,3.709-4.215H168.25z"/>
		<path id="path26" inkscape:connector-curvature="0" d="M198.631,77.03V67h-0.087c-0.959,1.404-2.968,2.34-5.628,2.34
			c-5.106,0-9.601-4.087-9.557-11.067c0-6.472,4.058-10.686,9.12-10.686c2.749,0,5.368,1.192,6.676,3.492h0.131l0.263-3.024h5.891
			c-0.087,1.405-0.175,3.832-0.175,6.215V77.03H198.631L198.631,77.03z M198.631,57.293c0-0.51-0.043-1.022-0.131-1.447
			c-0.391-1.831-1.963-3.108-3.883-3.108c-2.749,0-4.539,2.213-4.539,5.703c0,3.278,1.528,5.918,4.583,5.918
			c2.05,0,3.491-1.405,3.883-3.149c0.087-0.384,0.087-0.81,0.087-1.193V57.293L198.631,57.293z"/>
		<path id="path28" inkscape:connector-curvature="0" fill="#FFFFFF" d="M225.248,48.079v19.957h-6.633V48.079H225.248z
			 M221.931,70.761c2.314,0,3.754,1.532,3.754,3.447c-0.043,1.959-1.44,3.448-3.709,3.448c-2.269,0-3.753-1.489-3.753-3.448
			c0-1.915,1.44-3.447,3.666-3.447H221.931L221.931,70.761z"/>
		<path id="path30" inkscape:connector-curvature="0" fill="#FFFFFF" d="M228.919,48.079h6.633v11.145
			c0,0.596,0.043,1.192,0.219,1.619c0.479,1.192,1.571,2.426,3.404,2.426c2.4,0,3.361-1.831,3.361-4.513V48.079h6.633v11.444
			c0,6.129-3.272,8.982-7.637,8.982c-3.578,0-5.15-2-6.022-3.362h0.043v2.894h-6.633C229.006,66.163,228.919,48.079,228.919,48.079
			L228.919,48.079z"/>
	</g>
</g>
</svg>
