<?xml version="1.0" encoding="UTF-8" standalone="no"?>
<svg width="238px" height="94px" viewBox="0 0 238 94" version="1.1" xmlns="http://www.w3.org/2000/svg" xmlns:xlink="http://www.w3.org/1999/xlink">
    <!-- Generator: Sketch 3.6.1 (26313) - http://www.bohemiancoding.com/sketch -->
    <title>search_icon-en</title>
    <desc>Created with Sketch.</desc>
    <defs>
        <path id="path-1" d="M0,0.136270833 L235.943179,0.136270833 L235.943179,93 L0,93 L23.75,81.4707031"></path>
    </defs>
    <g id="Page-1" stroke="none" stroke-width="1" fill="none" fill-rule="evenodd">
        <g id="METAFORE-START-desktop" transform="translate(-1201.000000, -1185.000000)">
            <g id="search_icon-en" transform="translate(1202.000000, 1185.000000)">
                <g id="Group-10">
                    <path d="M56.8188886,80.749349 L56.8188886,80.749349 C57.3160706,80.4997344 57.9214057,80.6960677 58.1774222,81.1898073 L58.8750911,82.535724 C59.2092361,83.1805885 60.0922183,83.2771406 60.5574386,82.7194635 L64.3776684,78.1440573 C64.7482949,77.7003698 65.4140022,77.6545156 65.8417724,78.0436302 L65.9915726,78.179901 C66.41902,78.5686927 66.4370993,79.2355156 66.0306369,79.6465885 L59.9876164,85.763599 C59.5181992,86.2386094 58.7259365,86.139474 58.3879174,85.5633906 L56.3985439,82.1724427 C56.1012033,81.6657865 56.293942,81.0131719 56.8188886,80.749349" id="Fill-1" fill="#4CB05B"></path>
                    <path d="M122.766328,31.4015146 C116.882793,37.9147437 106.700249,37.9150667 100.816391,31.4015146 C95.7787114,25.8247438 95.7783885,17.1986708 100.816391,11.6219 C106.699926,5.10834792 116.882471,5.10834792 122.766328,11.6215771 C127.804331,17.1986708 127.804008,25.8244208 122.766328,31.4015146 M97.8914118,8.86806667 C91.3660602,16.0261604 91.4083529,27.1438583 97.9837456,34.2560979 C104.241135,41.0244313 114.194782,42.106525 121.640566,37.5130354 L136.162476,52.03815 C137.284687,53.1606083 139.104566,53.1606083 140.226777,52.03815 L142.076681,50.1878375 C143.198892,49.0653792 143.198892,47.2450979 142.076681,46.1223167 L127.60901,31.651775 C132.279937,24.3771083 131.438602,14.5872438 125.076287,8.22384792 C117.530421,0.67599375 105.162859,0.890733333 97.8914118,8.86806667" id="Fill-3" fill="#51BBB4"></path>
                    <g id="Group-7">
                        <mask id="mask-2" fill="white">
                            <use xlink:href="#path-1"></use>
                        </mask>
                        <g id="Clip-6"></g>
                        <path d="M122.766328,28.8181813 C116.882793,35.3314104 106.700249,35.3317333 100.816391,28.8181813 C95.7787114,23.2414104 95.7783885,14.6153375 100.816391,9.03856667 C106.699926,2.52501458 116.882471,2.52501458 122.766328,9.03824375 C127.804331,14.6153375 127.804008,23.2410875 122.766328,28.8181813 M97.8914118,6.28473333 C91.3660602,13.4428271 91.4083529,24.560525 97.9837456,31.6727646 C104.241135,38.4410979 114.194782,39.5231917 121.640566,34.9297021 L136.162476,49.4548167 C137.284687,50.577275 139.104566,50.577275 140.226777,49.4548167 L142.076681,47.6045042 C143.198892,46.4820458 143.198892,44.6617646 142.076681,43.5389833 L127.60901,29.0684417 C132.279937,21.793775 131.438602,12.0039104 125.076287,5.64051458 C117.530421,-1.90733958 105.162859,-1.6926 97.8914118,6.28473333" id="Fill-5" fill="#6A8898" mask="url(#mask-2)"></path>
                    </g>
                    <path d="M66.3553871,71.125851 L10.102156,71.125851 C4.61216963,71.125851 0.161422709,75.5775802 0.161422709,81.0687781 L0.161422709,82.8955177 C0.161422709,88.3870385 4.61216963,92.8384448 10.102156,92.8384448 L66.3553871,92.8384448 C71.8453735,92.8384448 76.2961204,88.3870385 76.2961204,82.8955177 L76.2961204,81.0687781 C76.2961204,75.5775802 71.8453735,71.125851 66.3553871,71.125851 L66.3553871,71.125851 Z" id="Stroke-8" stroke="#6A8898"></path>
                </g>
                <g id="Group-15" transform="translate(79.742818, 71.041667)">
                    <path d="M56.926493,9.70768229 L56.926493,9.70768229 C57.423675,9.45806771 58.0290101,9.65440104 58.2850265,10.1481406 L58.9826955,11.4940573 C59.3168405,12.1389219 60.1998227,12.235474 60.665043,11.6777969 L64.4852728,7.10239062 C64.8558993,6.65870312 65.5216066,6.61284896 65.9493767,7.00196354 L66.099177,7.13823437 C66.5266244,7.52702604 66.5447037,8.19384896 66.1382413,8.60492187 L60.0952208,14.7219323 C59.6258036,15.1969427 58.8335409,15.0978073 58.4955218,14.521724 L56.5061483,11.130776 C56.2088077,10.6241198 56.4015464,9.97150521 56.926493,9.70768229" id="Fill-11" fill="#4CB05B"></path>
                    <path d="M66.4629915,0.084184375 L10.2097603,0.084184375 C4.71977401,0.084184375 0.269027086,4.53591354 0.269027086,10.0271115 L0.269027086,11.853851 C0.269027086,17.3453719 4.71977401,21.7967781 10.2097603,21.7967781 L66.4629915,21.7967781 C71.9529778,21.7967781 76.4037248,17.3453719 76.4037248,11.853851 L76.4037248,10.0271115 C76.4037248,4.53591354 71.9529778,0.084184375 66.4629915,0.084184375 L66.4629915,0.084184375 Z" id="Stroke-13" stroke="#6A8898"></path>
                </g>
                <path d="M225.841023,71.125851 L169.587792,71.125851 C164.097806,71.125851 159.647059,75.5775802 159.647059,81.0687781 L159.647059,82.8955177 C159.647059,88.3870385 164.097806,92.8384448 169.587792,92.8384448 L225.841023,92.8384448 C231.33101,92.8384448 235.781756,88.3870385 235.781756,82.8955177 L235.781756,81.0687781 C235.781756,75.5775802 231.33101,71.125851 225.841023,71.125851 L225.841023,71.125851 Z" id="Stroke-16" stroke="#6A8898"></path>
                <g id="Group-22" transform="translate(217.920657, 77.500000)" stroke="#6A8898">
                    <path d="M8.7982156,0.203598958 L0.242812038,8.76089062" id="Stroke-18"></path>
                    <path d="M8.7982156,8.76079375 L0.242812038,0.203502083" id="Stroke-20"></path>
                </g>
                <path d="M13.1088867,86.1826172 C14.7578125,86.1826172 15.9824219,85.2641602 16.2402344,83.8408203 L15.2573242,83.8408203 C15.0102539,84.737793 14.1884766,85.2910156 13.1088867,85.2910156 C11.6157227,85.2910156 10.6811523,84.0717773 10.6811523,82.1274414 C10.6811523,80.1831055 11.6157227,78.9584961 13.1035156,78.9584961 C14.1723633,78.9584961 14.9995117,79.5869141 15.2573242,80.5859375 L16.2402344,80.5859375 C16.0092773,79.0927734 14.7363281,78.0668945 13.1035156,78.0668945 C10.9980469,78.0668945 9.6875,79.6245117 9.6875,82.1274414 C9.6875,84.625 11.003418,86.1826172 13.1088867,86.1826172 L13.1088867,86.1826172 Z M17.9697266,86 L18.8935547,86 L18.8935547,77.9111328 L17.9697266,77.9111328 L17.9697266,86 Z M20.8808594,86 L21.8046875,86 L21.8046875,80.2099609 L20.8808594,80.2099609 L20.8808594,86 Z M21.3427734,79.0336914 C21.6972656,79.0336914 21.9873047,78.7436523 21.9873047,78.3891602 C21.9873047,78.034668 21.6972656,77.7446289 21.3427734,77.7446289 C20.9882812,77.7446289 20.6982422,78.034668 20.6982422,78.3891602 C20.6982422,78.7436523 20.9882812,79.0336914 21.3427734,79.0336914 L21.3427734,79.0336914 Z M26.0478516,80.9243164 C26.9663086,80.9243164 27.5786133,81.6010742 27.6000977,82.6269531 L24.409668,82.6269531 C24.4794922,81.6010742 25.1240234,80.9243164 26.0478516,80.9243164 L26.0478516,80.9243164 Z M27.5732422,84.5014648 C27.331543,85.0117188 26.8266602,85.2856445 26.0800781,85.2856445 C25.097168,85.2856445 24.4580078,84.5605469 24.409668,83.4165039 L24.409668,83.3735352 L28.5722656,83.3735352 L28.5722656,83.019043 C28.5722656,81.2197266 27.621582,80.1079102 26.0585938,80.1079102 C24.46875,80.1079102 23.4482422,81.2895508 23.4482422,83.1103516 C23.4482422,84.9418945 24.4526367,86.1020508 26.0585938,86.1020508 C27.3261719,86.1020508 28.2177734,85.4951172 28.4970703,84.5014648 L27.5732422,84.5014648 Z M30.1943359,86 L31.1181641,86 L31.1181641,82.5732422 C31.1181641,81.5581055 31.7304688,80.9404297 32.7456055,80.9404297 C33.6694336,80.9404297 34.1098633,81.4345703 34.1098633,82.4765625 L34.1098633,86 L35.0336914,86 L35.0336914,82.2509766 C35.0336914,80.8759766 34.3085938,80.1079102 33.0087891,80.1079102 C32.1225586,80.1079102 31.4511719,80.4838867 31.1611328,81.1230469 L31.0751953,81.1230469 L31.0751953,80.2099609 L30.1943359,80.2099609 L30.1943359,86 Z M37.2788086,78.7651367 L37.2788086,80.2099609 L36.3066406,80.2099609 L36.3066406,80.9833984 L37.2788086,80.9833984 L37.2788086,84.4960938 C37.2788086,85.6025391 37.7568359,86.0429688 38.9492188,86.0429688 C39.1318359,86.0429688 39.2983398,86.0214844 39.480957,85.9892578 L39.480957,85.2104492 C39.309082,85.2265625 39.2285156,85.2319336 39.0620117,85.2319336 C38.4604492,85.2319336 38.2026367,84.9418945 38.2026367,84.2597656 L38.2026367,80.9833984 L39.5454102,80.9833984 L39.5454102,80.2099609 L38.2026367,80.2099609 L38.2026367,78.7651367 L37.2788086,78.7651367 Z" id="Client" fill="#6A8898"></path>
                <path d="M90.9550781,86 L90.9550781,82.6430664 L94.387207,82.6430664 L94.387207,81.7836914 L90.9550781,81.7836914 L90.9550781,79.1196289 L94.6933594,79.1196289 L94.6933594,78.2495117 L89.9882812,78.2495117 L89.9882812,86 L90.9550781,86 Z M101.12793,80.2099609 L100.204102,80.2099609 L100.204102,83.6367188 C100.204102,84.6518555 99.5917969,85.2587891 98.5712891,85.2587891 C97.6474609,85.2587891 97.2070312,84.7753906 97.2070312,83.7333984 L97.2070312,80.2099609 L96.2832031,80.2099609 L96.2832031,83.9589844 C96.2832031,85.3286133 97.0136719,86.1020508 98.3134766,86.1020508 C99.199707,86.1020508 99.8710938,85.7368164 100.161133,85.0922852 L100.24707,85.0922852 L100.24707,86 L101.12793,86 L101.12793,80.2099609 Z M103.040039,86 L103.963867,86 L103.963867,82.5732422 C103.963867,81.5581055 104.576172,80.9404297 105.591309,80.9404297 C106.515137,80.9404297 106.955566,81.4345703 106.955566,82.4765625 L106.955566,86 L107.879395,86 L107.879395,82.2509766 C107.879395,80.8759766 107.154297,80.1079102 105.854492,80.1079102 C104.968262,80.1079102 104.296875,80.4838867 104.006836,81.1230469 L103.920898,81.1230469 L103.920898,80.2099609 L103.040039,80.2099609 L103.040039,86 Z M111.880859,86.1020508 C112.681152,86.1020508 113.368652,85.7207031 113.733887,85.0761719 L113.819824,85.0761719 L113.819824,86 L114.700684,86 L114.700684,77.9111328 L113.776855,77.9111328 L113.776855,81.1230469 L113.696289,81.1230469 C113.368652,80.4892578 112.686523,80.1079102 111.880859,80.1079102 C110.40918,80.1079102 109.447754,81.2895508 109.447754,83.1049805 C109.447754,84.9257812 110.398438,86.1020508 111.880859,86.1020508 L111.880859,86.1020508 Z M112.095703,80.9404297 C113.143066,80.9404297 113.79834,81.7783203 113.79834,83.1049805 C113.79834,84.4423828 113.148438,85.2695312 112.095703,85.2695312 C111.037598,85.2695312 110.403809,84.4584961 110.403809,83.1049805 C110.403809,81.7568359 111.042969,80.9404297 112.095703,80.9404297 L112.095703,80.9404297 Z" id="Fund" fill="#6A8898"></path>
                <path d="M168.617676,83.9750977 C168.719727,85.3125 169.853027,86.1826172 171.496582,86.1826172 C173.269043,86.1826172 174.391602,85.2749023 174.391602,83.8515625 C174.391602,82.7128906 173.74707,82.0898438 172.141113,81.6870117 L171.330078,81.472168 C170.26123,81.1982422 169.836914,80.8491211 169.836914,80.2421875 C169.836914,79.4580078 170.519043,78.9423828 171.550293,78.9423828 C172.51709,78.9423828 173.172363,79.4150391 173.306641,80.2099609 L174.278809,80.2099609 C174.198242,78.9584961 173.081055,78.0668945 171.58252,78.0668945 C169.944336,78.0668945 168.843262,78.9584961 168.843262,80.2744141 C168.843262,81.3754883 169.450195,82.0092773 170.852051,82.3637695 L171.845703,82.621582 C172.914551,82.8901367 173.397949,83.309082 173.397949,83.9697266 C173.397949,84.737793 172.629883,85.3017578 171.587891,85.3017578 C170.486816,85.3017578 169.713379,84.7861328 169.595215,83.9750977 L168.617676,83.9750977 Z M176.437988,78.7651367 L176.437988,80.2099609 L175.46582,80.2099609 L175.46582,80.9833984 L176.437988,80.9833984 L176.437988,84.4960938 C176.437988,85.6025391 176.916016,86.0429688 178.108398,86.0429688 C178.291016,86.0429688 178.45752,86.0214844 178.640137,85.9892578 L178.640137,85.2104492 C178.468262,85.2265625 178.387695,85.2319336 178.221191,85.2319336 C177.619629,85.2319336 177.361816,84.9418945 177.361816,84.2597656 L177.361816,80.9833984 L178.70459,80.9833984 L178.70459,80.2099609 L177.361816,80.2099609 L177.361816,78.7651367 L176.437988,78.7651367 Z M182.518066,85.2695312 C181.422363,85.2695312 180.804688,84.4746094 180.804688,83.1049805 C180.804688,81.7299805 181.422363,80.9404297 182.518066,80.9404297 C183.61377,80.9404297 184.231445,81.7299805 184.231445,83.1049805 C184.231445,84.4746094 183.61377,85.2695312 182.518066,85.2695312 L182.518066,85.2695312 Z M182.518066,86.1020508 C184.166992,86.1020508 185.1875,84.9633789 185.1875,83.1049805 C185.1875,81.2412109 184.166992,80.1079102 182.518066,80.1079102 C180.869141,80.1079102 179.848633,81.2412109 179.848633,83.1049805 C179.848633,84.9633789 180.869141,86.1020508 182.518066,86.1020508 L182.518066,86.1020508 Z M191.600586,81.9824219 C191.439453,80.9511719 190.580078,80.1079102 189.172852,80.1079102 C187.550781,80.1079102 186.519531,81.2788086 186.519531,83.0834961 C186.519531,84.9257812 187.556152,86.1020508 189.178223,86.1020508 C190.569336,86.1020508 191.434082,85.3178711 191.600586,84.2543945 L190.666016,84.2543945 C190.494141,84.909668 189.95166,85.2695312 189.172852,85.2695312 C188.141602,85.2695312 187.475586,84.4208984 187.475586,83.0834961 C187.475586,81.7729492 188.130859,80.9404297 189.172852,80.9404297 C190.005371,80.9404297 190.515625,81.4077148 190.666016,81.9824219 L191.600586,81.9824219 Z M194.200195,82.7397461 L194.114258,82.7397461 L194.114258,77.9111328 L193.19043,77.9111328 L193.19043,86 L194.114258,86 L194.114258,83.8032227 L194.66748,83.2875977 L196.837402,86 L198.013672,86 L195.35498,82.6914062 L197.847168,80.2099609 L196.713867,80.2099609 L194.200195,82.7397461 Z" id="Stock" fill="#6A8898"></path>
            </g>
        </g>
    </g>
</svg>