<?xml version="1.0" encoding="UTF-8" standalone="no"?>
<svg width="32px" height="24px" viewBox="0 0 32 24" version="1.1" xmlns="http://www.w3.org/2000/svg" xmlns:xlink="http://www.w3.org/1999/xlink">
    <!-- Generator: Sketch 3.6.1 (26313) - http://www.bohemiancoding.com/sketch -->
    <title>flag 1</title>
    <desc>Created with Sketch.</desc>
    <defs></defs>
    <g id="Page-1" stroke="none" stroke-width="1" fill="none" fill-rule="evenodd">
        <g id="Yugglr-Desktop" transform="translate(-1369.000000, -38.000000)">
            <g id="flag-1" transform="translate(1369.000000, 38.000000)">
                <path d="M0,23.7319256 L31.8276491,23.7319256 L31.8276491,-0.00016744186 L0,-0.00016744186 L0,23.7319256 Z" id="Fill-1" fill="#24224B"></path>
                <path d="M27.0533053,5.58139535e-05 L-0.000168421053,23.7321488 L4.77400702,23.7321488 L31.8274807,5.58139535e-05 L27.0533053,5.58139535e-05 Z" id="Fill-2" fill="#FEFEFE"></path>
                <path d="M13.1353263,14.2389767 L2.38669474,23.731814 L3.72283509,23.731814 L14.4714667,14.2389767 L13.1353263,14.2389767 Z" id="Fill-3" fill="#A62538"></path>
                <path d="M27.9910737,5.58139535e-05 L17.1071439,9.49289302 L18.4432842,9.49289302 L29.3266526,5.58139535e-05 L27.9910737,5.58139535e-05 Z" id="Fill-4" fill="#A62538"></path>
                <path d="M0,5.58139535e-05 L27.0534737,23.7321488 L31.8276491,23.7321488 L4.77417544,5.58139535e-05 L0,5.58139535e-05 Z" id="Fill-5" fill="#FEFEFE"></path>
                <path d="M18.7861895,14.2389767 L29.5348211,23.731814 L30.8704,23.731814 L20.1223298,14.2389767 L18.7861895,14.2389767 Z" id="Fill-6" fill="#A62538"></path>
                <path d="M0.846315789,5.58139535e-05 L11.7296842,9.49289302 L13.0658246,9.49289302 L2.18245614,5.58139535e-05 L0.846315789,5.58139535e-05 Z" id="Fill-7" fill="#A62538"></path>
                <path d="M13.5270175,23.7319256 L18.3006316,23.7319256 L18.3006316,-0.00016744186 L13.5270175,-0.00016744186 L13.5270175,23.7319256 Z" id="Fill-8" fill="#FEFEFE"></path>
                <path d="M0,14.2390884 L31.8276491,14.2390884 L31.8276491,9.49322791 L0,9.49322791 L0,14.2390884 Z" id="Fill-9" fill="#FEFEFE"></path>
                <path d="M14.7205614,23.7319256 L17.1076491,23.7319256 L17.1076491,-0.00016744186 L14.7205614,-0.00016744186 L14.7205614,23.7319256 Z" id="Fill-10" fill="#A62538"></path>
                <path d="M0,13.0524837 L31.8276491,13.0524837 L31.8276491,10.6792744 L0,10.6792744 L0,13.0524837 Z" id="Fill-11" fill="#A62538"></path>
            </g>
        </g>
    </g>
</svg>