<?xml version="1.0" encoding="UTF-8" standalone="no"?>
<svg width="80px" height="58px" viewBox="0 0 80 58" version="1.1" xmlns="http://www.w3.org/2000/svg" xmlns:xlink="http://www.w3.org/1999/xlink">
    <!-- Generator: Sketch 3.6.1 (26313) - http://www.bohemiancoding.com/sketch -->
    <title>Group 3</title>
    <desc>Created with Sketch.</desc>
    <defs></defs>
    <g id="Page-1" stroke="none" stroke-width="1" fill="none" fill-rule="evenodd">
        <g id="Yugglr-FB-Desktop" transform="translate(-255.000000, -59.000000)">
            <g id="Group-3" transform="translate(255.000000, 59.000000)">
                <g id="Group-2" transform="translate(12.000000, 0.000000)">
                    <path d="M22.7989873,18.505903 C22.1943469,18.5374468 21.6009467,18.4479032 21.0122122,18.3353632 C20.7040598,18.2765493 20.5789325,18.1546479 20.7509295,17.8056315 C21.091106,17.1157388 21.0639597,17.0915213 21.8384764,17.2321455 C24.9327256,17.7936245 28.207455,15.7638341 29.0945862,12.8520393 C30.1501091,9.3873129 27.9256005,5.91688825 24.4290353,5.04200667 C24.0468669,4.94635784 23.9647919,5.15088354 23.8570551,5.38736002 C22.8411913,7.61740244 21.8274482,9.8486659 20.8113723,12.0787083 C19.632843,14.6646865 18.4545257,17.2508682 17.2715427,19.8350148 C17.102939,20.2035681 16.2138991,20.450627 15.8752071,20.2367399 C15.6943028,20.1223683 15.819218,20.0018915 15.8713897,19.8852813 C16.330119,18.8602107 16.7756994,17.8296454 17.2583938,16.8151572 C17.3867022,16.5455089 17.3385601,16.3843305 17.1421739,16.1924223 C13.5264196,12.6589101 14.5704901,6.40490082 19.6500215,4.2845493 C19.7628481,4.23753892 19.8760989,4.18645837 19.9946517,4.15817073 C20.1076904,4.13110415 20.2425734,4.05316052 20.3401302,4.16916017 C20.4287797,4.2745774 20.3672765,4.39790335 20.3170135,4.50494864 C20.0514892,5.06988729 19.7800266,5.57234894 19.172417,5.95128113 C16.0340551,7.90801209 15.3189209,12.0231506 17.5733328,14.8075492 C17.9158422,15.2306427 17.9917669,15.2241304 18.2174201,14.7283846 C20.3460685,10.050546 22.4730202,5.37209691 24.5999719,0.693647817 C24.8811901,0.075186519 25.2896565,-0.110819939 25.9661921,0.0607374396 C26.3466639,0.157200307 26.1292817,0.38696102 26.0643852,0.536132501 C25.6504048,1.48773666 25.2309103,2.43771275 24.78024,3.37364678 C24.6122725,3.72225625 24.6358134,3.8579962 25.058065,3.97318182 C28.3590923,4.87451946 30.6313189,7.78244755 30.6378934,11.074192 C30.6444679,14.2932841 28.4755243,17.1771983 25.3002605,18.1532234 C24.4896902,18.4023174 23.6560032,18.5407029 22.7989873,18.505903" id="Fill-1" fill="#BD0FE1"></path>
                    <ellipse id="Oval-33" stroke="#BD0FE1" cx="5.00413065" cy="17.8190476" rx="5.00413065" ry="4.81904762"></ellipse>
                    <ellipse id="Oval-33-Copy" stroke="#BD0FE1" cx="37.0658562" cy="21.9154762" rx="4.06585615" ry="3.91547619"></ellipse>
                </g>
                <text id="FB" font-family=".AppleSystemUIFont" font-size="9" font-weight="normal" line-spacing="28" fill="#BD0FE1">
                    <tspan x="69" y="36">FB</tspan>
                </text>
                <text id="yugglr" font-family=".AppleSystemUIFont" font-size="26" font-weight="normal" line-spacing="28" letter-spacing="-1.75" fill="#BD0FE1">
                    <tspan x="0" y="53">yugglr</tspan>
                </text>
            </g>
        </g>
    </g>
</svg>