<?xml version="1.0" encoding="UTF-8" standalone="no"?>
<svg width="135px" height="135px" viewBox="0 0 135 135" version="1.1" xmlns="http://www.w3.org/2000/svg" xmlns:xlink="http://www.w3.org/1999/xlink">
    <!-- Generator: Sketch 3.6.1 (26313) - http://www.bohemiancoding.com/sketch -->
    <title>yugglr-logo</title>
    <desc>Created with Sketch.</desc>
    <defs></defs>
    <g id="Page-1" stroke="none" stroke-width="1" fill="none" fill-rule="evenodd">
        <g id="Yugglr-Desktop" transform="translate(-213.000000, -33.000000)">
            <g id="yugglr-logo" transform="translate(213.000000, 33.000000)">
                <circle id="Oval-1" fill="#F8E81C" cx="67.5" cy="67.5" r="67.5"></circle>
                <g id="Yugglr-logo" transform="translate(24.000000, 34.000000)" fill="#4A4A4A">
                    <ellipse id="Oval-33" cx="21.3700561" cy="18.6610229" rx="6.288975" ry="6.06843034"></ellipse>
                    <ellipse id="Oval-33-Copy" cx="41.472973" cy="8.48878963" rx="8.7972973" ry="8.48878963"></ellipse>
                    <path d="M10.979027,37.9062603 L8.16891892,50.126963 L5.35881081,37.9062603 L0,37.9062603 L5.09740541,54.3748008 C5.19543243,54.7342332 5.32613514,55.159017 5.32613514,55.5838008 C5.32613514,56.7928008 4.05178378,56.7928008 3.23489189,56.8254765 L1.47040541,56.8254765 L1.47040541,60.8119089 L5.09740541,60.8119089 C6.40443243,60.7792332 7.54808108,60.7138819 8.72440541,59.4395305 C9.57397297,58.4919359 9.93340541,57.4463143 10.3255135,56.3353413 L16.3378378,37.9062603 L10.979027,37.9062603 Z M27.0045946,48.5258549 C26.9719189,49.4407738 26.9392432,50.2903413 25.8609459,50.9438549 C25.1094054,51.3686386 24.4232162,51.3686386 24.1291351,51.3686386 C23.1161892,51.3686386 22.43,50.9111792 22.1359189,50.5190711 C21.7438108,49.9962603 21.7438108,49.2447197 21.7438108,48.4931792 L21.7438108,37.9062603 L16.6790811,37.9062603 L16.6790811,48.6238819 C16.6790811,51.4013143 16.8424595,52.4142603 17.7247027,53.6559359 C18.901027,55.2897197 20.9595946,55.4530981 22.0705676,55.4530981 C23.1815405,55.4530981 24.2925135,55.1916927 25.3054595,54.6688819 C26.2203784,54.2114224 26.5144595,53.8846657 27.0045946,53.3291792 L27.0045946,54.962963 L32.0366486,54.962963 L32.0366486,37.9062603 L27.0045946,37.9062603 L27.0045946,48.5258549 Z M45.1540811,54.5381792 C45.1540811,55.9432332 45.1540811,57.7403954 42.1152432,57.7403954 C41.331027,57.7403954 40.8408919,57.577017 40.5141351,57.4136386 C39.1744324,56.7928008 39.1090811,55.7145035 39.0437297,54.962963 L33.8482973,54.962963 C33.8482973,55.8778819 33.8156216,57.6096927 35.1553243,58.9493954 C36.0702432,59.89699 38.2921892,61.0733143 41.6904595,61.0733143 C43.2262162,61.0733143 45.7749189,60.8119089 47.5067297,59.7662873 C49.9900811,58.3285576 50.0554324,56.1392873 50.1207838,54.2767738 L50.1207838,37.8735846 L45.4154865,37.8735846 L45.4154865,39.4746927 C44.6639459,38.7558278 43.4549459,37.6121792 40.8408919,37.6121792 C35.188,37.6121792 33.5868919,42.5462062 33.5868919,45.9771522 C33.5868919,48.917963 34.4691351,51.5646927 36.7564324,53.0350981 C37.8674054,53.7866386 39.2397838,54.1460711 40.6448378,54.1460711 C42.9648108,54.1460711 44.1738108,53.3618549 45.1540811,52.7083413 L45.1540811,54.5381792 Z M41.7558108,41.3698819 C43.1935405,41.3045305 44.1084595,41.9907197 44.5005676,42.6115576 C45.0560541,43.4284494 45.1214054,45.1275846 45.1214054,45.9444765 C45.1214054,48.3624765 44.5332432,50.3556927 41.9845405,50.3556927 C38.8803514,50.3556927 38.7823243,47.3822062 38.7823243,45.9444765 C38.7823243,43.5264765 39.3704865,41.4679089 41.7558108,41.3698819 L41.7558108,41.3698819 Z M63.1401892,54.5381792 C63.1401892,55.9432332 63.1401892,57.7403954 60.1013514,57.7403954 C59.3171351,57.7403954 58.827,57.577017 58.5002432,57.4136386 C57.1605405,56.7928008 57.0951892,55.7145035 57.0298378,54.962963 L51.8344054,54.962963 C51.8344054,55.8778819 51.8017297,57.6096927 53.1414324,58.9493954 C54.0563514,59.89699 56.2782973,61.0733143 59.6765676,61.0733143 C61.2123243,61.0733143 63.761027,60.8119089 65.4928378,59.7662873 C67.9761892,58.3285576 68.0415405,56.1392873 68.1068919,54.2767738 L68.1068919,37.8735846 L63.4015946,37.8735846 L63.4015946,39.4746927 C62.6500541,38.7558278 61.4410541,37.6121792 58.827,37.6121792 C53.1741081,37.6121792 51.573,42.5462062 51.573,45.9771522 C51.573,48.917963 52.4552432,51.5646927 54.7425405,53.0350981 C55.8535135,53.7866386 57.2258919,54.1460711 58.6309459,54.1460711 C60.9509189,54.1460711 62.1599189,53.3618549 63.1401892,52.7083413 L63.1401892,54.5381792 Z M59.7419189,41.3698819 C61.1796486,41.3045305 62.0945676,41.9907197 62.4866757,42.6115576 C63.0421622,43.4284494 63.1075135,45.1275846 63.1075135,45.9444765 C63.1075135,48.3624765 62.5193514,50.3556927 59.9706486,50.3556927 C56.8664595,50.3556927 56.7684324,47.3822062 56.7684324,45.9444765 C56.7684324,43.5264765 57.3565946,41.4679089 59.7419189,41.3698819 L59.7419189,41.3698819 Z M70.7681081,31.8939359 L70.7681081,54.962963 L75.8001622,54.962963 L75.8001622,31.8939359 L70.7681081,31.8939359 Z M83.3954054,37.8735846 L78.4940541,37.8735846 L78.4940541,54.962963 L83.5261081,54.962963 L83.5261081,45.3563143 C83.5261081,43.1997197 84.244973,42.8402873 86.662973,42.4155035 L88.3294324,42.1540981 L88.3294324,37.7102062 C85.7153784,37.9716116 84.5063784,38.7231522 83.3954054,39.6707467 L83.3954054,37.8735846 Z" id="yugglr"></path>
                    <ellipse id="Oval-33-Copy" cx="61.6638462" cy="23.8194885" rx="5.10979219" ry="4.93059965"></ellipse>
                </g>
            </g>
        </g>
    </g>
</svg>