<?xml version="1.0" encoding="utf-8"?>
<!-- Generator: Adobe Illustrator 17.0.1, SVG Export Plug-In . SVG Version: 6.00 Build 0)  -->
<!DOCTYPE svg PUBLIC "-//W3C//DTD SVG 1.1//EN" "http://www.w3.org/Graphics/SVG/1.1/DTD/svg11.dtd">
<svg version="1.1" id="Layer_1" xmlns="http://www.w3.org/2000/svg" xmlns:xlink="http://www.w3.org/1999/xlink" x="0px" y="0px"
	 width="165.243px" height="52.304px" viewBox="0 0 165.243 52.304" enable-background="new 0 0 165.243 52.304"
	 xml:space="preserve">
<g>
	<g>
		<path fill-rule="evenodd" clip-rule="evenodd" fill="#FFFFFF" d="M23.19,4.768c0.918,0,1.662-0.712,1.662-1.589
			s-0.744-1.589-1.662-1.589s-1.662,0.712-1.662,1.589S22.272,4.768,23.19,4.768z M29.33,12.859c0,1.117,1.003,2.023,2.24,2.023
			c1.237,0,2.24-0.906,2.24-2.023c0-1.117-1.003-2.023-2.24-2.023C30.333,10.836,29.33,11.742,29.33,12.859z M28.464,8.958
			c1.037,0,1.878-0.776,1.878-1.734S29.501,5.49,28.464,5.49c-1.037,0-1.878,0.776-1.878,1.734S27.426,8.958,28.464,8.958z
			 M16.547,21.466c1.833,0.471,3.949-0.328,4.414-1.25c0.631-1.25,0.788-2.396,0.631-4.376c-0.14-1.752-1.839-3.282-3.784-3.126
			c-1.944,0.156-3.363,0.886-3.784,3.751S15.412,21.175,16.547,21.466z M5.201,8.958c1.037,0,1.878-0.776,1.878-1.734
			S6.239,5.49,5.201,5.49S3.323,6.267,3.323,7.224S4.164,8.958,5.201,8.958z M4.479,13.437c0-1.117-1.003-2.023-2.24-2.023
			C1.003,11.414,0,12.32,0,13.437c0,1.117,1.003,2.023,2.24,2.023C3.476,15.46,4.479,14.554,4.479,13.437z M10.692,5.201
			c1.037,0,1.878-0.776,1.878-1.734c0-0.958-0.841-1.734-1.878-1.734S8.814,2.51,8.814,3.468C8.814,4.425,9.654,5.201,10.692,5.201z
			 M33.573,17.091c-1.944-2.553-8.684,5.496-14.504,6.251c-8.922,1.158-15.45-7.97-17.657-5.001s10.018,6.844,10.72,13.128
			c0.615,5.499,0.2,6.687,0.871,10.288c0.795,4.262,1.674,6.223,4.19,8.38c0.501,0.43,1.035,0.766,1.576,1.039
			c-1.006-0.713-0.878-1.961-0.998-3.206c-0.536-5.571,0.659-9.796,0.659-9.796c0.259,8.094,5.099,13.134,5.981,13.987
			c0.001,0,0.006-0.001,0.006-0.001s-3.737-8.163,0.327-21.316C25.917,27.049,35.517,19.643,33.573,17.091z M16.76,2.89
			c0.958,0,1.734-0.647,1.734-1.445S17.718,0,16.76,0c-0.958,0-1.734,0.647-1.734,1.445S15.803,2.89,16.76,2.89z"/>
	</g>
</g>
<g>
	<g>
		<g>
			<path fill="#FFFFFF" d="M63.431,10.227l-5.566,11.716l-0.673,3.411h-0.224l-0.628-3.322l-5.746-11.805h-7.317l10.324,19.75
				v11.671h6.15V29.932l10.279-19.705H63.431z M88.716,34.825V19.204H82.88v14.499c-0.359,0.958-0.905,1.766-1.638,2.424
				c-0.734,0.659-1.654,0.987-2.761,0.987c-1.257,0-2.103-0.404-2.536-1.212c-0.434-0.808-0.651-2.124-0.651-3.95V19.204h-5.835
				v13.96c0,1.766,0.157,3.232,0.471,4.399c0.314,1.167,0.77,2.095,1.369,2.783c0.598,0.689,1.347,1.182,2.244,1.481
				c0.898,0.299,1.915,0.449,3.052,0.449c1.676,0,3.127-0.375,4.354-1.122c1.227-0.748,2.184-1.69,2.873-2.828h0.18l1.032,3.322
				h4.399c-0.24-0.957-0.419-2.027-0.539-3.209C88.775,37.256,88.716,36.052,88.716,34.825z M103.124,18.665
				c-3.651,0-6.434,1.032-8.349,3.097c-1.915,2.065-2.873,5.102-2.873,9.112c0,3.831,0.71,6.643,2.132,8.439
				c1.421,1.795,3.583,2.693,6.486,2.693c2.663,0,4.518-0.703,5.566-2.11h0.18v1.436c0,1.586-0.367,2.82-1.1,3.703
				c-0.734,0.882-2.117,1.324-4.152,1.324c-1.347,0-2.477-0.135-3.389-0.404c-0.913-0.269-1.713-0.539-2.401-0.808l-1.212,4.623
				c0.628,0.329,1.563,0.643,2.805,0.943c1.241,0.299,2.94,0.449,5.095,0.449c3.172,0,5.64-0.771,7.406-2.312
				c1.765-1.542,2.648-3.943,2.648-7.204V20.012c-0.958-0.359-2.193-0.673-3.703-0.943C106.752,18.8,105.039,18.665,103.124,18.665z
				 M106.132,34.286c-0.33,1.018-0.801,1.781-1.414,2.289c-0.614,0.509-1.489,0.763-2.626,0.763c-1.347,0-2.379-0.568-3.097-1.706
				c-0.718-1.137-1.077-2.798-1.077-4.982c0-2.453,0.419-4.242,1.257-5.364c0.837-1.122,2.004-1.683,3.501-1.683
				c1.376,0,2.528,0.195,3.456,0.584V34.286z M126.461,18.665c-3.651,0-6.434,1.032-8.349,3.097
				c-1.915,2.065-2.873,5.102-2.873,9.112c0,3.831,0.711,6.643,2.132,8.439c1.421,1.795,3.583,2.693,6.486,2.693
				c2.663,0,4.518-0.703,5.566-2.11h0.18v1.436c0,1.586-0.367,2.82-1.1,3.703c-0.734,0.882-2.117,1.324-4.152,1.324
				c-1.347,0-2.477-0.135-3.389-0.404c-0.913-0.269-1.713-0.539-2.401-0.808l-1.212,4.623c0.628,0.329,1.563,0.643,2.805,0.943
				c1.241,0.299,2.94,0.449,5.095,0.449c3.172,0,5.64-0.771,7.406-2.312c1.765-1.542,2.648-3.943,2.648-7.204V20.012
				c-0.958-0.359-2.192-0.673-3.703-0.943C130.089,18.8,128.376,18.665,126.461,18.665z M129.468,34.286
				c-0.33,1.018-0.801,1.781-1.414,2.289c-0.614,0.509-1.489,0.763-2.626,0.763c-1.347,0-2.379-0.568-3.097-1.706
				c-0.718-1.137-1.077-2.798-1.077-4.982c0-2.453,0.419-4.242,1.257-5.364c0.837-1.122,2.005-1.683,3.501-1.683
				c1.376,0,2.528,0.195,3.456,0.584V34.286z M148.146,37.024c-0.344,0.06-0.696,0.09-1.055,0.09c-0.599,0-1.032-0.239-1.302-0.718
				c-0.269-0.478-0.404-1.241-0.404-2.289v-23.88h-5.835v26.932c0,1.826,0.449,3.135,1.347,3.928c0.898,0.793,2.199,1.19,3.905,1.19
				c1.047,0,2.065-0.12,3.052-0.359c0.987-0.24,1.72-0.478,2.199-0.718l-0.628-4.578C148.916,36.83,148.489,36.965,148.146,37.024z
				 M162.594,18.71c-1.167,0-2.185,0.299-3.052,0.898c-0.868,0.599-1.556,1.452-2.065,2.559h-0.18l-0.673-2.963h-4.534v22.444h5.835
				V27.149c0.239-0.868,0.71-1.578,1.414-2.132c0.703-0.553,1.578-0.83,2.626-0.83c0.748,0,1.586,0.165,2.514,0.494l0.763-5.476
				C164.255,18.875,163.372,18.71,162.594,18.71z"/>
		</g>
	</g>
</g>
</svg>
